<svg width="734" height="544" viewBox="0 0 734 544" fill="none" xmlns="http://www.w3.org/2000/svg">
<g filter="url(#filter0_d_128_481)">
<rect x="126" y="15" width="574" height="208" rx="4" fill="#FF4C91"/>
<rect x="15" y="211" width="576" height="170" rx="4" fill="black"/>
<path d="M65.392 244.984V260.848H62.2V244.984H65.392ZM50.44 251.992C50.44 253.768 51.736 254.848 53.368 254.848C55.024 254.848 56.272 253.768 56.272 251.992C56.272 250.168 55.024 249.112 53.368 249.112C51.736 249.112 50.44 250.168 50.44 251.992ZM59.368 251.992C59.368 255.208 56.752 257.584 53.368 257.584C49.984 257.584 47.344 255.208 47.344 251.992C47.344 248.728 49.984 246.376 53.368 246.376C56.752 246.376 59.368 248.728 59.368 251.992ZM53.848 264.16H65.944V266.68H50.68V259.288H53.848V264.16ZM86.7501 244.984V261.088H83.5581V244.984H86.7501ZM81.9261 255.232L80.3181 257.752C77.8701 256.912 76.1901 255.28 75.2301 253.216C74.2221 255.448 72.4941 257.248 69.9261 258.136L68.3181 255.616C71.9901 254.368 73.5741 251.272 73.5741 248.32V246.184H76.7901V248.32C76.7901 251.248 78.3261 254.08 81.9261 255.232ZM75.2061 264.16H87.3021V266.68H72.0381V259.552H75.2061V264.16ZM106.716 253.672L103.596 253.36C104.1 251.392 104.172 249.904 104.172 248.44H92.0283V245.944H107.34V247.768C107.34 249.52 107.34 251.392 106.716 253.672ZM99.6123 264.688C102.612 264.688 104.316 264.088 104.316 262.912C104.316 261.712 102.612 261.112 99.6123 261.112C96.6363 261.112 94.9323 261.712 94.9323 262.912C94.9323 264.088 96.6363 264.688 99.6123 264.688ZM99.6123 258.736C104.388 258.736 107.46 260.32 107.46 262.912C107.46 265.48 104.388 267.064 99.6123 267.064C94.8603 267.064 91.7883 265.48 91.7883 262.912C91.7883 260.32 94.8603 258.736 99.6123 258.736ZM100.332 254.848H109.692V257.344H89.7963V254.848H97.1643V250.984H100.332V254.848ZM114.514 261.496V259H129.586V266.968H126.418V261.496H114.514ZM126.418 244.96L129.586 244.984V258.064H126.418V255.76H121.546V253.216H126.418V251.056H121.906C120.418 254.464 117.202 256.816 112.546 258.064L111.322 255.592C116.218 254.344 118.954 251.872 119.434 248.872H112.594V246.352H122.842C122.842 247.096 122.77 247.816 122.65 248.512H126.418V244.96ZM139.569 246.424C143.025 246.424 145.665 248.704 145.665 251.872C145.665 255.064 143.025 257.32 139.569 257.32C136.113 257.32 133.497 255.064 133.497 251.872C133.497 248.704 136.113 246.424 139.569 246.424ZM139.569 249.136C137.865 249.136 136.569 250.144 136.569 251.872C136.569 253.6 137.865 254.608 139.569 254.608C141.273 254.608 142.569 253.6 142.569 251.872C142.569 250.144 141.273 249.136 139.569 249.136ZM147.729 244.936H150.897V267.112H147.729V244.936ZM132.969 262.624L132.561 260.056C136.449 260.056 141.873 260.032 146.529 259.336L146.721 261.616C141.969 262.576 136.785 262.624 132.969 262.624ZM163.647 252.184C163.647 254.44 165.735 255.76 168.759 255.76C171.807 255.76 173.895 254.44 173.895 252.184C173.895 249.928 171.807 248.608 168.759 248.608C165.735 248.608 163.647 249.928 163.647 252.184ZM170.343 261.928H178.791V264.496H158.775V261.928H167.175V258.184C163.287 257.704 160.527 255.472 160.527 252.184C160.527 248.488 164.055 246.088 168.759 246.088C173.487 246.088 177.015 248.488 177.015 252.184C177.015 255.472 174.255 257.728 170.343 258.184V261.928ZM194.629 249.76V248.152H182.437V245.632H197.845V252.088H185.701V253.84H198.373V256.36H182.461V249.76H194.629ZM200.149 257.92V260.44H195.565V267.088H192.373V260.44H187.933V267.088H184.741V260.44H180.133V257.92H200.149ZM201.659 257.512C201.659 256.36 201.763 255.248 201.971 254.176C202.195 253.104 202.491 252.112 202.859 251.2C203.243 250.272 203.691 249.432 204.203 248.68C204.715 247.928 205.275 247.288 205.883 246.76H208.787C208.131 247.368 207.539 248.04 207.011 248.776C206.499 249.512 206.059 250.304 205.691 251.152C205.323 251.984 205.035 252.864 204.827 253.792C204.635 254.72 204.539 255.672 204.539 256.648V258.424C204.539 259.416 204.635 260.384 204.827 261.328C205.035 262.256 205.323 263.144 205.691 263.992C206.075 264.824 206.523 265.608 207.035 266.344C207.563 267.08 208.147 267.736 208.787 268.312H205.883C205.291 267.816 204.739 267.192 204.227 266.44C203.715 265.688 203.267 264.848 202.883 263.92C202.499 262.976 202.195 261.968 201.971 260.896C201.763 259.808 201.659 258.68 201.659 257.512ZM218.817 265C218.145 265 217.609 264.808 217.209 264.424C216.825 264.024 216.585 263.496 216.489 262.84H216.345C216.137 263.656 215.713 264.272 215.073 264.688C214.433 265.088 213.641 265.288 212.697 265.288C211.417 265.288 210.433 264.952 209.745 264.28C209.057 263.608 208.713 262.712 208.713 261.592C208.713 260.296 209.177 259.336 210.105 258.712C211.033 258.072 212.353 257.752 214.065 257.752H216.201V256.84C216.201 256.136 216.017 255.592 215.649 255.208C215.281 254.824 214.689 254.632 213.873 254.632C213.153 254.632 212.569 254.792 212.121 255.112C211.689 255.416 211.321 255.784 211.017 256.216L209.193 254.584C209.657 253.864 210.273 253.288 211.041 252.856C211.809 252.408 212.825 252.184 214.089 252.184C215.785 252.184 217.073 252.568 217.953 253.336C218.833 254.104 219.273 255.208 219.273 256.648V262.552H220.521V265H218.817ZM213.729 263.056C214.417 263.056 215.001 262.904 215.481 262.6C215.961 262.296 216.201 261.848 216.201 261.256V259.6H214.233C212.633 259.6 211.833 260.112 211.833 261.136V261.544C211.833 262.056 211.993 262.44 212.313 262.696C212.649 262.936 213.121 263.056 213.729 263.056ZM222.287 265V252.472H225.359V255.064H225.479C225.559 254.728 225.679 254.408 225.839 254.104C226.015 253.784 226.239 253.504 226.511 253.264C226.783 253.024 227.103 252.832 227.471 252.688C227.855 252.544 228.295 252.472 228.791 252.472H229.463V255.376H228.503C227.463 255.376 226.679 255.528 226.151 255.832C225.623 256.136 225.359 256.632 225.359 257.32V265H222.287ZM241.894 266.056C241.894 266.712 241.774 267.288 241.534 267.784C241.31 268.296 240.934 268.72 240.406 269.056C239.878 269.392 239.198 269.648 238.366 269.824C237.534 270 236.518 270.088 235.318 270.088C234.262 270.088 233.366 270.016 232.63 269.872C231.894 269.744 231.286 269.552 230.806 269.296C230.342 269.056 230.006 268.752 229.798 268.384C229.59 268.016 229.486 267.6 229.486 267.136C229.486 266.432 229.678 265.88 230.062 265.48C230.462 265.096 231.014 264.848 231.718 264.736V264.472C231.206 264.344 230.806 264.096 230.518 263.728C230.246 263.344 230.11 262.896 230.11 262.384C230.11 262.064 230.174 261.784 230.302 261.544C230.43 261.288 230.598 261.072 230.806 260.896C231.03 260.72 231.278 260.576 231.55 260.464C231.822 260.336 232.11 260.24 232.414 260.176V260.08C231.646 259.728 231.07 259.24 230.686 258.616C230.318 257.992 230.134 257.264 230.134 256.432C230.134 255.152 230.574 254.128 231.454 253.36C232.334 252.576 233.622 252.184 235.318 252.184C235.702 252.184 236.078 252.208 236.446 252.256C236.83 252.304 237.182 252.384 237.502 252.496V252.088C237.502 250.872 238.094 250.264 239.278 250.264H241.222V252.616H238.558V252.952C239.214 253.32 239.702 253.8 240.022 254.392C240.342 254.984 240.502 255.664 240.502 256.432C240.502 257.696 240.062 258.712 239.182 259.48C238.318 260.248 237.03 260.632 235.318 260.632C234.582 260.632 233.942 260.56 233.398 260.416C233.158 260.528 232.95 260.68 232.774 260.872C232.598 261.048 232.51 261.272 232.51 261.544C232.51 262.168 233.054 262.48 234.142 262.48H237.502C239.038 262.48 240.15 262.8 240.838 263.44C241.542 264.064 241.894 264.936 241.894 266.056ZM239.014 266.416C239.014 266.016 238.854 265.704 238.534 265.48C238.214 265.256 237.662 265.144 236.878 265.144H232.606C232.174 265.464 231.958 265.896 231.958 266.44C231.958 266.92 232.158 267.296 232.558 267.568C232.958 267.84 233.638 267.976 234.598 267.976H236.134C237.142 267.976 237.87 267.848 238.318 267.592C238.782 267.336 239.014 266.944 239.014 266.416ZM235.318 258.544C236.822 258.544 237.574 257.904 237.574 256.624V256.216C237.574 254.936 236.822 254.296 235.318 254.296C233.814 254.296 233.062 254.936 233.062 256.216V256.624C233.062 257.904 233.814 258.544 235.318 258.544ZM250.343 262.912H250.223C250.111 263.232 249.959 263.536 249.767 263.824C249.591 264.096 249.359 264.344 249.071 264.568C248.799 264.792 248.463 264.968 248.063 265.096C247.679 265.224 247.231 265.288 246.719 265.288C245.423 265.288 244.431 264.864 243.743 264.016C243.055 263.168 242.711 261.96 242.711 260.392V252.472H245.783V260.08C245.783 260.944 245.951 261.608 246.287 262.072C246.623 262.52 247.159 262.744 247.895 262.744C248.199 262.744 248.495 262.704 248.783 262.624C249.087 262.544 249.351 262.424 249.575 262.264C249.799 262.088 249.983 261.88 250.127 261.64C250.271 261.384 250.343 261.088 250.343 260.752V252.472H253.415V265H250.343V262.912ZM256.244 265V252.472H259.316V254.56H259.436C259.676 253.904 260.06 253.344 260.588 252.88C261.116 252.416 261.852 252.184 262.796 252.184C263.66 252.184 264.404 252.392 265.028 252.808C265.652 253.224 266.116 253.856 266.42 254.704H266.468C266.692 254 267.132 253.408 267.788 252.928C268.46 252.432 269.3 252.184 270.308 252.184C271.54 252.184 272.484 252.608 273.14 253.456C273.812 254.304 274.148 255.512 274.148 257.08V265H271.076V257.392C271.076 255.6 270.404 254.704 269.06 254.704C268.756 254.704 268.46 254.752 268.172 254.848C267.9 254.928 267.652 255.056 267.428 255.232C267.22 255.392 267.052 255.6 266.924 255.856C266.796 256.096 266.732 256.384 266.732 256.72V265H263.66V257.392C263.66 255.6 262.988 254.704 261.644 254.704C261.356 254.704 261.068 254.752 260.78 254.848C260.508 254.928 260.26 255.056 260.036 255.232C259.828 255.392 259.652 255.6 259.508 255.856C259.38 256.096 259.316 256.384 259.316 256.72V265H256.244ZM281.893 265.288C280.965 265.288 280.133 265.136 279.397 264.832C278.677 264.512 278.061 264.072 277.549 263.512C277.053 262.936 276.669 262.248 276.397 261.448C276.125 260.632 275.989 259.72 275.989 258.712C275.989 257.72 276.117 256.824 276.373 256.024C276.645 255.224 277.029 254.544 277.525 253.984C278.021 253.408 278.629 252.968 279.349 252.664C280.069 252.344 280.885 252.184 281.797 252.184C282.773 252.184 283.621 252.352 284.341 252.688C285.061 253.024 285.653 253.48 286.117 254.056C286.581 254.632 286.925 255.304 287.149 256.072C287.389 256.824 287.509 257.632 287.509 258.496V259.504H279.181V259.816C279.181 260.728 279.437 261.464 279.949 262.024C280.461 262.568 281.221 262.84 282.229 262.84C282.997 262.84 283.621 262.68 284.101 262.36C284.597 262.04 285.037 261.632 285.421 261.136L287.077 262.984C286.565 263.704 285.861 264.272 284.965 264.688C284.085 265.088 283.061 265.288 281.893 265.288ZM281.845 254.488C281.029 254.488 280.381 254.76 279.901 255.304C279.421 255.848 279.181 256.552 279.181 257.416V257.608H284.317V257.392C284.317 256.528 284.101 255.832 283.669 255.304C283.253 254.76 282.645 254.488 281.845 254.488ZM289.492 265V252.472H292.564V254.56H292.684C292.94 253.888 293.34 253.328 293.884 252.88C294.444 252.416 295.212 252.184 296.188 252.184C297.484 252.184 298.476 252.608 299.164 253.456C299.852 254.304 300.196 255.512 300.196 257.08V265H297.124V257.392C297.124 256.496 296.964 255.824 296.644 255.376C296.324 254.928 295.796 254.704 295.06 254.704C294.74 254.704 294.428 254.752 294.124 254.848C293.836 254.928 293.572 255.056 293.332 255.232C293.108 255.392 292.924 255.6 292.78 255.856C292.636 256.096 292.564 256.384 292.564 256.72V265H289.492ZM306.793 265C305.737 265 304.929 264.728 304.369 264.184C303.825 263.624 303.553 262.832 303.553 261.808V254.92H301.705V252.472H302.665C303.129 252.472 303.441 252.368 303.601 252.16C303.777 251.936 303.865 251.608 303.865 251.176V249.04H306.625V252.472H309.193V254.92H306.625V262.552H309.001V265H306.793ZM318.626 262.912H318.506C318.394 263.232 318.242 263.536 318.05 263.824C317.874 264.096 317.642 264.344 317.354 264.568C317.082 264.792 316.746 264.968 316.346 265.096C315.962 265.224 315.514 265.288 315.002 265.288C313.706 265.288 312.714 264.864 312.026 264.016C311.338 263.168 310.994 261.96 310.994 260.392V252.472H314.066V260.08C314.066 260.944 314.234 261.608 314.57 262.072C314.906 262.52 315.442 262.744 316.178 262.744C316.482 262.744 316.778 262.704 317.066 262.624C317.37 262.544 317.634 262.424 317.858 262.264C318.082 262.088 318.266 261.88 318.41 261.64C318.554 261.384 318.626 261.088 318.626 260.752V252.472H321.698V265H318.626V262.912ZM324.527 265V252.472H327.599V254.56H327.719C327.959 253.904 328.343 253.344 328.871 252.88C329.399 252.416 330.135 252.184 331.079 252.184C331.943 252.184 332.687 252.392 333.311 252.808C333.935 253.224 334.399 253.856 334.703 254.704H334.751C334.975 254 335.415 253.408 336.071 252.928C336.743 252.432 337.583 252.184 338.591 252.184C339.823 252.184 340.767 252.608 341.423 253.456C342.095 254.304 342.431 255.512 342.431 257.08V265H339.359V257.392C339.359 255.6 338.687 254.704 337.343 254.704C337.039 254.704 336.743 254.752 336.455 254.848C336.183 254.928 335.935 255.056 335.711 255.232C335.503 255.392 335.335 255.6 335.207 255.856C335.079 256.096 335.015 256.384 335.015 256.72V265H331.943V257.392C331.943 255.6 331.271 254.704 329.927 254.704C329.639 254.704 329.351 254.752 329.063 254.848C328.791 254.928 328.543 255.056 328.319 255.232C328.111 255.392 327.935 255.6 327.791 255.856C327.663 256.096 327.599 256.384 327.599 256.72V265H324.527ZM359.28 265C358.608 265 358.072 264.808 357.672 264.424C357.288 264.024 357.048 263.496 356.952 262.84H356.808C356.6 263.656 356.176 264.272 355.536 264.688C354.896 265.088 354.104 265.288 353.16 265.288C351.88 265.288 350.896 264.952 350.208 264.28C349.52 263.608 349.176 262.712 349.176 261.592C349.176 260.296 349.64 259.336 350.568 258.712C351.496 258.072 352.816 257.752 354.528 257.752H356.664V256.84C356.664 256.136 356.48 255.592 356.112 255.208C355.744 254.824 355.152 254.632 354.336 254.632C353.616 254.632 353.032 254.792 352.584 255.112C352.152 255.416 351.784 255.784 351.48 256.216L349.656 254.584C350.12 253.864 350.736 253.288 351.504 252.856C352.272 252.408 353.288 252.184 354.552 252.184C356.248 252.184 357.536 252.568 358.416 253.336C359.296 254.104 359.736 255.208 359.736 256.648V262.552H360.984V265H359.28ZM354.192 263.056C354.88 263.056 355.464 262.904 355.944 262.6C356.424 262.296 356.664 261.848 356.664 261.256V259.6H354.696C353.096 259.6 352.296 260.112 352.296 261.136V261.544C352.296 262.056 352.456 262.44 352.776 262.696C353.112 262.936 353.584 263.056 354.192 263.056ZM370.526 262.912H370.406C370.182 263.632 369.758 264.208 369.134 264.64C368.51 265.072 367.782 265.288 366.95 265.288C365.366 265.288 364.15 264.72 363.302 263.584C362.47 262.448 362.054 260.824 362.054 258.712C362.054 256.616 362.47 255.008 363.302 253.888C364.15 252.752 365.366 252.184 366.95 252.184C367.782 252.184 368.51 252.4 369.134 252.832C369.758 253.248 370.182 253.816 370.406 254.536H370.526V247.24H373.598V265H370.526V262.912ZM367.934 262.744C368.67 262.744 369.286 262.568 369.782 262.216C370.278 261.864 370.526 261.36 370.526 260.704V256.72C370.526 256.112 370.278 255.624 369.782 255.256C369.286 254.888 368.67 254.704 367.934 254.704C367.134 254.704 366.486 254.976 365.99 255.52C365.51 256.048 365.27 256.76 365.27 257.656V259.816C365.27 260.712 365.51 261.424 365.99 261.952C366.486 262.48 367.134 262.744 367.934 262.744ZM381.372 247.24H384.444V254.56H384.564C384.82 253.888 385.22 253.328 385.764 252.88C386.324 252.416 387.092 252.184 388.068 252.184C389.364 252.184 390.356 252.608 391.044 253.456C391.732 254.304 392.076 255.512 392.076 257.08V265H389.004V257.392C389.004 256.496 388.844 255.824 388.524 255.376C388.204 254.928 387.676 254.704 386.94 254.704C386.62 254.704 386.308 254.752 386.004 254.848C385.716 254.928 385.452 255.056 385.212 255.232C384.988 255.392 384.804 255.6 384.66 255.856C384.516 256.096 384.444 256.384 384.444 256.72V265H381.372V247.24ZM399.73 265.288C398.834 265.288 398.026 265.136 397.306 264.832C396.602 264.528 395.994 264.088 395.482 263.512C394.986 262.936 394.602 262.248 394.33 261.448C394.058 260.632 393.922 259.72 393.922 258.712C393.922 257.704 394.058 256.8 394.33 256C394.602 255.2 394.986 254.52 395.482 253.96C395.994 253.384 396.602 252.944 397.306 252.64C398.026 252.336 398.834 252.184 399.73 252.184C400.626 252.184 401.434 252.336 402.154 252.64C402.874 252.944 403.482 253.384 403.978 253.96C404.49 254.52 404.882 255.2 405.154 256C405.426 256.8 405.562 257.704 405.562 258.712C405.562 259.72 405.426 260.632 405.154 261.448C404.882 262.248 404.49 262.936 403.978 263.512C403.482 264.088 402.874 264.528 402.154 264.832C401.434 265.136 400.626 265.288 399.73 265.288ZM399.73 262.816C400.546 262.816 401.186 262.568 401.65 262.072C402.114 261.576 402.346 260.848 402.346 259.888V257.56C402.346 256.616 402.114 255.896 401.65 255.4C401.186 254.904 400.546 254.656 399.73 254.656C398.93 254.656 398.298 254.904 397.834 255.4C397.37 255.896 397.138 256.616 397.138 257.56V259.888C397.138 260.848 397.37 261.576 397.834 262.072C398.298 262.568 398.93 262.816 399.73 262.816ZM407.565 265V252.472H410.637V254.56H410.757C410.997 253.904 411.381 253.344 411.909 252.88C412.437 252.416 413.173 252.184 414.117 252.184C414.981 252.184 415.725 252.392 416.349 252.808C416.973 253.224 417.437 253.856 417.741 254.704H417.789C418.013 254 418.453 253.408 419.109 252.928C419.781 252.432 420.621 252.184 421.629 252.184C422.861 252.184 423.805 252.608 424.461 253.456C425.133 254.304 425.469 255.512 425.469 257.08V265H422.397V257.392C422.397 255.6 421.725 254.704 420.381 254.704C420.077 254.704 419.781 254.752 419.493 254.848C419.221 254.928 418.973 255.056 418.749 255.232C418.541 255.392 418.373 255.6 418.245 255.856C418.117 256.096 418.053 256.384 418.053 256.72V265H414.981V257.392C414.981 255.6 414.309 254.704 412.965 254.704C412.677 254.704 412.389 254.752 412.101 254.848C411.829 254.928 411.581 255.056 411.357 255.232C411.149 255.392 410.973 255.6 410.829 255.856C410.701 256.096 410.637 256.384 410.637 256.72V265H407.565ZM429.686 250.648C429.046 250.648 428.582 250.504 428.294 250.216C428.022 249.928 427.886 249.56 427.886 249.112V248.632C427.886 248.184 428.022 247.816 428.294 247.528C428.582 247.24 429.046 247.096 429.686 247.096C430.31 247.096 430.766 247.24 431.054 247.528C431.342 247.816 431.486 248.184 431.486 248.632V249.112C431.486 249.56 431.342 249.928 431.054 250.216C430.766 250.504 430.31 250.648 429.686 250.648ZM428.15 252.472H431.222V265H428.15V252.472ZM434.063 265V252.472H437.135V254.56H437.255C437.511 253.888 437.911 253.328 438.455 252.88C439.015 252.416 439.783 252.184 440.759 252.184C442.055 252.184 443.047 252.608 443.735 253.456C444.423 254.304 444.767 255.512 444.767 257.08V265H441.695V257.392C441.695 256.496 441.535 255.824 441.215 255.376C440.895 254.928 440.367 254.704 439.631 254.704C439.311 254.704 438.999 254.752 438.695 254.848C438.407 254.928 438.143 255.056 437.903 255.232C437.679 255.392 437.495 255.6 437.351 255.856C437.207 256.096 437.135 256.384 437.135 256.72V265H434.063ZM452.516 265.288C451.588 265.288 450.756 265.136 450.02 264.832C449.3 264.512 448.684 264.072 448.172 263.512C447.676 262.936 447.292 262.248 447.02 261.448C446.748 260.632 446.612 259.72 446.612 258.712C446.612 257.72 446.74 256.824 446.996 256.024C447.268 255.224 447.652 254.544 448.148 253.984C448.644 253.408 449.252 252.968 449.972 252.664C450.692 252.344 451.508 252.184 452.42 252.184C453.396 252.184 454.244 252.352 454.964 252.688C455.684 253.024 456.276 253.48 456.74 254.056C457.204 254.632 457.548 255.304 457.772 256.072C458.012 256.824 458.132 257.632 458.132 258.496V259.504H449.804V259.816C449.804 260.728 450.06 261.464 450.572 262.024C451.084 262.568 451.844 262.84 452.852 262.84C453.62 262.84 454.244 262.68 454.724 262.36C455.22 262.04 455.66 261.632 456.044 261.136L457.7 262.984C457.188 263.704 456.484 264.272 455.588 264.688C454.708 265.088 453.684 265.288 452.516 265.288ZM452.468 254.488C451.652 254.488 451.004 254.76 450.524 255.304C450.044 255.848 449.804 256.552 449.804 257.416V257.608H454.94V257.392C454.94 256.528 454.724 255.832 454.292 255.304C453.876 254.76 453.268 254.488 452.468 254.488ZM460.115 265V252.472H463.187V254.56H463.307C463.547 253.904 463.931 253.344 464.459 252.88C464.987 252.416 465.723 252.184 466.667 252.184C467.531 252.184 468.275 252.392 468.899 252.808C469.523 253.224 469.987 253.856 470.291 254.704H470.339C470.563 254 471.003 253.408 471.659 252.928C472.331 252.432 473.171 252.184 474.179 252.184C475.411 252.184 476.355 252.608 477.011 253.456C477.683 254.304 478.019 255.512 478.019 257.08V265H474.947V257.392C474.947 255.6 474.275 254.704 472.931 254.704C472.627 254.704 472.331 254.752 472.043 254.848C471.771 254.928 471.523 255.056 471.299 255.232C471.091 255.392 470.923 255.6 470.795 255.856C470.667 256.096 470.603 256.384 470.603 256.72V265H467.531V257.392C467.531 255.6 466.859 254.704 465.515 254.704C465.227 254.704 464.939 254.752 464.651 254.848C464.379 254.928 464.131 255.056 463.907 255.232C463.699 255.392 463.523 255.6 463.379 255.856C463.251 256.096 463.187 256.384 463.187 256.72V265H460.115ZM485.811 257.512C485.811 258.68 485.699 259.808 485.475 260.896C485.267 261.968 484.971 262.976 484.587 263.92C484.203 264.848 483.755 265.688 483.243 266.44C482.731 267.192 482.179 267.816 481.587 268.312H478.683C479.323 267.736 479.899 267.08 480.411 266.344C480.939 265.608 481.387 264.824 481.755 263.992C482.139 263.144 482.427 262.256 482.619 261.328C482.827 260.384 482.931 259.416 482.931 258.424V256.648C482.931 255.672 482.827 254.72 482.619 253.792C482.427 252.864 482.147 251.984 481.779 251.152C481.411 250.304 480.963 249.512 480.435 248.776C479.923 248.04 479.339 247.368 478.683 246.76H481.587C482.195 247.288 482.755 247.928 483.267 248.68C483.779 249.432 484.219 250.272 484.587 251.2C484.971 252.112 485.267 253.104 485.475 254.176C485.699 255.248 485.811 256.36 485.811 257.512ZM49.816 304.264C49.16 304.264 48.672 304.104 48.352 303.784C48.048 303.448 47.896 303.024 47.896 302.512V302.08C47.896 301.568 48.048 301.144 48.352 300.808C48.672 300.472 49.16 300.304 49.816 300.304C50.488 300.304 50.976 300.472 51.28 300.808C51.584 301.144 51.736 301.568 51.736 302.08V302.512C51.736 303.024 51.584 303.448 51.28 303.784C50.976 304.104 50.488 304.264 49.816 304.264ZM49.816 295.168C49.16 295.168 48.672 295.008 48.352 294.688C48.048 294.352 47.896 293.928 47.896 293.416V292.984C47.896 292.472 48.048 292.048 48.352 291.712C48.672 291.376 49.16 291.208 49.816 291.208C50.488 291.208 50.976 291.376 51.28 291.712C51.584 292.048 51.736 292.472 51.736 292.984V293.416C51.736 293.928 51.584 294.352 51.28 294.688C50.976 295.008 50.488 295.168 49.816 295.168ZM63.5845 298.864V303.688H76.5685V305.296H61.6165V298.864H63.5845ZM69.8725 295.504H78.6325V297.112H59.1685V295.504H67.9285V292.408H61.7845V285.064H63.7285V290.824H76.4005V292.408H69.8725V295.504ZM94.0626 291.592V296.728H92.2146V284.68H94.0626V289.984H96.7746V284.272H98.6706V297.448H96.7746V291.592H94.0626ZM91.0386 294.616L90.0066 296.128C88.0386 295.336 86.6466 293.824 85.9266 291.976C85.1826 294.064 83.7186 295.792 81.6546 296.704L80.5746 295.192C83.4066 293.992 84.9426 291.28 84.9426 288.592V287.632H81.0066V286.048H90.6546V287.632H86.8626V288.592C86.8626 291.232 88.3506 293.56 91.0386 294.616ZM91.5666 304.216C94.8306 304.216 96.8226 303.352 96.8226 301.84C96.8226 300.352 94.8306 299.488 91.5666 299.488C88.3506 299.488 86.3346 300.352 86.3346 301.84C86.3346 303.352 88.3506 304.216 91.5666 304.216ZM91.5666 297.952C96.0066 297.952 98.7666 299.368 98.7666 301.84C98.7666 304.312 96.0066 305.752 91.5666 305.752C87.1506 305.752 84.3906 304.312 84.3906 301.84C84.3906 299.368 87.1506 297.952 91.5666 297.952ZM106.733 299.224C108.413 299.224 109.517 297.04 109.517 293.512C109.517 290.056 108.413 287.872 106.733 287.872C105.005 287.872 103.925 290.056 103.925 293.512C103.925 297.04 105.005 299.224 106.733 299.224ZM114.005 292.624V284.728H115.877V304.72H114.005V294.232H111.293C111.125 298.456 109.373 301.048 106.733 301.048C103.925 301.048 102.125 298.168 102.125 293.512C102.125 288.928 103.925 286.048 106.733 286.048C109.325 286.048 111.053 288.568 111.293 292.624H114.005ZM118.277 284.248H120.149V305.776H118.277V284.248ZM130.755 286.096V289.96C130.755 293.872 133.203 297.784 136.323 299.272L135.171 300.832C132.723 299.608 130.755 297.04 129.771 294.016C128.835 297.208 126.843 299.92 124.419 301.216L123.219 299.656C126.339 298.096 128.787 293.944 128.787 289.96V286.096H130.755ZM138.987 284.248H140.955V305.8H138.987V293.152H133.995V291.544H138.987V284.248ZM155.289 299.176C157.329 299.176 158.769 296.92 158.769 293.416C158.769 289.936 157.329 287.68 155.289 287.68C153.225 287.68 151.785 289.936 151.785 293.416C151.785 296.92 153.225 299.176 155.289 299.176ZM165.297 284.248H167.265V305.824H165.297V294.064H160.617C160.425 298.288 158.289 300.928 155.289 300.928C152.145 300.928 149.913 298 149.913 293.416C149.913 288.832 152.145 285.904 155.289 285.904C158.193 285.904 160.305 288.424 160.617 292.456H165.297V284.248ZM182.983 290.176H186.847V284.272H188.839V299.944H186.847V291.784H182.983V290.176ZM184.807 294.376L184.999 295.984C183.079 296.416 181.495 296.464 179.143 296.464H178.039V286.048H184.015V287.632H179.983V294.856C181.807 294.832 183.175 294.76 184.807 294.376ZM177.151 294.4L177.319 296.008C175.375 296.464 173.791 296.464 172.423 296.464H171.463V286.048H176.887V287.632H173.407V294.856C174.463 294.808 175.735 294.712 177.151 294.4ZM176.407 303.688H189.367V305.296H174.439V298.624H176.407V303.688ZM204.421 286.12V289.984C204.421 293.776 206.869 297.688 209.893 299.2L208.669 300.76C206.389 299.536 204.445 297.016 203.461 294.064C202.525 297.208 200.533 299.896 198.109 301.192L196.933 299.608C200.029 298.024 202.477 293.896 202.477 289.984V286.12H204.421ZM217.309 292.984V294.616H213.757V305.776H211.789V284.272H213.757V292.984H217.309ZM231.227 293.656L231.419 295.264C228.011 295.84 225.155 295.96 221.195 295.96H219.491V289.792H227.195V287.032H219.443V285.424H229.139V291.304H221.435V294.352C225.203 294.352 227.963 294.232 231.227 293.656ZM223.619 299.704V303.904H233.339V299.704H223.619ZM221.699 305.488V298.144H235.259V305.488H221.699ZM238.451 289.768V291.4H235.259V297.088H233.291V284.272H235.259V289.768H238.451ZM246.897 285.832C250.257 285.832 252.657 287.872 252.657 290.896C252.657 293.896 250.257 295.96 246.897 295.96C243.561 295.96 241.137 293.896 241.137 290.896C241.137 287.872 243.561 285.832 246.897 285.832ZM246.897 287.512C244.689 287.512 243.057 288.88 243.057 290.896C243.057 292.888 244.689 294.28 246.897 294.28C249.129 294.28 250.737 292.888 250.737 290.896C250.737 288.88 249.129 287.512 246.897 287.512ZM255.489 284.248H257.457V305.824H255.489V284.248ZM240.297 301.096L240.057 299.44C243.969 299.44 249.369 299.416 254.073 298.696L254.241 300.16C249.393 301.048 244.185 301.096 240.297 301.096ZM268.143 294.712L267.399 293.152C271.143 292.6 274.863 290.128 274.863 287.296V287.176H268.071V285.592H283.791V287.176H277.047V287.296C277.047 290.128 280.767 292.6 284.559 293.152L283.791 294.712C280.455 294.136 277.263 292.336 275.967 289.792C274.647 292.336 271.479 294.136 268.143 294.712ZM285.687 296.512L285.711 298.12H276.903V305.776H274.935V298.12H266.247V296.512H285.687ZM300.061 294.664L299.125 296.2C296.677 295.408 294.829 293.704 293.917 291.568C293.005 294.016 291.061 295.936 288.493 296.848L287.485 295.288C290.725 294.16 292.885 291.376 292.885 288.28V287.44H288.061V285.856H299.605V287.44H294.853V288.28C294.853 291.088 296.893 293.608 300.061 294.664ZM297.445 304.192C300.613 304.192 302.557 303.304 302.557 301.768C302.557 300.256 300.613 299.368 297.445 299.368C294.229 299.368 292.309 300.256 292.309 301.768C292.309 303.304 294.229 304.192 297.445 304.192ZM297.445 297.808C301.813 297.808 304.525 299.272 304.525 301.768C304.525 304.288 301.813 305.752 297.445 305.752C293.029 305.752 290.341 304.288 290.341 301.768C290.341 299.272 293.029 297.808 297.445 297.808ZM304.285 289.696H307.477V291.352H304.285V297.256H302.317V284.272H304.285V289.696ZM313.812 299.224C315.492 299.224 316.596 297.04 316.596 293.512C316.596 290.056 315.492 287.872 313.812 287.872C312.084 287.872 311.004 290.056 311.004 293.512C311.004 297.04 312.084 299.224 313.812 299.224ZM321.084 292.624V284.728H322.956V304.72H321.084V294.232H318.372C318.204 298.456 316.452 301.048 313.812 301.048C311.004 301.048 309.204 298.168 309.204 293.512C309.204 288.928 311.004 286.048 313.812 286.048C316.404 286.048 318.132 288.568 318.372 292.624H321.084ZM325.356 284.248H327.228V305.776H325.356V284.248ZM337.962 288.472V298.84C340.842 298.816 342.882 298.696 345.234 298.192L345.402 299.824C342.834 300.376 340.65 300.472 337.434 300.472H336.018V286.864H344.034V288.472H337.962ZM351.642 284.248H353.538V305.776H351.642V294.496H348.594V304.696H346.746V284.728H348.594V292.888H351.642V284.248ZM361.936 299.152C363.592 299.152 364.792 297.784 364.792 295.864C364.792 293.992 363.592 292.624 361.936 292.624C360.256 292.624 359.08 293.992 359.08 295.864C359.08 297.784 360.256 299.152 361.936 299.152ZM361.936 290.968C364.6 290.968 366.544 292.984 366.544 295.864C366.544 298.792 364.6 300.784 361.936 300.784C359.272 300.784 357.328 298.792 357.328 295.864C357.328 292.984 359.272 290.968 361.936 290.968ZM362.896 284.872V287.92H367.264V289.528H356.584V287.92H360.952V284.872H362.896ZM372.952 284.224H374.848V305.752H372.952V294.928H370.192V304.72H368.344V284.728H370.192V293.32H372.952V284.224ZM384.982 292.744C384.39 292.744 383.95 292.6 383.662 292.312C383.39 292.024 383.254 291.656 383.254 291.208V290.8C383.254 290.416 383.31 290.016 383.422 289.6C383.55 289.184 383.718 288.776 383.926 288.376C384.134 287.976 384.382 287.592 384.67 287.224C384.958 286.856 385.278 286.528 385.63 286.24H387.478C386.982 286.736 386.566 287.224 386.23 287.704C385.91 288.168 385.67 288.688 385.51 289.264C385.926 289.344 386.23 289.528 386.422 289.816C386.614 290.088 386.71 290.408 386.71 290.776V291.208C386.71 291.656 386.566 292.024 386.278 292.312C386.006 292.6 385.574 292.744 384.982 292.744ZM390.938 294.712L390.194 293.152C393.938 292.6 397.658 290.128 397.658 287.296V287.176H390.866V285.592H406.586V287.176H399.842V287.296C399.842 290.128 403.562 292.6 407.354 293.152L406.586 294.712C403.25 294.136 400.058 292.336 398.762 289.792C397.442 292.336 394.274 294.136 390.938 294.712ZM408.482 296.512L408.506 298.12H399.698V305.776H397.73V298.12H389.042V296.512H408.482ZM422.856 294.664L421.92 296.2C419.472 295.408 417.624 293.704 416.712 291.568C415.8 294.016 413.856 295.936 411.288 296.848L410.28 295.288C413.52 294.16 415.68 291.376 415.68 288.28V287.44H410.856V285.856H422.4V287.44H417.648V288.28C417.648 291.088 419.688 293.608 422.856 294.664ZM420.24 304.192C423.408 304.192 425.352 303.304 425.352 301.768C425.352 300.256 423.408 299.368 420.24 299.368C417.024 299.368 415.104 300.256 415.104 301.768C415.104 303.304 417.024 304.192 420.24 304.192ZM420.24 297.808C424.608 297.808 427.32 299.272 427.32 301.768C427.32 304.288 424.608 305.752 420.24 305.752C415.824 305.752 413.136 304.288 413.136 301.768C413.136 299.272 415.824 297.808 420.24 297.808ZM427.08 289.696H430.272V291.352H427.08V297.256H425.112V284.272H427.08V289.696ZM433.942 286C434.55 286 434.99 286.144 435.262 286.432C435.534 286.72 435.67 287.096 435.67 287.56V287.968C435.67 288.352 435.614 288.752 435.502 289.168C435.39 289.568 435.23 289.968 435.022 290.368C434.814 290.768 434.566 291.152 434.278 291.52C433.99 291.888 433.67 292.216 433.318 292.504H431.446C431.958 292.008 432.374 291.52 432.694 291.04C433.014 290.56 433.262 290.04 433.438 289.48C433.022 289.4 432.71 289.224 432.502 288.952C432.31 288.68 432.214 288.36 432.214 287.992V287.56C432.214 287.096 432.35 286.72 432.622 286.432C432.894 286.144 433.334 286 433.942 286ZM453.483 284.248H455.451V305.824H453.483V284.248ZM444.099 285.904C447.291 285.904 449.571 288.832 449.571 293.416C449.571 298 447.291 300.928 444.099 300.928C440.907 300.928 438.627 298 438.627 293.416C438.627 288.832 440.907 285.904 444.099 285.904ZM444.099 287.68C441.987 287.68 440.499 289.936 440.499 293.416C440.499 296.92 441.987 299.176 444.099 299.176C446.187 299.176 447.675 296.92 447.675 293.416C447.675 289.936 446.187 287.68 444.099 287.68ZM469.88 299.176C471.944 299.176 473.408 296.92 473.408 293.416C473.408 289.936 471.944 287.68 469.88 287.68C467.792 287.68 466.328 289.936 466.328 293.416C466.328 296.92 467.792 299.176 469.88 299.176ZM469.88 285.904C473.048 285.904 475.28 288.832 475.28 293.416C475.28 298 473.048 300.928 469.88 300.928C466.712 300.928 464.456 298 464.456 293.416C464.456 288.832 466.712 285.904 469.88 285.904ZM484.256 292.84V294.496H480.704V305.776H478.736V284.272H480.704V292.84H484.256ZM488.815 286.336V298.528C492.055 298.528 495.391 298.24 498.967 297.52L499.183 299.2C495.439 299.968 492.055 300.208 488.623 300.208H486.847V286.336H488.815ZM501.175 284.248H503.143V305.752H501.175V284.248ZM509.669 293.968V298.96C513.581 298.96 516.365 298.816 519.581 298.192L519.797 299.824C516.437 300.424 513.557 300.592 509.453 300.592H507.749V292.36H515.477V287.848H507.677V286.24H517.421V293.968H509.669ZM526.973 292.792V294.448H523.445V305.8H521.477V284.224H523.445V292.792H526.973ZM49.336 331.744C48.744 331.744 48.304 331.6 48.016 331.312C47.744 331.024 47.608 330.656 47.608 330.208V329.8C47.608 329.416 47.664 329.016 47.776 328.6C47.904 328.184 48.072 327.776 48.28 327.376C48.488 326.976 48.736 326.592 49.024 326.224C49.312 325.856 49.632 325.528 49.984 325.24H51.832C51.336 325.736 50.92 326.224 50.584 326.704C50.264 327.168 50.024 327.688 49.864 328.264C50.28 328.344 50.584 328.528 50.776 328.816C50.968 329.088 51.064 329.408 51.064 329.776V330.208C51.064 330.656 50.92 331.024 50.632 331.312C50.36 331.6 49.928 331.744 49.336 331.744ZM60.5963 325.12V328.984C60.5963 332.776 63.0443 336.688 66.0683 338.2L64.8443 339.76C62.5643 338.536 60.6203 336.016 59.6363 333.064C58.7003 336.208 56.7083 338.896 54.2843 340.192L53.1083 338.608C56.2043 337.024 58.6523 332.896 58.6523 328.984V325.12H60.5963ZM73.4843 331.984V333.616H69.9323V344.776H67.9643V323.272H69.9323V331.984H73.4843ZM87.4024 332.656L87.5944 334.264C84.1864 334.84 81.3304 334.96 77.3704 334.96H75.6664V328.792H83.3704V326.032H75.6184V324.424H85.3144V330.304H77.6104V333.352C81.3784 333.352 84.1384 333.232 87.4024 332.656ZM79.7944 338.704V342.904H89.5144V338.704H79.7944ZM77.8744 344.488V337.144H91.4344V344.488H77.8744ZM94.6264 328.768V330.4H91.4344V336.088H89.4664V323.272H91.4344V328.768H94.6264ZM98.2966 325C98.9046 325 99.3446 325.144 99.6166 325.432C99.8886 325.72 100.025 326.096 100.025 326.56V326.968C100.025 327.352 99.9686 327.752 99.8566 328.168C99.7446 328.568 99.5846 328.968 99.3766 329.368C99.1686 329.768 98.9206 330.152 98.6326 330.52C98.3446 330.888 98.0246 331.216 97.6726 331.504H95.8006C96.3126 331.008 96.7286 330.52 97.0486 330.04C97.3686 329.56 97.6166 329.04 97.7926 328.48C97.3766 328.4 97.0646 328.224 96.8566 327.952C96.6646 327.68 96.5686 327.36 96.5686 326.992V326.56C96.5686 326.096 96.7046 325.72 96.9766 325.432C97.2486 325.144 97.6886 325 98.2966 325ZM111.909 325.096C108.381 325.096 106.365 325.912 106.365 327.352C106.365 328.792 108.381 329.608 111.909 329.608C115.437 329.608 117.453 328.792 117.453 327.352C117.453 325.912 115.437 325.096 111.909 325.096ZM111.909 331.072C107.181 331.072 104.349 329.776 104.349 327.352C104.349 324.928 107.181 323.608 111.909 323.608C116.637 323.608 119.469 324.928 119.469 327.352C119.469 329.776 116.637 331.072 111.909 331.072ZM106.509 340.816V343H119.805V344.536H104.589V339.376H117.213V337.456H104.517V335.968H119.157V340.816H106.509ZM102.165 332.536H121.653V334.12H102.165V332.536ZM143.523 330.232V325.84H132.915V330.232H143.523ZM145.467 324.256V331.816H130.995V324.256H145.467ZM132.915 338.152V342.688H145.827V344.296H130.947V338.152H132.915ZM128.451 334.264H148.011V335.848H139.371V340.192H137.403V335.848H128.451V334.264ZM156.169 327.376V329.32C156.169 333.064 157.777 336.808 160.753 338.488L159.553 339.928C157.465 338.68 155.977 336.376 155.233 333.64C154.489 336.592 152.929 339.112 150.793 340.456L149.593 338.992C152.593 337.192 154.273 333.28 154.273 329.32V327.376H150.193V325.768H160.009V327.376H156.169ZM161.929 330.976V323.728H163.801V343.648H161.929V332.584H158.377V330.976H161.929ZM166.249 323.224H168.145V344.752H166.249V323.224ZM188.671 333.256L187.615 334.792C185.263 333.904 183.439 332.152 182.479 329.92C181.591 332.44 179.671 334.408 177.127 335.392L176.095 333.832C179.335 332.656 181.447 329.776 181.447 326.512V324.328H183.415V326.464C183.415 329.416 185.551 332.152 188.671 333.256ZM181.279 338.392V342.904H190.927V338.392H181.279ZM179.359 344.488V336.832H192.871V344.488H179.359ZM196.063 328.624V330.256H192.871V335.848H190.903V323.272H192.871V328.624H196.063ZM203.261 338.176C205.325 338.176 206.789 335.92 206.789 332.416C206.789 328.936 205.325 326.68 203.261 326.68C201.173 326.68 199.709 328.936 199.709 332.416C199.709 335.92 201.173 338.176 203.261 338.176ZM203.261 324.904C206.429 324.904 208.661 327.832 208.661 332.416C208.661 337 206.429 339.928 203.261 339.928C200.093 339.928 197.837 337 197.837 332.416C197.837 327.832 200.093 324.904 203.261 324.904ZM217.637 331.84V333.496H214.085V344.776H212.117V323.272H214.085V331.84H217.637ZM228.275 337.864V342.688H241.259V344.296H226.307V337.864H228.275ZM234.563 334.504H243.323V336.112H223.859V334.504H232.619V331.408H226.475V324.064H228.419V329.824H241.091V331.408H234.563V334.504ZM254.121 333.208V329.512H248.025V333.208H254.121ZM256.041 324.616V334.792H246.081V324.616H248.025V327.976H254.121V324.616H256.041ZM247.905 338.992V337.408H261.897V344.8H259.929V338.992H247.905ZM265.089 328.84V330.472H261.897V336.256H259.929V323.272H261.897V328.84H265.089ZM272.863 338.344C274.831 338.344 276.247 336.952 276.247 335.032C276.247 333.088 274.831 331.696 272.863 331.696C270.919 331.696 269.503 333.088 269.503 335.032C269.503 336.952 270.919 338.344 272.863 338.344ZM272.863 330.064C275.935 330.064 278.119 332.128 278.119 335.032C278.119 337.96 275.935 339.976 272.863 339.976C269.839 339.976 267.655 337.96 267.655 335.032C267.655 332.128 269.839 330.064 272.863 330.064ZM273.823 323.512V326.704H279.127V328.288H266.431V326.704H271.855V323.512H273.823ZM286.663 332.104V333.76H283.135V344.776H281.167V323.272H283.135V332.104H286.663ZM305.165 329.728V331.336H290.525V324.04H292.493V329.728H305.165ZM292.349 337.96V342.64H305.285V344.248H290.381V337.96H292.349ZM287.885 334.216H307.397V335.8H287.885V334.216ZM318.012 330.304C318.012 332.776 320.532 334.384 323.964 334.384C327.396 334.384 329.892 332.776 329.892 330.304C329.892 327.832 327.396 326.224 323.964 326.224C320.532 326.224 318.012 327.832 318.012 330.304ZM324.948 340.384H333.756V342.016H314.196V340.384H322.956V335.896C318.948 335.608 316.116 333.472 316.116 330.304C316.116 326.872 319.404 324.664 323.964 324.664C328.5 324.664 331.764 326.872 331.764 330.304C331.764 333.472 328.956 335.608 324.948 335.896V340.384ZM350.746 328.144V325.672H337.882V324.088H352.738V329.632H339.922V332.272H353.218V333.856H337.954V328.144H350.746ZM355.09 336.088V337.672H350.002V344.8H348.034V337.672H342.61V344.8H340.642V337.672H335.554V336.088H355.09Z" fill="#F4F4F4"/>
<path d="M156.336 57.744C155.744 57.744 155.304 57.6 155.016 57.312C154.744 57.024 154.608 56.656 154.608 56.208V55.8C154.608 55.416 154.664 55.016 154.776 54.6C154.904 54.184 155.072 53.776 155.28 53.376C155.488 52.976 155.736 52.592 156.024 52.224C156.312 51.856 156.632 51.528 156.984 51.24H158.832C158.336 51.736 157.92 52.224 157.584 52.704C157.264 53.168 157.024 53.688 156.864 54.264C157.28 54.344 157.584 54.528 157.776 54.816C157.968 55.088 158.064 55.408 158.064 55.776V56.208C158.064 56.656 157.92 57.024 157.632 57.312C157.36 57.6 156.928 57.744 156.336 57.744ZM176.02 49.248H177.988V70.824H176.02V49.248ZM166.636 50.904C169.828 50.904 172.108 53.832 172.108 58.416C172.108 63 169.828 65.928 166.636 65.928C163.444 65.928 161.164 63 161.164 58.416C161.164 53.832 163.444 50.904 166.636 50.904ZM166.636 52.68C164.524 52.68 163.036 54.936 163.036 58.416C163.036 61.92 164.524 64.176 166.636 64.176C168.724 64.176 170.212 61.92 170.212 58.416C170.212 54.936 168.724 52.68 166.636 52.68ZM193.906 51.12V54.984C193.906 58.776 196.354 62.688 199.378 64.2L198.154 65.76C195.874 64.536 193.93 62.016 192.946 59.064C192.01 62.208 190.018 64.896 187.594 66.192L186.418 64.608C189.514 63.024 191.962 58.896 191.962 54.984V51.12H193.906ZM206.794 57.984V59.616H203.242V70.776H201.274V49.272H203.242V57.984H206.794ZM220.712 58.656L220.904 60.264C217.496 60.84 214.64 60.96 210.68 60.96H208.976V54.792H216.68V52.032H208.928V50.424H218.624V56.304H210.92V59.352C214.688 59.352 217.448 59.232 220.712 58.656ZM213.104 64.704V68.904H222.824V64.704H213.104ZM211.184 70.488V63.144H224.744V70.488H211.184ZM227.936 54.768V56.4H224.744V62.088H222.776V49.272H224.744V54.768H227.936ZM236.383 50.832C239.743 50.832 242.143 52.872 242.143 55.896C242.143 58.896 239.743 60.96 236.383 60.96C233.047 60.96 230.623 58.896 230.623 55.896C230.623 52.872 233.047 50.832 236.383 50.832ZM236.383 52.512C234.175 52.512 232.543 53.88 232.543 55.896C232.543 57.888 234.175 59.28 236.383 59.28C238.615 59.28 240.223 57.888 240.223 55.896C240.223 53.88 238.615 52.512 236.383 52.512ZM244.975 49.248H246.943V70.824H244.975V49.248ZM229.783 66.096L229.543 64.44C233.455 64.44 238.855 64.416 243.559 63.696L243.727 65.16C238.879 66.048 233.671 66.096 229.783 66.096ZM263.149 53.064V55.56C263.149 59.136 265.669 63.048 268.789 64.536L267.613 66.072C265.213 64.848 263.149 62.28 262.165 59.304C261.229 62.472 259.141 65.232 256.693 66.528L255.541 64.968C258.613 63.456 261.181 59.376 261.181 55.56V53.064H256.309V51.456H268.045V53.064H263.149ZM271.477 49.248H273.445V70.8H271.477V58.68H266.821V57.072H271.477V49.248ZM284.603 51.096V54.96C284.603 58.872 287.051 62.784 290.171 64.272L289.019 65.832C286.571 64.608 284.603 62.04 283.619 59.016C282.683 62.208 280.691 64.92 278.267 66.216L277.067 64.656C280.187 63.096 282.635 58.944 282.635 54.96V51.096H284.603ZM292.835 49.248H294.803V70.8H292.835V58.152H287.843V56.544H292.835V49.248ZM303.297 64.224C304.977 64.224 306.081 62.04 306.081 58.512C306.081 55.056 304.977 52.872 303.297 52.872C301.569 52.872 300.489 55.056 300.489 58.512C300.489 62.04 301.569 64.224 303.297 64.224ZM310.569 57.624V49.728H312.441V69.72H310.569V59.232H307.857C307.689 63.456 305.937 66.048 303.297 66.048C300.489 66.048 298.689 63.168 298.689 58.512C298.689 53.928 300.489 51.048 303.297 51.048C305.889 51.048 307.617 53.568 307.857 57.624H310.569ZM314.841 49.248H316.713V70.776H314.841V49.248ZM327.327 53.112V63.48C328.383 63.456 329.631 63.336 331.023 63.048L331.239 64.68C329.223 65.112 327.639 65.136 326.343 65.136H325.383V51.504H330.807V53.112H327.327ZM333.951 53.112V63.504C335.607 63.48 336.927 63.36 338.391 63L338.583 64.632C336.759 65.088 335.271 65.136 333.063 65.136H332.007V51.504H337.719V53.112H333.951ZM344.727 57.696V59.352H341.631V70.776H339.663V49.224H341.631V57.696H344.727ZM361.285 55.824V52.488H348.469V50.904H363.205V57.408H350.461V60.912H363.709V62.52H348.517V55.824H361.285ZM346.069 66.432H365.629V68.064H346.069V66.432ZM376.331 59.616V52.704H370.379V59.616H376.331ZM383.195 54.648H378.251V57.648H383.195V54.648ZM378.251 59.256V61.176H368.435V51.144H378.251V53.04H383.195V49.272H385.187V64.968H383.195V59.256H378.251ZM373.307 68.688H385.691V70.296H371.339V63.576H373.307V68.688ZM405.017 69L403.505 64.464H397.241L395.777 69H393.017L398.729 52.248H402.137L407.849 69H405.017ZM400.433 54.744H400.313L397.889 62.136H402.833L400.433 54.744ZM409.172 61.536C409.172 60.368 409.276 59.248 409.484 58.176C409.708 57.104 410.012 56.104 410.396 55.176C410.78 54.248 411.228 53.408 411.74 52.656C412.268 51.904 412.836 51.272 413.444 50.76H415.916C415.26 51.368 414.668 52.048 414.14 52.8C413.612 53.552 413.164 54.352 412.796 55.2C412.428 56.048 412.14 56.928 411.932 57.84C411.74 58.752 411.644 59.664 411.644 60.576V62.496C411.644 63.408 411.74 64.32 411.932 65.232C412.14 66.144 412.428 67.024 412.796 67.872C413.164 68.72 413.612 69.52 414.14 70.272C414.668 71.04 415.26 71.72 415.916 72.312H413.444C412.836 71.8 412.268 71.168 411.74 70.416C411.228 69.664 410.78 68.824 410.396 67.896C410.012 66.968 409.708 65.968 409.484 64.896C409.276 63.824 409.172 62.704 409.172 61.536ZM419.178 58.824V63.984C422.994 63.984 425.682 63.816 428.85 63.288L429.042 64.872C425.73 65.448 422.946 65.592 418.89 65.592H417.21V51.192H427.242V52.8H419.178V57.24H426.762V58.824H419.178ZM436.386 57.888V59.544H432.834V70.752H430.866V49.248H432.834V57.888H436.386ZM450.112 57.984L450.328 59.592C447.376 60.192 444.808 60.336 440.272 60.336H438.592V50.904H448.096V52.488H440.536V58.728C444.808 58.728 447.28 58.584 450.112 57.984ZM447.496 69.168C450.664 69.168 452.632 68.208 452.632 66.624C452.632 65.04 450.664 64.08 447.496 64.08C444.304 64.08 442.336 65.04 442.336 66.624C442.336 68.208 444.304 69.168 447.496 69.168ZM447.496 62.496C451.84 62.496 454.576 64.032 454.576 66.624C454.576 69.216 451.84 70.752 447.496 70.752C443.128 70.752 440.392 69.216 440.392 66.624C440.392 64.032 443.128 62.496 447.496 62.496ZM454.36 54.84H457.528V56.472H454.36V62.064H452.368V49.248H454.36V54.84ZM471.758 51.888V53.472H459.062V51.888H464.414V49.248H466.382V51.888H471.758ZM462.134 58.656C462.134 60.168 463.454 61.128 465.398 61.128C467.342 61.128 468.686 60.168 468.686 58.656C468.686 57.168 467.342 56.208 465.398 56.208C463.454 56.208 462.134 57.168 462.134 58.656ZM470.558 58.656C470.558 61.08 468.446 62.664 465.398 62.664C462.35 62.664 460.262 61.08 460.262 58.656C460.262 56.256 462.35 54.672 465.398 54.672C468.446 54.672 470.558 56.256 470.558 58.656ZM464.27 64.128V68.688H476.654V70.296H462.302V64.128H464.27ZM475.694 56.352H478.862V58.008H475.694V65.4H473.726V49.248H475.694V56.352ZM489.74 63.864V68.688H502.724V70.296H487.772V63.864H489.74ZM496.028 60.504H504.788V62.112H485.324V60.504H494.084V57.408H487.94V50.064H489.884V55.824H502.556V57.408H496.028V60.504ZM507.595 51.576H517.411C517.411 57.696 514.867 63.144 507.715 66.672L506.635 65.136C512.419 62.304 515.083 58.2 515.443 53.16H507.595V51.576ZM522.403 49.272H524.371V70.776H522.403V59.496H517.363V57.888H522.403V49.272ZM533.297 61.536C533.297 62.704 533.185 63.824 532.961 64.896C532.753 65.968 532.457 66.968 532.073 67.896C531.689 68.824 531.233 69.664 530.705 70.416C530.193 71.168 529.633 71.8 529.025 72.312H526.553C527.209 71.72 527.801 71.04 528.329 70.272C528.857 69.52 529.305 68.72 529.673 67.872C530.041 67.024 530.321 66.144 530.513 65.232C530.721 64.32 530.825 63.408 530.825 62.496V60.576C530.825 59.664 530.721 58.752 530.513 57.84C530.321 56.928 530.041 56.048 529.673 55.2C529.305 54.352 528.857 53.552 528.329 52.8C527.801 52.048 527.209 51.368 526.553 50.76H529.025C529.633 51.272 530.193 51.904 530.705 52.656C531.233 53.408 531.689 54.248 532.073 55.176C532.457 56.104 532.753 57.104 532.961 58.176C533.185 59.248 533.297 60.368 533.297 61.536ZM541.095 64.176C543.159 64.176 544.623 61.896 544.623 58.392C544.623 54.936 543.159 52.68 541.095 52.68C539.007 52.68 537.543 54.936 537.543 58.392C537.543 61.896 539.007 64.176 541.095 64.176ZM541.095 50.904C544.263 50.904 546.495 53.832 546.495 58.392C546.495 63 544.263 65.928 541.095 65.928C537.927 65.928 535.671 63 535.671 58.392C535.671 53.832 537.927 50.904 541.095 50.904ZM555.351 56.304H551.919V61.08H555.351V62.712H551.919V70.776H549.951V49.272H551.919V54.672H555.351V56.304ZM169.2 92.688V92.136H156.384V90.528H171.144V92.688C171.144 95.424 171.144 98.52 170.304 103.176L168.336 102.96C169.2 98.568 169.2 95.352 169.2 92.688ZM154.296 105H173.76V106.632H154.296V105ZM178.366 97.776V102.984C182.038 102.984 184.654 102.84 187.75 102.288L187.942 103.92C184.702 104.496 181.966 104.616 178.078 104.616H176.422V96.192H184.078V91.848H176.374V90.24H185.998V97.776H178.366ZM191.374 88.224H193.342V109.8H191.374V98.136H187.27V96.528H191.374V88.224ZM196.988 105.288H216.5V106.92H196.988V105.288ZM199.292 90.144H214.124V100.344H199.292V90.144ZM212.204 91.704H201.188V98.784H212.204V91.704ZM229.074 105.504H237.882V107.112H218.322V105.504H227.082V101.448H220.77V94.8H233.538V91.44H220.722V89.832H235.458V96.384H222.714V99.864H235.962V101.448H229.074V105.504ZM245.448 91.248H252.864C254.256 91.248 255.344 91.64 256.128 92.424C256.928 93.208 257.328 94.256 257.328 95.568C257.328 96.192 257.24 96.728 257.064 97.176C256.888 97.608 256.664 97.968 256.392 98.256C256.12 98.528 255.808 98.736 255.456 98.88C255.104 99.008 254.76 99.088 254.424 99.12V99.264C254.76 99.28 255.128 99.36 255.528 99.504C255.944 99.648 256.328 99.88 256.68 100.2C257.032 100.504 257.328 100.904 257.568 101.4C257.808 101.88 257.928 102.472 257.928 103.176C257.928 103.848 257.816 104.48 257.592 105.072C257.384 105.664 257.088 106.176 256.704 106.608C256.32 107.04 255.864 107.384 255.336 107.64C254.808 107.88 254.232 108 253.608 108H245.448V91.248ZM248.16 105.672H252.816C253.52 105.672 254.072 105.488 254.472 105.12C254.872 104.752 255.072 104.224 255.072 103.536V102.72C255.072 102.032 254.872 101.504 254.472 101.136C254.072 100.768 253.52 100.584 252.816 100.584H248.16V105.672ZM248.16 98.328H252.36C253.032 98.328 253.552 98.16 253.92 97.824C254.288 97.472 254.472 96.976 254.472 96.336V95.568C254.472 94.928 254.288 94.44 253.92 94.104C253.552 93.752 253.032 93.576 252.36 93.576H248.16V98.328ZM259.997 100.536C259.997 99.368 260.101 98.248 260.309 97.176C260.533 96.104 260.837 95.104 261.221 94.176C261.605 93.248 262.053 92.408 262.565 91.656C263.093 90.904 263.661 90.272 264.269 89.76H266.741C266.085 90.368 265.493 91.048 264.965 91.8C264.437 92.552 263.989 93.352 263.621 94.2C263.253 95.048 262.965 95.928 262.757 96.84C262.565 97.752 262.469 98.664 262.469 99.576V101.496C262.469 102.408 262.565 103.32 262.757 104.232C262.965 105.144 263.253 106.024 263.621 106.872C263.989 107.72 264.437 108.52 264.965 109.272C265.493 110.04 266.085 110.72 266.741 111.312H264.269C263.661 110.8 263.093 110.168 262.565 109.416C262.053 108.664 261.605 107.824 261.221 106.896C260.837 105.968 260.533 104.968 260.309 103.896C260.101 102.824 259.997 101.704 259.997 100.536ZM270.003 97.824V102.984C273.819 102.984 276.507 102.816 279.675 102.288L279.867 103.872C276.555 104.448 273.771 104.592 269.715 104.592H268.035V90.192H278.067V91.8H270.003V96.24H277.587V97.824H270.003ZM287.211 96.888V98.544H283.659V109.752H281.691V88.248H283.659V96.888H287.211ZM300.937 96.984L301.153 98.592C298.201 99.192 295.633 99.336 291.097 99.336H289.417V89.904H298.921V91.488H291.361V97.728C295.633 97.728 298.105 97.584 300.937 96.984ZM298.321 108.168C301.489 108.168 303.457 107.208 303.457 105.624C303.457 104.04 301.489 103.08 298.321 103.08C295.129 103.08 293.161 104.04 293.161 105.624C293.161 107.208 295.129 108.168 298.321 108.168ZM298.321 101.496C302.665 101.496 305.401 103.032 305.401 105.624C305.401 108.216 302.665 109.752 298.321 109.752C293.953 109.752 291.217 108.216 291.217 105.624C291.217 103.032 293.953 101.496 298.321 101.496ZM305.185 93.84H308.353V95.472H305.185V101.064H303.193V88.248H305.185V93.84ZM322.583 90.888V92.472H309.887V90.888H315.239V88.248H317.207V90.888H322.583ZM312.959 97.656C312.959 99.168 314.279 100.128 316.223 100.128C318.167 100.128 319.511 99.168 319.511 97.656C319.511 96.168 318.167 95.208 316.223 95.208C314.279 95.208 312.959 96.168 312.959 97.656ZM321.383 97.656C321.383 100.08 319.271 101.664 316.223 101.664C313.175 101.664 311.087 100.08 311.087 97.656C311.087 95.256 313.175 93.672 316.223 93.672C319.271 93.672 321.383 95.256 321.383 97.656ZM315.095 103.128V107.688H327.479V109.296H313.127V103.128H315.095ZM326.519 95.352H329.687V97.008H326.519V104.4H324.551V88.248H326.519V95.352ZM351.869 92.904H346.565C345.221 96.288 341.933 98.592 337.181 99.72L336.461 98.112C341.717 96.888 344.717 94.32 345.077 90.912H337.589V89.304H347.213C347.213 90.024 347.141 90.696 346.997 91.368H351.869V88.248H353.861V99.24H351.869V97.008H346.253V95.472H351.869V92.904ZM341.981 108H354.581V109.56H340.037V104.016H351.893V101.808H339.989V100.224H353.861V105.504H341.981V108ZM361.996 103.608V107.952H374.956V109.56H360.028V103.608H361.996ZM368.236 100.536H376.996V102.144H357.46V100.536H366.244V98.184H359.98V92.832H372.556V90.48H359.932V88.944H374.5V94.296H361.924V96.648H374.956V98.184H368.236V100.536ZM384.122 100.536C384.122 101.704 384.01 102.824 383.786 103.896C383.578 104.968 383.282 105.968 382.898 106.896C382.514 107.824 382.058 108.664 381.53 109.416C381.018 110.168 380.458 110.8 379.85 111.312H377.378C378.034 110.72 378.626 110.04 379.154 109.272C379.682 108.52 380.13 107.72 380.498 106.872C380.866 106.024 381.146 105.144 381.338 104.232C381.546 103.32 381.65 102.408 381.65 101.496V99.576C381.65 98.664 381.546 97.752 381.338 96.84C381.146 95.928 380.866 95.048 380.498 94.2C380.13 93.352 379.682 92.552 379.154 91.8C378.626 91.048 378.034 90.368 377.378 89.76H379.85C380.458 90.272 381.018 90.904 381.53 91.656C382.058 92.408 382.514 93.248 382.898 94.176C383.282 95.104 383.578 96.104 383.786 97.176C384.01 98.248 384.122 99.368 384.122 100.536ZM401.832 88.248H403.8V109.824H401.832V88.248ZM392.448 89.904C395.64 89.904 397.92 92.832 397.92 97.416C397.92 102 395.64 104.928 392.448 104.928C389.256 104.928 386.976 102 386.976 97.416C386.976 92.832 389.256 89.904 392.448 89.904ZM392.448 91.68C390.336 91.68 388.848 93.936 388.848 97.416C388.848 100.92 390.336 103.176 392.448 103.176C394.536 103.176 396.024 100.92 396.024 97.416C396.024 93.936 394.536 91.68 392.448 91.68ZM410.35 97.968V102.96C414.262 102.96 417.046 102.816 420.262 102.192L420.478 103.824C417.118 104.424 414.238 104.592 410.134 104.592H408.43V96.36H416.158V91.848H408.358V90.24H418.102V97.968H410.35ZM427.654 96.792V98.448H424.126V109.8H422.158V88.224H424.126V96.792H427.654ZM444.092 92.544V92.016H430.964V90.408H446.06V92.544C446.06 95.208 446.06 98.16 445.244 102.504L443.276 102.288C444.092 98.16 444.092 95.136 444.092 92.544ZM438.452 105.144H448.388V106.752H428.924V105.144H436.484V97.44H438.452V105.144ZM467.978 90.216V91.728H455.282V90.216H460.634V88.032H462.602V90.216H467.978ZM458.354 96.216C458.354 97.488 459.626 98.28 461.618 98.28C463.61 98.28 464.906 97.488 464.906 96.216C464.906 94.92 463.61 94.152 461.618 94.152C459.626 94.152 458.354 94.92 458.354 96.216ZM466.778 96.216C466.778 98.4 464.738 99.744 461.618 99.744C458.522 99.744 456.482 98.4 456.482 96.216C456.482 94.032 458.522 92.688 461.618 92.688C464.738 92.688 466.778 94.032 466.778 96.216ZM460.226 105.96V108.024H472.706V109.536H458.306V104.52H469.97V102.648H458.234V101.184H471.914V105.96H460.226ZM471.914 93.36H475.106V94.992H471.914V100.08H469.946V88.176H471.914V93.36ZM500.048 96.456L499.232 98.04C495.896 97.464 492.656 95.592 491.264 93C489.92 95.616 486.68 97.464 483.32 98.04L482.528 96.456C486.44 95.88 490.232 93.288 490.232 90.216V89.016H492.296V90.216C492.296 93.216 496.136 95.88 500.048 96.456ZM500.984 100.368L501.008 102H492.2V109.8H490.232V102H481.544V100.368H500.984ZM525.494 88.272V100.56H523.526V88.272H525.494ZM513.926 91.152C511.79 91.152 510.254 92.568 510.254 94.536C510.254 96.528 511.79 97.92 513.926 97.92C516.062 97.92 517.646 96.528 517.646 94.536C517.646 92.568 516.062 91.152 513.926 91.152ZM513.926 99.552C510.686 99.552 508.334 97.512 508.334 94.536C508.334 91.56 510.686 89.52 513.926 89.52C517.19 89.52 519.566 91.56 519.566 94.536C519.566 97.512 517.19 99.552 513.926 99.552ZM523.094 101.496V102.648C523.094 104.88 524.678 107.088 527.414 108L526.43 109.488C524.318 108.72 522.83 107.232 522.11 105.432C521.438 107.184 520.118 108.816 518.126 109.68C516.062 108.864 514.766 107.304 514.118 105.504C513.35 107.232 511.886 108.72 509.87 109.488L508.886 108C511.598 107.04 513.206 104.712 513.206 102.648V101.496H515.102V102.648C515.102 104.544 516.086 106.584 518.078 107.76C520.142 106.488 521.174 104.328 521.174 102.648V101.496H523.094ZM534.949 103.176C536.989 103.176 538.429 100.92 538.429 97.416C538.429 93.936 536.989 91.68 534.949 91.68C532.885 91.68 531.445 93.936 531.445 97.416C531.445 100.92 532.885 103.176 534.949 103.176ZM544.957 88.248H546.925V109.824H544.957V98.064H540.277C540.085 102.288 537.949 104.928 534.949 104.928C531.805 104.928 529.573 102 529.573 97.416C529.573 92.832 531.805 89.904 534.949 89.904C537.853 89.904 539.965 92.424 540.277 96.456H544.957V88.248ZM552.755 90C553.363 90 553.803 90.144 554.075 90.432C554.347 90.72 554.483 91.096 554.483 91.56V91.968C554.483 92.352 554.427 92.752 554.315 93.168C554.203 93.568 554.043 93.968 553.835 94.368C553.627 94.768 553.379 95.152 553.091 95.52C552.803 95.888 552.483 96.216 552.131 96.504H550.259C550.771 96.008 551.187 95.52 551.507 95.04C551.827 94.56 552.075 94.04 552.251 93.48C551.835 93.4 551.523 93.224 551.315 92.952C551.123 92.68 551.027 92.36 551.027 91.992V91.56C551.027 91.096 551.163 90.72 551.435 90.432C551.707 90.144 552.147 90 552.755 90ZM156.336 135.744C155.744 135.744 155.304 135.6 155.016 135.312C154.744 135.024 154.608 134.656 154.608 134.208V133.8C154.608 133.416 154.664 133.016 154.776 132.6C154.904 132.184 155.072 131.776 155.28 131.376C155.488 130.976 155.736 130.592 156.024 130.224C156.312 129.856 156.632 129.528 156.984 129.24H158.832C158.336 129.736 157.92 130.224 157.584 130.704C157.264 131.168 157.024 131.688 156.864 132.264C157.28 132.344 157.584 132.528 157.776 132.816C157.968 133.088 158.064 133.408 158.064 133.776V134.208C158.064 134.656 157.92 135.024 157.632 135.312C157.36 135.6 156.928 135.744 156.336 135.744ZM175.3 131.688V131.136H162.484V129.528H177.244V131.688C177.244 134.424 177.244 137.52 176.404 142.176L174.436 141.96C175.3 137.568 175.3 134.352 175.3 131.688ZM160.396 144H179.86V145.632H160.396V144ZM193.906 129.12V132.984C193.906 136.776 196.354 140.688 199.378 142.2L198.154 143.76C195.874 142.536 193.93 140.016 192.946 137.064C192.01 140.208 190.018 142.896 187.594 144.192L186.418 142.608C189.514 141.024 191.962 136.896 191.962 132.984V129.12H193.906ZM206.794 135.984V137.616H203.242V148.776H201.274V127.272H203.242V135.984H206.794ZM220.712 136.656L220.904 138.264C217.496 138.84 214.64 138.96 210.68 138.96H208.976V132.792H216.68V130.032H208.928V128.424H218.624V134.304H210.92V137.352C214.688 137.352 217.448 137.232 220.712 136.656ZM213.104 142.704V146.904H222.824V142.704H213.104ZM211.184 148.488V141.144H224.744V148.488H211.184ZM227.936 132.768V134.4H224.744V140.088H222.776V127.272H224.744V132.768H227.936ZM236.558 132.864C236.558 134.784 238.118 136.152 240.23 136.152C242.342 136.152 243.902 134.784 243.902 132.864C243.902 130.968 242.342 129.6 240.23 129.6C238.118 129.6 236.558 130.968 236.558 132.864ZM250.094 133.632H245.726C245.318 136.104 243.134 137.76 240.23 137.76C237.014 137.76 234.686 135.768 234.686 132.864C234.686 129.984 237.014 127.992 240.23 127.992C243.11 127.992 245.294 129.624 245.702 132.048H250.094V127.272H252.062V138.216H250.094V133.632ZM240.182 146.928H252.878V148.488H238.238V143.088H250.118V140.952H238.19V139.392H252.062V144.576H240.182V146.928ZM258.493 130.992V141.72H264.517V130.992H258.493ZM256.573 143.304V129.408H266.437V143.304H256.573ZM275.821 135.84V137.496H272.269V148.776H270.301V127.272H272.269V135.84H275.821ZM293.443 133.2H297.763V127.272H299.755V143.04H297.763V134.808H293.443V133.2ZM294.715 138.264L293.731 139.8C291.331 138.936 289.483 137.136 288.547 134.928C287.611 137.376 285.643 139.368 283.123 140.28L282.091 138.744C285.283 137.592 287.515 134.736 287.515 131.688V130.608H282.715V129H294.211V130.608H289.483V131.664C289.483 134.472 291.595 137.16 294.715 138.264ZM287.971 146.688H300.355V148.296H285.979V141.648H287.971V146.688ZM308.249 142.224C309.929 142.224 311.033 140.04 311.033 136.512C311.033 133.056 309.929 130.872 308.249 130.872C306.521 130.872 305.441 133.056 305.441 136.512C305.441 140.04 306.521 142.224 308.249 142.224ZM315.521 135.624V127.728H317.393V147.72H315.521V137.232H312.809C312.641 141.456 310.889 144.048 308.249 144.048C305.441 144.048 303.641 141.168 303.641 136.512C303.641 131.928 305.441 129.048 308.249 129.048C310.841 129.048 312.569 131.568 312.809 135.624H315.521ZM319.793 127.248H321.665V148.776H319.793V127.248ZM337.919 137.688V142.32C339.935 142.224 341.975 142.104 343.895 141.84L344.039 143.304C339.263 144.072 334.127 144.144 330.047 144.144L329.783 142.488C331.679 142.488 333.791 142.464 335.951 142.392V137.688H331.463V129.384H333.431V136.08H342.599V137.688H337.919ZM345.311 127.248H347.279V148.776H345.311V127.248ZM366.045 132.96V129.528H355.485V132.96H366.045ZM367.989 127.968V134.52H353.565V127.968H367.989ZM370.509 137.904H361.749V140.016H368.013V144.864H355.365V147H368.661V148.536H353.445V143.424H366.069V141.504H353.373V140.016H359.781V137.904H351.021V136.32H370.509V137.904ZM395.883 135.456L395.067 137.04C391.731 136.464 388.491 134.592 387.099 132C385.755 134.616 382.515 136.464 379.155 137.04L378.363 135.456C382.275 134.88 386.067 132.288 386.067 129.216V128.016H388.131V129.216C388.131 132.216 391.971 134.88 395.883 135.456ZM396.819 139.368L396.843 141H388.035V148.8H386.067V141H377.379V139.368H396.819ZM417.241 135.456L416.425 137.04C413.089 136.464 409.849 134.592 408.457 132C407.113 134.616 403.873 136.464 400.513 137.04L399.721 135.456C403.633 134.88 407.425 132.288 407.425 129.216V128.016H409.489V129.216C409.489 132.216 413.329 134.88 417.241 135.456ZM418.177 139.368L418.201 141H409.393V148.8H407.425V141H398.737V139.368H418.177ZM440.767 136.608V134.016H437.143V132.432H440.767V127.248H442.759V141.144H440.767V138.216H437.119V136.608H440.767ZM437.119 129.624V131.208H425.071V129.624H430.207V127.056H432.175V129.624H437.119ZM428.143 136.296C428.143 137.808 429.367 138.792 431.167 138.792C432.967 138.792 434.191 137.808 434.191 136.296C434.191 134.808 432.967 133.824 431.167 133.824C429.367 133.824 428.143 134.808 428.143 136.296ZM436.039 136.296C436.039 138.72 434.023 140.304 431.167 140.304C428.287 140.304 426.295 138.72 426.295 136.296C426.295 133.896 428.287 132.312 431.167 132.312C434.023 132.312 436.039 133.896 436.039 136.296ZM435.703 147.24C438.871 147.24 440.815 146.448 440.815 145.08C440.815 143.688 438.871 142.92 435.703 142.92C432.535 142.92 430.567 143.688 430.567 145.08C430.567 146.448 432.535 147.24 435.703 147.24ZM435.703 141.408C440.143 141.408 442.855 142.728 442.855 145.08C442.855 147.408 440.143 148.752 435.703 148.752C431.239 148.752 428.527 147.408 428.527 145.08C428.527 142.728 431.239 141.408 435.703 141.408ZM453.365 128.832C456.725 128.832 459.125 130.872 459.125 133.896C459.125 136.896 456.725 138.96 453.365 138.96C450.029 138.96 447.605 136.896 447.605 133.896C447.605 130.872 450.029 128.832 453.365 128.832ZM453.365 130.512C451.157 130.512 449.525 131.88 449.525 133.896C449.525 135.888 451.157 137.28 453.365 137.28C455.597 137.28 457.205 135.888 457.205 133.896C457.205 131.88 455.597 130.512 453.365 130.512ZM461.957 127.248H463.925V148.824H461.957V127.248ZM446.765 144.096L446.525 142.44C450.437 142.44 455.837 142.416 460.541 141.696L460.709 143.16C455.861 144.048 450.653 144.096 446.765 144.096ZM478.467 144.504H487.275V146.112H467.715V144.504H476.475V140.448H470.163V133.8H482.931V130.44H470.115V128.832H484.851V135.384H472.107V138.864H485.355V140.448H478.467V144.504ZM513.537 137.904V139.512H504.753V148.8H502.761V139.512H494.073V137.904H508.353C509.025 134.808 509.025 132.528 509.025 130.512V130.224H496.497V128.64H510.945V130.512C510.945 132.528 510.945 134.808 510.345 137.904H513.537ZM533.695 134.328L532.951 135.912C529.663 135.36 526.495 133.656 525.127 131.184C523.783 133.656 520.615 135.36 517.327 135.912L516.583 134.328C520.399 133.8 524.119 131.4 524.119 128.544V127.584H526.135V128.544C526.135 131.4 529.855 133.8 533.695 134.328ZM517.567 143.352V141.744H532.471V148.8H530.503V143.352H517.567ZM526.111 138.048H534.943V139.656H515.407V138.048H524.143V134.76H526.111V138.048ZM550.445 134.88V140.376H548.573V127.656H550.445V133.272H553.013V127.224H554.885V140.52H553.013V134.88H550.445ZM547.541 137.664L547.685 139.056C544.205 139.704 539.717 139.776 536.909 139.776L536.645 138.192C537.989 138.192 539.741 138.192 541.541 138.12V135.528H537.965V128.592H546.797V130.176H539.885V133.92H546.917V135.528H543.389V138.024C544.829 137.952 546.293 137.856 547.541 137.664ZM552.125 141.432V141.984C552.125 144.144 553.733 146.28 556.445 147.072L555.533 148.56C553.373 147.84 551.909 146.424 551.165 144.696C550.517 146.4 549.197 147.96 547.181 148.752C545.141 147.96 543.845 146.448 543.197 144.72C542.453 146.448 540.965 147.84 538.877 148.56L537.941 147.072C540.653 146.232 542.261 144.12 542.261 141.984V141.432H544.157V141.984C544.157 143.76 545.141 145.776 547.157 146.904C549.197 145.728 550.205 143.736 550.205 141.984V141.432H552.125ZM570.436 136.608L569.452 138.12C567.124 137.352 565.324 135.792 564.412 133.776C563.5 136.104 561.508 137.976 558.988 138.888L557.98 137.352C561.172 136.272 563.38 133.608 563.38 130.776V130.32H558.604V128.736H570.052V130.32H565.348V130.752C565.348 133.344 567.388 135.672 570.436 136.608ZM562.3 140.304V146.664C563.548 146.616 565.132 146.424 566.62 145.92L566.932 147.504C564.892 148.176 562.876 148.296 561.412 148.296H560.38V140.304H562.3ZM571.564 147.384C572.884 147.384 573.796 146.736 573.796 145.752C573.796 144.768 572.884 144.144 571.564 144.144C570.244 144.144 569.332 144.768 569.332 145.752C569.332 146.736 570.244 147.384 571.564 147.384ZM571.564 142.752C573.892 142.752 575.548 143.928 575.548 145.752C575.548 147.6 573.892 148.776 571.564 148.776C569.236 148.776 567.58 147.6 567.58 145.752C567.58 143.928 569.236 142.752 571.564 142.752ZM572.524 138.72V140.64H576.94V142.104H566.14V140.64H570.604V138.72H572.524ZM574.828 132.096H578.02V133.728H574.828V138.048H572.86V127.248H574.828V132.096ZM585.218 142.176C587.282 142.176 588.746 139.92 588.746 136.416C588.746 132.936 587.282 130.68 585.218 130.68C583.13 130.68 581.666 132.936 581.666 136.416C581.666 139.92 583.13 142.176 585.218 142.176ZM585.218 128.904C588.386 128.904 590.618 131.832 590.618 136.416C590.618 141 588.386 143.928 585.218 143.928C582.05 143.928 579.794 141 579.794 136.416C579.794 131.832 582.05 128.904 585.218 128.904ZM599.594 135.84V137.496H596.042V148.776H594.074V127.272H596.042V135.84H599.594ZM603.048 147.288C602.456 147.288 602.016 147.136 601.728 146.832C601.44 146.512 601.296 146.12 601.296 145.656V145.296C601.296 144.832 601.44 144.448 601.728 144.144C602.016 143.824 602.456 143.664 603.048 143.664C603.64 143.664 604.08 143.824 604.368 144.144C604.656 144.448 604.8 144.832 604.8 145.296V145.656C604.8 146.12 604.656 146.512 604.368 146.832C604.08 147.136 603.64 147.288 603.048 147.288ZM159.936 181.392V185.904H170.088V181.392H159.936ZM158.016 187.488V179.832H172.008V187.488H158.016ZM163.104 175.944V172.44H157.296V175.944H163.104ZM170.016 166.272L172.008 166.248V178.728H170.016V173.304H165.048V177.528H155.352V167.472H157.296V170.88H163.104V167.448H165.048V171.696H170.016V166.272ZM177.046 178.08L176.086 176.568C179.374 175.56 181.702 173.088 181.702 170.16V169.92H176.782V168.312H188.614V169.92H183.67V170.16C183.67 172.872 185.95 175.272 189.19 176.16L188.23 177.744C185.71 176.976 183.694 175.344 182.71 173.184C181.75 175.512 179.686 177.264 177.046 178.08ZM183.694 177.168V181.416C185.734 181.32 187.846 181.152 189.79 180.84L189.958 182.28C185.134 183.192 179.854 183.216 176.014 183.216L175.75 181.584C177.502 181.584 179.566 181.584 181.726 181.512V177.168H183.694ZM191.206 166.248H193.174V187.8H191.206V166.248ZM204.236 170.088V172.824C204.236 176.256 206.684 180.072 209.804 181.536L208.676 183.12C206.276 181.92 204.26 179.4 203.276 176.52C202.292 179.664 200.204 182.4 197.78 183.648L196.628 182.088C199.7 180.552 202.292 176.472 202.292 172.824V170.088H197.372V168.456H209.012V170.088H204.236ZM217.1 174.936V176.592H213.548V187.776H211.58V166.272H213.548V174.936H217.1ZM219.498 168.552H229.338C229.338 174.672 226.53 180.216 219.57 183.696L218.49 182.16C223.986 179.4 226.938 175.272 227.394 170.184H219.498V168.552ZM238.362 174.984V176.616H234.906V187.776H232.938V166.248H234.906V174.984H238.362ZM250.968 181.344C252.936 181.344 254.352 179.952 254.352 178.032C254.352 176.088 252.936 174.696 250.968 174.696C249.024 174.696 247.608 176.088 247.608 178.032C247.608 179.952 249.024 181.344 250.968 181.344ZM250.968 173.064C254.04 173.064 256.224 175.128 256.224 178.032C256.224 180.96 254.04 182.976 250.968 182.976C247.944 182.976 245.76 180.96 245.76 178.032C245.76 175.128 247.944 173.064 250.968 173.064ZM251.928 166.512V169.704H257.232V171.288H244.536V169.704H249.96V166.512H251.928ZM264.768 175.104V176.76H261.24V187.776H259.272V166.272H261.24V175.104H264.768ZM283.271 172.728V174.336H268.631V167.04H270.599V172.728H283.271ZM270.455 180.96V185.64H283.391V187.248H268.487V180.96H270.455ZM265.991 177.216H285.503V178.8H265.991V177.216ZM301.181 174.528V169.032H295.133V174.528H301.181ZM303.101 167.472V176.088H293.213V167.472H303.101ZM297.341 183.504V185.904H309.821V187.488H295.421V182.04H307.085V179.784H295.349V178.224H309.029V183.504H297.341ZM309.029 170.88H312.221V172.512H309.029V177.216H307.061V166.272H309.029V170.88ZM323.403 168.096C319.875 168.096 317.859 168.912 317.859 170.352C317.859 171.792 319.875 172.608 323.403 172.608C326.931 172.608 328.947 171.792 328.947 170.352C328.947 168.912 326.931 168.096 323.403 168.096ZM323.403 174.072C318.675 174.072 315.843 172.776 315.843 170.352C315.843 167.928 318.675 166.608 323.403 166.608C328.131 166.608 330.963 167.928 330.963 170.352C330.963 172.776 328.131 174.072 323.403 174.072ZM318.003 183.816V186H331.299V187.536H316.083V182.376H328.707V180.456H316.011V178.968H330.651V183.816H318.003ZM313.659 175.536H333.147V177.12H313.659V175.536ZM357.657 166.248V178.584H355.689V166.248H357.657ZM349.257 175.416V169.176H343.041V175.416H349.257ZM351.177 167.616V176.976H341.121V167.616H351.177ZM345.705 185.904H358.209V187.488H343.737V179.808H357.777V181.392H345.705V185.904ZM378.607 172.728V174.336H363.967V167.04H365.935V172.728H378.607ZM365.791 180.96V185.64H378.727V187.248H363.823V180.96H365.791ZM361.327 177.216H380.839V178.8H361.327V177.216ZM398.749 172.896H403.405V166.272H405.397V182.16H403.405V174.504H398.749V172.896ZM389.077 167.928H398.845C398.845 173.472 394.933 177.672 388.837 179.688L387.997 178.104C392.917 176.472 396.301 173.4 396.733 169.536H389.077V167.928ZM393.757 185.688H405.949V187.296H391.789V180.552H393.757V185.688ZM419.707 181.176C421.771 181.176 423.235 178.92 423.235 175.416C423.235 171.936 421.771 169.68 419.707 169.68C417.619 169.68 416.155 171.936 416.155 175.416C416.155 178.92 417.619 181.176 419.707 181.176ZM419.707 167.904C422.875 167.904 425.107 170.832 425.107 175.416C425.107 180 422.875 182.928 419.707 182.928C416.539 182.928 414.283 180 414.283 175.416C414.283 170.832 416.539 167.904 419.707 167.904ZM434.083 174.84V176.496H430.531V187.776H428.563V166.272H430.531V174.84H434.083ZM438.641 168.336V180.528C441.881 180.528 445.217 180.24 448.793 179.52L449.009 181.2C445.265 181.968 441.881 182.208 438.449 182.208H436.673V168.336H438.641ZM451.001 166.248H452.969V187.752H451.001V166.248ZM464.367 170.088V172.824C464.367 176.472 466.959 180.192 470.127 181.536L469.023 183.12C466.527 181.968 464.415 179.496 463.383 176.544C462.399 179.688 460.287 182.4 457.839 183.648L456.687 182.064C459.783 180.6 462.399 176.544 462.399 172.824V170.088H457.407V168.456H469.431V170.088H464.367ZM472.335 166.272H474.303V187.776H472.335V166.272ZM480.853 180.744V176.928C482.149 176.864 483.141 176.592 483.829 176.112C484.533 175.616 484.885 174.888 484.885 173.928V173.592C484.885 172.856 484.661 172.288 484.213 171.888C483.765 171.472 483.165 171.264 482.413 171.264C481.613 171.264 480.973 171.496 480.493 171.96C480.013 172.424 479.685 173.016 479.509 173.736L477.229 172.824C477.373 172.328 477.581 171.848 477.853 171.384C478.141 170.92 478.501 170.512 478.933 170.16C479.365 169.792 479.877 169.504 480.469 169.296C481.061 169.072 481.741 168.96 482.509 168.96C483.293 168.96 484.005 169.072 484.645 169.296C485.285 169.52 485.829 169.84 486.277 170.256C486.725 170.656 487.069 171.152 487.309 171.744C487.549 172.32 487.669 172.96 487.669 173.664C487.669 174.384 487.541 175.032 487.285 175.608C487.045 176.168 486.717 176.648 486.301 177.048C485.901 177.448 485.445 177.776 484.933 178.032C484.421 178.272 483.893 178.44 483.349 178.536V180.744H480.853ZM482.125 186.288C481.517 186.288 481.069 186.144 480.781 185.856C480.509 185.552 480.373 185.168 480.373 184.704V184.296C480.373 183.832 480.509 183.456 480.781 183.168C481.069 182.864 481.517 182.712 482.125 182.712C482.733 182.712 483.173 182.864 483.445 183.168C483.733 183.456 483.877 183.832 483.877 184.296V184.704C483.877 185.168 483.733 185.552 483.445 185.856C483.173 186.144 482.733 186.288 482.125 186.288ZM491.744 168C492.352 168 492.792 168.144 493.064 168.432C493.336 168.72 493.472 169.096 493.472 169.56V169.968C493.472 170.352 493.416 170.752 493.304 171.168C493.192 171.568 493.032 171.968 492.824 172.368C492.616 172.768 492.368 173.152 492.08 173.52C491.792 173.888 491.472 174.216 491.12 174.504H489.248C489.76 174.008 490.176 173.52 490.496 173.04C490.816 172.56 491.064 172.04 491.24 171.48C490.824 171.4 490.512 171.224 490.304 170.952C490.112 170.68 490.016 170.36 490.016 169.992V169.56C490.016 169.096 490.152 168.72 490.424 168.432C490.696 168.144 491.136 168 491.744 168Z" fill="white"/>
<rect x="161" y="369" width="558" height="160" rx="4" fill="#4857F6"/>
<path d="M193.88 417.288C192.68 417.288 191.672 417.088 190.856 416.688C190.04 416.272 189.32 415.704 188.696 414.984L190.568 413.16C191.032 413.688 191.536 414.104 192.08 414.408C192.64 414.712 193.28 414.864 194 414.864C194.736 414.864 195.264 414.736 195.584 414.48C195.92 414.224 196.088 413.872 196.088 413.424C196.088 413.056 195.968 412.768 195.728 412.56C195.504 412.336 195.112 412.184 194.552 412.104L193.304 411.936C191.944 411.76 190.904 411.376 190.184 410.784C189.48 410.176 189.128 409.296 189.128 408.144C189.128 407.536 189.24 406.992 189.464 406.512C189.688 406.016 190.008 405.6 190.424 405.264C190.84 404.912 191.336 404.648 191.912 404.472C192.504 404.28 193.16 404.184 193.88 404.184C194.488 404.184 195.024 404.232 195.488 404.328C195.968 404.408 196.4 404.536 196.784 404.712C197.168 404.872 197.52 405.08 197.84 405.336C198.16 405.576 198.472 405.848 198.776 406.152L196.976 407.952C196.608 407.568 196.168 407.248 195.656 406.992C195.144 406.736 194.584 406.608 193.976 406.608C193.304 406.608 192.816 406.728 192.512 406.968C192.224 407.208 192.08 407.52 192.08 407.904C192.08 408.32 192.2 408.64 192.44 408.864C192.696 409.072 193.12 409.224 193.712 409.32L194.984 409.488C197.688 409.872 199.04 411.104 199.04 413.184C199.04 413.792 198.912 414.352 198.656 414.864C198.416 415.36 198.072 415.792 197.624 416.16C197.176 416.512 196.632 416.792 195.992 417C195.368 417.192 194.664 417.288 193.88 417.288ZM206.001 417.288C205.105 417.288 204.297 417.136 203.577 416.832C202.873 416.528 202.265 416.088 201.753 415.512C201.257 414.936 200.873 414.248 200.601 413.448C200.329 412.632 200.193 411.72 200.193 410.712C200.193 409.704 200.329 408.8 200.601 408C200.873 407.2 201.257 406.52 201.753 405.96C202.265 405.384 202.873 404.944 203.577 404.64C204.297 404.336 205.105 404.184 206.001 404.184C206.897 404.184 207.705 404.336 208.425 404.64C209.145 404.944 209.753 405.384 210.249 405.96C210.761 406.52 211.153 407.2 211.425 408C211.697 408.8 211.833 409.704 211.833 410.712C211.833 411.72 211.697 412.632 211.425 413.448C211.153 414.248 210.761 414.936 210.249 415.512C209.753 416.088 209.145 416.528 208.425 416.832C207.705 417.136 206.897 417.288 206.001 417.288ZM206.001 414.816C206.817 414.816 207.457 414.568 207.921 414.072C208.385 413.576 208.617 412.848 208.617 411.888V409.56C208.617 408.616 208.385 407.896 207.921 407.4C207.457 406.904 206.817 406.656 206.001 406.656C205.201 406.656 204.569 406.904 204.105 407.4C203.641 407.896 203.409 408.616 203.409 409.56V411.888C203.409 412.848 203.641 413.576 204.105 414.072C204.569 414.568 205.201 414.816 206.001 414.816ZM216.908 417C215.852 417 215.076 416.736 214.58 416.208C214.084 415.68 213.836 414.936 213.836 413.976V399.24H216.908V414.552H218.564V417H216.908ZM227.659 414.912H227.539C227.427 415.232 227.275 415.536 227.083 415.824C226.907 416.096 226.675 416.344 226.387 416.568C226.115 416.792 225.779 416.968 225.379 417.096C224.995 417.224 224.547 417.288 224.035 417.288C222.739 417.288 221.747 416.864 221.059 416.016C220.371 415.168 220.027 413.96 220.027 412.392V404.472H223.099V412.08C223.099 412.944 223.267 413.608 223.603 414.072C223.939 414.52 224.475 414.744 225.211 414.744C225.515 414.744 225.811 414.704 226.099 414.624C226.403 414.544 226.667 414.424 226.891 414.264C227.115 414.088 227.299 413.88 227.443 413.64C227.587 413.384 227.659 413.088 227.659 412.752V404.472H230.731V417H227.659V414.912ZM237.472 417C236.416 417 235.608 416.728 235.048 416.184C234.504 415.624 234.232 414.832 234.232 413.808V406.92H232.384V404.472H233.344C233.808 404.472 234.12 404.368 234.28 404.16C234.456 403.936 234.544 403.608 234.544 403.176V401.04H237.304V404.472H239.872V406.92H237.304V414.552H239.68V417H237.472ZM243.353 402.648C242.713 402.648 242.249 402.504 241.961 402.216C241.689 401.928 241.553 401.56 241.553 401.112V400.632C241.553 400.184 241.689 399.816 241.961 399.528C242.249 399.24 242.713 399.096 243.353 399.096C243.977 399.096 244.433 399.24 244.721 399.528C245.009 399.816 245.153 400.184 245.153 400.632V401.112C245.153 401.56 245.009 401.928 244.721 402.216C244.433 402.504 243.977 402.648 243.353 402.648ZM241.817 404.472H244.889V417H241.817V404.472ZM252.697 417.288C251.801 417.288 250.993 417.136 250.273 416.832C249.569 416.528 248.961 416.088 248.449 415.512C247.953 414.936 247.569 414.248 247.297 413.448C247.025 412.632 246.889 411.72 246.889 410.712C246.889 409.704 247.025 408.8 247.297 408C247.569 407.2 247.953 406.52 248.449 405.96C248.961 405.384 249.569 404.944 250.273 404.64C250.993 404.336 251.801 404.184 252.697 404.184C253.593 404.184 254.401 404.336 255.121 404.64C255.841 404.944 256.449 405.384 256.945 405.96C257.457 406.52 257.849 407.2 258.121 408C258.393 408.8 258.529 409.704 258.529 410.712C258.529 411.72 258.393 412.632 258.121 413.448C257.849 414.248 257.457 414.936 256.945 415.512C256.449 416.088 255.841 416.528 255.121 416.832C254.401 417.136 253.593 417.288 252.697 417.288ZM252.697 414.816C253.513 414.816 254.153 414.568 254.617 414.072C255.081 413.576 255.313 412.848 255.313 411.888V409.56C255.313 408.616 255.081 407.896 254.617 407.4C254.153 406.904 253.513 406.656 252.697 406.656C251.897 406.656 251.265 406.904 250.801 407.4C250.337 407.896 250.105 408.616 250.105 409.56V411.888C250.105 412.848 250.337 413.576 250.801 414.072C251.265 414.568 251.897 414.816 252.697 414.816ZM260.533 417V404.472H263.605V406.56H263.725C263.981 405.888 264.381 405.328 264.925 404.88C265.485 404.416 266.253 404.184 267.229 404.184C268.525 404.184 269.517 404.608 270.205 405.456C270.893 406.304 271.237 407.512 271.237 409.08V417H268.165V409.392C268.165 408.496 268.005 407.824 267.685 407.376C267.365 406.928 266.837 406.704 266.101 406.704C265.781 406.704 265.469 406.752 265.165 406.848C264.877 406.928 264.613 407.056 264.373 407.232C264.149 407.392 263.965 407.6 263.821 407.856C263.677 408.096 263.605 408.384 263.605 408.72V417H260.533ZM191.816 456.264C191.16 456.264 190.672 456.104 190.352 455.784C190.048 455.448 189.896 455.024 189.896 454.512V454.08C189.896 453.568 190.048 453.144 190.352 452.808C190.672 452.472 191.16 452.304 191.816 452.304C192.488 452.304 192.976 452.472 193.28 452.808C193.584 453.144 193.736 453.568 193.736 454.08V454.512C193.736 455.024 193.584 455.448 193.28 455.784C192.976 456.104 192.488 456.264 191.816 456.264ZM191.816 447.168C191.16 447.168 190.672 447.008 190.352 446.688C190.048 446.352 189.896 445.928 189.896 445.416V444.984C189.896 444.472 190.048 444.048 190.352 443.712C190.672 443.376 191.16 443.208 191.816 443.208C192.488 443.208 192.976 443.376 193.28 443.712C193.584 444.048 193.736 444.472 193.736 444.984V445.416C193.736 445.928 193.584 446.352 193.28 446.688C192.976 447.008 192.488 447.168 191.816 447.168ZM208.968 443.688V439.464H204.648V443.688H208.968ZM212.088 436.992V446.184H201.552V436.992H212.088ZM206.881 453.912V455.352H218.952V457.8H203.736V451.632H215.184V450.312H203.712V447.864H218.304V453.912H206.881ZM218.304 440.208H221.209V442.8H218.304V447H215.137V435.96H218.304V440.208ZM228.647 450.96C230.135 450.96 231.215 449.952 231.215 448.248C231.215 446.592 230.135 445.56 228.647 445.56C227.159 445.56 226.055 446.592 226.055 448.272C226.055 449.952 227.159 450.96 228.647 450.96ZM228.647 442.992C231.839 442.992 234.215 445.176 234.215 448.248C234.215 451.368 231.839 453.552 228.647 453.552C225.431 453.552 223.031 451.368 223.031 448.248C223.031 445.176 225.431 442.992 228.647 442.992ZM230.207 436.344V439.224H235.007V441.744H222.143V439.224H227.039V436.344H230.207ZM242.783 444.6V447.216H239.615V458.064H236.447V435.96H239.615V444.6H242.783ZM261.429 441.936V444.456H246.093V436.752H249.261V441.936H261.429ZM249.069 451.008V455.064H261.549V457.584H245.877V451.008H249.069ZM243.621 446.712H263.637V449.256H243.621V446.712ZM278.067 437.664V440.88C278.067 444.864 279.627 448.872 283.179 450.624L281.259 453.12C278.955 451.944 277.395 449.808 276.483 447.168C275.523 449.976 273.867 452.304 271.371 453.528L269.475 450.96C273.195 449.208 274.875 444.984 274.875 440.88V437.664H278.067ZM290.451 444.456V447.096H287.235V458.064H284.067V435.96H287.235V444.456H290.451ZM304.009 445.104L304.273 447.648C301.201 448.224 298.393 448.32 293.977 448.32H292.081V441.432H299.017V439.584H292.057V437.064H302.137V443.784H295.225V445.776C298.825 445.752 301.249 445.608 304.009 445.104ZM297.409 452.52V455.328H305.593V452.52H297.409ZM294.289 457.8V450.024H308.689V457.8H294.289ZM311.617 441.168V443.76H308.689V449.112H305.521V435.96H308.689V441.168H311.617ZM327.791 435.936H330.959V458.112H327.791V435.936ZM319.079 437.496C322.415 437.496 324.887 440.52 324.887 445.368C324.887 450.24 322.415 453.288 319.079 453.288C315.743 453.288 313.271 450.24 313.271 445.368C313.271 440.52 315.743 437.496 319.079 437.496ZM319.079 440.352C317.447 440.352 316.319 442.104 316.319 445.368C316.319 448.656 317.447 450.408 319.079 450.408C320.711 450.408 321.839 448.656 321.839 445.368C321.839 442.104 320.711 440.352 319.079 440.352ZM350.477 446.184H354.389V435.984H357.557V448.752H354.389V448.08H350.477V446.184ZM348.389 440.424V438.816H343.997V440.424H348.389ZM351.509 436.656V442.608H340.901V436.656H351.509ZM344.309 448.752V445.896C342.557 445.92 340.853 445.92 339.293 445.92L338.957 443.76C343.205 443.76 348.461 443.76 353.093 443.256L353.285 445.224C351.365 445.488 349.421 445.656 347.477 445.752V448.752H344.309ZM345.269 455.736H358.061V457.896H342.149V452.64H354.437V451.56H342.125V449.424H357.557V454.608H345.269V455.736ZM379.475 444.192V449.352H376.523V436.248H379.475V441.624H381.107V435.96H384.107V449.568H381.107V444.192H379.475ZM375.899 438.096V440.544H365.147V438.096H368.963V436.104H372.083V438.096H375.899ZM370.571 443.496C369.395 443.496 368.603 444.072 368.603 445.08C368.603 446.112 369.395 446.688 370.571 446.688C371.723 446.688 372.515 446.112 372.515 445.08C372.515 444.072 371.723 443.496 370.571 443.496ZM370.571 448.944C367.763 448.944 365.795 447.384 365.795 445.08C365.795 442.8 367.763 441.24 370.571 441.24C373.355 441.24 375.323 442.8 375.323 445.08C375.323 447.384 373.355 448.944 370.571 448.944ZM381.707 450.288V450.72C381.707 452.784 382.931 454.728 385.811 455.496L384.347 457.8C382.235 457.152 380.867 455.904 380.099 454.32C379.355 455.904 378.107 457.272 376.139 457.992C374.123 457.296 372.851 455.976 372.131 454.392C371.339 455.928 369.995 457.152 367.955 457.8L366.491 455.496C369.371 454.632 370.595 452.64 370.595 450.72V450.288H373.667V450.72C373.667 452.328 374.387 453.984 376.091 455.064C377.819 453.912 378.563 452.184 378.563 450.72V450.288H381.707ZM404.433 441.936V444.456H389.097V436.752H392.265V441.936H404.433ZM392.073 451.008V455.064H404.553V457.584H388.881V451.008H392.073ZM386.625 446.712H406.641V449.256H386.625V446.712ZM416.527 440.688V441.912C416.527 445.512 418.303 449.328 421.999 450.864L420.271 453.36C417.703 452.256 415.951 450.096 414.967 447.432C413.983 450.312 412.207 452.736 409.615 453.912L407.815 451.392C411.511 449.736 413.311 445.68 413.311 441.912V440.688H408.703V438.072H421.087V440.688H416.527ZM423.127 435.96H426.295V458.064H423.127V435.96ZM430.349 438.216H440.765C440.765 444.84 438.245 450.528 430.901 454.248L429.125 451.824C434.261 449.184 436.997 445.68 437.573 440.784H430.349V438.216ZM449.741 444.384V447H446.645V458.016H443.477V435.936H446.645V444.384H449.741ZM457.571 445.128L456.515 442.68C460.619 442.32 462.779 440.88 463.331 439.392H457.475V436.872H473.819V439.392H467.939C468.491 440.88 470.651 442.32 474.779 442.68L473.675 445.128C469.523 444.768 466.811 443.208 465.635 441.12C464.459 443.208 461.747 444.768 457.571 445.128ZM470.051 454.08C470.051 452.952 468.539 452.472 465.587 452.472C462.635 452.472 461.123 452.952 461.123 454.08C461.123 455.184 462.635 455.664 465.587 455.664C468.539 455.664 470.051 455.184 470.051 454.08ZM475.619 448.512H467.219V450.144C471.011 450.456 473.267 451.824 473.267 454.08C473.267 456.624 470.363 458.064 465.587 458.064C460.811 458.064 457.931 456.624 457.931 454.08C457.931 451.8 460.211 450.432 464.051 450.12V448.512H455.651V445.992H475.619V448.512ZM484.57 448.704V452.928H489.442V448.704C488.674 448.848 487.858 448.92 486.994 448.92C486.13 448.92 485.338 448.848 484.57 448.704ZM486.994 439.536C483.922 439.536 481.882 440.784 481.882 442.992C481.882 445.176 483.922 446.448 486.994 446.448C490.066 446.448 492.13 445.176 492.13 442.992C492.13 440.784 490.066 439.536 486.994 439.536ZM492.586 452.928H497.026V455.496H477.01V452.928H481.426V447.528C479.746 446.496 478.738 444.912 478.762 442.992C478.762 439.368 482.242 437.04 486.994 437.04C491.77 437.04 495.25 439.368 495.25 442.992C495.25 444.912 494.242 446.496 492.586 447.528V452.928ZM511.4 438.288L511.376 440.76H498.368V438.288H503.264V435.936H506.456V438.288H511.4ZM502.472 445.8C502.472 447.024 503.456 447.672 504.872 447.672C506.264 447.672 507.272 447.024 507.272 445.8C507.272 444.6 506.264 443.952 504.872 443.952C503.456 443.952 502.472 444.6 502.472 445.8ZM510.296 445.8C510.296 448.344 508.04 450.072 504.872 450.072C501.704 450.072 499.448 448.344 499.448 445.8C499.448 443.304 501.704 441.552 504.872 441.552C508.04 441.552 510.296 443.304 510.296 445.8ZM504.68 451.272V455.16H516.56V457.68H501.512V451.272H504.68ZM515.768 442.704H518.696V445.32H515.768V452.496H512.6V435.96H515.768V442.704ZM539.99 450.648V444.384H536.174V441.816H539.99V435.96H543.158V450.648H539.99ZM526.094 437.616H536.078C536.078 443.664 532.934 447.624 526.286 449.712L524.966 447.24C529.886 445.752 532.214 443.328 532.67 440.16H526.094V437.616ZM537.302 449.016V449.736C537.302 452.232 539.51 454.8 544.19 455.52L542.942 457.992C539.486 457.416 537.038 455.856 535.718 453.744C534.398 455.856 531.926 457.44 528.47 458.04L527.246 455.544C531.926 454.824 534.158 452.256 534.158 449.736V449.016H537.302ZM561.18 435.936H564.348V458.112H561.18V435.936ZM552.468 437.496C555.804 437.496 558.276 440.52 558.276 445.368C558.276 450.24 555.804 453.288 552.468 453.288C549.132 453.288 546.66 450.24 546.66 445.368C546.66 440.52 549.132 437.496 552.468 437.496ZM552.468 440.352C550.836 440.352 549.708 442.104 549.708 445.368C549.708 448.656 550.836 450.408 552.468 450.408C554.1 450.408 555.228 448.656 555.228 445.368C555.228 442.104 554.1 440.352 552.468 440.352ZM578.274 450.408C579.906 450.408 581.034 448.656 581.034 445.368C581.034 442.104 579.906 440.352 578.274 440.352C576.618 440.352 575.514 442.104 575.514 445.368C575.514 448.656 576.618 450.408 578.274 450.408ZM578.274 437.496C581.61 437.496 584.082 440.52 584.082 445.368C584.082 450.24 581.61 453.288 578.274 453.288C574.914 453.288 572.466 450.24 572.466 445.368C572.466 440.52 574.914 437.496 578.274 437.496ZM592.866 444.288V446.904H589.65V458.064H586.482V435.96H589.65V444.288H592.866ZM598 438.048V449.904C600.904 449.832 604.048 449.592 607.288 448.944L607.624 451.584C603.856 452.376 600.184 452.616 596.824 452.616H594.856V438.048H598ZM608.992 435.936H612.16V458.04H608.992V435.936ZM619.094 446.376V450.384C622.262 450.36 624.878 450.192 627.758 449.688L628.046 452.256C624.734 452.856 621.686 453 617.846 453H615.974V443.88H622.982V440.352H615.95V437.832H626.102V446.376H619.094ZM635.582 444.288V446.904H632.414V458.112H629.246V435.936H632.414V444.288H635.582ZM638.964 452.304C639.62 452.304 640.1 452.472 640.404 452.808C640.724 453.144 640.884 453.568 640.884 454.08V454.512C640.884 454.944 640.82 455.392 640.692 455.856C640.58 456.32 640.412 456.768 640.188 457.2C639.98 457.632 639.724 458.04 639.42 458.424C639.132 458.808 638.804 459.144 638.436 459.432H636.252C636.796 458.904 637.252 458.384 637.62 457.872C637.988 457.376 638.268 456.824 638.46 456.216C637.964 456.136 637.604 455.944 637.38 455.64C637.156 455.32 637.044 454.944 637.044 454.512V454.08C637.044 453.568 637.196 453.144 637.5 452.808C637.804 452.472 638.292 452.304 638.964 452.304ZM195.08 489.408C196.712 489.408 197.792 487.656 197.792 484.368C197.792 481.104 196.712 479.352 195.08 479.352C193.472 479.352 192.392 481.104 192.392 484.368C192.392 487.656 193.472 489.408 195.08 489.408ZM204.416 474.936H207.584V497.112H204.416V485.472H200.744C200.408 489.696 198.152 492.288 195.08 492.288C191.792 492.288 189.368 489.24 189.368 484.368C189.368 479.52 191.792 476.496 195.08 476.496C198.056 476.496 200.288 478.92 200.72 482.904H204.416V474.936ZM223.038 480.792H225.942V474.96H229.11V490.968H225.942V483.312H223.038V480.792ZM224.19 484.968L224.454 487.464C222.918 487.848 221.67 487.872 218.742 487.872H217.542V476.64H223.686V479.16H220.662V485.328C222.198 485.28 223.134 485.208 224.19 484.968ZM216.63 484.992L216.87 487.512C215.166 487.872 213.774 487.872 211.83 487.872H210.702V476.64H216.51V479.16H213.822V485.304C214.758 485.256 215.646 485.16 216.63 484.992ZM216.942 494.16H229.638V496.68H213.774V489.624H216.942V494.16ZM242.388 489.192V494.16H254.988V496.68H239.22V489.192H242.388ZM253.884 484.752H256.716V487.272H236.7V484.752H250.716C251.196 482.304 251.268 480.432 251.268 478.704H239.172V476.184H254.388V478.104C254.388 479.976 254.388 482.064 253.884 484.752ZM258.85 477.24H269.242C269.242 483.912 267.106 489.432 259.474 493.248L257.794 490.8C263.314 488.016 265.594 484.584 266.026 479.76H258.85V477.24ZM273.37 474.96H276.538V497.064H273.37V486H269.098V483.432H273.37V474.96ZM290.984 492.048H299.432V494.64H279.416V492.048H287.816V488.76H281.72V481.272H294.056V478.896H281.696V476.376H297.176V483.744H284.864V486.216H297.68V488.76H290.984V492.048ZM313.79 482.688V478.464H309.47V482.688H313.79ZM316.91 475.992V485.184H306.374V475.992H316.91ZM311.702 492.912V494.352H323.774V496.8H308.558V490.632H320.006V489.312H308.534V486.864H323.126V492.912H311.702ZM323.126 479.208H326.03V481.8H323.126V486H319.958V474.96H323.126V479.208ZM333.469 489.96C334.957 489.96 336.037 488.952 336.037 487.248C336.037 485.592 334.957 484.56 333.469 484.56C331.981 484.56 330.877 485.592 330.877 487.272C330.877 488.952 331.981 489.96 333.469 489.96ZM333.469 481.992C336.661 481.992 339.037 484.176 339.037 487.248C339.037 490.368 336.661 492.552 333.469 492.552C330.253 492.552 327.853 490.368 327.853 487.248C327.853 484.176 330.253 481.992 333.469 481.992ZM335.029 475.344V478.224H339.829V480.744H326.965V478.224H331.861V475.344H335.029ZM347.605 483.6V486.216H344.437V497.064H341.269V474.96H344.437V483.6H347.605ZM366.251 480.936V483.456H350.915V475.752H354.083V480.936H366.251ZM353.891 490.008V494.064H366.371V496.584H350.699V490.008H353.891ZM348.443 485.712H368.459V488.256H348.443V485.712ZM378.345 479.688V480.912C378.345 484.512 380.121 488.328 383.817 489.864L382.089 492.36C379.521 491.256 377.769 489.096 376.785 486.432C375.801 489.312 374.025 491.736 371.433 492.912L369.633 490.392C373.329 488.736 375.129 484.68 375.129 480.912V479.688H370.521V477.072H382.905V479.688H378.345ZM384.945 474.96H388.113V497.064H384.945V474.96ZM392.167 477.216H402.583C402.583 483.84 400.063 489.528 392.719 493.248L390.943 490.824C396.079 488.184 398.815 484.68 399.391 479.784H392.167V477.216ZM411.559 483.384V486H408.463V497.016H405.295V474.936H408.463V483.384H411.559ZM419.389 484.128L418.333 481.68C422.437 481.32 424.597 479.88 425.149 478.392H419.293V475.872H435.637V478.392H429.757C430.309 479.88 432.469 481.32 436.597 481.68L435.493 484.128C431.341 483.768 428.629 482.208 427.453 480.12C426.277 482.208 423.565 483.768 419.389 484.128ZM431.869 493.08C431.869 491.952 430.357 491.472 427.405 491.472C424.453 491.472 422.941 491.952 422.941 493.08C422.941 494.184 424.453 494.664 427.405 494.664C430.357 494.664 431.869 494.184 431.869 493.08ZM437.437 487.512H429.037V489.144C432.829 489.456 435.085 490.824 435.085 493.08C435.085 495.624 432.181 497.064 427.405 497.064C422.629 497.064 419.749 495.624 419.749 493.08C419.749 490.8 422.029 489.432 425.869 489.12V487.512H417.469V484.992H437.437V487.512ZM446.387 487.704V491.928H451.259V487.704C450.491 487.848 449.675 487.92 448.811 487.92C447.947 487.92 447.155 487.848 446.387 487.704ZM448.811 478.536C445.739 478.536 443.699 479.784 443.699 481.992C443.699 484.176 445.739 485.448 448.811 485.448C451.883 485.448 453.947 484.176 453.947 481.992C453.947 479.784 451.883 478.536 448.811 478.536ZM454.403 491.928H458.843V494.496H438.827V491.928H443.243V486.528C441.563 485.496 440.555 483.912 440.579 481.992C440.579 478.368 444.059 476.04 448.811 476.04C453.587 476.04 457.067 478.368 457.067 481.992C457.067 483.912 456.059 485.496 454.403 486.528V491.928ZM473.217 477.288L473.193 479.76H460.185V477.288H465.081V474.936H468.273V477.288H473.217ZM464.289 484.8C464.289 486.024 465.273 486.672 466.689 486.672C468.081 486.672 469.089 486.024 469.089 484.8C469.089 483.6 468.081 482.952 466.689 482.952C465.273 482.952 464.289 483.6 464.289 484.8ZM472.113 484.8C472.113 487.344 469.857 489.072 466.689 489.072C463.521 489.072 461.265 487.344 461.265 484.8C461.265 482.304 463.521 480.552 466.689 480.552C469.857 480.552 472.113 482.304 472.113 484.8ZM466.497 490.272V494.16H478.377V496.68H463.329V490.272H466.497ZM477.585 481.704H480.513V484.32H477.585V491.496H474.417V474.96H477.585V481.704ZM487.287 477.24H497.679C497.679 483.912 495.543 489.432 487.911 493.248L486.231 490.8C491.751 488.016 494.031 484.584 494.463 479.76H487.287V477.24ZM501.807 474.96H504.975V497.064H501.807V486H497.535V483.432H501.807V474.96ZM513.781 489.408C515.413 489.408 516.541 487.656 516.541 484.368C516.541 481.128 515.413 479.352 513.781 479.352C512.125 479.352 511.021 481.128 511.021 484.368C511.021 487.656 512.125 489.408 513.781 489.408ZM513.781 476.496C517.117 476.496 519.589 479.52 519.589 484.368C519.589 489.24 517.117 492.288 513.781 492.288C510.421 492.288 507.973 489.24 507.973 484.368C507.973 479.52 510.421 476.496 513.781 476.496ZM528.205 482.712H525.157V486.576H528.205V489.168H525.157V497.064H521.989V474.96H525.157V480.12H528.205V482.712Z" fill="white"/>
</g>
<defs>
<filter id="filter0_d_128_481" x="0" y="0" width="734" height="544" filterUnits="userSpaceOnUse" color-interpolation-filters="sRGB">
<feFlood flood-opacity="0" result="BackgroundImageFix"/>
<feColorMatrix in="SourceAlpha" type="matrix" values="0 0 0 0 0 0 0 0 0 0 0 0 0 0 0 0 0 0 127 0" result="hardAlpha"/>
<feOffset/>
<feGaussianBlur stdDeviation="7.5"/>
<feComposite in2="hardAlpha" operator="out"/>
<feColorMatrix type="matrix" values="0 0 0 0 0 0 0 0 0 0 0 0 0 0 0 0 0 0 0.25 0"/>
<feBlend mode="normal" in2="BackgroundImageFix" result="effect1_dropShadow_128_481"/>
<feBlend mode="normal" in="SourceGraphic" in2="effect1_dropShadow_128_481" result="shape"/>
</filter>
</defs>
</svg>
