<svg width="844" height="550" viewBox="0 0 844 550" fill="none" xmlns="http://www.w3.org/2000/svg">
<g filter="url(#filter0_d_130_2)">
<rect x="106" y="15" width="723" height="208" rx="4" fill="#FF4C91"/>
<rect x="15" y="217" width="576" height="170" rx="4" fill="black"/>
<path d="M58.312 263.8H62.464V250.96H65.632V267.712H62.464V265.96H58.312V263.8ZM54.064 254.008C52.576 254.008 51.544 254.584 51.544 255.664C51.544 256.744 52.576 257.296 54.064 257.296C55.528 257.296 56.56 256.744 56.56 255.664C56.56 254.584 55.528 254.008 54.064 254.008ZM54.064 259.6C50.824 259.6 48.568 258.016 48.568 255.664C48.568 253.312 50.824 251.704 54.064 251.704C57.28 251.704 59.56 253.312 59.56 255.664C59.56 258.016 57.28 259.6 54.064 259.6ZM52.888 270.16H66.112V272.68H49.72V266.104H52.792V263.152C50.848 263.248 49 263.272 47.344 263.272L46.936 260.752C50.968 260.728 56.344 260.68 61 260.08L61.216 262.336C59.488 262.624 57.712 262.816 55.936 262.96V267.136H52.888V270.16ZM80.1741 257.416H83.7021V250.96H86.8701V267.328H83.7021V259.96H80.1741V257.416ZM81.6621 262.264L80.1501 264.736C77.6781 264.016 75.9741 262.528 74.9661 260.632C74.0061 262.696 72.2781 264.304 69.7821 265.096L68.2461 262.624C71.7981 261.496 73.3341 258.808 73.3341 256.144V256.048H69.0141V253.576H73.3341V251.128H76.5021V253.576H80.8701V256.048H76.5021V256.144C76.5021 258.664 78.0621 261.184 81.6621 262.264ZM75.4701 270.16H87.3741V272.68H72.3021V265.96H75.4701V270.16ZM99.6843 270.712C102.66 270.712 104.148 270.232 104.148 269.128C104.148 268.024 102.66 267.568 99.6843 267.568C96.7083 267.568 95.2443 268.024 95.2443 269.128C95.2443 270.232 96.7083 270.712 99.6843 270.712ZM99.6843 265.192C104.484 265.192 107.364 266.608 107.364 269.128C107.364 271.672 104.484 273.064 99.6843 273.064C94.9083 273.064 92.0283 271.672 92.0283 269.128C92.0283 266.608 94.9083 265.192 99.6843 265.192ZM95.4363 255.832V257.488H104.052V255.832H95.4363ZM101.292 261.64H109.74V264.136H89.7483V261.64H98.1243V259.96H92.2923V251.584H95.4363V253.456H104.052V251.584H107.196V259.96H101.292V261.64ZM118.162 262.048V265.816C119.458 265.72 120.754 265.624 121.882 265.432L122.074 267.736C118.522 268.48 114.01 268.576 111.202 268.576L110.866 266.008C112.042 266.008 113.554 266.008 115.162 265.96V262.048H118.162ZM118.234 252.688V254.464C118.234 256.768 119.41 259 122.266 260.08L120.706 262.48C118.762 261.76 117.49 260.416 116.722 258.784C115.93 260.632 114.514 262.096 112.378 262.888L110.794 260.488C113.866 259.36 115.09 256.96 115.09 254.464V252.688H118.234ZM127.186 250.936H130.186V273.04H127.186V262.24H125.554V272.08H122.602V251.344H125.554V259.672H127.186V250.936ZM139.569 252.424C143.025 252.424 145.665 254.704 145.665 257.872C145.665 261.064 143.025 263.32 139.569 263.32C136.113 263.32 133.497 261.064 133.497 257.872C133.497 254.704 136.113 252.424 139.569 252.424ZM139.569 255.136C137.865 255.136 136.569 256.144 136.569 257.872C136.569 259.6 137.865 260.608 139.569 260.608C141.273 260.608 142.569 259.6 142.569 257.872C142.569 256.144 141.273 255.136 139.569 255.136ZM147.729 250.936H150.897V273.112H147.729V250.936ZM132.969 268.624L132.561 266.056C136.449 266.056 141.873 266.032 146.529 265.336L146.721 267.616C141.969 268.576 136.785 268.624 132.969 268.624ZM163.647 258.184C163.647 260.44 165.735 261.76 168.759 261.76C171.807 261.76 173.895 260.44 173.895 258.184C173.895 255.928 171.807 254.608 168.759 254.608C165.735 254.608 163.647 255.928 163.647 258.184ZM170.343 267.928H178.791V270.496H158.775V267.928H167.175V264.184C163.287 263.704 160.527 261.472 160.527 258.184C160.527 254.488 164.055 252.088 168.759 252.088C173.487 252.088 177.015 254.488 177.015 258.184C177.015 261.472 174.255 263.728 170.343 264.184V267.928ZM194.629 255.76V254.152H182.437V251.632H197.845V258.088H185.701V259.84H198.373V262.36H182.461V255.76H194.629ZM200.149 263.92V266.44H195.565V273.088H192.373V266.44H187.933V273.088H184.741V266.44H180.133V263.92H200.149ZM201.659 263.512C201.659 262.36 201.763 261.248 201.971 260.176C202.195 259.104 202.491 258.112 202.859 257.2C203.243 256.272 203.691 255.432 204.203 254.68C204.715 253.928 205.275 253.288 205.883 252.76H208.787C208.131 253.368 207.539 254.04 207.011 254.776C206.499 255.512 206.059 256.304 205.691 257.152C205.323 257.984 205.035 258.864 204.827 259.792C204.635 260.72 204.539 261.672 204.539 262.648V264.424C204.539 265.416 204.635 266.384 204.827 267.328C205.035 268.256 205.323 269.144 205.691 269.992C206.075 270.824 206.523 271.608 207.035 272.344C207.563 273.08 208.147 273.736 208.787 274.312H205.883C205.291 273.816 204.739 273.192 204.227 272.44C203.715 271.688 203.267 270.848 202.883 269.92C202.499 268.976 202.195 267.968 201.971 266.896C201.763 265.808 201.659 264.68 201.659 263.512ZM209.601 258.472H212.673V260.536H212.769C212.993 259.816 213.417 259.248 214.041 258.832C214.665 258.4 215.393 258.184 216.225 258.184C217.825 258.184 219.041 258.752 219.873 259.888C220.721 261.008 221.145 262.616 221.145 264.712C221.145 266.824 220.721 268.448 219.873 269.584C219.041 270.72 217.825 271.288 216.225 271.288C215.393 271.288 214.665 271.072 214.041 270.64C213.433 270.208 213.009 269.632 212.769 268.912H212.673V275.8H209.601V258.472ZM215.241 268.744C216.041 268.744 216.689 268.48 217.185 267.952C217.681 267.424 217.929 266.712 217.929 265.816V263.656C217.929 262.76 217.681 262.048 217.185 261.52C216.689 260.976 216.041 260.704 215.241 260.704C214.505 260.704 213.889 260.888 213.393 261.256C212.913 261.624 212.673 262.112 212.673 262.72V266.704C212.673 267.36 212.913 267.864 213.393 268.216C213.889 268.568 214.505 268.744 215.241 268.744ZM228.239 271.288C227.343 271.288 226.535 271.136 225.815 270.832C225.111 270.528 224.503 270.088 223.991 269.512C223.495 268.936 223.111 268.248 222.839 267.448C222.567 266.632 222.431 265.72 222.431 264.712C222.431 263.704 222.567 262.8 222.839 262C223.111 261.2 223.495 260.52 223.991 259.96C224.503 259.384 225.111 258.944 225.815 258.64C226.535 258.336 227.343 258.184 228.239 258.184C229.135 258.184 229.943 258.336 230.663 258.64C231.383 258.944 231.991 259.384 232.487 259.96C232.999 260.52 233.391 261.2 233.663 262C233.935 262.8 234.071 263.704 234.071 264.712C234.071 265.72 233.935 266.632 233.663 267.448C233.391 268.248 232.999 268.936 232.487 269.512C231.991 270.088 231.383 270.528 230.663 270.832C229.943 271.136 229.135 271.288 228.239 271.288ZM228.239 268.816C229.055 268.816 229.695 268.568 230.159 268.072C230.623 267.576 230.855 266.848 230.855 265.888V263.56C230.855 262.616 230.623 261.896 230.159 261.4C229.695 260.904 229.055 260.656 228.239 260.656C227.439 260.656 226.807 260.904 226.343 261.4C225.879 261.896 225.647 262.616 225.647 263.56V265.888C225.647 266.848 225.879 267.576 226.343 268.072C226.807 268.568 227.439 268.816 228.239 268.816ZM237.611 256.648C236.971 256.648 236.507 256.504 236.219 256.216C235.947 255.928 235.811 255.56 235.811 255.112V254.632C235.811 254.184 235.947 253.816 236.219 253.528C236.507 253.24 236.971 253.096 237.611 253.096C238.235 253.096 238.691 253.24 238.979 253.528C239.267 253.816 239.411 254.184 239.411 254.632V255.112C239.411 255.56 239.267 255.928 238.979 256.216C238.691 256.504 238.235 256.648 237.611 256.648ZM236.075 258.472H239.147V271H236.075V258.472ZM246.092 271.288C244.892 271.288 243.884 271.088 243.068 270.688C242.252 270.272 241.532 269.704 240.908 268.984L242.78 267.16C243.244 267.688 243.748 268.104 244.292 268.408C244.852 268.712 245.492 268.864 246.212 268.864C246.948 268.864 247.476 268.736 247.796 268.48C248.132 268.224 248.3 267.872 248.3 267.424C248.3 267.056 248.18 266.768 247.94 266.56C247.716 266.336 247.324 266.184 246.764 266.104L245.516 265.936C244.156 265.76 243.116 265.376 242.396 264.784C241.692 264.176 241.34 263.296 241.34 262.144C241.34 261.536 241.452 260.992 241.676 260.512C241.9 260.016 242.22 259.6 242.636 259.264C243.052 258.912 243.548 258.648 244.124 258.472C244.716 258.28 245.372 258.184 246.092 258.184C246.7 258.184 247.236 258.232 247.7 258.328C248.18 258.408 248.612 258.536 248.996 258.712C249.38 258.872 249.732 259.08 250.052 259.336C250.372 259.576 250.684 259.848 250.988 260.152L249.188 261.952C248.82 261.568 248.38 261.248 247.868 260.992C247.356 260.736 246.796 260.608 246.188 260.608C245.516 260.608 245.028 260.728 244.724 260.968C244.436 261.208 244.292 261.52 244.292 261.904C244.292 262.32 244.412 262.64 244.652 262.864C244.908 263.072 245.332 263.224 245.924 263.32L247.196 263.488C249.9 263.872 251.252 265.104 251.252 267.184C251.252 267.792 251.124 268.352 250.868 268.864C250.628 269.36 250.284 269.792 249.836 270.16C249.388 270.512 248.844 270.792 248.204 271C247.58 271.192 246.876 271.288 246.092 271.288ZM258.212 271.288C257.316 271.288 256.508 271.136 255.788 270.832C255.084 270.528 254.476 270.088 253.964 269.512C253.468 268.936 253.084 268.248 252.812 267.448C252.54 266.632 252.404 265.72 252.404 264.712C252.404 263.704 252.54 262.8 252.812 262C253.084 261.2 253.468 260.52 253.964 259.96C254.476 259.384 255.084 258.944 255.788 258.64C256.508 258.336 257.316 258.184 258.212 258.184C259.108 258.184 259.916 258.336 260.636 258.64C261.356 258.944 261.964 259.384 262.46 259.96C262.972 260.52 263.364 261.2 263.636 262C263.908 262.8 264.044 263.704 264.044 264.712C264.044 265.72 263.908 266.632 263.636 267.448C263.364 268.248 262.972 268.936 262.46 269.512C261.964 270.088 261.356 270.528 260.636 270.832C259.916 271.136 259.108 271.288 258.212 271.288ZM258.212 268.816C259.028 268.816 259.668 268.568 260.132 268.072C260.596 267.576 260.828 266.848 260.828 265.888V263.56C260.828 262.616 260.596 261.896 260.132 261.4C259.668 260.904 259.028 260.656 258.212 260.656C257.412 260.656 256.78 260.904 256.316 261.4C255.852 261.896 255.62 262.616 255.62 263.56V265.888C255.62 266.848 255.852 267.576 256.316 268.072C256.78 268.568 257.412 268.816 258.212 268.816ZM266.048 271V258.472H269.12V260.56H269.24C269.496 259.888 269.896 259.328 270.44 258.88C271 258.416 271.768 258.184 272.744 258.184C274.04 258.184 275.032 258.608 275.72 259.456C276.408 260.304 276.752 261.512 276.752 263.08V271H273.68V263.392C273.68 262.496 273.52 261.824 273.2 261.376C272.88 260.928 272.352 260.704 271.616 260.704C271.296 260.704 270.984 260.752 270.68 260.848C270.392 260.928 270.128 261.056 269.888 261.232C269.664 261.392 269.48 261.6 269.336 261.856C269.192 262.096 269.12 262.384 269.12 262.72V271H266.048ZM280.973 256.648C280.333 256.648 279.869 256.504 279.581 256.216C279.309 255.928 279.173 255.56 279.173 255.112V254.632C279.173 254.184 279.309 253.816 279.581 253.528C279.869 253.24 280.333 253.096 280.973 253.096C281.597 253.096 282.053 253.24 282.341 253.528C282.629 253.816 282.773 254.184 282.773 254.632V255.112C282.773 255.56 282.629 255.928 282.341 256.216C282.053 256.504 281.597 256.648 280.973 256.648ZM279.437 258.472H282.509V271H279.437V258.472ZM285.35 271V258.472H288.422V260.56H288.542C288.798 259.888 289.198 259.328 289.742 258.88C290.302 258.416 291.07 258.184 292.046 258.184C293.342 258.184 294.334 258.608 295.022 259.456C295.71 260.304 296.054 261.512 296.054 263.08V271H292.982V263.392C292.982 262.496 292.822 261.824 292.502 261.376C292.182 260.928 291.654 260.704 290.918 260.704C290.598 260.704 290.286 260.752 289.982 260.848C289.694 260.928 289.43 261.056 289.19 261.232C288.966 261.392 288.782 261.6 288.638 261.856C288.494 262.096 288.422 262.384 288.422 262.72V271H285.35ZM310.043 272.056C310.043 272.712 309.923 273.288 309.683 273.784C309.459 274.296 309.083 274.72 308.555 275.056C308.027 275.392 307.347 275.648 306.515 275.824C305.683 276 304.667 276.088 303.467 276.088C302.411 276.088 301.515 276.016 300.779 275.872C300.043 275.744 299.435 275.552 298.955 275.296C298.491 275.056 298.155 274.752 297.947 274.384C297.739 274.016 297.635 273.6 297.635 273.136C297.635 272.432 297.827 271.88 298.211 271.48C298.611 271.096 299.163 270.848 299.867 270.736V270.472C299.355 270.344 298.955 270.096 298.667 269.728C298.395 269.344 298.259 268.896 298.259 268.384C298.259 268.064 298.323 267.784 298.451 267.544C298.579 267.288 298.747 267.072 298.955 266.896C299.179 266.72 299.427 266.576 299.699 266.464C299.971 266.336 300.259 266.24 300.563 266.176V266.08C299.795 265.728 299.219 265.24 298.835 264.616C298.467 263.992 298.283 263.264 298.283 262.432C298.283 261.152 298.723 260.128 299.603 259.36C300.483 258.576 301.771 258.184 303.467 258.184C303.851 258.184 304.227 258.208 304.595 258.256C304.979 258.304 305.331 258.384 305.651 258.496V258.088C305.651 256.872 306.243 256.264 307.427 256.264H309.371V258.616H306.707V258.952C307.363 259.32 307.851 259.8 308.171 260.392C308.491 260.984 308.651 261.664 308.651 262.432C308.651 263.696 308.211 264.712 307.331 265.48C306.467 266.248 305.179 266.632 303.467 266.632C302.731 266.632 302.091 266.56 301.547 266.416C301.307 266.528 301.099 266.68 300.923 266.872C300.747 267.048 300.659 267.272 300.659 267.544C300.659 268.168 301.203 268.48 302.291 268.48H305.651C307.187 268.48 308.299 268.8 308.987 269.44C309.691 270.064 310.043 270.936 310.043 272.056ZM307.163 272.416C307.163 272.016 307.003 271.704 306.683 271.48C306.363 271.256 305.811 271.144 305.027 271.144H300.755C300.323 271.464 300.107 271.896 300.107 272.44C300.107 272.92 300.307 273.296 300.707 273.568C301.107 273.84 301.787 273.976 302.747 273.976H304.283C305.291 273.976 306.019 273.848 306.467 273.592C306.931 273.336 307.163 272.944 307.163 272.416ZM303.467 264.544C304.971 264.544 305.723 263.904 305.723 262.624V262.216C305.723 260.936 304.971 260.296 303.467 260.296C301.963 260.296 301.211 260.936 301.211 262.216V262.624C301.211 263.904 301.963 264.544 303.467 264.544ZM319.961 271C318.905 271 318.097 270.728 317.537 270.184C316.993 269.624 316.721 268.832 316.721 267.808V260.92H314.873V258.472H315.833C316.297 258.472 316.609 258.368 316.769 258.16C316.945 257.936 317.033 257.608 317.033 257.176V255.04H319.793V258.472H322.361V260.92H319.793V268.552H322.169V271H319.961ZM324.306 253.24H327.378V260.56H327.498C327.754 259.888 328.154 259.328 328.698 258.88C329.258 258.416 330.026 258.184 331.002 258.184C332.298 258.184 333.29 258.608 333.978 259.456C334.666 260.304 335.01 261.512 335.01 263.08V271H331.938V263.392C331.938 262.496 331.778 261.824 331.458 261.376C331.138 260.928 330.61 260.704 329.874 260.704C329.554 260.704 329.242 260.752 328.938 260.848C328.65 260.928 328.386 261.056 328.146 261.232C327.922 261.392 327.738 261.6 327.594 261.856C327.45 262.096 327.378 262.384 327.378 262.72V271H324.306V253.24ZM342.759 271.288C341.831 271.288 340.999 271.136 340.263 270.832C339.543 270.512 338.927 270.072 338.415 269.512C337.919 268.936 337.535 268.248 337.263 267.448C336.991 266.632 336.855 265.72 336.855 264.712C336.855 263.72 336.983 262.824 337.239 262.024C337.511 261.224 337.895 260.544 338.391 259.984C338.887 259.408 339.495 258.968 340.215 258.664C340.935 258.344 341.751 258.184 342.663 258.184C343.639 258.184 344.487 258.352 345.207 258.688C345.927 259.024 346.519 259.48 346.983 260.056C347.447 260.632 347.791 261.304 348.015 262.072C348.255 262.824 348.375 263.632 348.375 264.496V265.504H340.047V265.816C340.047 266.728 340.303 267.464 340.815 268.024C341.327 268.568 342.087 268.84 343.095 268.84C343.863 268.84 344.487 268.68 344.967 268.36C345.463 268.04 345.903 267.632 346.287 267.136L347.943 268.984C347.431 269.704 346.727 270.272 345.831 270.688C344.951 271.088 343.927 271.288 342.759 271.288ZM342.711 260.488C341.895 260.488 341.247 260.76 340.767 261.304C340.287 261.848 340.047 262.552 340.047 263.416V263.608H345.183V263.392C345.183 262.528 344.967 261.832 344.535 261.304C344.119 260.76 343.511 260.488 342.711 260.488ZM354.086 258.472H357.038L358.31 263.632L359.294 267.928H359.39L360.542 263.632L362.006 258.472H364.79L366.302 263.632L367.478 267.928H367.574L368.558 263.632L369.806 258.472H372.662L369.23 271H365.918L364.31 265.48L363.374 262.072H363.302L362.39 265.48L360.806 271H357.542L354.086 258.472ZM379.107 271.288C378.179 271.288 377.347 271.136 376.611 270.832C375.891 270.512 375.275 270.072 374.763 269.512C374.267 268.936 373.883 268.248 373.611 267.448C373.339 266.632 373.203 265.72 373.203 264.712C373.203 263.72 373.331 262.824 373.587 262.024C373.859 261.224 374.243 260.544 374.739 259.984C375.235 259.408 375.843 258.968 376.563 258.664C377.283 258.344 378.099 258.184 379.011 258.184C379.987 258.184 380.835 258.352 381.555 258.688C382.275 259.024 382.867 259.48 383.331 260.056C383.795 260.632 384.139 261.304 384.363 262.072C384.603 262.824 384.723 263.632 384.723 264.496V265.504H376.395V265.816C376.395 266.728 376.651 267.464 377.163 268.024C377.675 268.568 378.435 268.84 379.443 268.84C380.211 268.84 380.835 268.68 381.315 268.36C381.811 268.04 382.251 267.632 382.635 267.136L384.291 268.984C383.779 269.704 383.075 270.272 382.179 270.688C381.299 271.088 380.275 271.288 379.107 271.288ZM379.059 260.488C378.243 260.488 377.595 260.76 377.115 261.304C376.635 261.848 376.395 262.552 376.395 263.416V263.608H381.531V263.392C381.531 262.528 381.315 261.832 380.883 261.304C380.467 260.76 379.859 260.488 379.059 260.488ZM389.778 271C388.722 271 387.946 270.736 387.45 270.208C386.954 269.68 386.706 268.936 386.706 267.976V253.24H389.778V268.552H391.434V271H389.778ZM395.948 271C394.892 271 394.116 270.736 393.62 270.208C393.124 269.68 392.876 268.936 392.876 267.976V253.24H395.948V268.552H397.604V271H395.948ZM404.323 263.512C404.323 264.68 404.211 265.808 403.987 266.896C403.779 267.968 403.483 268.976 403.099 269.92C402.715 270.848 402.267 271.688 401.755 272.44C401.243 273.192 400.691 273.816 400.099 274.312H397.195C397.835 273.736 398.411 273.08 398.923 272.344C399.451 271.608 399.899 270.824 400.267 269.992C400.651 269.144 400.939 268.256 401.131 267.328C401.339 266.384 401.443 265.416 401.443 264.424V262.648C401.443 261.672 401.339 260.72 401.131 259.792C400.939 258.864 400.659 257.984 400.291 257.152C399.923 256.304 399.475 255.512 398.947 254.776C398.435 254.04 397.851 253.368 397.195 252.76H400.099C400.707 253.288 401.267 253.928 401.779 254.68C402.291 255.432 402.731 256.272 403.099 257.2C403.483 258.112 403.779 259.104 403.987 260.176C404.211 261.248 404.323 262.36 404.323 263.512ZM49.816 310.264C49.16 310.264 48.672 310.104 48.352 309.784C48.048 309.448 47.896 309.024 47.896 308.512V308.08C47.896 307.568 48.048 307.144 48.352 306.808C48.672 306.472 49.16 306.304 49.816 306.304C50.488 306.304 50.976 306.472 51.28 306.808C51.584 307.144 51.736 307.568 51.736 308.08V308.512C51.736 309.024 51.584 309.448 51.28 309.784C50.976 310.104 50.488 310.264 49.816 310.264ZM49.816 301.168C49.16 301.168 48.672 301.008 48.352 300.688C48.048 300.352 47.896 299.928 47.896 299.416V298.984C47.896 298.472 48.048 298.048 48.352 297.712C48.672 297.376 49.16 297.208 49.816 297.208C50.488 297.208 50.976 297.376 51.28 297.712C51.584 298.048 51.736 298.472 51.736 298.984V299.416C51.736 299.928 51.584 300.352 51.28 300.688C50.976 301.008 50.488 301.168 49.816 301.168ZM64.9045 305.176C66.9445 305.176 68.3845 302.92 68.3845 299.416C68.3845 295.936 66.9445 293.68 64.9045 293.68C62.8405 293.68 61.4005 295.936 61.4005 299.416C61.4005 302.92 62.8405 305.176 64.9045 305.176ZM74.9125 290.248H76.8805V311.824H74.9125V300.064H70.2325C70.0405 304.288 67.9045 306.928 64.9045 306.928C61.7605 306.928 59.5285 304 59.5285 299.416C59.5285 294.832 61.7605 291.904 64.9045 291.904C67.8085 291.904 69.9205 294.424 70.2325 298.456H74.9125V290.248ZM92.5986 296.176H96.4626V290.272H98.4546V305.944H96.4626V297.784H92.5986V296.176ZM94.4226 300.376L94.6146 301.984C92.6946 302.416 91.1106 302.464 88.7586 302.464H87.6546V292.048H93.6306V293.632H89.5986V300.856C91.4226 300.832 92.7906 300.76 94.4226 300.376ZM86.7666 300.4L86.9346 302.008C84.9906 302.464 83.4066 302.464 82.0386 302.464H81.0786V292.048H86.5026V293.632H83.0226V300.856C84.0786 300.808 85.3506 300.712 86.7666 300.4ZM86.0226 309.688H98.9826V311.296H84.0546V304.624H86.0226V309.688ZM123.997 298.048V299.584H109.357V290.824H123.877V292.36H111.325V294.4H123.301V295.888H111.325V298.048H123.997ZM108.973 306.856V305.296H123.757V311.8H121.789V306.856H108.973ZM106.789 301.624H126.277V303.208H106.789V301.624ZM139.667 295.84H143.915V290.272H145.907V303.088H143.915V297.448H139.667V295.84ZM140.867 300.736L139.883 302.272C137.483 301.408 135.635 299.632 134.699 297.424C133.787 299.92 131.795 301.936 129.275 302.896L128.243 301.336C131.459 300.16 133.667 297.256 133.667 294.16V293.416H128.867V291.832H140.363V293.416H135.635V294.16C135.635 296.92 137.747 299.632 140.867 300.736ZM138.803 310.24C142.043 310.24 144.011 309.328 144.011 307.768C144.011 306.208 142.043 305.272 138.803 305.272C135.563 305.272 133.595 306.208 133.595 307.768C133.595 309.328 135.563 310.24 138.803 310.24ZM138.803 303.76C143.219 303.76 145.979 305.224 145.979 307.768C145.979 310.312 143.219 311.776 138.803 311.776C134.387 311.776 131.627 310.312 131.627 307.768C131.627 305.224 134.387 303.76 138.803 303.76ZM156.401 300.712L155.657 299.152C159.401 298.6 163.121 296.128 163.121 293.296V293.176H156.329V291.592H172.049V293.176H165.305V293.296C165.305 296.128 169.025 298.6 172.817 299.152L172.049 300.712C168.713 300.136 165.521 298.336 164.225 295.792C162.905 298.336 159.737 300.136 156.401 300.712ZM173.945 302.512L173.969 304.12H165.161V311.776H163.193V304.12H154.505V302.512H173.945ZM188.319 300.664L187.383 302.2C184.935 301.408 183.087 299.704 182.175 297.568C181.263 300.016 179.319 301.936 176.751 302.848L175.743 301.288C178.983 300.16 181.143 297.376 181.143 294.28V293.44H176.319V291.856H187.863V293.44H183.111V294.28C183.111 297.088 185.151 299.608 188.319 300.664ZM185.703 310.192C188.871 310.192 190.815 309.304 190.815 307.768C190.815 306.256 188.871 305.368 185.703 305.368C182.487 305.368 180.567 306.256 180.567 307.768C180.567 309.304 182.487 310.192 185.703 310.192ZM185.703 303.808C190.071 303.808 192.783 305.272 192.783 307.768C192.783 310.288 190.071 311.752 185.703 311.752C181.287 311.752 178.599 310.288 178.599 307.768C178.599 305.272 181.287 303.808 185.703 303.808ZM192.543 295.696H195.735V297.352H192.543V303.256H190.575V290.272H192.543V295.696ZM202.069 305.224C203.749 305.224 204.853 303.04 204.853 299.512C204.853 296.056 203.749 293.872 202.069 293.872C200.341 293.872 199.261 296.056 199.261 299.512C199.261 303.04 200.341 305.224 202.069 305.224ZM209.341 298.624V290.728H211.213V310.72H209.341V300.232H206.629C206.461 304.456 204.709 307.048 202.069 307.048C199.261 307.048 197.461 304.168 197.461 299.512C197.461 294.928 199.261 292.048 202.069 292.048C204.661 292.048 206.389 294.568 206.629 298.624H209.341ZM213.613 290.248H215.485V311.776H213.613V290.248ZM226.219 294.472V304.84C229.099 304.816 231.139 304.696 233.491 304.192L233.659 305.824C231.091 306.376 228.907 306.472 225.691 306.472H224.275V292.864H232.291V294.472H226.219ZM239.899 290.248H241.795V311.776H239.899V300.496H236.851V310.696H235.003V290.728H236.851V298.888H239.899V290.248ZM257.633 292.888V294.472H244.937V292.888H250.289V290.248H252.257V292.888H257.633ZM248.009 299.656C248.009 301.168 249.329 302.128 251.273 302.128C253.217 302.128 254.561 301.168 254.561 299.656C254.561 298.168 253.217 297.208 251.273 297.208C249.329 297.208 248.009 298.168 248.009 299.656ZM256.433 299.656C256.433 302.08 254.321 303.664 251.273 303.664C248.225 303.664 246.137 302.08 246.137 299.656C246.137 297.256 248.225 295.672 251.273 295.672C254.321 295.672 256.433 297.256 256.433 299.656ZM250.145 305.128V309.688H262.529V311.296H248.177V305.128H250.145ZM261.569 297.352H264.737V299.008H261.569V306.4H259.601V290.248H261.569V297.352ZM280.103 300.88V296.944H274.007V300.88H280.103ZM282.023 291.808V302.464H272.063V291.808H274.007V295.408H280.103V291.808H282.023ZM276.455 304.552V309.688H288.839V311.296H274.487V304.552H276.455ZM287.879 296.776H291.047V298.432H287.879V306.064H285.911V290.272H287.879V296.776ZM297.045 305.608V309.952H310.005V311.56H295.077V305.608H297.045ZM303.285 302.536H312.045V304.144H292.509V302.536H301.293V300.184H295.029V294.832H307.605V292.48H294.981V290.944H309.549V296.296H296.973V298.648H310.005V300.184H303.285V302.536ZM329.539 290.248H331.507V311.824H329.539V290.248ZM320.155 291.904C323.347 291.904 325.627 294.832 325.627 299.416C325.627 304 323.347 306.928 320.155 306.928C316.963 306.928 314.683 304 314.683 299.416C314.683 294.832 316.963 291.904 320.155 291.904ZM320.155 293.68C318.043 293.68 316.555 295.936 316.555 299.416C316.555 302.92 318.043 305.176 320.155 305.176C322.243 305.176 323.731 302.92 323.731 299.416C323.731 295.936 322.243 293.68 320.155 293.68ZM357.865 290.248V301.288H355.897V290.248H357.865ZM342.601 295.816C342.601 297.664 344.161 298.984 346.249 298.984C348.361 298.984 349.897 297.664 349.897 295.816C349.897 293.944 348.361 292.624 346.249 292.624C344.161 292.624 342.601 293.944 342.601 295.816ZM351.817 295.816C351.817 298.648 349.465 300.568 346.249 300.568C343.033 300.568 340.705 298.648 340.705 295.816C340.705 292.96 343.033 291.016 346.249 291.016C349.465 291.016 351.817 292.96 351.817 295.816ZM345.913 309.928H358.585V311.488H343.969V306.088H355.921V303.904H343.921V302.344H357.865V307.552H345.913V309.928ZM367.32 305.176C369.36 305.176 370.8 302.92 370.8 299.416C370.8 295.936 369.36 293.68 367.32 293.68C365.256 293.68 363.816 295.936 363.816 299.416C363.816 302.92 365.256 305.176 367.32 305.176ZM377.328 290.248H379.296V311.824H377.328V300.064H372.648C372.456 304.288 370.32 306.928 367.32 306.928C364.176 306.928 361.944 304 361.944 299.416C361.944 294.832 364.176 291.904 367.32 291.904C370.224 291.904 372.336 294.424 372.648 298.456H377.328V290.248ZM395.422 297.472L395.686 299.128C392.062 299.848 388.87 300.064 385.654 300.064H383.974V291.184H385.918V298.432C388.942 298.408 392.014 298.168 395.422 297.472ZM387.958 307.432V309.904H400.414V311.488H386.014V305.92H397.678V303.712H385.942V302.128H399.622V307.432H387.958ZM399.622 294.712H402.814V296.344H399.622V301.096H397.654V290.248H399.622V294.712ZM427.756 298.456L426.94 300.04C423.604 299.464 420.364 297.592 418.972 295C417.628 297.616 414.388 299.464 411.028 300.04L410.236 298.456C414.148 297.88 417.94 295.288 417.94 292.216V291.016H420.004V292.216C420.004 295.216 423.844 297.88 427.756 298.456ZM428.692 302.368L428.716 304H419.908V311.8H417.94V304H409.252V302.368H428.692ZM453.202 290.272V302.56H451.234V290.272H453.202ZM441.634 293.152C439.498 293.152 437.962 294.568 437.962 296.536C437.962 298.528 439.498 299.92 441.634 299.92C443.77 299.92 445.354 298.528 445.354 296.536C445.354 294.568 443.77 293.152 441.634 293.152ZM441.634 301.552C438.394 301.552 436.042 299.512 436.042 296.536C436.042 293.56 438.394 291.52 441.634 291.52C444.898 291.52 447.274 293.56 447.274 296.536C447.274 299.512 444.898 301.552 441.634 301.552ZM450.802 303.496V304.648C450.802 306.88 452.386 309.088 455.122 310L454.138 311.488C452.026 310.72 450.538 309.232 449.818 307.432C449.146 309.184 447.826 310.816 445.834 311.68C443.77 310.864 442.474 309.304 441.826 307.504C441.058 309.232 439.594 310.72 437.578 311.488L436.594 310C439.306 309.04 440.914 306.712 440.914 304.648V303.496H442.81V304.648C442.81 306.544 443.794 308.584 445.786 309.76C447.85 308.488 448.882 306.328 448.882 304.648V303.496H450.802ZM474.152 296.728V298.336H459.512V291.04H461.48V296.728H474.152ZM461.336 304.96V309.64H474.272V311.248H459.368V304.96H461.336ZM456.872 301.216H476.384V302.8H456.872V301.216ZM56.968 331.696C53.704 331.696 51.472 332.896 51.472 334.792C51.472 336.688 53.704 337.912 56.968 337.912C60.256 337.912 62.488 336.688 62.488 334.792C62.488 332.896 60.256 331.696 56.968 331.696ZM56.968 339.496C52.504 339.496 49.456 337.672 49.456 334.792C49.456 331.912 52.504 330.112 56.968 330.112C61.456 330.112 64.504 331.912 64.504 334.792C64.504 337.672 61.456 339.496 56.968 339.496ZM66.76 341.512V343.12H61.672V350.776H59.68V343.12H54.28V350.776H52.288V343.12H47.272V341.512H66.76ZM86.2941 329.248V340.288H84.3261V329.248H86.2941ZM71.0301 334.816C71.0301 336.664 72.5901 337.984 74.6781 337.984C76.7901 337.984 78.3261 336.664 78.3261 334.816C78.3261 332.944 76.7901 331.624 74.6781 331.624C72.5901 331.624 71.0301 332.944 71.0301 334.816ZM80.2461 334.816C80.2461 337.648 77.8941 339.568 74.6781 339.568C71.4621 339.568 69.1341 337.648 69.1341 334.816C69.1341 331.96 71.4621 330.016 74.6781 330.016C77.8941 330.016 80.2461 331.96 80.2461 334.816ZM74.3421 348.928H87.0141V350.488H72.3981V345.088H84.3501V342.904H72.3501V341.344H86.2941V346.552H74.3421V348.928ZM102.756 331.888V333.472H90.0603V331.888H95.4123V329.248H97.3803V331.888H102.756ZM93.1323 338.656C93.1323 340.168 94.4523 341.128 96.3963 341.128C98.3403 341.128 99.6843 340.168 99.6843 338.656C99.6843 337.168 98.3403 336.208 96.3963 336.208C94.4523 336.208 93.1323 337.168 93.1323 338.656ZM101.556 338.656C101.556 341.08 99.4443 342.664 96.3963 342.664C93.3483 342.664 91.2603 341.08 91.2603 338.656C91.2603 336.256 93.3483 334.672 96.3963 334.672C99.4443 334.672 101.556 336.256 101.556 338.656ZM95.2683 344.128V348.688H107.652V350.296H93.3003V344.128H95.2683ZM106.692 336.352H109.86V338.008H106.692V345.4H104.724V329.248H106.692V336.352ZM127.578 341.968H131.946V329.248H133.914V345.64H131.946V343.432H127.578V341.968ZM123.186 331.576C121.146 331.576 119.754 332.488 119.754 333.856C119.754 335.248 121.146 336.16 123.186 336.16C125.226 336.16 126.618 335.248 126.618 333.856C126.618 332.488 125.226 331.576 123.186 331.576ZM123.186 337.624C120.042 337.624 117.882 336.16 117.882 333.856C117.882 331.6 120.042 330.112 123.186 330.112C126.33 330.112 128.49 331.6 128.49 333.856C128.49 336.16 126.33 337.624 123.186 337.624ZM122.418 344.872V340.72C120.282 340.816 118.218 340.84 116.442 340.84L116.178 339.208C120.162 339.208 125.49 339.16 130.05 338.584L130.218 340C128.322 340.288 126.33 340.504 124.386 340.624V344.872H122.418ZM121.218 348.688H134.466V350.296H119.25V344.032H121.218V348.688ZM149.056 335.872H153.4V329.272H155.392V345.328H153.4V337.504H149.056V335.872ZM150.376 340.744L149.416 342.304C146.944 341.488 145.024 339.784 144.04 337.6C143.128 339.976 141.208 341.8 138.688 342.688L137.704 341.152C140.896 340.072 143.032 337.384 143.032 334.384V333.712H138.256V332.128H143.032V329.368H145V332.128H149.752V333.712H145V334.384C145 337.24 147.184 339.736 150.376 340.744ZM143.608 348.688H155.992V350.296H141.616V343.888H143.608V348.688ZM168.735 331.096C165.207 331.096 163.191 331.912 163.191 333.352C163.191 334.792 165.207 335.608 168.735 335.608C172.263 335.608 174.279 334.792 174.279 333.352C174.279 331.912 172.263 331.096 168.735 331.096ZM168.735 337.072C164.007 337.072 161.175 335.776 161.175 333.352C161.175 330.928 164.007 329.608 168.735 329.608C173.463 329.608 176.295 330.928 176.295 333.352C176.295 335.776 173.463 337.072 168.735 337.072ZM163.335 346.816V349H176.631V350.536H161.415V345.376H174.039V343.456H161.343V341.968H175.983V346.816H163.335ZM158.991 338.536H178.479V340.12H158.991V338.536ZM200.973 329.248H202.941V350.8H200.973V329.248ZM186.549 331.072H188.493V336.76H194.733V331.072H196.677V345.592H186.549V331.072ZM188.493 338.32V343.984H194.733V338.32H188.493ZM211.387 332.848V340.192C212.515 340.168 213.667 340.144 214.819 340.072V332.848H211.387ZM219.859 339.664L220.003 341.128C215.707 341.8 210.691 341.896 206.971 341.896L206.755 340.264C207.595 340.264 208.507 340.264 209.467 340.24V332.848H207.355V331.264H218.851V332.848H216.715V339.952C217.795 339.88 218.851 339.784 219.859 339.664ZM211.963 343.624V348.688H224.347V350.296H209.995V343.624H211.963ZM223.387 335.8H226.555V337.432H223.387V345.112H221.419V329.248H223.387V335.8ZM234.353 344.344C236.321 344.344 237.737 342.952 237.737 341.032C237.737 339.088 236.321 337.696 234.353 337.696C232.409 337.696 230.993 339.088 230.993 341.032C230.993 342.952 232.409 344.344 234.353 344.344ZM234.353 336.064C237.425 336.064 239.609 338.128 239.609 341.032C239.609 343.96 237.425 345.976 234.353 345.976C231.329 345.976 229.145 343.96 229.145 341.032C229.145 338.128 231.329 336.064 234.353 336.064ZM235.313 329.512V332.704H240.617V334.288H227.921V332.704H233.345V329.512H235.313ZM248.153 338.104V339.76H244.625V350.776H242.657V329.272H244.625V338.104H248.153ZM258.279 339.616V332.704H252.327V339.616H258.279ZM265.143 334.648H260.199V337.648H265.143V334.648ZM260.199 339.256V341.176H250.383V331.144H260.199V333.04H265.143V329.272H267.135V344.968H265.143V339.256H260.199ZM255.255 348.688H267.639V350.296H253.287V343.576H255.255V348.688ZM278.293 331.096V334.96C278.293 338.872 280.741 342.784 283.861 344.272L282.709 345.832C280.261 344.608 278.293 342.04 277.309 339.016C276.373 342.208 274.381 344.92 271.957 346.216L270.757 344.656C273.877 343.096 276.325 338.944 276.325 334.96V331.096H278.293ZM286.525 329.248H288.493V350.8H286.525V338.152H281.533V336.544H286.525V329.248ZM305.995 339.88V335.944H299.899V339.88H305.995ZM307.915 330.808V341.464H297.955V330.808H299.899V334.408H305.995V330.808H307.915ZM302.347 343.552V348.688H314.731V350.296H300.379V343.552H302.347ZM313.771 335.776H316.939V337.432H313.771V345.064H311.803V329.272H313.771V335.776ZM327.353 339.208V335.512H321.257V339.208H327.353ZM329.273 330.616V340.792H319.313V330.616H321.257V333.976H327.353V330.616H329.273ZM321.137 344.992V343.408H335.129V350.8H333.161V344.992H321.137ZM338.321 334.84V336.472H335.129V342.256H333.161V329.272H335.129V334.84H338.321ZM351.983 333.088V335.824C351.983 339.256 354.431 343.072 357.551 344.536L356.423 346.12C354.023 344.92 352.007 342.4 351.023 339.52C350.039 342.664 347.951 345.4 345.527 346.648L344.375 345.088C347.447 343.552 350.039 339.472 350.039 335.824V333.088H345.119V331.456H356.759V333.088H351.983ZM364.847 337.936V339.592H361.295V350.776H359.327V329.272H361.295V337.936H364.847ZM372.357 334.84V335.872C372.357 339.304 374.085 342.856 376.989 344.416L375.861 345.904C373.773 344.728 372.237 342.544 371.445 339.952C370.701 342.688 369.189 345.088 367.077 346.36L365.925 344.896C368.829 343.168 370.485 339.4 370.485 335.872V334.84H366.501V333.208H370.485V330.016H372.381V333.208H376.341V334.84H372.357ZM378.165 337.744V329.752H380.037V349.648H378.165V339.376H374.877V337.744H378.165ZM382.485 329.248H384.381V350.752H382.485V329.248ZM402.523 333.016V331.264H389.899V329.872H404.467V334.36H391.891V336.208H404.851V337.624H389.947V333.016H402.523ZM391.771 347.08V349.072H405.211V350.488H389.827V345.712H402.595V343.912H389.779V342.496H404.539V347.08H391.771ZM387.451 339.256H406.963V340.744H387.451V339.256ZM422.617 338.8V332.416H416.569V338.8H422.617ZM424.537 330.856V340.384H414.649V330.856H424.537ZM416.473 344.752V343.144H430.465V350.8H428.497V344.752H416.473ZM433.657 334.84V336.472H430.465V342.016H428.497V329.272H430.465V334.84H433.657ZM452.376 335.728V337.336H437.736V330.04H439.704V335.728H452.376ZM439.56 343.96V348.64H452.496V350.248H437.592V343.96H439.56ZM435.096 340.216H454.608V341.8H435.096V340.216ZM465.222 336.304C465.222 338.776 467.742 340.384 471.174 340.384C474.606 340.384 477.102 338.776 477.102 336.304C477.102 333.832 474.606 332.224 471.174 332.224C467.742 332.224 465.222 333.832 465.222 336.304ZM472.158 346.384H480.966V348.016H461.406V346.384H470.166V341.896C466.158 341.608 463.326 339.472 463.326 336.304C463.326 332.872 466.614 330.664 471.174 330.664C475.71 330.664 478.974 332.872 478.974 336.304C478.974 339.472 476.166 341.608 472.158 341.896V346.384ZM497.956 334.144V331.672H485.092V330.088H499.948V335.632H487.132V338.272H500.428V339.856H485.164V334.144H497.956ZM502.3 342.088V343.672H497.212V350.8H495.244V343.672H489.82V350.8H487.852V343.672H482.764V342.088H502.3Z" fill="#F4F4F4"/>
<path d="M136.336 57.744C135.744 57.744 135.304 57.6 135.016 57.312C134.744 57.024 134.608 56.656 134.608 56.208V55.8C134.608 55.416 134.664 55.016 134.776 54.6C134.904 54.184 135.072 53.776 135.28 53.376C135.488 52.976 135.736 52.592 136.024 52.224C136.312 51.856 136.632 51.528 136.984 51.24H138.832C138.336 51.736 137.92 52.224 137.584 52.704C137.264 53.168 137.024 53.688 136.864 54.264C137.28 54.344 137.584 54.528 137.776 54.816C137.968 55.088 138.064 55.408 138.064 55.776V56.208C138.064 56.656 137.92 57.024 137.632 57.312C137.36 57.6 136.928 57.744 136.336 57.744ZM143.18 51.336V63.672C146.276 63.672 149.468 63.408 152.948 62.712L153.188 64.344C149.516 65.088 146.228 65.328 142.94 65.328H141.236V51.336H143.18ZM160.388 57.84V59.472H156.932V70.776H154.964V49.248H156.932V57.84H160.388ZM178.986 55.728V57.336H164.346V50.04H166.314V55.728H178.986ZM166.17 63.96V68.64H179.106V70.248H164.202V63.96H166.17ZM161.706 60.216H181.218V61.8H161.706V60.216ZM203.688 49.248H205.656V70.824H203.688V49.248ZM194.304 50.904C197.496 50.904 199.776 53.832 199.776 58.416C199.776 63 197.496 65.928 194.304 65.928C191.112 65.928 188.832 63 188.832 58.416C188.832 53.832 191.112 50.904 194.304 50.904ZM194.304 52.68C192.192 52.68 190.704 54.936 190.704 58.416C190.704 61.92 192.192 64.176 194.304 64.176C196.392 64.176 197.88 61.92 197.88 58.416C197.88 54.936 196.392 52.68 194.304 52.68ZM218.231 59.928V56.04H212.423V59.928H218.231ZM220.175 56.928V61.512H210.479V50.688H212.423V54.48H218.231V50.688H220.175V55.32H225.143V49.248H227.135V65.184H225.143V56.928H220.175ZM215.255 68.688H227.639V70.296H213.287V63.624H215.255V68.688ZM251.453 65.352V55.944H246.749V54.312H251.453V49.272H253.445V65.352H251.453ZM248.285 60.264L247.253 61.776C244.877 60.84 243.029 58.992 242.117 56.664C241.205 59.232 239.285 61.272 236.765 62.28L235.733 60.72C238.949 59.544 241.109 56.496 241.109 53.208V50.544H243.077V53.28C243.077 56.28 245.189 59.112 248.285 60.264ZM241.565 68.688H253.949V70.296H239.597V63.576H241.565V68.688ZM258.003 51.576H267.819C267.819 57.696 265.275 63.144 258.123 66.672L257.043 65.136C262.827 62.304 265.491 58.2 265.851 53.16H258.003V51.576ZM272.811 49.272H274.779V70.776H272.811V59.496H267.771V57.888H272.811V49.272ZM283.297 64.224C284.977 64.224 286.081 62.04 286.081 58.512C286.081 55.056 284.977 52.872 283.297 52.872C281.569 52.872 280.489 55.056 280.489 58.512C280.489 62.04 281.569 64.224 283.297 64.224ZM290.569 57.624V49.728H292.441V69.72H290.569V59.232H287.857C287.689 63.456 285.937 66.048 283.297 66.048C280.489 66.048 278.689 63.168 278.689 58.512C278.689 53.928 280.489 51.048 283.297 51.048C285.889 51.048 287.617 53.568 287.857 57.624H290.569ZM294.841 49.248H296.713V70.776H294.841V49.248ZM307.319 51.096V54.96C307.319 58.872 309.767 62.784 312.887 64.272L311.735 65.832C309.287 64.608 307.319 62.04 306.335 59.016C305.399 62.208 303.407 64.92 300.983 66.216L299.783 64.656C302.903 63.096 305.351 58.944 305.351 54.96V51.096H307.319ZM315.551 49.248H317.519V70.8H315.551V58.152H310.559V56.544H315.551V49.248ZM342.725 57.648L340.829 57.432C341.333 54.936 341.405 53.088 341.429 51.792H336.101V50.184H343.349V51.12C343.349 52.488 343.349 54.672 342.725 57.648ZM333.341 57.672L331.421 57.408C332.189 54.864 332.357 53.04 332.405 51.792H327.797V50.184H334.325V50.952C334.325 52.152 334.325 54.504 333.341 57.672ZM328.229 64.992V63.384H343.109V70.68H341.141V64.992H328.229ZM337.205 59.496H345.533V61.08H326.141V59.496H335.261V55.152H337.205V59.496ZM361.331 59.88V55.944H355.235V59.88H361.331ZM363.251 50.808V61.464H353.291V50.808H355.235V54.408H361.331V50.808H363.251ZM357.683 63.552V68.688H370.067V70.296H355.715V63.552H357.683ZM369.107 55.776H372.275V57.432H369.107V65.064H367.139V49.272H369.107V55.776ZM386.241 59.664L385.305 61.2C382.857 60.408 381.009 58.704 380.097 56.568C379.185 59.016 377.241 60.936 374.673 61.848L373.665 60.288C376.905 59.16 379.065 56.376 379.065 53.28V52.44H374.241V50.856H385.785V52.44H381.033V53.28C381.033 56.088 383.073 58.608 386.241 59.664ZM383.625 69.192C386.793 69.192 388.737 68.304 388.737 66.768C388.737 65.256 386.793 64.368 383.625 64.368C380.409 64.368 378.489 65.256 378.489 66.768C378.489 68.304 380.409 69.192 383.625 69.192ZM383.625 62.808C387.993 62.808 390.705 64.272 390.705 66.768C390.705 69.288 387.993 70.752 383.625 70.752C379.209 70.752 376.521 69.288 376.521 66.768C376.521 64.272 379.209 62.808 383.625 62.808ZM390.465 54.696H393.657V56.352H390.465V62.256H388.497V49.272H390.465V54.696ZM410.767 49.248H412.735V70.824H410.767V49.248ZM401.383 50.904C404.575 50.904 406.855 53.832 406.855 58.416C406.855 63 404.575 65.928 401.383 65.928C398.191 65.928 395.911 63 395.911 58.416C395.911 53.832 398.191 50.904 401.383 50.904ZM401.383 52.68C399.271 52.68 397.783 54.936 397.783 58.416C397.783 61.92 399.271 64.176 401.383 64.176C403.471 64.176 404.959 61.92 404.959 58.416C404.959 54.936 403.471 52.68 401.383 52.68ZM429.517 60.144V64.344C431.581 64.248 433.669 64.128 435.589 63.888L435.757 65.328C431.053 66.048 425.893 66.144 421.813 66.144L421.573 64.488C423.421 64.488 425.461 64.488 427.549 64.416V60.144H423.157V51.264H434.053V52.896H425.101V58.536H434.149V60.144H429.517ZM437.005 49.224H438.973V70.824H437.005V49.224ZM448.547 64.176C450.587 64.176 452.027 61.92 452.027 58.416C452.027 54.936 450.587 52.68 448.547 52.68C446.483 52.68 445.043 54.936 445.043 58.416C445.043 61.92 446.483 64.176 448.547 64.176ZM458.555 49.248H460.523V70.824H458.555V59.064H453.875C453.683 63.288 451.547 65.928 448.547 65.928C445.403 65.928 443.171 63 443.171 58.416C443.171 53.832 445.403 50.904 448.547 50.904C451.451 50.904 453.563 53.424 453.875 57.456H458.555V49.248ZM469.881 64.176C471.945 64.176 473.409 61.896 473.409 58.392C473.409 54.936 471.945 52.68 469.881 52.68C467.793 52.68 466.329 54.936 466.329 58.392C466.329 61.896 467.793 64.176 469.881 64.176ZM469.881 50.904C473.049 50.904 475.281 53.832 475.281 58.392C475.281 63 473.049 65.928 469.881 65.928C466.713 65.928 464.457 63 464.457 58.392C464.457 53.832 466.713 50.904 469.881 50.904ZM484.137 56.304H480.705V61.08H484.137V62.712H480.705V70.776H478.737V49.272H480.705V54.672H484.137V56.304ZM495.783 64.152C497.439 64.152 498.639 62.784 498.639 60.864C498.639 58.992 497.439 57.624 495.783 57.624C494.103 57.624 492.927 58.992 492.927 60.864C492.927 62.784 494.103 64.152 495.783 64.152ZM495.783 55.968C498.447 55.968 500.391 57.984 500.391 60.864C500.391 63.792 498.447 65.784 495.783 65.784C493.119 65.784 491.175 63.792 491.175 60.864C491.175 57.984 493.119 55.968 495.783 55.968ZM496.743 49.872V52.92H501.111V54.528H490.431V52.92H494.799V49.872H496.743ZM506.799 49.224H508.695V70.752H506.799V59.928H504.039V69.72H502.191V49.728H504.039V58.32H506.799V49.224ZM514.022 51C514.63 51 515.07 51.144 515.342 51.432C515.614 51.72 515.75 52.096 515.75 52.56V52.968C515.75 53.352 515.694 53.752 515.582 54.168C515.47 54.568 515.31 54.968 515.102 55.368C514.894 55.768 514.646 56.152 514.358 56.52C514.07 56.888 513.75 57.216 513.398 57.504H511.526C512.038 57.008 512.454 56.52 512.774 56.04C513.094 55.56 513.342 55.04 513.518 54.48C513.102 54.4 512.79 54.224 512.582 53.952C512.39 53.68 512.294 53.36 512.294 52.992V52.56C512.294 52.096 512.43 51.72 512.702 51.432C512.974 51.144 513.414 51 514.022 51ZM136.336 96.744C135.744 96.744 135.304 96.6 135.016 96.312C134.744 96.024 134.608 95.656 134.608 95.208V94.8C134.608 94.416 134.664 94.016 134.776 93.6C134.904 93.184 135.072 92.776 135.28 92.376C135.488 91.976 135.736 91.592 136.024 91.224C136.312 90.856 136.632 90.528 136.984 90.24H138.832C138.336 90.736 137.92 91.224 137.584 91.704C137.264 92.168 137.024 92.688 136.864 93.264C137.28 93.344 137.584 93.528 137.776 93.816C137.968 94.088 138.064 94.408 138.064 94.776V95.208C138.064 95.656 137.92 96.024 137.632 96.312C137.36 96.6 136.928 96.744 136.336 96.744ZM142.556 94.848C142.556 96.624 143.852 97.848 145.628 97.848C147.428 97.848 148.748 96.624 148.748 94.848C148.748 93.096 147.428 91.896 145.628 91.896C143.852 91.896 142.556 93.096 142.556 94.848ZM146.564 99.384V102.936C148.172 102.864 149.78 102.768 151.172 102.576L151.34 103.992C147.836 104.616 143.276 104.736 140.372 104.736L140.108 103.08C141.404 103.08 143.012 103.056 144.716 103.008V99.384C142.34 99.024 140.756 97.296 140.756 94.848C140.756 92.16 142.796 90.288 145.628 90.288C148.484 90.288 150.548 92.16 150.548 94.848C150.548 97.296 148.94 99.048 146.564 99.384ZM156.596 88.248H158.468V109.752H156.596V98.808H154.004V108.624H152.156V88.728H154.004V97.2H156.596V88.248ZM164.538 102.744V98.928C165.834 98.864 166.826 98.592 167.514 98.112C168.218 97.616 168.57 96.888 168.57 95.928V95.592C168.57 94.856 168.346 94.288 167.898 93.888C167.45 93.472 166.85 93.264 166.098 93.264C165.298 93.264 164.658 93.496 164.178 93.96C163.698 94.424 163.37 95.016 163.194 95.736L160.914 94.824C161.058 94.328 161.266 93.848 161.538 93.384C161.826 92.92 162.186 92.512 162.618 92.16C163.05 91.792 163.562 91.504 164.154 91.296C164.746 91.072 165.426 90.96 166.194 90.96C166.978 90.96 167.69 91.072 168.33 91.296C168.97 91.52 169.514 91.84 169.962 92.256C170.41 92.656 170.754 93.152 170.994 93.744C171.234 94.32 171.354 94.96 171.354 95.664C171.354 96.384 171.226 97.032 170.97 97.608C170.73 98.168 170.402 98.648 169.986 99.048C169.586 99.448 169.13 99.776 168.618 100.032C168.106 100.272 167.578 100.44 167.034 100.536V102.744H164.538ZM165.81 108.288C165.202 108.288 164.754 108.144 164.466 107.856C164.194 107.552 164.058 107.168 164.058 106.704V106.296C164.058 105.832 164.194 105.456 164.466 105.168C164.754 104.864 165.202 104.712 165.81 104.712C166.418 104.712 166.858 104.864 167.13 105.168C167.418 105.456 167.562 105.832 167.562 106.296V106.704C167.562 107.168 167.418 107.552 167.13 107.856C166.858 108.144 166.418 108.288 165.81 108.288ZM180.658 90.552V102.624C182.962 102.6 185.122 102.456 187.618 101.952L187.882 103.608C185.074 104.184 182.674 104.328 180.082 104.328H178.714V90.552H180.658ZM189.49 95.472V88.776H191.362V108.696H189.49V97.104H184.69V95.472H189.49ZM194.074 88.224H195.946V109.776H194.074V88.224ZM200.168 90.552H210.008C210.008 96.672 207.2 102.216 200.24 105.696L199.16 104.16C204.656 101.4 207.608 97.272 208.064 92.184H200.168V90.552ZM219.032 96.984V98.616H215.576V109.776H213.608V88.248H215.576V96.984H219.032ZM241.958 96.648L240.062 96.432C240.566 93.936 240.638 92.088 240.662 90.792H235.334V89.184H242.582V90.12C242.582 91.488 242.582 93.672 241.958 96.648ZM232.574 96.672L230.654 96.408C231.422 93.864 231.59 92.04 231.638 90.792H227.03V89.184H233.558V89.952C233.558 91.152 233.558 93.504 232.574 96.672ZM227.462 103.992V102.384H242.342V109.68H240.374V103.992H227.462ZM236.438 98.496H244.766V100.08H225.374V98.496H234.494V94.152H236.438V98.496ZM260.564 98.88V94.944H254.468V98.88H260.564ZM262.484 89.808V100.464H252.524V89.808H254.468V93.408H260.564V89.808H262.484ZM256.916 102.552V107.688H269.3V109.296H254.948V102.552H256.916ZM268.34 94.776H271.508V96.432H268.34V104.064H266.372V88.272H268.34V94.776ZM285.474 98.664L284.538 100.2C282.09 99.408 280.242 97.704 279.33 95.568C278.418 98.016 276.474 99.936 273.906 100.848L272.898 99.288C276.138 98.16 278.298 95.376 278.298 92.28V91.44H273.474V89.856H285.018V91.44H280.266V92.28C280.266 95.088 282.306 97.608 285.474 98.664ZM282.858 108.192C286.026 108.192 287.97 107.304 287.97 105.768C287.97 104.256 286.026 103.368 282.858 103.368C279.642 103.368 277.722 104.256 277.722 105.768C277.722 107.304 279.642 108.192 282.858 108.192ZM282.858 101.808C287.226 101.808 289.938 103.272 289.938 105.768C289.938 108.288 287.226 109.752 282.858 109.752C278.442 109.752 275.754 108.288 275.754 105.768C275.754 103.272 278.442 101.808 282.858 101.808ZM289.698 93.696H292.89V95.352H289.698V101.256H287.73V88.272H289.698V93.696ZM310 88.248H311.968V109.824H310V88.248ZM300.616 89.904C303.808 89.904 306.088 92.832 306.088 97.416C306.088 102 303.808 104.928 300.616 104.928C297.424 104.928 295.144 102 295.144 97.416C295.144 92.832 297.424 89.904 300.616 89.904ZM300.616 91.68C298.504 91.68 297.016 93.936 297.016 97.416C297.016 100.92 298.504 103.176 300.616 103.176C302.704 103.176 304.192 100.92 304.192 97.416C304.192 93.936 302.704 91.68 300.616 91.68ZM328.75 99.144V103.344C330.814 103.248 332.902 103.128 334.822 102.888L334.99 104.328C330.286 105.048 325.126 105.144 321.046 105.144L320.806 103.488C322.654 103.488 324.694 103.488 326.782 103.416V99.144H322.39V90.264H333.286V91.896H324.334V97.536H333.382V99.144H328.75ZM336.238 88.224H338.206V109.824H336.238V88.224ZM347.78 103.176C349.82 103.176 351.26 100.92 351.26 97.416C351.26 93.936 349.82 91.68 347.78 91.68C345.716 91.68 344.276 93.936 344.276 97.416C344.276 100.92 345.716 103.176 347.78 103.176ZM357.788 88.248H359.756V109.824H357.788V98.064H353.108C352.916 102.288 350.78 104.928 347.78 104.928C344.636 104.928 342.404 102 342.404 97.416C342.404 92.832 344.636 89.904 347.78 89.904C350.684 89.904 352.796 92.424 353.108 96.456H357.788V88.248ZM369.114 103.176C371.178 103.176 372.642 100.896 372.642 97.392C372.642 93.936 371.178 91.68 369.114 91.68C367.026 91.68 365.562 93.936 365.562 97.392C365.562 100.896 367.026 103.176 369.114 103.176ZM369.114 89.904C372.282 89.904 374.514 92.832 374.514 97.392C374.514 102 372.282 104.928 369.114 104.928C365.946 104.928 363.69 102 363.69 97.392C363.69 92.832 365.946 89.904 369.114 89.904ZM383.37 95.304H379.938V100.08H383.37V101.712H379.938V109.776H377.97V88.272H379.938V93.672H383.37V95.304ZM391.048 103.344C393.016 103.344 394.432 101.952 394.432 100.032C394.432 98.088 393.016 96.696 391.048 96.696C389.104 96.696 387.688 98.088 387.688 100.032C387.688 101.952 389.104 103.344 391.048 103.344ZM391.048 95.064C394.12 95.064 396.304 97.128 396.304 100.032C396.304 102.96 394.12 104.976 391.048 104.976C388.024 104.976 385.84 102.96 385.84 100.032C385.84 97.128 388.024 95.064 391.048 95.064ZM392.008 88.512V91.704H397.312V93.288H384.616V91.704H390.04V88.512H392.008ZM404.848 97.104V98.76H401.32V109.776H399.352V88.272H401.32V97.104H404.848ZM413.775 92.088V94.824C413.775 98.472 416.367 102.192 419.535 103.536L418.431 105.12C415.935 103.968 413.823 101.496 412.791 98.544C411.807 101.688 409.695 104.4 407.247 105.648L406.095 104.064C409.191 102.6 411.807 98.544 411.807 94.824V92.088H406.815V90.456H418.839V92.088H413.775ZM421.743 88.272H423.711V109.776H421.743V88.272ZM430.261 102.744V98.928C431.557 98.864 432.549 98.592 433.237 98.112C433.941 97.616 434.293 96.888 434.293 95.928V95.592C434.293 94.856 434.069 94.288 433.621 93.888C433.173 93.472 432.573 93.264 431.821 93.264C431.021 93.264 430.381 93.496 429.901 93.96C429.421 94.424 429.093 95.016 428.917 95.736L426.637 94.824C426.781 94.328 426.989 93.848 427.261 93.384C427.549 92.92 427.909 92.512 428.341 92.16C428.773 91.792 429.285 91.504 429.877 91.296C430.469 91.072 431.149 90.96 431.917 90.96C432.701 90.96 433.413 91.072 434.053 91.296C434.693 91.52 435.237 91.84 435.685 92.256C436.133 92.656 436.477 93.152 436.717 93.744C436.957 94.32 437.077 94.96 437.077 95.664C437.077 96.384 436.949 97.032 436.693 97.608C436.453 98.168 436.125 98.648 435.709 99.048C435.309 99.448 434.853 99.776 434.341 100.032C433.829 100.272 433.301 100.44 432.757 100.536V102.744H430.261ZM431.533 108.288C430.925 108.288 430.477 108.144 430.189 107.856C429.917 107.552 429.781 107.168 429.781 106.704V106.296C429.781 105.832 429.917 105.456 430.189 105.168C430.477 104.864 430.925 104.712 431.533 104.712C432.141 104.712 432.581 104.864 432.853 105.168C433.141 105.456 433.285 105.832 433.285 106.296V106.704C433.285 107.168 433.141 107.552 432.853 107.856C432.581 108.144 432.141 108.288 431.533 108.288ZM441.152 90C441.76 90 442.2 90.144 442.472 90.432C442.744 90.72 442.88 91.096 442.88 91.56V91.968C442.88 92.352 442.824 92.752 442.712 93.168C442.6 93.568 442.44 93.968 442.232 94.368C442.024 94.768 441.776 95.152 441.488 95.52C441.2 95.888 440.88 96.216 440.528 96.504H438.656C439.168 96.008 439.584 95.52 439.904 95.04C440.224 94.56 440.472 94.04 440.648 93.48C440.232 93.4 439.92 93.224 439.712 92.952C439.52 92.68 439.424 92.36 439.424 91.992V91.56C439.424 91.096 439.56 90.72 439.832 90.432C440.104 90.144 440.544 90 441.152 90ZM136.336 135.744C135.744 135.744 135.304 135.6 135.016 135.312C134.744 135.024 134.608 134.656 134.608 134.208V133.8C134.608 133.416 134.664 133.016 134.776 132.6C134.904 132.184 135.072 131.776 135.28 131.376C135.488 130.976 135.736 130.592 136.024 130.224C136.312 129.856 136.632 129.528 136.984 129.24H138.832C138.336 129.736 137.92 130.224 137.584 130.704C137.264 131.168 137.024 131.688 136.864 132.264C137.28 132.344 137.584 132.528 137.776 132.816C137.968 133.088 138.064 133.408 138.064 133.776V134.208C138.064 134.656 137.92 135.024 137.632 135.312C137.36 135.6 136.928 135.744 136.336 135.744ZM143.396 129.864V141.48C145.46 141.456 147.74 141.312 150.308 140.808L150.5 142.512C147.596 143.064 145.124 143.184 142.796 143.184H141.428V129.864H143.396ZM156.74 127.248H158.636V148.752H156.74V137.64H153.692V147.672H151.844V127.728H153.692V136.008H156.74V127.248ZM162.882 129.552H172.722C172.722 135.672 169.914 141.216 162.954 144.696L161.874 143.16C167.37 140.4 170.322 136.272 170.778 131.184H162.882V129.552ZM181.746 135.984V137.616H178.29V148.776H176.322V127.248H178.29V135.984H181.746ZM196.968 137.88V133.944H190.872V137.88H196.968ZM198.888 128.808V139.464H188.928V128.808H190.872V132.408H196.968V128.808H198.888ZM193.32 141.552V146.688H205.704V148.296H191.352V141.552H193.32ZM204.744 133.776H207.912V135.432H204.744V143.064H202.776V127.272H204.744V133.776ZM221.879 137.664L220.943 139.2C218.495 138.408 216.647 136.704 215.735 134.568C214.823 137.016 212.879 138.936 210.311 139.848L209.303 138.288C212.543 137.16 214.703 134.376 214.703 131.28V130.44H209.879V128.856H221.423V130.44H216.671V131.28C216.671 134.088 218.711 136.608 221.879 137.664ZM219.263 147.192C222.431 147.192 224.375 146.304 224.375 144.768C224.375 143.256 222.431 142.368 219.263 142.368C216.047 142.368 214.127 143.256 214.127 144.768C214.127 146.304 216.047 147.192 219.263 147.192ZM219.263 140.808C223.631 140.808 226.343 142.272 226.343 144.768C226.343 147.288 223.631 148.752 219.263 148.752C214.847 148.752 212.159 147.288 212.159 144.768C212.159 142.272 214.847 140.808 219.263 140.808ZM226.103 132.696H229.295V134.352H226.103V140.256H224.135V127.272H226.103V132.696ZM246.405 127.248H248.373V148.824H246.405V127.248ZM237.021 128.904C240.213 128.904 242.493 131.832 242.493 136.416C242.493 141 240.213 143.928 237.021 143.928C233.829 143.928 231.549 141 231.549 136.416C231.549 131.832 233.829 128.904 237.021 128.904ZM237.021 130.68C234.909 130.68 233.421 132.936 233.421 136.416C233.421 139.92 234.909 142.176 237.021 142.176C239.109 142.176 240.597 139.92 240.597 136.416C240.597 132.936 239.109 130.68 237.021 130.68ZM265.155 138.144V142.344C267.219 142.248 269.307 142.128 271.227 141.888L271.395 143.328C266.691 144.048 261.531 144.144 257.451 144.144L257.211 142.488C259.059 142.488 261.099 142.488 263.187 142.416V138.144H258.795V129.264H269.691V130.896H260.739V136.536H269.787V138.144H265.155ZM272.643 127.224H274.611V148.824H272.643V127.224ZM284.185 142.176C286.225 142.176 287.665 139.92 287.665 136.416C287.665 132.936 286.225 130.68 284.185 130.68C282.121 130.68 280.681 132.936 280.681 136.416C280.681 139.92 282.121 142.176 284.185 142.176ZM294.193 127.248H296.161V148.824H294.193V137.064H289.513C289.321 141.288 287.185 143.928 284.185 143.928C281.041 143.928 278.809 141 278.809 136.416C278.809 131.832 281.041 128.904 284.185 128.904C287.089 128.904 289.201 131.424 289.513 135.456H294.193V127.248ZM305.519 142.176C307.583 142.176 309.047 139.896 309.047 136.392C309.047 132.936 307.583 130.68 305.519 130.68C303.431 130.68 301.967 132.936 301.967 136.392C301.967 139.896 303.431 142.176 305.519 142.176ZM305.519 128.904C308.687 128.904 310.919 131.832 310.919 136.392C310.919 141 308.687 143.928 305.519 143.928C302.351 143.928 300.095 141 300.095 136.392C300.095 131.832 302.351 128.904 305.519 128.904ZM319.775 134.304H316.343V139.08H319.775V140.712H316.343V148.776H314.375V127.272H316.343V132.672H319.775V134.304ZM335.789 129.696C332.525 129.696 330.293 130.92 330.293 132.816C330.293 134.736 332.525 135.96 335.789 135.96C339.077 135.96 341.309 134.736 341.309 132.816C341.309 130.92 339.077 129.696 335.789 129.696ZM335.789 137.544C331.325 137.544 328.277 135.72 328.277 132.816C328.277 129.936 331.325 128.112 335.789 128.112C340.277 128.112 343.325 129.936 343.325 132.816C343.325 135.72 340.277 137.544 335.789 137.544ZM345.581 139.584V141.216H336.773V148.8H334.805V141.216H326.093V139.584H345.581ZM350.667 136.92V141.96C354.195 141.96 357.363 141.792 361.131 141.192L361.323 142.8C357.435 143.448 354.171 143.592 350.475 143.592H348.699V135.336H356.619V130.848H348.627V129.24H358.611V136.92H350.667ZM363.147 127.224H365.115V148.8H363.147V127.224ZM377.737 137.88V133.944H371.641V137.88H377.737ZM379.657 128.808V139.464H369.697V128.808H371.641V132.408H377.737V128.808H379.657ZM374.089 141.552V146.688H386.473V148.296H372.121V141.552H374.089ZM385.513 133.776H388.681V135.432H385.513V143.064H383.545V127.272H385.513V133.776ZM405.815 127.248H407.783V148.824H405.815V127.248ZM396.431 128.904C399.623 128.904 401.903 131.832 401.903 136.416C401.903 141 399.623 143.928 396.431 143.928C393.239 143.928 390.959 141 390.959 136.416C390.959 131.832 393.239 128.904 396.431 128.904ZM396.431 130.68C394.319 130.68 392.831 132.936 392.831 136.416C392.831 139.92 394.319 142.176 396.431 142.176C398.519 142.176 400.007 139.92 400.007 136.416C400.007 132.936 398.519 130.68 396.431 130.68ZM418.157 139.344L417.245 137.808C420.413 136.848 422.597 134.472 422.645 131.64H417.749V130.056H422.645V127.392H424.613V130.056H429.581V131.64H424.613C424.661 134.376 426.917 136.656 430.061 137.592L429.149 139.104C426.605 138.336 424.637 136.704 423.653 134.568C422.717 136.824 420.725 138.528 418.157 139.344ZM424.613 138.624V142.536C426.629 142.416 428.717 142.272 430.637 141.96L430.805 143.424C425.981 144.312 420.701 144.336 416.861 144.36L416.597 142.704C418.373 142.704 420.461 142.704 422.645 142.632V138.624H424.613ZM432.053 127.248H434.021V148.8H432.053V127.248ZM453.027 131.544V131.016H439.899V129.408H454.995V131.544C454.995 134.208 454.995 137.16 454.179 141.504L452.211 141.288C453.027 137.16 453.027 134.136 453.027 131.544ZM447.387 144.144H457.323V145.752H437.859V144.144H445.419V136.44H447.387V144.144ZM466.178 128.832C469.538 128.832 471.938 130.872 471.938 133.896C471.938 136.896 469.538 138.96 466.178 138.96C462.842 138.96 460.418 136.896 460.418 133.896C460.418 130.872 462.842 128.832 466.178 128.832ZM466.178 130.512C463.97 130.512 462.338 131.88 462.338 133.896C462.338 135.888 463.97 137.28 466.178 137.28C468.41 137.28 470.018 135.888 470.018 133.896C470.018 131.88 468.41 130.512 466.178 130.512ZM474.77 127.248H476.738V148.824H474.77V127.248ZM459.578 144.096L459.338 142.44C463.25 142.44 468.65 142.416 473.354 141.696L473.522 143.16C468.674 144.048 463.466 144.096 459.578 144.096ZM498.272 129.528V131.112H485.576V129.528H490.928V127.128H492.896V129.528H498.272ZM488.648 136.104C488.648 137.544 489.944 138.48 491.912 138.48C493.88 138.48 495.2 137.544 495.2 136.104C495.2 134.688 493.88 133.752 491.912 133.752C489.944 133.752 488.648 134.688 488.648 136.104ZM497.072 136.104C497.072 138.48 494.984 139.992 491.912 139.992C488.864 139.992 486.776 138.48 486.776 136.104C486.776 133.752 488.864 132.216 491.912 132.216C494.984 132.216 497.072 133.752 497.072 136.104ZM488.24 143.496V141.888H502.208V148.8H500.24V143.496H488.24ZM505.4 133.2V134.832H502.208V140.712H500.24V127.272H502.208V133.2H505.4ZM521.91 146.904V143.952H511.326V146.904H521.91ZM521.91 142.416V139.584H523.854V148.488H509.382V139.584H511.326V142.416H521.91ZM523.302 136.032H526.398V137.64H506.838V136.032H521.334C521.934 133.392 521.934 131.472 521.934 129.84H509.334V128.232H523.878V129.792C523.878 131.448 523.878 133.368 523.302 136.032ZM543.868 127.248H545.836V148.824H543.868V127.248ZM534.484 128.904C537.676 128.904 539.956 131.832 539.956 136.416C539.956 141 537.676 143.928 534.484 143.928C531.292 143.928 529.012 141 529.012 136.416C529.012 131.832 531.292 128.904 534.484 128.904ZM534.484 130.68C532.372 130.68 530.884 132.936 530.884 136.416C530.884 139.92 532.372 142.176 534.484 142.176C536.572 142.176 538.06 139.92 538.06 136.416C538.06 132.936 536.572 130.68 534.484 130.68ZM572.194 127.272V138.816H570.226V127.272H572.194ZM568.57 136.128L568.69 137.52C564.13 138.168 558.97 138.312 554.914 138.312L554.65 136.752C556.522 136.752 558.61 136.728 560.722 136.656V134.424H556.594V128.16H566.698V129.696H558.61V132.888H566.938V134.424H562.69V136.584C564.706 136.488 566.698 136.368 568.57 136.128ZM559.978 146.976H572.938V148.536H558.034V143.328H570.25V141.36H557.986V139.824H572.194V144.816H559.978V146.976ZM599.368 135.456L598.552 137.04C595.216 136.464 591.976 134.592 590.584 132C589.24 134.616 586 136.464 582.64 137.04L581.848 135.456C585.76 134.88 589.552 132.288 589.552 129.216V128.016H591.616V129.216C591.616 132.216 595.456 134.88 599.368 135.456ZM600.304 139.368L600.328 141H591.52V148.8H589.552V141H580.864V139.368H600.304ZM624.814 127.272V139.56H622.846V127.272H624.814ZM613.246 130.152C611.11 130.152 609.574 131.568 609.574 133.536C609.574 135.528 611.11 136.92 613.246 136.92C615.382 136.92 616.966 135.528 616.966 133.536C616.966 131.568 615.382 130.152 613.246 130.152ZM613.246 138.552C610.006 138.552 607.654 136.512 607.654 133.536C607.654 130.56 610.006 128.52 613.246 128.52C616.51 128.52 618.886 130.56 618.886 133.536C618.886 136.512 616.51 138.552 613.246 138.552ZM622.414 140.496V141.648C622.414 143.88 623.998 146.088 626.734 147L625.75 148.488C623.638 147.72 622.15 146.232 621.43 144.432C620.758 146.184 619.438 147.816 617.446 148.68C615.382 147.864 614.086 146.304 613.438 144.504C612.67 146.232 611.206 147.72 609.19 148.488L608.206 147C610.918 146.04 612.526 143.712 612.526 141.648V140.496H614.422V141.648C614.422 143.544 615.406 145.584 617.398 146.76C619.462 145.488 620.494 143.328 620.494 141.648V140.496H622.414ZM634.268 142.176C636.308 142.176 637.748 139.92 637.748 136.416C637.748 132.936 636.308 130.68 634.268 130.68C632.204 130.68 630.764 132.936 630.764 136.416C630.764 139.92 632.204 142.176 634.268 142.176ZM644.276 127.248H646.244V148.824H644.276V137.064H639.596C639.404 141.288 637.268 143.928 634.268 143.928C631.124 143.928 628.892 141 628.892 136.416C628.892 131.832 631.124 128.904 634.268 128.904C637.172 128.904 639.284 131.424 639.596 135.456H644.276V127.248ZM652.074 147.288C651.482 147.288 651.042 147.136 650.754 146.832C650.466 146.512 650.322 146.12 650.322 145.656V145.296C650.322 144.832 650.466 144.448 650.754 144.144C651.042 143.824 651.482 143.664 652.074 143.664C652.666 143.664 653.106 143.824 653.394 144.144C653.682 144.448 653.826 144.832 653.826 145.296V145.656C653.826 146.12 653.682 146.512 653.394 146.832C653.106 147.136 652.666 147.288 652.074 147.288ZM143.128 176.568V169.752H137.08V176.568H143.128ZM145.048 168.168V178.128H135.16V168.168H145.048ZM139.552 180.528V185.688H151.936V187.296H137.584V180.528H139.552ZM150.976 172.8H154.144V174.456H150.976V181.992H149.008V166.224H150.976V172.8ZM157.958 172.632C157.958 174.648 159.494 176.064 161.654 176.064C163.79 176.064 165.35 174.648 165.35 172.632C165.35 170.592 163.79 169.2 161.654 169.2C159.494 169.2 157.958 170.592 157.958 172.632ZM167.27 172.632C167.27 175.632 164.894 177.72 161.654 177.72C158.39 177.72 156.038 175.632 156.038 172.632C156.038 169.608 158.39 167.544 161.654 167.544C164.894 167.544 167.27 169.608 167.27 172.632ZM158.342 181.656V180.048H172.334V187.776H170.366V181.656H158.342ZM175.454 171.168H172.334V174.144H175.454V175.752H172.334V179.04H170.366V166.272H172.334V169.536H175.454V171.168ZM184.748 168.336V180.672C187.844 180.672 191.036 180.408 194.516 179.712L194.756 181.344C191.084 182.088 187.796 182.328 184.508 182.328H182.804V168.336H184.748ZM201.956 174.84V176.472H198.5V187.776H196.532V166.248H198.5V174.84H201.956ZM218.37 170.016V168.264H205.746V166.872H220.314V171.36H207.738V173.208H220.698V174.624H205.794V170.016H218.37ZM207.618 184.08V186.072H221.058V187.488H205.674V182.712H218.442V180.912H205.626V179.496H220.386V184.08H207.618ZM203.298 176.256H222.81V177.744H203.298V176.256ZM244.632 185.904V183.456H234V185.904H244.632ZM244.632 181.92V179.784H246.6V187.488H232.056V179.784H234V181.92H244.632ZM242.04 170.424V172.8H245.376V170.424H242.04ZM236.64 172.8V170.424H233.328V172.8H236.64ZM240.336 176.736H249.072V178.32H229.608V176.736H238.368V174.36H231.456V166.608H233.328V168.936H236.64V166.608H238.512V174.144H240.192V166.608H242.04V168.936H245.376V166.608H247.248V174.36H240.336V176.736ZM258.646 170.088V172.824C258.646 176.472 261.238 180.192 264.406 181.536L263.302 183.12C260.806 181.968 258.694 179.496 257.662 176.544C256.678 179.688 254.566 182.4 252.118 183.648L250.966 182.064C254.062 180.6 256.678 176.544 256.678 172.824V170.088H251.686V168.456H263.71V170.088H258.646ZM266.614 166.272H268.582V187.776H266.614V166.272ZM279.604 172.44C279.604 174.408 281.164 175.8 283.252 175.8C285.316 175.8 286.876 174.408 286.876 172.44C286.876 170.472 285.316 169.08 283.252 169.08C281.164 169.08 279.604 170.472 279.604 172.44ZM288.796 172.44C288.796 175.368 286.444 177.408 283.252 177.408C280.036 177.408 277.684 175.368 277.684 172.44C277.684 169.512 280.036 167.472 283.252 167.472C286.444 167.472 288.796 169.512 288.796 172.44ZM281.452 179.304V185.592C282.7 185.544 284.284 185.352 285.772 184.872L286.084 186.432C284.044 187.104 282.028 187.224 280.564 187.224H279.532V179.304H281.452ZM290.716 186.36C292.012 186.36 292.948 185.688 292.948 184.704C292.948 183.72 292.012 183.072 290.716 183.072C289.396 183.072 288.484 183.72 288.484 184.704C288.484 185.688 289.396 186.36 290.716 186.36ZM290.716 181.68C293.044 181.68 294.7 182.856 294.7 184.704C294.7 186.576 293.044 187.752 290.716 187.752C288.388 187.752 286.732 186.576 286.732 184.704C286.732 182.856 288.388 181.68 290.716 181.68ZM291.676 177.504V179.448H296.116V180.912H285.292V179.448H289.756V177.504H291.676ZM293.98 171.072H297.172V172.704H293.98V176.976H292.012V166.248H293.98V171.072ZM315.891 172.728V174.336H301.251V167.04H303.219V172.728H315.891ZM303.075 180.96V185.64H316.011V187.248H301.107V180.96H303.075ZM298.611 177.216H318.123V178.8H298.611V177.216ZM330.681 181.176C332.745 181.176 334.209 178.92 334.209 175.416C334.209 171.936 332.745 169.68 330.681 169.68C328.593 169.68 327.129 171.936 327.129 175.416C327.129 178.92 328.593 181.176 330.681 181.176ZM330.681 167.904C333.849 167.904 336.081 170.832 336.081 175.416C336.081 180 333.849 182.928 330.681 182.928C327.513 182.928 325.257 180 325.257 175.416C325.257 170.832 327.513 167.904 330.681 167.904ZM345.057 174.84V176.496H341.505V187.776H339.537V166.272H341.505V174.84H345.057ZM361.951 166.248H363.919V187.824H361.951V166.248ZM352.567 167.904C355.759 167.904 358.039 170.832 358.039 175.416C358.039 180 355.759 182.928 352.567 182.928C349.375 182.928 347.095 180 347.095 175.416C347.095 170.832 349.375 167.904 352.567 167.904ZM352.567 169.68C350.455 169.68 348.967 171.936 348.967 175.416C348.967 178.92 350.455 181.176 352.567 181.176C354.655 181.176 356.143 178.92 356.143 175.416C356.143 171.936 354.655 169.68 352.567 169.68ZM368.813 168.552H378.653C378.653 174.672 375.845 180.216 368.885 183.696L367.805 182.16C373.301 179.4 376.253 175.272 376.709 170.184H368.813V168.552ZM387.677 174.984V176.616H384.221V187.776H382.253V166.248H384.221V174.984H387.677ZM411.635 166.272V178.56H409.667V166.272H411.635ZM400.067 169.152C397.931 169.152 396.395 170.568 396.395 172.536C396.395 174.528 397.931 175.92 400.067 175.92C402.203 175.92 403.787 174.528 403.787 172.536C403.787 170.568 402.203 169.152 400.067 169.152ZM400.067 177.552C396.827 177.552 394.475 175.512 394.475 172.536C394.475 169.56 396.827 167.52 400.067 167.52C403.331 167.52 405.707 169.56 405.707 172.536C405.707 175.512 403.331 177.552 400.067 177.552ZM409.235 179.496V180.648C409.235 182.88 410.819 185.088 413.555 186L412.571 187.488C410.459 186.72 408.971 185.232 408.251 183.432C407.579 185.184 406.259 186.816 404.267 187.68C402.203 186.864 400.907 185.304 400.259 183.504C399.491 185.232 398.027 186.72 396.011 187.488L395.027 186C397.739 185.04 399.347 182.712 399.347 180.648V179.496H401.243V180.648C401.243 182.544 402.227 184.584 404.219 185.76C406.283 184.488 407.315 182.328 407.315 180.648V179.496H409.235ZM418.209 169.944V180.768C422.025 180.768 424.785 180.6 427.905 180.048L428.121 181.68C424.833 182.304 422.001 182.448 417.945 182.448H416.241V168.312H426.249V169.944H418.209ZM435.441 174.744V176.376H431.889V187.824H429.921V166.248H431.889V174.744H435.441ZM445.567 176.616V169.704H439.615V176.616H445.567ZM452.431 171.648H447.487V174.648H452.431V171.648ZM447.487 176.256V178.176H437.671V168.144H447.487V170.04H452.431V166.272H454.423V181.968H452.431V176.256H447.487ZM442.543 185.688H454.927V187.296H440.575V180.576H442.543V185.688ZM477.925 170.688V170.136H465.109V168.528H479.869V170.688C479.869 173.424 479.869 176.52 479.029 181.176L477.061 180.96C477.925 176.568 477.925 173.352 477.925 170.688ZM463.021 183H482.485V184.632H463.021V183ZM494.155 181.224C495.859 181.224 496.939 179.04 496.939 175.536C496.939 172.056 495.859 169.872 494.155 169.872C492.475 169.872 491.371 172.056 491.371 175.536C491.371 179.04 492.475 181.224 494.155 181.224ZM494.155 168.048C496.963 168.048 498.763 170.928 498.763 175.536C498.763 180.168 496.963 183.048 494.155 183.048C491.371 183.048 489.571 180.168 489.571 175.536C489.571 170.928 491.371 168.048 494.155 168.048ZM505.723 166.248H507.595V187.776H505.723V176.376H502.819V186.72H500.971V166.728H502.819V174.768H505.723V166.248ZM527.921 172.728V174.336H513.281V167.04H515.249V172.728H527.921ZM515.105 180.96V185.64H528.041V187.248H513.137V180.96H515.105ZM510.641 177.216H530.153V178.8H510.641V177.216ZM546.671 168.696C543.407 168.696 541.175 169.92 541.175 171.816C541.175 173.736 543.407 174.96 546.671 174.96C549.959 174.96 552.191 173.736 552.191 171.816C552.191 169.92 549.959 168.696 546.671 168.696ZM546.671 176.544C542.207 176.544 539.159 174.72 539.159 171.816C539.159 168.936 542.207 167.112 546.671 167.112C551.159 167.112 554.207 168.936 554.207 171.816C554.207 174.72 551.159 176.544 546.671 176.544ZM556.463 178.584V180.216H547.655V187.8H545.687V180.216H536.975V178.584H556.463ZM561.549 175.92V180.96C565.077 180.96 568.245 180.792 572.013 180.192L572.205 181.8C568.317 182.448 565.053 182.592 561.357 182.592H559.581V174.336H567.501V169.848H559.509V168.24H569.493V175.92H561.549ZM574.029 166.224H575.997V187.8H574.029V166.224ZM588.619 176.88V172.944H582.523V176.88H588.619ZM590.539 167.808V178.464H580.579V167.808H582.523V171.408H588.619V167.808H590.539ZM584.971 180.552V185.688H597.355V187.296H583.003V180.552H584.971ZM596.395 172.776H599.563V174.432H596.395V182.064H594.427V166.272H596.395V172.776ZM610.769 168.096C607.241 168.096 605.225 168.912 605.225 170.352C605.225 171.792 607.241 172.608 610.769 172.608C614.297 172.608 616.313 171.792 616.313 170.352C616.313 168.912 614.297 168.096 610.769 168.096ZM610.769 174.072C606.041 174.072 603.209 172.776 603.209 170.352C603.209 167.928 606.041 166.608 610.769 166.608C615.497 166.608 618.329 167.928 618.329 170.352C618.329 172.776 615.497 174.072 610.769 174.072ZM605.369 183.816V186H618.665V187.536H603.449V182.376H616.073V180.456H603.377V178.968H618.017V183.816H605.369ZM601.025 175.536H620.513V177.12H601.025V175.536ZM634.583 168.12V171.984C634.583 175.776 637.031 179.688 640.055 181.2L638.831 182.76C636.551 181.536 634.607 179.016 633.623 176.064C632.687 179.208 630.695 181.896 628.271 183.192L627.095 181.608C630.191 180.024 632.639 175.896 632.639 171.984V168.12H634.583ZM647.471 174.984V176.616H643.919V187.776H641.951V166.272H643.919V174.984H647.471ZM661.39 175.704L661.582 177.312C658.174 177.888 655.342 178.008 651.358 178.008H649.654V171.912H657.358V169.2H649.606V167.592H659.302V173.424H651.598V176.4C655.366 176.4 658.126 176.28 661.39 175.704ZM658.558 186.24C661.774 186.24 663.694 185.352 663.694 183.84C663.694 182.328 661.774 181.44 658.558 181.44C655.342 181.44 653.398 182.328 653.398 183.84C653.398 185.352 655.342 186.24 658.558 186.24ZM658.558 179.904C662.926 179.904 665.638 181.344 665.638 183.84C665.638 186.336 662.926 187.752 658.558 187.752C654.166 187.752 651.478 186.336 651.478 183.84C651.478 181.344 654.166 179.904 658.558 179.904ZM665.422 171.648H668.614V173.28H665.422V179.232H663.454V166.272H665.422V171.648ZM676.388 181.344C678.356 181.344 679.772 179.952 679.772 178.032C679.772 176.088 678.356 174.696 676.388 174.696C674.444 174.696 673.028 176.088 673.028 178.032C673.028 179.952 674.444 181.344 676.388 181.344ZM676.388 173.064C679.46 173.064 681.644 175.128 681.644 178.032C681.644 180.96 679.46 182.976 676.388 182.976C673.364 182.976 671.18 180.96 671.18 178.032C671.18 175.128 673.364 173.064 676.388 173.064ZM677.348 166.512V169.704H682.652V171.288H669.956V169.704H675.38V166.512H677.348ZM690.188 175.104V176.76H686.66V187.776H684.692V166.272H686.66V175.104H690.188ZM699.114 170.088V172.824C699.114 176.472 701.706 180.192 704.874 181.536L703.77 183.12C701.274 181.968 699.162 179.496 698.13 176.544C697.146 179.688 695.034 182.4 692.586 183.648L691.434 182.064C694.53 180.6 697.146 176.544 697.146 172.824V170.088H692.154V168.456H704.178V170.088H699.114ZM707.082 166.272H709.05V187.776H707.082V166.272ZM720.072 172.44C720.072 174.408 721.632 175.8 723.72 175.8C725.784 175.8 727.344 174.408 727.344 172.44C727.344 170.472 725.784 169.08 723.72 169.08C721.632 169.08 720.072 170.472 720.072 172.44ZM729.264 172.44C729.264 175.368 726.912 177.408 723.72 177.408C720.504 177.408 718.152 175.368 718.152 172.44C718.152 169.512 720.504 167.472 723.72 167.472C726.912 167.472 729.264 169.512 729.264 172.44ZM721.92 179.304V185.592C723.168 185.544 724.752 185.352 726.24 184.872L726.552 186.432C724.512 187.104 722.496 187.224 721.032 187.224H720V179.304H721.92ZM731.184 186.36C732.48 186.36 733.416 185.688 733.416 184.704C733.416 183.72 732.48 183.072 731.184 183.072C729.864 183.072 728.952 183.72 728.952 184.704C728.952 185.688 729.864 186.36 731.184 186.36ZM731.184 181.68C733.512 181.68 735.168 182.856 735.168 184.704C735.168 186.576 733.512 187.752 731.184 187.752C728.856 187.752 727.2 186.576 727.2 184.704C727.2 182.856 728.856 181.68 731.184 181.68ZM732.144 177.504V179.448H736.584V180.912H725.76V179.448H730.224V177.504H732.144ZM734.448 171.072H737.64V172.704H734.448V176.976H732.48V166.248H734.448V171.072ZM756.358 172.728V174.336H741.718V167.04H743.686V172.728H756.358ZM743.542 180.96V185.64H756.478V187.248H741.574V180.96H743.542ZM739.078 177.216H758.59V178.8H739.078V177.216ZM761.396 168.576H771.212C771.212 174.696 768.668 180.144 761.516 183.672L760.436 182.136C766.22 179.304 768.884 175.2 769.244 170.16H761.396V168.576ZM776.204 166.272H778.172V187.776H776.204V176.496H771.164V174.888H776.204V166.272ZM787.554 181.176C789.618 181.176 791.082 178.896 791.082 175.392C791.082 171.936 789.618 169.68 787.554 169.68C785.466 169.68 784.002 171.936 784.002 175.392C784.002 178.896 785.466 181.176 787.554 181.176ZM787.554 167.904C790.722 167.904 792.954 170.832 792.954 175.392C792.954 180 790.722 182.928 787.554 182.928C784.386 182.928 782.13 180 782.13 175.392C782.13 170.832 784.386 167.904 787.554 167.904ZM801.81 173.304H798.378V178.08H801.81V179.712H798.378V187.776H796.41V166.272H798.378V171.672H801.81V173.304ZM805.384 168C805.992 168 806.432 168.144 806.704 168.432C806.976 168.72 807.112 169.096 807.112 169.56V169.968C807.112 170.352 807.056 170.752 806.944 171.168C806.832 171.568 806.672 171.968 806.464 172.368C806.256 172.768 806.008 173.152 805.72 173.52C805.432 173.888 805.112 174.216 804.76 174.504H802.888C803.4 174.008 803.816 173.52 804.136 173.04C804.456 172.56 804.704 172.04 804.88 171.48C804.464 171.4 804.152 171.224 803.944 170.952C803.752 170.68 803.656 170.36 803.656 169.992V169.56C803.656 169.096 803.792 168.72 804.064 168.432C804.336 168.144 804.776 168 805.384 168Z" fill="white"/>
<rect x="173" y="375" width="558" height="160" rx="4" fill="#4857F6"/>
<path d="M205.88 423.288C204.68 423.288 203.672 423.088 202.856 422.688C202.04 422.272 201.32 421.704 200.696 420.984L202.568 419.16C203.032 419.688 203.536 420.104 204.08 420.408C204.64 420.712 205.28 420.864 206 420.864C206.736 420.864 207.264 420.736 207.584 420.48C207.92 420.224 208.088 419.872 208.088 419.424C208.088 419.056 207.968 418.768 207.728 418.56C207.504 418.336 207.112 418.184 206.552 418.104L205.304 417.936C203.944 417.76 202.904 417.376 202.184 416.784C201.48 416.176 201.128 415.296 201.128 414.144C201.128 413.536 201.24 412.992 201.464 412.512C201.688 412.016 202.008 411.6 202.424 411.264C202.84 410.912 203.336 410.648 203.912 410.472C204.504 410.28 205.16 410.184 205.88 410.184C206.488 410.184 207.024 410.232 207.488 410.328C207.968 410.408 208.4 410.536 208.784 410.712C209.168 410.872 209.52 411.08 209.84 411.336C210.16 411.576 210.472 411.848 210.776 412.152L208.976 413.952C208.608 413.568 208.168 413.248 207.656 412.992C207.144 412.736 206.584 412.608 205.976 412.608C205.304 412.608 204.816 412.728 204.512 412.968C204.224 413.208 204.08 413.52 204.08 413.904C204.08 414.32 204.2 414.64 204.44 414.864C204.696 415.072 205.12 415.224 205.712 415.32L206.984 415.488C209.688 415.872 211.04 417.104 211.04 419.184C211.04 419.792 210.912 420.352 210.656 420.864C210.416 421.36 210.072 421.792 209.624 422.16C209.176 422.512 208.632 422.792 207.992 423C207.368 423.192 206.664 423.288 205.88 423.288ZM218.001 423.288C217.105 423.288 216.297 423.136 215.577 422.832C214.873 422.528 214.265 422.088 213.753 421.512C213.257 420.936 212.873 420.248 212.601 419.448C212.329 418.632 212.193 417.72 212.193 416.712C212.193 415.704 212.329 414.8 212.601 414C212.873 413.2 213.257 412.52 213.753 411.96C214.265 411.384 214.873 410.944 215.577 410.64C216.297 410.336 217.105 410.184 218.001 410.184C218.897 410.184 219.705 410.336 220.425 410.64C221.145 410.944 221.753 411.384 222.249 411.96C222.761 412.52 223.153 413.2 223.425 414C223.697 414.8 223.833 415.704 223.833 416.712C223.833 417.72 223.697 418.632 223.425 419.448C223.153 420.248 222.761 420.936 222.249 421.512C221.753 422.088 221.145 422.528 220.425 422.832C219.705 423.136 218.897 423.288 218.001 423.288ZM218.001 420.816C218.817 420.816 219.457 420.568 219.921 420.072C220.385 419.576 220.617 418.848 220.617 417.888V415.56C220.617 414.616 220.385 413.896 219.921 413.4C219.457 412.904 218.817 412.656 218.001 412.656C217.201 412.656 216.569 412.904 216.105 413.4C215.641 413.896 215.409 414.616 215.409 415.56V417.888C215.409 418.848 215.641 419.576 216.105 420.072C216.569 420.568 217.201 420.816 218.001 420.816ZM228.908 423C227.852 423 227.076 422.736 226.58 422.208C226.084 421.68 225.836 420.936 225.836 419.976V405.24H228.908V420.552H230.564V423H228.908ZM239.659 420.912H239.539C239.427 421.232 239.275 421.536 239.083 421.824C238.907 422.096 238.675 422.344 238.387 422.568C238.115 422.792 237.779 422.968 237.379 423.096C236.995 423.224 236.547 423.288 236.035 423.288C234.739 423.288 233.747 422.864 233.059 422.016C232.371 421.168 232.027 419.96 232.027 418.392V410.472H235.099V418.08C235.099 418.944 235.267 419.608 235.603 420.072C235.939 420.52 236.475 420.744 237.211 420.744C237.515 420.744 237.811 420.704 238.099 420.624C238.403 420.544 238.667 420.424 238.891 420.264C239.115 420.088 239.299 419.88 239.443 419.64C239.587 419.384 239.659 419.088 239.659 418.752V410.472H242.731V423H239.659V420.912ZM249.472 423C248.416 423 247.608 422.728 247.048 422.184C246.504 421.624 246.232 420.832 246.232 419.808V412.92H244.384V410.472H245.344C245.808 410.472 246.12 410.368 246.28 410.16C246.456 409.936 246.544 409.608 246.544 409.176V407.04H249.304V410.472H251.872V412.92H249.304V420.552H251.68V423H249.472ZM255.353 408.648C254.713 408.648 254.249 408.504 253.961 408.216C253.689 407.928 253.553 407.56 253.553 407.112V406.632C253.553 406.184 253.689 405.816 253.961 405.528C254.249 405.24 254.713 405.096 255.353 405.096C255.977 405.096 256.433 405.24 256.721 405.528C257.009 405.816 257.153 406.184 257.153 406.632V407.112C257.153 407.56 257.009 407.928 256.721 408.216C256.433 408.504 255.977 408.648 255.353 408.648ZM253.817 410.472H256.889V423H253.817V410.472ZM264.697 423.288C263.801 423.288 262.993 423.136 262.273 422.832C261.569 422.528 260.961 422.088 260.449 421.512C259.953 420.936 259.569 420.248 259.297 419.448C259.025 418.632 258.889 417.72 258.889 416.712C258.889 415.704 259.025 414.8 259.297 414C259.569 413.2 259.953 412.52 260.449 411.96C260.961 411.384 261.569 410.944 262.273 410.64C262.993 410.336 263.801 410.184 264.697 410.184C265.593 410.184 266.401 410.336 267.121 410.64C267.841 410.944 268.449 411.384 268.945 411.96C269.457 412.52 269.849 413.2 270.121 414C270.393 414.8 270.529 415.704 270.529 416.712C270.529 417.72 270.393 418.632 270.121 419.448C269.849 420.248 269.457 420.936 268.945 421.512C268.449 422.088 267.841 422.528 267.121 422.832C266.401 423.136 265.593 423.288 264.697 423.288ZM264.697 420.816C265.513 420.816 266.153 420.568 266.617 420.072C267.081 419.576 267.313 418.848 267.313 417.888V415.56C267.313 414.616 267.081 413.896 266.617 413.4C266.153 412.904 265.513 412.656 264.697 412.656C263.897 412.656 263.265 412.904 262.801 413.4C262.337 413.896 262.105 414.616 262.105 415.56V417.888C262.105 418.848 262.337 419.576 262.801 420.072C263.265 420.568 263.897 420.816 264.697 420.816ZM272.533 423V410.472H275.605V412.56H275.725C275.981 411.888 276.381 411.328 276.925 410.88C277.485 410.416 278.253 410.184 279.229 410.184C280.525 410.184 281.517 410.608 282.205 411.456C282.893 412.304 283.237 413.512 283.237 415.08V423H280.165V415.392C280.165 414.496 280.005 413.824 279.685 413.376C279.365 412.928 278.837 412.704 278.101 412.704C277.781 412.704 277.469 412.752 277.165 412.848C276.877 412.928 276.613 413.056 276.373 413.232C276.149 413.392 275.965 413.6 275.821 413.856C275.677 414.096 275.605 414.384 275.605 414.72V423H272.533ZM203.816 462.264C203.16 462.264 202.672 462.104 202.352 461.784C202.048 461.448 201.896 461.024 201.896 460.512V460.08C201.896 459.568 202.048 459.144 202.352 458.808C202.672 458.472 203.16 458.304 203.816 458.304C204.488 458.304 204.976 458.472 205.28 458.808C205.584 459.144 205.736 459.568 205.736 460.08V460.512C205.736 461.024 205.584 461.448 205.28 461.784C204.976 462.104 204.488 462.264 203.816 462.264ZM203.816 453.168C203.16 453.168 202.672 453.008 202.352 452.688C202.048 452.352 201.896 451.928 201.896 451.416V450.984C201.896 450.472 202.048 450.048 202.352 449.712C202.672 449.376 203.16 449.208 203.816 449.208C204.488 449.208 204.976 449.376 205.28 449.712C205.584 450.048 205.736 450.472 205.736 450.984V451.416C205.736 451.928 205.584 452.352 205.28 452.688C204.976 453.008 204.488 453.168 203.816 453.168ZM227.28 446.616V446.52H214.968V444H230.449V446.616C230.449 449.712 230.449 452.736 229.632 457.272L226.489 456.984C227.28 452.76 227.28 449.616 227.28 446.616ZM212.904 458.592H232.897V461.184H212.904V458.592ZM254.358 441.936H257.527V464.112H254.358V441.936ZM245.646 443.496C248.982 443.496 251.454 446.52 251.454 451.368C251.454 456.24 248.982 459.288 245.646 459.288C242.31 459.288 239.838 456.24 239.838 451.368C239.838 446.52 242.31 443.496 245.646 443.496ZM245.646 446.352C244.014 446.352 242.886 448.104 242.886 451.368C242.886 454.656 244.014 456.408 245.646 456.408C247.278 456.408 248.406 454.656 248.406 451.368C248.406 448.104 247.278 446.352 245.646 446.352ZM266.501 456.408C268.133 456.408 269.261 454.656 269.261 451.368C269.261 448.128 268.133 446.352 266.501 446.352C264.845 446.352 263.741 448.128 263.741 451.368C263.741 454.656 264.845 456.408 266.501 456.408ZM266.501 443.496C269.837 443.496 272.309 446.52 272.309 451.368C272.309 456.24 269.837 459.288 266.501 459.288C263.141 459.288 260.693 456.24 260.693 451.368C260.693 446.52 263.141 443.496 266.501 443.496ZM280.925 449.712H277.877V453.576H280.925V456.168H277.877V464.064H274.709V441.96H277.877V447.12H280.925V449.712ZM283.155 444.24H293.763C293.763 451.008 291.483 456.528 283.635 460.32L281.979 457.824C287.619 455.112 290.067 451.656 290.523 446.76H283.155V444.24ZM297.147 441.936H300.339V464.04H297.147V441.936ZM321.097 447.936V450.456H305.761V442.752H308.929V447.936H321.097ZM308.737 457.008V461.064H321.217V463.584H305.545V457.008H308.737ZM303.289 452.712H323.305V455.256H303.289V452.712ZM337.711 452.28V449.136H333.367V452.28H337.711ZM340.831 443.544V454.776H330.247V443.544H333.367V446.688H337.711V443.544H340.831ZM335.911 456.624V461.16H347.791V463.68H332.743V456.624H335.911ZM346.999 448.2H349.927V450.792H346.999V458.232H343.831V441.96H346.999V448.2ZM359.069 451.608V448.704H354.725V451.608H359.069ZM362.189 443.376V454.104H351.605V443.376H354.725V446.28H359.069V443.376H362.189ZM353.597 458.712V456.192H368.357V464.088H365.189V458.712H353.597ZM371.285 447.336V449.928H368.357V455.208H365.189V441.96H368.357V447.336H371.285ZM382.299 444.6C379.107 444.6 377.595 445.056 377.595 446.04C377.595 447.072 379.107 447.504 382.299 447.504C385.515 447.504 387.027 447.072 387.027 446.04C387.027 445.056 385.515 444.6 382.299 444.6ZM382.299 449.808C377.259 449.808 374.307 448.488 374.307 446.04C374.307 443.616 377.259 442.272 382.299 442.272C387.363 442.272 390.315 443.616 390.315 446.04C390.315 448.488 387.363 449.808 382.299 449.808ZM377.763 460.272V461.52H390.435V463.896H374.619V458.088H386.739V456.912H374.595V454.584H389.859V460.272H377.763ZM372.315 450.864H392.283V453.336H372.315V450.864ZM412.449 444.408V446.88H399.177V444.408H404.241V442.032H407.409V444.408H412.449ZM403.353 451.896C403.353 453.048 404.361 453.672 405.825 453.672C407.313 453.672 408.297 453.048 408.297 451.896C408.297 450.768 407.313 450.144 405.825 450.144C404.361 450.144 403.353 450.768 403.353 451.896ZM407.409 455.904V457.656C409.209 457.536 411.009 457.416 412.737 457.176L412.977 459.48C408.153 460.368 403.041 460.392 399.129 460.392L398.745 457.824C400.401 457.824 402.273 457.824 404.241 457.776V455.904C401.865 455.448 400.329 453.96 400.329 451.896C400.329 449.424 402.585 447.744 405.825 447.744C409.041 447.744 411.297 449.424 411.297 451.896C411.297 453.96 409.761 455.448 407.409 455.904ZM413.889 441.96H417.057V464.064H413.889V441.96ZM425.503 446.544V456.36C426.319 456.36 427.135 456.312 427.975 456.288V446.544H425.503ZM431.023 446.544V456.096C431.959 456.048 432.871 455.952 433.783 455.832L433.975 458.112C429.319 458.904 424.231 459 420.271 459.024L419.935 456.432C420.727 456.432 421.567 456.432 422.431 456.432V446.544H420.511V444H432.919V446.544H431.023ZM435.199 441.984H438.391V464.088H435.199V441.984ZM447.725 456.96C449.213 456.96 450.293 455.952 450.293 454.248C450.293 452.592 449.213 451.56 447.725 451.56C446.237 451.56 445.133 452.592 445.133 454.272C445.133 455.952 446.237 456.96 447.725 456.96ZM447.725 448.992C450.917 448.992 453.293 451.176 453.293 454.248C453.293 457.368 450.917 459.552 447.725 459.552C444.509 459.552 442.109 457.368 442.109 454.248C442.109 451.176 444.509 448.992 447.725 448.992ZM449.285 442.344V445.224H454.085V447.744H441.221V445.224H446.117V442.344H449.285ZM461.861 450.6V453.216H458.693V464.064H455.525V441.96H458.693V450.6H461.861ZM480.508 447.936V450.456H465.172V442.752H468.34V447.936H480.508ZM468.148 457.008V461.064H480.628V463.584H464.956V457.008H468.148ZM462.7 452.712H482.716V455.256H462.7V452.712ZM497.074 449.688V445.464H492.754V449.688H497.074ZM500.194 442.992V452.184H489.658V442.992H500.194ZM494.986 459.912V461.352H507.058V463.8H491.842V457.632H503.29V456.312H491.818V453.864H506.41V459.912H494.986ZM506.41 446.208H509.314V448.8H506.41V453H503.242V441.96H506.41V446.208ZM521.248 456.408C522.88 456.408 524.008 454.656 524.008 451.368C524.008 448.104 522.88 446.352 521.248 446.352C519.592 446.352 518.488 448.104 518.488 451.368C518.488 454.656 519.592 456.408 521.248 456.408ZM521.248 443.496C524.584 443.496 527.056 446.52 527.056 451.368C527.056 456.24 524.584 459.288 521.248 459.288C517.888 459.288 515.44 456.24 515.44 451.368C515.44 446.52 517.888 443.496 521.248 443.496ZM535.84 450.288V452.904H532.624V464.064H529.456V441.96H532.624V450.288H535.84ZM555.038 441.936V452.904H551.846V441.936H555.038ZM550.07 448.752L550.43 451.248C546.806 451.992 543.326 452.232 539.846 452.232H537.926V443.04H541.094V449.688C544.046 449.616 546.998 449.376 550.07 448.752ZM543.518 461.352H555.59V463.8H540.326V457.632H551.846V456.264H540.302V453.84H555.038V459.888H543.518V461.352ZM558.564 444.216H564.54C564.54 450.312 563.988 455.064 560.052 459.432L557.58 457.632C560.508 454.392 561.372 451.2 561.54 446.76H558.564V444.216ZM565.308 444.216H570.636C570.636 450.6 570.132 456.048 566.268 460.824L563.772 459.072C566.7 455.376 567.492 451.68 567.66 446.76H565.308V444.216ZM578.46 450.6V453.216H575.604V464.04H572.412V441.936H575.604V450.6H578.46ZM582.298 456.576V452.832C583.578 452.784 584.546 452.544 585.202 452.112C585.874 451.664 586.21 450.976 586.21 450.048V449.712C586.21 449.04 586.01 448.52 585.61 448.152C585.21 447.784 584.674 447.6 584.002 447.6C583.282 447.6 582.698 447.816 582.25 448.248C581.818 448.664 581.514 449.208 581.338 449.88L578.77 448.824C578.914 448.328 579.122 447.848 579.394 447.384C579.666 446.92 580.018 446.512 580.45 446.16C580.882 445.792 581.402 445.504 582.01 445.296C582.618 445.072 583.322 444.96 584.122 444.96C584.938 444.96 585.674 445.08 586.33 445.32C586.986 445.544 587.546 445.872 588.01 446.304C588.474 446.72 588.834 447.224 589.09 447.816C589.346 448.408 589.474 449.064 589.474 449.784C589.474 450.488 589.354 451.12 589.114 451.68C588.89 452.224 588.578 452.704 588.178 453.12C587.778 453.52 587.322 453.848 586.81 454.104C586.298 454.344 585.77 454.512 585.226 454.608V456.576H582.298ZM583.786 462.288C583.114 462.288 582.626 462.128 582.322 461.808C582.018 461.488 581.866 461.08 581.866 460.584V460.104C581.866 459.608 582.018 459.2 582.322 458.88C582.626 458.56 583.114 458.4 583.786 458.4C584.474 458.4 584.97 458.56 585.274 458.88C585.578 459.2 585.73 459.608 585.73 460.104V460.584C585.73 461.08 585.578 461.488 585.274 461.808C584.97 462.128 584.474 462.288 583.786 462.288ZM213.032 486.288H216.344V480.96H219.512V494.112H216.344V488.856H213.032V486.288ZM214.352 491.04L212.816 493.512C210.416 492.72 208.76 491.16 207.8 489.216C206.84 491.448 205.088 493.248 202.52 494.112L200.912 491.616C204.416 490.392 206.024 487.584 206.12 484.824H201.776V482.28H213.656V484.824H209.36C209.456 487.344 210.992 489.936 214.352 491.04ZM212.048 500.688C214.928 500.688 216.44 500.088 216.44 498.84C216.44 497.592 214.928 496.992 212.048 496.992C209.144 496.992 207.632 497.592 207.632 498.84C207.632 500.088 209.144 500.688 212.048 500.688ZM212.048 494.592C216.728 494.592 219.608 496.152 219.608 498.84C219.608 501.528 216.728 503.088 212.048 503.088C207.344 503.088 204.464 501.528 204.464 498.84C204.464 496.152 207.344 494.592 212.048 494.592ZM235.23 482.592V484.848H222.678V482.592H227.382V480.768H230.55V482.592H235.23ZM226.566 488.664C226.566 489.48 227.478 489.912 228.966 489.912C230.454 489.912 231.342 489.48 231.342 488.664C231.342 487.848 230.454 487.44 228.966 487.44C227.478 487.44 226.566 487.848 226.566 488.664ZM235.782 492.576L236.022 494.712C231.39 495.528 226.35 495.576 222.462 495.576L222.126 493.152C223.71 493.152 225.51 493.152 227.382 493.104V491.856C225.03 491.496 223.566 490.344 223.566 488.664C223.566 486.648 225.702 485.4 228.966 485.4C232.23 485.4 234.342 486.648 234.342 488.664C234.342 490.344 232.902 491.496 230.55 491.856V492.984C232.35 492.912 234.102 492.768 235.782 492.576ZM224.934 499.344V496.896H239.91V503.088H236.742V499.344H224.934ZM242.694 487.296V489.888H239.91V496.032H236.742V480.96H239.91V487.296H242.694ZM256.78 483.288L256.756 485.76H243.748V483.288H248.644V480.936H251.836V483.288H256.78ZM247.852 490.8C247.852 492.024 248.836 492.672 250.252 492.672C251.644 492.672 252.652 492.024 252.652 490.8C252.652 489.6 251.644 488.952 250.252 488.952C248.836 488.952 247.852 489.6 247.852 490.8ZM255.676 490.8C255.676 493.344 253.42 495.072 250.252 495.072C247.084 495.072 244.828 493.344 244.828 490.8C244.828 488.304 247.084 486.552 250.252 486.552C253.42 486.552 255.676 488.304 255.676 490.8ZM250.06 496.272V500.16H261.94V502.68H246.892V496.272H250.06ZM261.148 487.704H264.076V490.32H261.148V497.496H257.98V480.96H261.148V487.704ZM275.746 495.192V500.16H288.346V502.68H272.578V495.192H275.746ZM287.242 490.752H290.074V493.272H270.058V490.752H284.074C284.554 488.304 284.626 486.432 284.626 484.704H272.53V482.184H287.746V484.104C287.746 485.976 287.746 488.064 287.242 490.752ZM292.208 483.24H302.6C302.6 489.912 300.464 495.432 292.832 499.248L291.152 496.8C296.672 494.016 298.952 490.584 299.384 485.76H292.208V483.24ZM306.728 480.96H309.896V503.064H306.728V492H302.456V489.432H306.728V480.96ZM316.351 487.68C316.351 489.408 317.599 490.44 319.279 490.44C320.959 490.44 322.231 489.408 322.231 487.68C322.231 485.952 320.959 484.944 319.279 484.944C317.599 484.944 316.351 485.952 316.351 487.68ZM320.887 492.936V495.96C322.615 495.888 324.295 495.744 325.903 495.552L326.167 497.832C321.559 498.696 316.639 498.696 312.919 498.672L312.535 496.104C314.095 496.104 315.895 496.104 317.743 496.08V492.96C315.127 492.408 313.279 490.368 313.279 487.68C313.279 484.512 315.871 482.232 319.279 482.232C322.711 482.232 325.303 484.512 325.303 487.68C325.303 490.344 323.479 492.36 320.887 492.936ZM333.127 489.624V492.24H330.223V503.04H327.055V480.936H330.223V489.624H333.127ZM340.069 482.424H350.533C350.533 488.328 346.981 491.664 340.237 492.936L339.013 490.416C344.365 489.528 346.693 487.368 347.005 484.944H340.069V482.424ZM345.157 499.2V500.52H357.037V502.8H342.013V493.392H356.581V495.696H345.157V496.992H356.341V499.2H345.157ZM356.485 485.472H359.413V488.088H356.485V492.504H353.317V480.936H356.485V485.472ZM375.587 480.936H378.755V503.112H375.587V480.936ZM366.875 482.496C370.211 482.496 372.683 485.52 372.683 490.368C372.683 495.24 370.211 498.288 366.875 498.288C363.539 498.288 361.067 495.24 361.067 490.368C361.067 485.52 363.539 482.496 366.875 482.496ZM366.875 485.352C365.243 485.352 364.115 487.104 364.115 490.368C364.115 493.656 365.243 495.408 366.875 495.408C368.507 495.408 369.635 493.656 369.635 490.368C369.635 487.104 368.507 485.352 366.875 485.352ZM388.865 491.904L387.713 489.432C392.225 488.88 394.577 486.72 394.889 484.608H388.529V482.088H404.921V484.608H398.657C398.969 486.72 401.297 488.88 405.785 489.432L404.657 491.904C400.793 491.376 398.081 489.72 396.761 487.464C395.441 489.72 392.729 491.376 388.865 491.904ZM406.745 493.176V495.696H398.273V503.112H395.105V495.696H386.777V493.176H406.745ZM421.287 490.992L419.775 493.44C417.351 492.72 415.671 491.256 414.711 489.432C413.727 491.616 411.975 493.368 409.383 494.208L407.799 491.736C411.375 490.536 412.959 487.728 413.007 484.968H408.615V482.424H420.567V484.968H416.247C416.295 487.488 417.807 489.96 421.287 490.992ZM418.287 500.64C421.095 500.64 422.607 500.04 422.607 498.792C422.607 497.52 421.095 496.92 418.287 496.92C415.455 496.92 413.943 497.52 413.943 498.792C413.943 500.04 415.455 500.64 418.287 500.64ZM418.287 494.472C422.871 494.472 425.751 496.08 425.751 498.792C425.751 501.48 422.871 503.064 418.287 503.064C413.679 503.064 410.799 501.48 410.799 498.792C410.799 496.08 413.679 494.472 418.287 494.472ZM425.511 486.048H428.439V488.64H425.511V494.088H422.343V480.96H425.511V486.048ZM439.453 483.6C436.261 483.6 434.749 484.056 434.749 485.04C434.749 486.072 436.261 486.504 439.453 486.504C442.669 486.504 444.181 486.072 444.181 485.04C444.181 484.056 442.669 483.6 439.453 483.6ZM439.453 488.808C434.413 488.808 431.461 487.488 431.461 485.04C431.461 482.616 434.413 481.272 439.453 481.272C444.517 481.272 447.469 482.616 447.469 485.04C447.469 487.488 444.517 488.808 439.453 488.808ZM434.917 499.272V500.52H447.589V502.896H431.773V497.088H443.893V495.912H431.749V493.584H447.013V499.272H434.917ZM429.469 489.864H449.437V492.336H429.469V489.864ZM463.843 488.688V484.464H459.523V488.688H463.843ZM466.963 481.992V491.184H456.427V481.992H466.963ZM461.755 498.912V500.352H473.827V502.8H458.611V496.632H470.059V495.312H458.587V492.864H473.179V498.912H461.755ZM473.179 485.208H476.083V487.8H473.179V492H470.011V480.96H473.179V485.208ZM482.441 495.672C483.641 495.672 484.505 494.712 484.505 493.056C484.505 491.4 483.641 490.416 482.441 490.416C481.241 490.416 480.377 491.4 480.377 493.056C480.377 494.712 481.241 495.672 482.441 495.672ZM482.441 487.776C485.273 487.776 487.289 489.96 487.289 493.056C487.289 496.128 485.273 498.312 482.441 498.312C479.609 498.312 477.593 496.128 477.593 493.056C477.593 489.96 479.609 487.776 482.441 487.776ZM484.001 481.56V484.296H487.673V486.816H477.113V484.296H480.881V481.56H484.001ZM493.097 480.936H496.097V503.04H493.097V492.504H491.417V502.128H488.465V481.368H491.417V489.96H493.097V480.936ZM500.031 491.088L498.807 488.688C502.359 488.136 503.943 486.504 503.991 484.824H499.695V482.328H511.407V484.824H507.207C507.255 486.408 508.839 487.92 512.151 488.448L510.903 490.848C508.359 490.392 506.607 489.36 505.647 487.92C504.615 489.456 502.767 490.608 500.031 491.088ZM512.631 491.664L512.799 493.968C510.879 494.304 508.935 494.544 507.015 494.688V502.416H503.847V494.88C502.023 494.952 500.319 494.952 498.807 494.952L498.423 492.384C502.431 492.384 507.879 492.336 512.631 491.664ZM514.047 480.96H517.215V503.04H514.047V498.336H509.631V495.936H514.047V480.96Z" fill="white"/>
</g>
<defs>
<filter id="filter0_d_130_2" x="0" y="0" width="844" height="550" filterUnits="userSpaceOnUse" color-interpolation-filters="sRGB">
<feFlood flood-opacity="0" result="BackgroundImageFix"/>
<feColorMatrix in="SourceAlpha" type="matrix" values="0 0 0 0 0 0 0 0 0 0 0 0 0 0 0 0 0 0 127 0" result="hardAlpha"/>
<feOffset/>
<feGaussianBlur stdDeviation="7.5"/>
<feComposite in2="hardAlpha" operator="out"/>
<feColorMatrix type="matrix" values="0 0 0 0 0 0 0 0 0 0 0 0 0 0 0 0 0 0 0.25 0"/>
<feBlend mode="normal" in2="BackgroundImageFix" result="effect1_dropShadow_130_2"/>
<feBlend mode="normal" in="SourceGraphic" in2="effect1_dropShadow_130_2" result="shape"/>
</filter>
</defs>
</svg>
