<svg width="675" height="577" viewBox="0 0 675 577" fill="none" xmlns="http://www.w3.org/2000/svg">
<g filter="url(#filter0_d_132_2)">
<rect x="106" y="15" width="484" height="232" rx="4" fill="#FF4C91"/>
<rect x="15" y="244" width="460" height="170" rx="4" fill="black"/>
<path d="M59.92 281.224V283.792H47.032V281.224H51.928V278.344H55.096V281.224H59.92ZM53.488 292.888C54.856 292.888 55.912 291.904 55.912 290.272C55.912 288.64 54.856 287.656 53.488 287.656C52.144 287.656 51.112 288.64 51.112 290.272C51.112 291.904 52.144 292.888 53.488 292.888ZM53.488 284.992C56.536 284.992 58.816 287.224 58.816 290.272C58.816 293.32 56.536 295.552 53.488 295.552C50.464 295.552 48.184 293.32 48.184 290.272C48.184 287.224 50.464 284.992 53.488 284.992ZM62.416 277.96H65.584V300.064H62.416V289.216H59.512V286.648H62.416V277.96ZM78.3501 281.224C75.4461 281.224 73.5981 282.088 73.5981 283.672C73.5981 285.28 75.4461 286.144 78.3501 286.144C81.2301 286.144 83.0781 285.28 83.0781 283.672C83.0781 282.088 81.2301 281.224 78.3501 281.224ZM78.3501 288.664C73.6221 288.664 70.3581 286.72 70.3581 283.672C70.3581 280.672 73.6221 278.704 78.3501 278.704C83.0541 278.704 86.3421 280.672 86.3421 283.672C86.3421 286.72 83.0541 288.664 78.3501 288.664ZM88.4061 290.32V292.864H79.9101V300.088H76.7421V292.864H68.3901V290.32H88.4061ZM95.6763 292.408C97.3083 292.408 98.4363 290.656 98.4363 287.368C98.4363 284.104 97.3083 282.352 95.6763 282.352C94.0203 282.352 92.9163 284.104 92.9163 287.368C92.9163 290.656 94.0203 292.408 95.6763 292.408ZM95.6763 279.496C99.0123 279.496 101.484 282.52 101.484 287.368C101.484 292.24 99.0123 295.288 95.6763 295.288C92.3163 295.288 89.8683 292.24 89.8683 287.368C89.8683 282.52 92.3163 279.496 95.6763 279.496ZM110.268 286.288V288.904H107.052V300.064H103.884V277.96H107.052V286.288H110.268ZM126.25 277.936H129.418V300.112H126.25V277.936ZM112.186 279.712H115.33V285.064H119.938V279.712H123.082V294.952H112.186V279.712ZM115.33 287.536V292.432H119.938V287.536H115.33ZM140.632 283.12V292.072C141.184 292.024 141.808 291.928 142.456 291.784L142.696 294.352C141.088 294.712 139.936 294.736 138.784 294.736H137.8V280.6H142.456V283.12H140.632ZM146.104 283.12V292.072C146.8 292.024 147.52 291.928 148.36 291.736L148.6 294.328C146.92 294.712 145.624 294.736 144.304 294.736H143.272V280.6H148.072V283.12H146.104ZM153.736 277.936H156.688V300.04H153.736V289.048H152.128V299.056H149.224V278.296H152.128V286.504H153.736V277.936ZM163.191 288.376V292.36C166.551 292.336 169.335 292.168 172.455 291.64L172.791 294.208C169.191 294.832 165.951 294.976 161.943 294.976H159.951V285.88H167.127V282.352H159.927V279.832H170.367V288.376H163.191ZM173.991 277.936H177.159V300.112H173.991V277.936ZM181.357 280.24H191.965C191.965 287.008 189.685 292.528 181.837 296.32L180.181 293.824C185.821 291.112 188.269 287.656 188.725 282.76H181.357V280.24ZM195.349 277.936H198.541V300.04H195.349V277.936ZM201.659 290.512C201.659 289.36 201.763 288.248 201.971 287.176C202.195 286.104 202.491 285.112 202.859 284.2C203.243 283.272 203.691 282.432 204.203 281.68C204.715 280.928 205.275 280.288 205.883 279.76H208.787C208.131 280.368 207.539 281.04 207.011 281.776C206.499 282.512 206.059 283.304 205.691 284.152C205.323 284.984 205.035 285.864 204.827 286.792C204.635 287.72 204.539 288.672 204.539 289.648V291.424C204.539 292.416 204.635 293.384 204.827 294.328C205.035 295.256 205.323 296.144 205.691 296.992C206.075 297.824 206.523 298.608 207.035 299.344C207.563 300.08 208.147 300.736 208.787 301.312H205.883C205.291 300.816 204.739 300.192 204.227 299.44C203.715 298.688 203.267 297.848 202.883 296.92C202.499 295.976 202.195 294.968 201.971 293.896C201.763 292.808 201.659 291.68 201.659 290.512ZM213.705 298.288C212.505 298.288 211.497 298.088 210.681 297.688C209.865 297.272 209.145 296.704 208.521 295.984L210.393 294.16C210.857 294.688 211.361 295.104 211.905 295.408C212.465 295.712 213.105 295.864 213.825 295.864C214.561 295.864 215.089 295.736 215.409 295.48C215.745 295.224 215.913 294.872 215.913 294.424C215.913 294.056 215.793 293.768 215.553 293.56C215.329 293.336 214.937 293.184 214.377 293.104L213.129 292.936C211.769 292.76 210.729 292.376 210.009 291.784C209.305 291.176 208.953 290.296 208.953 289.144C208.953 288.536 209.065 287.992 209.289 287.512C209.513 287.016 209.833 286.6 210.249 286.264C210.665 285.912 211.161 285.648 211.737 285.472C212.329 285.28 212.985 285.184 213.705 285.184C214.313 285.184 214.849 285.232 215.313 285.328C215.793 285.408 216.225 285.536 216.609 285.712C216.993 285.872 217.345 286.08 217.665 286.336C217.985 286.576 218.297 286.848 218.601 287.152L216.801 288.952C216.433 288.568 215.993 288.248 215.481 287.992C214.969 287.736 214.409 287.608 213.801 287.608C213.129 287.608 212.641 287.728 212.337 287.968C212.049 288.208 211.905 288.52 211.905 288.904C211.905 289.32 212.025 289.64 212.265 289.864C212.521 290.072 212.945 290.224 213.537 290.32L214.809 290.488C217.513 290.872 218.865 292.104 218.865 294.184C218.865 294.792 218.737 295.352 218.481 295.864C218.241 296.36 217.897 296.792 217.449 297.16C217.001 297.512 216.457 297.792 215.817 298C215.193 298.192 214.489 298.288 213.705 298.288ZM224.582 298C223.526 298 222.718 297.728 222.158 297.184C221.614 296.624 221.342 295.832 221.342 294.808V287.92H219.494V285.472H220.454C220.918 285.472 221.23 285.368 221.39 285.16C221.566 284.936 221.654 284.608 221.654 284.176V282.04H224.414V285.472H226.982V287.92H224.414V295.552H226.79V298H224.582ZM228.926 298V285.472H231.998V288.064H232.118C232.198 287.728 232.318 287.408 232.478 287.104C232.654 286.784 232.878 286.504 233.15 286.264C233.422 286.024 233.742 285.832 234.11 285.688C234.494 285.544 234.934 285.472 235.43 285.472H236.102V288.376H235.142C234.102 288.376 233.318 288.528 232.79 288.832C232.262 289.136 231.998 289.632 231.998 290.32V298H228.926ZM246.586 298C245.914 298 245.378 297.808 244.978 297.424C244.594 297.024 244.354 296.496 244.258 295.84H244.114C243.906 296.656 243.482 297.272 242.842 297.688C242.202 298.088 241.41 298.288 240.466 298.288C239.186 298.288 238.202 297.952 237.514 297.28C236.826 296.608 236.482 295.712 236.482 294.592C236.482 293.296 236.946 292.336 237.874 291.712C238.802 291.072 240.122 290.752 241.834 290.752H243.97V289.84C243.97 289.136 243.786 288.592 243.418 288.208C243.05 287.824 242.458 287.632 241.642 287.632C240.922 287.632 240.338 287.792 239.89 288.112C239.458 288.416 239.09 288.784 238.786 289.216L236.962 287.584C237.426 286.864 238.042 286.288 238.81 285.856C239.578 285.408 240.594 285.184 241.858 285.184C243.554 285.184 244.842 285.568 245.722 286.336C246.602 287.104 247.042 288.208 247.042 289.648V295.552H248.29V298H246.586ZM241.498 296.056C242.186 296.056 242.77 295.904 243.25 295.6C243.73 295.296 243.97 294.848 243.97 294.256V292.6H242.002C240.402 292.6 239.602 293.112 239.602 294.136V294.544C239.602 295.056 239.762 295.44 240.082 295.696C240.418 295.936 240.89 296.056 241.498 296.056ZM248.715 285.472H251.667L252.939 290.632L253.923 294.928H254.019L255.171 290.632L256.635 285.472H259.419L260.931 290.632L262.107 294.928H262.203L263.187 290.632L264.435 285.472H267.291L263.859 298H260.547L258.939 292.48L258.003 289.072H257.931L257.019 292.48L255.435 298H252.171L248.715 285.472ZM273.835 298V285.472H276.907V287.56H277.027C277.267 286.904 277.651 286.344 278.179 285.88C278.707 285.416 279.443 285.184 280.387 285.184C281.251 285.184 281.995 285.392 282.619 285.808C283.243 286.224 283.707 286.856 284.011 287.704H284.059C284.283 287 284.723 286.408 285.379 285.928C286.051 285.432 286.891 285.184 287.899 285.184C289.131 285.184 290.075 285.608 290.731 286.456C291.403 287.304 291.739 288.512 291.739 290.08V298H288.667V290.392C288.667 288.6 287.995 287.704 286.651 287.704C286.347 287.704 286.051 287.752 285.763 287.848C285.491 287.928 285.243 288.056 285.019 288.232C284.811 288.392 284.643 288.6 284.515 288.856C284.387 289.096 284.323 289.384 284.323 289.72V298H281.251V290.392C281.251 288.6 280.579 287.704 279.235 287.704C278.947 287.704 278.659 287.752 278.371 287.848C278.099 287.928 277.851 288.056 277.627 288.232C277.419 288.392 277.243 288.6 277.099 288.856C276.971 289.096 276.907 289.384 276.907 289.72V298H273.835ZM303.636 298C302.964 298 302.428 297.808 302.028 297.424C301.644 297.024 301.404 296.496 301.308 295.84H301.164C300.956 296.656 300.532 297.272 299.892 297.688C299.252 298.088 298.46 298.288 297.516 298.288C296.236 298.288 295.252 297.952 294.564 297.28C293.876 296.608 293.532 295.712 293.532 294.592C293.532 293.296 293.996 292.336 294.924 291.712C295.852 291.072 297.172 290.752 298.884 290.752H301.02V289.84C301.02 289.136 300.836 288.592 300.468 288.208C300.1 287.824 299.508 287.632 298.692 287.632C297.972 287.632 297.388 287.792 296.94 288.112C296.508 288.416 296.14 288.784 295.836 289.216L294.012 287.584C294.476 286.864 295.092 286.288 295.86 285.856C296.628 285.408 297.644 285.184 298.908 285.184C300.604 285.184 301.892 285.568 302.772 286.336C303.652 287.104 304.092 288.208 304.092 289.648V295.552H305.34V298H303.636ZM298.548 296.056C299.236 296.056 299.82 295.904 300.3 295.6C300.78 295.296 301.02 294.848 301.02 294.256V292.6H299.052C297.452 292.6 296.652 293.112 296.652 294.136V294.544C296.652 295.056 296.812 295.44 297.132 295.696C297.468 295.936 297.94 296.056 298.548 296.056ZM307.106 298V285.472H310.178V287.56H310.298C310.554 286.888 310.954 286.328 311.498 285.88C312.058 285.416 312.826 285.184 313.802 285.184C315.098 285.184 316.09 285.608 316.778 286.456C317.466 287.304 317.81 288.512 317.81 290.08V298H314.738V290.392C314.738 289.496 314.578 288.824 314.258 288.376C313.938 287.928 313.41 287.704 312.674 287.704C312.354 287.704 312.042 287.752 311.738 287.848C311.45 287.928 311.186 288.056 310.946 288.232C310.722 288.392 310.538 288.6 310.394 288.856C310.25 289.096 310.178 289.384 310.178 289.72V298H307.106ZM326.072 287.896H324.224V285.472H326.072V283.672C326.072 282.568 326.36 281.72 326.936 281.128C327.528 280.536 328.392 280.24 329.528 280.24H331.712V282.688H329.144V285.472H331.712V287.896H329.144V298H326.072V287.896ZM342.334 298C341.662 298 341.126 297.808 340.726 297.424C340.342 297.024 340.102 296.496 340.006 295.84H339.862C339.654 296.656 339.23 297.272 338.59 297.688C337.95 298.088 337.158 298.288 336.214 298.288C334.934 298.288 333.95 297.952 333.262 297.28C332.574 296.608 332.23 295.712 332.23 294.592C332.23 293.296 332.694 292.336 333.622 291.712C334.55 291.072 335.87 290.752 337.582 290.752H339.718V289.84C339.718 289.136 339.534 288.592 339.166 288.208C338.798 287.824 338.206 287.632 337.39 287.632C336.67 287.632 336.086 287.792 335.638 288.112C335.206 288.416 334.838 288.784 334.534 289.216L332.71 287.584C333.174 286.864 333.79 286.288 334.558 285.856C335.326 285.408 336.342 285.184 337.606 285.184C339.302 285.184 340.59 285.568 341.47 286.336C342.35 287.104 342.79 288.208 342.79 289.648V295.552H344.038V298H342.334ZM337.246 296.056C337.934 296.056 338.518 295.904 338.998 295.6C339.478 295.296 339.718 294.848 339.718 294.256V292.6H337.75C336.15 292.6 335.35 293.112 335.35 294.136V294.544C335.35 295.056 335.51 295.44 335.83 295.696C336.166 295.936 336.638 296.056 337.246 296.056ZM348.876 298C347.82 298 347.044 297.736 346.548 297.208C346.052 296.68 345.804 295.936 345.804 294.976V280.24H348.876V295.552H350.532V298H348.876ZM355.047 298C353.991 298 353.215 297.736 352.719 297.208C352.223 296.68 351.975 295.936 351.975 294.976V280.24H355.047V295.552H356.703V298H355.047ZM367.526 298C366.854 298 366.318 297.808 365.918 297.424C365.534 297.024 365.294 296.496 365.198 295.84H365.054C364.846 296.656 364.422 297.272 363.782 297.688C363.142 298.088 362.35 298.288 361.406 298.288C360.126 298.288 359.142 297.952 358.454 297.28C357.766 296.608 357.422 295.712 357.422 294.592C357.422 293.296 357.886 292.336 358.814 291.712C359.742 291.072 361.062 290.752 362.774 290.752H364.91V289.84C364.91 289.136 364.726 288.592 364.358 288.208C363.99 287.824 363.398 287.632 362.582 287.632C361.862 287.632 361.278 287.792 360.83 288.112C360.398 288.416 360.03 288.784 359.726 289.216L357.902 287.584C358.366 286.864 358.982 286.288 359.75 285.856C360.518 285.408 361.534 285.184 362.798 285.184C364.494 285.184 365.782 285.568 366.662 286.336C367.542 287.104 367.982 288.208 367.982 289.648V295.552H369.23V298H367.526ZM362.438 296.056C363.126 296.056 363.71 295.904 364.19 295.6C364.67 295.296 364.91 294.848 364.91 294.256V292.6H362.942C361.342 292.6 360.542 293.112 360.542 294.136V294.544C360.542 295.056 360.702 295.44 361.022 295.696C361.358 295.936 361.83 296.056 362.438 296.056ZM375.94 298.288C375.012 298.288 374.188 298.136 373.468 297.832C372.748 297.528 372.14 297.088 371.644 296.512C371.164 295.936 370.796 295.248 370.54 294.448C370.284 293.632 370.156 292.72 370.156 291.712C370.156 290.704 370.284 289.8 370.54 289C370.796 288.2 371.164 287.52 371.644 286.96C372.14 286.384 372.748 285.944 373.468 285.64C374.188 285.336 375.012 285.184 375.94 285.184C377.204 285.184 378.244 285.464 379.06 286.024C379.892 286.584 380.492 287.36 380.86 288.352L378.34 289.48C378.196 288.952 377.924 288.52 377.524 288.184C377.14 287.832 376.612 287.656 375.94 287.656C375.076 287.656 374.428 287.928 373.996 288.472C373.58 289.016 373.372 289.728 373.372 290.608V292.888C373.372 293.768 373.58 294.48 373.996 295.024C374.428 295.552 375.076 295.816 375.94 295.816C376.676 295.816 377.244 295.632 377.644 295.264C378.044 294.88 378.356 294.408 378.58 293.848L380.932 294.976C380.516 296.08 379.884 296.912 379.036 297.472C378.188 298.016 377.156 298.288 375.94 298.288ZM390.261 285.472H393.141L388.101 300.232C387.941 300.68 387.757 301.064 387.549 301.384C387.357 301.72 387.125 301.992 386.853 302.2C386.581 302.408 386.253 302.56 385.869 302.656C385.485 302.752 385.037 302.8 384.525 302.8H382.677V300.352H384.933L385.509 298.6L381.021 285.472H384.069L386.253 292.096L387.069 295.264H387.213L388.077 292.096L390.261 285.472ZM399.559 290.512C399.559 291.68 399.447 292.808 399.223 293.896C399.015 294.968 398.719 295.976 398.335 296.92C397.951 297.848 397.503 298.688 396.991 299.44C396.479 300.192 395.927 300.816 395.335 301.312H392.431C393.071 300.736 393.647 300.08 394.159 299.344C394.687 298.608 395.135 297.824 395.503 296.992C395.887 296.144 396.175 295.256 396.367 294.328C396.575 293.384 396.679 292.416 396.679 291.424V289.648C396.679 288.672 396.575 287.72 396.367 286.792C396.175 285.864 395.895 284.984 395.527 284.152C395.159 283.304 394.711 282.512 394.183 281.776C393.671 281.04 393.087 280.368 392.431 279.76H395.335C395.943 280.288 396.503 280.928 397.015 281.68C397.527 282.432 397.967 283.272 398.335 284.2C398.719 285.112 399.015 286.104 399.223 287.176C399.447 288.248 399.559 289.36 399.559 290.512ZM49.816 337.264C49.16 337.264 48.672 337.104 48.352 336.784C48.048 336.448 47.896 336.024 47.896 335.512V335.08C47.896 334.568 48.048 334.144 48.352 333.808C48.672 333.472 49.16 333.304 49.816 333.304C50.488 333.304 50.976 333.472 51.28 333.808C51.584 334.144 51.736 334.568 51.736 335.08V335.512C51.736 336.024 51.584 336.448 51.28 336.784C50.976 337.104 50.488 337.264 49.816 337.264ZM49.816 328.168C49.16 328.168 48.672 328.008 48.352 327.688C48.048 327.352 47.896 326.928 47.896 326.416V325.984C47.896 325.472 48.048 325.048 48.352 324.712C48.672 324.376 49.16 324.208 49.816 324.208C50.488 324.208 50.976 324.376 51.28 324.712C51.584 325.048 51.736 325.472 51.736 325.984V326.416C51.736 326.928 51.584 327.352 51.28 327.688C50.976 328.008 50.488 328.168 49.816 328.168ZM71.5765 327.376L70.5445 328.912C68.2165 328.048 66.3685 326.272 65.4085 324.064C64.5205 326.584 62.6005 328.552 60.0805 329.512L59.0485 327.952C62.3125 326.776 64.4005 323.848 64.4005 320.56V318.352H66.3685V320.728C66.3685 323.632 68.4805 326.32 71.5765 327.376ZM69.0085 337.216C72.1765 337.216 74.1205 336.328 74.1205 334.84C74.1205 333.328 72.1765 332.44 69.0085 332.44C65.8165 332.44 63.8725 333.328 63.8725 334.84C63.8725 336.328 65.8165 337.216 69.0085 337.216ZM69.0085 330.904C73.3765 330.904 76.0885 332.32 76.0885 334.84C76.0885 337.336 73.3765 338.752 69.0085 338.752C64.6165 338.752 61.9045 337.336 61.9045 334.84C61.9045 332.32 64.6165 330.904 69.0085 330.904ZM75.8485 322.816H79.0405V324.448H75.8485V330.304H73.8805V317.272H75.8485V322.816ZM83.2146 321.472V331.84C86.0946 331.816 88.1346 331.696 90.4866 331.192L90.6546 332.824C88.0866 333.376 85.9026 333.472 82.6866 333.472H81.2706V319.864H89.2866V321.472H83.2146ZM96.8946 317.248H98.7906V338.776H96.8946V327.496H93.8466V337.696H91.9986V317.728H93.8466V325.888H96.8946V317.248ZM110.789 326.944V323.392H104.693V326.944H110.789ZM112.709 318.616V328.528H102.749V318.616H104.693V321.856H110.789V318.616H112.709ZM111.725 337.216C114.893 337.216 116.837 336.304 116.837 334.768C116.837 333.232 114.893 332.344 111.725 332.344C108.509 332.344 106.589 333.232 106.589 334.768C106.589 336.304 108.509 337.216 111.725 337.216ZM111.725 330.76C116.093 330.76 118.805 332.224 118.805 334.768C118.805 337.312 116.093 338.776 111.725 338.776C107.333 338.776 104.621 337.312 104.621 334.768C104.621 332.224 107.333 330.76 111.725 330.76ZM118.565 322.672H121.757V324.304H118.565V330.208H116.597V317.248H118.565V322.672ZM130.203 318.832C133.563 318.832 135.963 320.872 135.963 323.896C135.963 326.896 133.563 328.96 130.203 328.96C126.867 328.96 124.443 326.896 124.443 323.896C124.443 320.872 126.867 318.832 130.203 318.832ZM130.203 320.512C127.995 320.512 126.363 321.88 126.363 323.896C126.363 325.888 127.995 327.28 130.203 327.28C132.435 327.28 134.043 325.888 134.043 323.896C134.043 321.88 132.435 320.512 130.203 320.512ZM138.795 317.248H140.763V338.824H138.795V317.248ZM123.603 334.096L123.363 332.44C127.275 332.44 132.675 332.416 137.379 331.696L137.547 333.16C132.699 334.048 127.491 334.096 123.603 334.096ZM165.225 317.272H167.193V328.816H165.225V317.272ZM153.321 329.872H155.265V332.512H165.249V329.872H167.193V338.488H153.321V329.872ZM155.265 334.048V336.904H165.249V334.048H155.265ZM155.625 318.28C158.889 318.28 161.265 320.296 161.265 323.224C161.265 326.2 158.889 328.192 155.625 328.192C152.385 328.192 150.033 326.2 150.033 323.224C150.033 320.296 152.385 318.28 155.625 318.28ZM155.625 319.912C153.489 319.912 151.953 321.28 151.953 323.224C151.953 325.192 153.489 326.56 155.625 326.56C157.809 326.56 159.345 325.192 159.345 323.224C159.345 321.28 157.809 319.912 155.625 319.912ZM183.367 327.664L182.431 329.2C179.983 328.408 178.135 326.704 177.223 324.568C176.311 327.016 174.367 328.936 171.799 329.848L170.791 328.288C174.031 327.16 176.191 324.376 176.191 321.28V320.44H171.367V318.856H182.911V320.44H178.159V321.28C178.159 324.088 180.199 326.608 183.367 327.664ZM180.751 337.192C183.919 337.192 185.863 336.304 185.863 334.768C185.863 333.256 183.919 332.368 180.751 332.368C177.535 332.368 175.615 333.256 175.615 334.768C175.615 336.304 177.535 337.192 180.751 337.192ZM180.751 330.808C185.119 330.808 187.831 332.272 187.831 334.768C187.831 337.288 185.119 338.752 180.751 338.752C176.335 338.752 173.647 337.288 173.647 334.768C173.647 332.272 176.335 330.808 180.751 330.808ZM187.591 322.696H190.783V324.352H187.591V330.256H185.623V317.272H187.591V322.696ZM201.965 319.096C198.437 319.096 196.421 319.912 196.421 321.352C196.421 322.792 198.437 323.608 201.965 323.608C205.493 323.608 207.509 322.792 207.509 321.352C207.509 319.912 205.493 319.096 201.965 319.096ZM201.965 325.072C197.237 325.072 194.405 323.776 194.405 321.352C194.405 318.928 197.237 317.608 201.965 317.608C206.693 317.608 209.525 318.928 209.525 321.352C209.525 323.776 206.693 325.072 201.965 325.072ZM196.565 334.816V337H209.861V338.536H194.645V333.376H207.269V331.456H194.573V329.968H209.213V334.816H196.565ZM192.221 326.536H211.709V328.12H192.221V326.536ZM233.603 320.056V320.008H220.883V318.424H235.547V320.056C235.547 321.688 235.547 323.56 235.019 325.984L233.051 325.792C233.603 323.368 233.603 321.64 233.603 320.056ZM220.667 333.112V331.528H235.523V338.776H233.555V333.112H220.667ZM228.515 327.496H237.995V329.08H218.603V327.496H226.547V323.128H228.515V327.496ZM245.241 332.152C246.897 332.152 248.097 330.784 248.097 328.864C248.097 326.992 246.897 325.624 245.241 325.624C243.561 325.624 242.385 326.992 242.385 328.864C242.385 330.784 243.561 332.152 245.241 332.152ZM245.241 323.968C247.905 323.968 249.849 325.984 249.849 328.864C249.849 331.792 247.905 333.784 245.241 333.784C242.577 333.784 240.633 331.792 240.633 328.864C240.633 325.984 242.577 323.968 245.241 323.968ZM246.201 317.872V320.92H250.569V322.528H239.889V320.92H244.257V317.872H246.201ZM256.257 317.224H258.153V338.752H256.257V327.928H253.497V337.72H251.649V317.728H253.497V326.32H256.257V317.224ZM274.039 319.528V321.112H261.343V319.528H266.695V317.056H268.663V319.528H274.039ZM264.415 326.032C264.415 327.448 265.711 328.384 267.679 328.384C269.647 328.384 270.967 327.448 270.967 326.032C270.967 324.616 269.647 323.68 267.679 323.68C265.711 323.68 264.415 324.616 264.415 326.032ZM272.839 326.032C272.839 328.36 270.751 329.848 267.679 329.848C264.607 329.848 262.543 328.36 262.543 326.032C262.543 323.68 264.607 322.192 267.679 322.192C270.751 322.192 272.839 323.68 272.839 326.032ZM266.383 332.992V336.904H276.031V332.992H266.383ZM264.463 338.488V331.432H277.975V338.488H264.463ZM281.167 322.984V324.616H277.975V330.208H276.007V317.272H277.975V322.984H281.167ZM292.349 318.592C296.813 318.592 300.173 320.968 300.173 324.544C300.173 328.144 296.813 330.496 292.349 330.496C287.885 330.496 284.525 328.144 284.525 324.544C284.525 320.968 287.885 318.592 292.349 318.592ZM292.349 320.2C288.965 320.2 286.397 321.952 286.397 324.544C286.397 327.16 288.965 328.888 292.349 328.888C295.757 328.888 298.301 327.16 298.301 324.544C298.301 321.952 295.757 320.2 292.349 320.2ZM282.605 334.288H302.165V335.92H282.605V334.288ZM314.716 334.504H323.524V336.112H303.964V334.504H312.724V330.448H306.412V323.8H319.18V320.44H306.364V318.832H321.1V325.384H308.356V328.864H321.604V330.448H314.716V334.504ZM336.218 319.144V323.992C336.218 326.848 336.914 330.544 339.554 332.44L338.306 333.88C336.746 332.704 335.81 330.808 335.282 328.744C334.802 330.88 333.914 332.872 332.282 334.072C330.65 332.848 329.738 330.832 329.282 328.744C328.754 330.76 327.842 332.656 326.306 333.832L325.034 332.44C327.626 330.496 328.346 326.752 328.346 323.992V319.144H330.218V323.992C330.218 326.176 330.578 329.32 332.282 331.528C333.986 329.392 334.346 326.296 334.346 323.992V319.144H336.218ZM341.402 317.248H343.394V338.752H341.402V326.704H337.658V325.024H341.402V317.248ZM360.584 325.96V322.744H354.488V325.96H360.584ZM362.504 318.136V327.544H352.544V318.136H354.488V321.232H360.584V318.136H362.504ZM356.672 334.624V336.976H369.152V338.536H354.752V333.16H366.416V330.952H354.68V329.392H368.36V334.624H356.672ZM368.36 321.88H371.552V323.512H368.36V328.384H366.392V317.272H368.36V321.88ZM386.55 324.64V329.848H384.678V317.68H386.55V323.032H389.286V317.272H391.182V330.544H389.286V324.64H386.55ZM383.79 327.352L382.734 328.864C380.718 328.048 379.254 326.512 378.486 324.688C377.718 326.704 376.182 328.528 374.094 329.464L373.038 327.928C375.846 326.68 377.526 323.896 377.526 321.496V318.592H379.422V321.496C379.422 323.872 381.03 326.296 383.79 327.352ZM384.078 337.24C387.342 337.24 389.334 336.376 389.334 334.888C389.334 333.4 387.342 332.56 384.078 332.56C380.862 332.56 378.846 333.4 378.846 334.888C378.846 336.376 380.862 337.24 384.078 337.24ZM384.078 331.024C388.518 331.024 391.278 332.44 391.278 334.888C391.278 337.336 388.518 338.752 384.078 338.752C379.662 338.752 376.902 337.336 376.902 334.888C376.902 332.44 379.662 331.024 384.078 331.024ZM400.684 332.344C402.652 332.344 404.068 330.952 404.068 329.032C404.068 327.088 402.652 325.696 400.684 325.696C398.74 325.696 397.324 327.088 397.324 329.032C397.324 330.952 398.74 332.344 400.684 332.344ZM400.684 324.064C403.756 324.064 405.94 326.128 405.94 329.032C405.94 331.96 403.756 333.976 400.684 333.976C397.66 333.976 395.476 331.96 395.476 329.032C395.476 326.128 397.66 324.064 400.684 324.064ZM401.644 317.512V320.704H406.948V322.288H394.252V320.704H399.676V317.512H401.644ZM414.484 326.104V327.76H410.956V338.776H408.988V317.272H410.956V326.104H414.484ZM432.986 323.728V325.336H418.346V318.04H420.314V323.728H432.986ZM420.17 331.96V336.64H433.106V338.248H418.202V331.96H420.17ZM415.706 328.216H435.218V329.8H415.706V328.216ZM62.92 356.248H64.888V377.8H62.92V356.248ZM48.496 358.072H50.44V363.76H56.68V358.072H58.624V372.592H48.496V358.072ZM50.44 365.32V370.984H56.68V365.32H50.44ZM84.3741 365.608V363.016H80.7501V361.432H84.3741V356.248H86.3661V370.144H84.3741V367.216H80.7261V365.608H84.3741ZM80.7261 358.624V360.208H68.6781V358.624H73.8141V356.056H75.7821V358.624H80.7261ZM71.7501 365.296C71.7501 366.808 72.9741 367.792 74.7741 367.792C76.5741 367.792 77.7981 366.808 77.7981 365.296C77.7981 363.808 76.5741 362.824 74.7741 362.824C72.9741 362.824 71.7501 363.808 71.7501 365.296ZM79.6461 365.296C79.6461 367.72 77.6301 369.304 74.7741 369.304C71.8941 369.304 69.9021 367.72 69.9021 365.296C69.9021 362.896 71.8941 361.312 74.7741 361.312C77.6301 361.312 79.6461 362.896 79.6461 365.296ZM79.3101 376.24C82.4781 376.24 84.4221 375.448 84.4221 374.08C84.4221 372.688 82.4781 371.92 79.3101 371.92C76.1421 371.92 74.1741 372.688 74.1741 374.08C74.1741 375.448 76.1421 376.24 79.3101 376.24ZM79.3101 370.408C83.7501 370.408 86.4621 371.728 86.4621 374.08C86.4621 376.408 83.7501 377.752 79.3101 377.752C74.8461 377.752 72.1341 376.408 72.1341 374.08C72.1341 371.728 74.8461 370.408 79.3101 370.408ZM102.972 366.376L101.988 367.936C99.5163 367.048 97.5723 365.2 96.6123 362.824C95.6763 365.368 93.7083 367.36 91.1883 368.32L90.1803 366.76C93.4203 365.584 95.6043 362.584 95.6043 359.368V357.256H97.5723V359.368C97.5723 362.464 99.7803 365.272 102.972 366.376ZM93.2523 371.896V370.312H107.652V377.8H105.684V371.896H93.2523ZM105.684 356.272H107.652V369.208H105.684V356.272ZM124.042 366.76L123.058 368.296C120.658 367.432 118.81 365.656 117.85 363.424C116.938 365.896 114.97 367.864 112.45 368.8L111.418 367.24C114.61 366.112 116.842 363.232 116.842 360.184V359.32H112.042V357.712H123.538V359.32H118.81V360.184C118.81 362.944 120.922 365.656 124.042 366.76ZM114.682 371.896V370.312H129.082V377.8H127.09V371.896H114.682ZM127.09 356.248H129.082V369.136H127.09V363.472H122.89V361.864H127.09V356.248ZM141.448 363.304C141.448 365.776 143.968 367.384 147.4 367.384C150.832 367.384 153.328 365.776 153.328 363.304C153.328 360.832 150.832 359.224 147.4 359.224C143.968 359.224 141.448 360.832 141.448 363.304ZM148.384 373.384H157.192V375.016H137.632V373.384H146.392V368.896C142.384 368.608 139.552 366.472 139.552 363.304C139.552 359.872 142.84 357.664 147.4 357.664C151.936 357.664 155.2 359.872 155.2 363.304C155.2 366.472 152.392 368.608 148.384 368.896V373.384ZM174.183 361.144V358.672H161.319V357.088H176.175V362.632H163.359V365.272H176.655V366.856H161.391V361.144H174.183ZM178.527 369.088V370.672H173.439V377.8H171.471V370.672H166.047V377.8H164.079V370.672H158.991V369.088H178.527Z" fill="#F4F4F4"/>
<path d="M135.336 52.744C134.744 52.744 134.304 52.6 134.016 52.312C133.744 52.024 133.608 51.656 133.608 51.208V50.8C133.608 50.416 133.664 50.016 133.776 49.6C133.904 49.184 134.072 48.776 134.28 48.376C134.488 47.976 134.736 47.592 135.024 47.224C135.312 46.856 135.632 46.528 135.984 46.24H137.832C137.336 46.736 136.92 47.224 136.584 47.704C136.264 48.168 136.024 48.688 135.864 49.264C136.28 49.344 136.584 49.528 136.776 49.816C136.968 50.088 137.064 50.408 137.064 50.776V51.208C137.064 51.656 136.92 52.024 136.632 52.312C136.36 52.6 135.928 52.744 135.336 52.744ZM157.036 44.272V60.016H155.068V44.272H157.036ZM152.524 55.384L151.564 56.944C149.092 56.08 147.124 54.304 146.14 52.048C145.228 54.496 143.236 56.44 140.692 57.352L139.66 55.816C142.924 54.688 145.108 51.88 145.108 48.808V47.632H140.188V46.048H151.996V47.632H147.124V48.808C147.124 51.712 149.356 54.328 152.524 55.384ZM145.156 63.688H157.684V65.296H143.188V58.528H145.156V63.688ZM173.714 46.864V48.424H160.85V46.864H166.322V44.272H168.29V46.864H173.714ZM164.09 53.68C164.09 55.168 165.386 56.128 167.306 56.128C169.226 56.128 170.522 55.168 170.522 53.68C170.522 52.192 169.226 51.208 167.306 51.208C165.386 51.208 164.09 52.192 164.09 53.68ZM168.29 57.616V59.896C170.234 59.8 172.226 59.656 174.074 59.368L174.194 60.832C169.586 61.648 164.522 61.696 160.754 61.696L160.49 60.04C162.218 60.04 164.234 60.04 166.322 59.968V57.616C163.85 57.304 162.218 55.816 162.218 53.68C162.218 51.256 164.306 49.696 167.306 49.696C170.306 49.696 172.394 51.256 172.394 53.68C172.394 55.816 170.762 57.304 168.29 57.616ZM180.674 53.392V55.048H177.314V65.776H175.346V44.248H177.314V53.392H180.674ZM186.601 59.608V63.952H199.561V65.56H184.633V59.608H186.601ZM192.841 56.536H201.601V58.144H182.065V56.536H190.849V54.184H184.585V48.832H197.161V46.48H184.537V44.944H199.105V50.296H186.529V52.648H199.561V54.184H192.841V56.536ZM208.319 59.224C209.999 59.224 211.103 57.04 211.103 53.512C211.103 50.056 209.999 47.872 208.319 47.872C206.591 47.872 205.511 50.056 205.511 53.512C205.511 57.04 206.591 59.224 208.319 59.224ZM215.591 52.624V44.728H217.463V64.72H215.591V54.232H212.879C212.711 58.456 210.959 61.048 208.319 61.048C205.511 61.048 203.711 58.168 203.711 53.512C203.711 48.928 205.511 46.048 208.319 46.048C210.911 46.048 212.639 48.568 212.879 52.624H215.591ZM219.863 44.248H221.735V65.776H219.863V44.248ZM232.349 48.112V58.48C233.405 58.456 234.653 58.336 236.045 58.048L236.261 59.68C234.245 60.112 232.661 60.136 231.365 60.136H230.405V46.504H235.829V48.112H232.349ZM238.973 48.112V58.504C240.629 58.48 241.949 58.36 243.413 58L243.605 59.632C241.781 60.088 240.293 60.136 238.085 60.136H237.029V46.504H242.741V48.112H238.973ZM249.749 52.696V54.352H246.653V65.776H244.685V44.224H246.653V52.696H249.749ZM266.307 50.824V47.488H253.491V45.904H268.227V52.408H255.483V55.912H268.731V57.52H253.539V50.824H266.307ZM251.091 61.432H270.651V63.064H251.091V61.432ZM281.353 54.616V47.704H275.401V54.616H281.353ZM288.217 49.648H283.273V52.648H288.217V49.648ZM283.273 54.256V56.176H273.457V46.144H283.273V48.04H288.217V44.272H290.209V59.968H288.217V54.256H283.273ZM278.329 63.688H290.713V65.296H276.361V58.576H278.329V63.688ZM296.039 60.664C296.631 60.664 297.071 60.816 297.359 61.12C297.647 61.424 297.791 61.816 297.791 62.296V62.68C297.791 63.464 297.575 64.28 297.143 65.128C296.727 65.992 296.159 66.72 295.439 67.312H293.495C294.007 66.8 294.431 66.304 294.767 65.824C295.103 65.344 295.359 64.808 295.535 64.216C295.119 64.136 294.807 63.96 294.599 63.688C294.391 63.4 294.287 63.064 294.287 62.68V62.296C294.287 61.816 294.431 61.424 294.719 61.12C295.007 60.816 295.447 60.664 296.039 60.664ZM314.72 46.696C311.456 46.696 309.224 47.92 309.224 49.816C309.224 51.736 311.456 52.96 314.72 52.96C318.008 52.96 320.24 51.736 320.24 49.816C320.24 47.92 318.008 46.696 314.72 46.696ZM314.72 54.544C310.256 54.544 307.208 52.72 307.208 49.816C307.208 46.936 310.256 45.112 314.72 45.112C319.208 45.112 322.256 46.936 322.256 49.816C322.256 52.72 319.208 54.544 314.72 54.544ZM324.512 56.584V58.216H315.704V65.8H313.736V58.216H305.024V56.584H324.512ZM329.598 53.92V58.96C333.126 58.96 336.294 58.792 340.062 58.192L340.254 59.8C336.366 60.448 333.102 60.592 329.406 60.592H327.63V52.336H335.55V47.848H327.558V46.24H337.542V53.92H329.598ZM342.078 44.224H344.046V65.8H342.078V44.224ZM370.356 44.272V59.992H368.388V44.272H370.356ZM355.116 51.04C355.116 53.176 356.7 54.664 358.788 54.664C360.924 54.664 362.508 53.176 362.508 51.04C362.508 48.952 360.924 47.464 358.788 47.464C356.7 47.464 355.116 48.952 355.116 51.04ZM364.428 51.04C364.428 54.16 362.004 56.368 358.788 56.368C355.596 56.368 353.196 54.16 353.196 51.04C353.196 47.944 355.596 45.76 358.788 45.76C362.004 45.76 364.428 47.944 364.428 51.04ZM358.476 63.688H371.004V65.296H356.508V58.384H358.476V63.688ZM374.962 45.928H384.994C384.994 51.496 381.082 55.576 374.89 57.52L374.098 55.96C379.162 54.376 382.474 51.328 382.882 47.536H374.962V45.928ZM379.306 58.384V63.688H391.69V65.296H377.338V58.384H379.306ZM390.754 50.8H393.922V52.432H390.754V59.992H388.786V44.272H390.754V50.8ZM406.64 56.32L404.672 56.128C405.272 52.552 405.32 49.936 405.32 48.208H396.368V46.6H407.24V47.776C407.24 49.504 407.24 52.312 406.64 56.32ZM401.696 52.744V59.32C404.048 59.224 406.448 59.08 408.632 58.816L408.752 60.256C404.288 60.976 399.224 61.072 395.408 61.072L395.192 59.44C396.56 59.44 398.144 59.416 399.752 59.368V52.744H401.696ZM415.352 53.248V54.904H411.92V65.776H409.952V44.248H411.92V53.248H415.352ZM435.014 54.688L434.102 56.224C431.582 55.456 429.59 53.824 428.582 51.712C427.646 54.04 425.654 55.84 423.062 56.656L422.126 55.144C425.318 54.112 427.574 51.496 427.574 48.616V48.352H422.678V46.768H427.574V44.104H429.542V46.768H434.39V48.352H429.518V48.616C429.518 51.328 431.822 53.752 435.014 54.688ZM427.382 59.68V63.904H437.462V59.68H427.382ZM425.462 65.488V58.12H439.382V65.488H425.462ZM437.414 44.248H439.382V57.016H437.414V44.248ZM456.684 52.408V59.8H454.836V44.656H456.684V50.8H459.348V44.272H461.244V60.544H459.348V52.408H456.684ZM446.988 47.992V55.096C447.876 55.072 448.836 55.048 449.748 55V47.992H446.988ZM453.804 54.664L453.924 56.128C450.516 56.728 446.028 56.8 443.196 56.8L442.98 55.144C443.628 55.144 444.372 55.144 445.188 55.144V47.992H443.34V46.384H453.372V47.992H451.548V54.88C452.34 54.808 453.108 54.736 453.804 54.664ZM449.1 63.688H461.868V65.296H447.132V58.552H449.1V63.688ZM472.355 49.552V51.208C472.355 54.808 474.803 58.312 477.995 59.704L476.915 61.24C474.443 60.112 472.403 57.784 471.419 54.952C470.459 57.952 468.419 60.4 465.947 61.6L464.843 60.112C468.035 58.6 470.411 54.976 470.411 51.208V49.552H465.419V47.968H470.387V44.632H472.379V47.968H477.275V49.552H472.355ZM480.083 44.224H482.075V65.752H480.083V44.224ZM503.049 50.728V52.336H488.409V45.04H490.377V50.728H503.049ZM490.233 58.96V63.64H503.169V65.248H488.265V58.96H490.233ZM485.769 55.216H505.281V56.8H485.769V55.216ZM142.152 93.544V86.704H136.2V93.544H142.152ZM144.072 90.856V95.128H134.256V85.144H144.072V89.248H149.016V83.272H151.008V98.968H149.016V90.856H144.072ZM139.224 102.688H151.608V104.296H137.232V97.528H139.224V102.688ZM177.75 83.272V97.792H175.878V83.272H177.75ZM161.55 89.872C161.55 91.912 162.87 93.328 164.67 93.328C166.47 93.328 167.79 91.912 167.79 89.872C167.79 87.832 166.47 86.368 164.67 86.368C162.87 86.368 161.55 87.832 161.55 89.872ZM171.846 88.24H169.326C169.47 88.744 169.542 89.272 169.542 89.872C169.542 90.472 169.446 91.048 169.302 91.576H171.846V88.24ZM171.846 93.16H168.486C167.598 94.312 166.278 95.008 164.67 94.984C161.838 94.984 159.798 92.896 159.798 89.872C159.798 86.848 161.838 84.736 164.67 84.736C166.302 84.736 167.694 85.456 168.582 86.656H171.846V83.728H173.694V95.752H171.846V93.16ZM171.558 96.736V97.456C171.558 100.264 175.062 102.592 178.854 103.168L178.11 104.704C174.894 104.152 171.894 102.496 170.574 100.12C169.254 102.496 166.278 104.152 163.038 104.704L162.318 103.168C166.062 102.592 169.566 100.264 169.566 97.456V96.736H171.558ZM193.444 90.472L193.708 92.128C190.084 92.848 186.892 93.064 183.676 93.064H181.996V84.184H183.94V91.432C186.964 91.408 190.036 91.168 193.444 90.472ZM185.98 100.432V102.904H198.436V104.488H184.036V98.92H195.7V96.712H183.964V95.128H197.644V100.432H185.98ZM197.644 87.712H200.836V89.344H197.644V94.096H195.676V83.248H197.644V87.712ZM208.21 84.76H218.218C218.218 90.16 214.45 93.688 208.114 95.152L207.322 93.568C212.746 92.392 215.746 89.68 216.034 86.344H208.21V84.76ZM212.362 100.792V103H224.53V104.488H210.394V95.728H224.05V97.192H212.362V99.328H223.81V100.792H212.362ZM223.954 88.24H227.146V89.872H223.954V94.744H221.986V83.248H223.954V88.24ZM238.328 85.576C234.944 85.576 232.784 86.584 232.784 88.288C232.784 89.992 234.944 90.976 238.328 90.976C241.712 90.976 243.872 89.992 243.872 88.288C243.872 86.584 241.712 85.576 238.328 85.576ZM238.328 92.56C233.72 92.56 230.768 90.976 230.768 88.288C230.768 85.6 233.72 83.992 238.328 83.992C242.936 83.992 245.888 85.6 245.888 88.288C245.888 90.976 242.936 92.56 238.328 92.56ZM233.072 98.056V102.688H245.912V104.296H231.104V98.056H233.072ZM228.584 94.576H248.048V96.16H228.584V94.576ZM264.614 85.696C261.35 85.696 259.118 86.896 259.118 88.792C259.118 90.688 261.35 91.912 264.614 91.912C267.902 91.912 270.134 90.688 270.134 88.792C270.134 86.896 267.902 85.696 264.614 85.696ZM264.614 93.496C260.15 93.496 257.102 91.672 257.102 88.792C257.102 85.912 260.15 84.112 264.614 84.112C269.102 84.112 272.15 85.912 272.15 88.792C272.15 91.672 269.102 93.496 264.614 93.496ZM274.406 95.512V97.12H269.318V104.776H267.326V97.12H261.926V104.776H259.934V97.12H254.918V95.512H274.406ZM293.94 83.272V98.992H291.972V83.272H293.94ZM278.7 90.04C278.7 92.176 280.284 93.664 282.372 93.664C284.508 93.664 286.092 92.176 286.092 90.04C286.092 87.952 284.508 86.464 282.372 86.464C280.284 86.464 278.7 87.952 278.7 90.04ZM288.012 90.04C288.012 93.16 285.588 95.368 282.372 95.368C279.18 95.368 276.78 93.16 276.78 90.04C276.78 86.944 279.18 84.76 282.372 84.76C285.588 84.76 288.012 86.944 288.012 90.04ZM282.06 102.688H294.588V104.296H280.092V97.384H282.06V102.688ZM308.915 95.968H313.283V83.248H315.251V99.64H313.283V97.432H308.915V95.968ZM304.523 85.576C302.483 85.576 301.091 86.488 301.091 87.856C301.091 89.248 302.483 90.16 304.523 90.16C306.563 90.16 307.955 89.248 307.955 87.856C307.955 86.488 306.563 85.576 304.523 85.576ZM304.523 91.624C301.379 91.624 299.219 90.16 299.219 87.856C299.219 85.6 301.379 84.112 304.523 84.112C307.667 84.112 309.827 85.6 309.827 87.856C309.827 90.16 307.667 91.624 304.523 91.624ZM303.755 98.872V94.72C301.619 94.816 299.555 94.84 297.779 94.84L297.515 93.208C301.499 93.208 306.827 93.16 311.387 92.584L311.555 94C309.659 94.288 307.667 94.504 305.723 94.624V98.872H303.755ZM302.555 102.688H315.803V104.296H300.587V98.032H302.555V102.688ZM325.721 95.944L324.881 94.336C328.601 93.712 332.681 90.712 332.681 87.28V86.824H325.553V85.216H341.849V86.824H334.721V87.28C334.721 90.712 338.825 93.664 342.569 94.264L341.777 95.848C338.489 95.2 335.081 93.088 333.713 90.136C332.345 93.112 328.961 95.248 325.721 95.944ZM334.697 100.384H343.481V102.016H323.945V100.384H332.729V95.176H334.697V100.384ZM357.735 93.376L356.703 94.912C354.375 94.048 352.527 92.272 351.567 90.064C350.679 92.584 348.759 94.552 346.239 95.512L345.207 93.952C348.471 92.776 350.559 89.848 350.559 86.56V84.352H352.527V86.728C352.527 89.632 354.639 92.32 357.735 93.376ZM355.167 103.216C358.335 103.216 360.279 102.328 360.279 100.84C360.279 99.328 358.335 98.44 355.167 98.44C351.975 98.44 350.031 99.328 350.031 100.84C350.031 102.328 351.975 103.216 355.167 103.216ZM355.167 96.904C359.535 96.904 362.247 98.32 362.247 100.84C362.247 103.336 359.535 104.752 355.167 104.752C350.775 104.752 348.063 103.336 348.063 100.84C348.063 98.32 350.775 96.904 355.167 96.904ZM362.007 88.816H365.199V90.448H362.007V96.304H360.039V83.272H362.007V88.816ZM371.533 98.224C373.213 98.224 374.317 96.04 374.317 92.512C374.317 89.056 373.213 86.872 371.533 86.872C369.805 86.872 368.725 89.056 368.725 92.512C368.725 96.04 369.805 98.224 371.533 98.224ZM378.805 91.624V83.728H380.677V103.72H378.805V93.232H376.093C375.925 97.456 374.173 100.048 371.533 100.048C368.725 100.048 366.925 97.168 366.925 92.512C366.925 87.928 368.725 85.048 371.533 85.048C374.125 85.048 375.853 87.568 376.093 91.624H378.805ZM383.077 83.248H384.949V104.776H383.077V83.248ZM395.555 85.096V88.96C395.555 92.872 398.003 96.784 401.123 98.272L399.971 99.832C397.523 98.608 395.555 96.04 394.571 93.016C393.635 96.208 391.643 98.92 389.219 100.216L388.019 98.656C391.139 97.096 393.587 92.944 393.587 88.96V85.096H395.555ZM403.787 83.248H405.755V104.8H403.787V92.152H398.795V90.544H403.787V83.248ZM424.449 91.816V88.648H413.769V91.816H424.449ZM426.417 84.112V93.424H411.825V84.112H413.769V87.064H424.449V84.112H426.417ZM428.889 96.016V97.6H420.057V104.8H418.089V97.6H409.353V96.016H428.889ZM433.687 92.848V98.008C437.575 98.008 440.071 97.864 442.999 97.336L443.215 98.944C440.095 99.496 437.479 99.616 433.375 99.616H431.719V85.192H441.679V86.824H433.687V91.264H440.743V92.848H433.687ZM446.503 83.224H448.471V104.8H446.503V92.992H442.063V91.36H446.503V83.224ZM461.557 87.16V97.744C462.709 97.72 463.909 97.672 465.085 97.624V87.16H461.557ZM467.005 87.16V97.504C468.133 97.432 469.237 97.336 470.293 97.192L470.437 98.656C465.925 99.376 460.813 99.448 457.021 99.448L456.781 97.792C457.669 97.792 458.629 97.792 459.637 97.768V87.16H457.333V85.576H469.309V87.16H467.005ZM477.157 91.864V93.496H473.605V104.776H471.637V83.272H473.605V91.864H477.157ZM491.939 90.64V95.848H490.067V83.68H491.939V89.032H494.675V83.272H496.571V96.544H494.675V90.64H491.939ZM489.179 93.352L488.123 94.864C486.107 94.048 484.643 92.512 483.875 90.688C483.107 92.704 481.571 94.528 479.483 95.464L478.427 93.928C481.235 92.68 482.915 89.896 482.915 87.496V84.592H484.811V87.496C484.811 89.872 486.419 92.296 489.179 93.352ZM489.467 103.24C492.731 103.24 494.723 102.376 494.723 100.888C494.723 99.4 492.731 98.56 489.467 98.56C486.251 98.56 484.235 99.4 484.235 100.888C484.235 102.376 486.251 103.24 489.467 103.24ZM489.467 97.024C493.907 97.024 496.667 98.44 496.667 100.888C496.667 103.336 493.907 104.752 489.467 104.752C485.051 104.752 482.291 103.336 482.291 100.888C482.291 98.44 485.051 97.024 489.467 97.024ZM517.377 83.248V99.352H515.409V83.248H517.377ZM513.681 94.432L513.825 95.848C509.265 96.496 504.153 96.64 500.145 96.64L499.857 95.032C501.729 95.032 503.817 95.008 505.929 94.936V91.888H501.777V84.64H512.025V86.248H503.745V90.304H512.169V91.888H507.897V94.864C509.889 94.768 511.833 94.648 513.681 94.432ZM505.425 102.688H518.097V104.296H503.457V98.296H505.425V102.688ZM544.383 85.72V87.304H527.079V85.72H534.807V83.128H536.799V85.72H544.383ZM540.735 92.128C540.735 90.808 538.959 90.04 535.815 90.04C532.671 90.04 530.847 90.808 530.847 92.128C530.847 93.448 532.671 94.216 535.815 94.216C538.959 94.216 540.735 93.448 540.735 92.128ZM528.807 92.128C528.807 89.824 531.423 88.528 535.815 88.528C540.159 88.528 542.775 89.824 542.775 92.128C542.775 94.432 540.159 95.704 535.815 95.704C531.423 95.704 528.807 94.432 528.807 92.128ZM545.583 97.216V98.824H536.799V104.8H534.807V98.824H526.071V97.216H545.583ZM140.808 124.096V127.96C140.808 131.872 143.256 135.784 146.376 137.272L145.224 138.832C142.776 137.608 140.808 135.04 139.824 132.016C138.888 135.208 136.896 137.92 134.472 139.216L133.272 137.656C136.392 136.096 138.84 131.944 138.84 127.96V124.096H140.808ZM149.04 122.248H151.008V143.8H149.04V131.152H144.048V129.544H149.04V122.248ZM165.358 139.504H174.166V141.112H154.606V139.504H163.366V135.448H157.054V128.8H169.822V125.44H157.006V123.832H171.742V130.384H158.998V133.864H172.246V135.448H165.358V139.504ZM183.82 125.944V136.768C187.636 136.768 190.396 136.6 193.516 136.048L193.732 137.68C190.444 138.304 187.612 138.448 183.556 138.448H181.852V124.312H191.86V125.944H183.82ZM201.052 130.744V132.376H197.5V143.824H195.532V122.248H197.5V130.744H201.052ZM217.37 126.856V124.504H204.746V122.968H219.314V128.32H206.738V130.672H219.77V132.208H204.794V126.856H217.37ZM206.81 137.44V141.688H219.77V143.296H204.842V137.44H206.81ZM202.274 134.176H221.81V135.784H202.274V134.176ZM246.272 122.272V138.016H244.304V122.272H246.272ZM241.76 133.384L240.8 134.944C238.328 134.08 236.36 132.304 235.376 130.048C234.464 132.496 232.472 134.44 229.928 135.352L228.896 133.816C232.16 132.688 234.344 129.88 234.344 126.808V125.632H229.424V124.048H241.232V125.632H236.36V126.808C236.36 129.712 238.592 132.328 241.76 133.384ZM234.392 141.688H246.92V143.296H232.424V136.528H234.392V141.688ZM262.95 124.864V126.424H250.086V124.864H255.558V122.272H257.526V124.864H262.95ZM253.326 131.68C253.326 133.168 254.622 134.128 256.542 134.128C258.462 134.128 259.758 133.168 259.758 131.68C259.758 130.192 258.462 129.208 256.542 129.208C254.622 129.208 253.326 130.192 253.326 131.68ZM257.526 135.616V137.896C259.47 137.8 261.462 137.656 263.31 137.368L263.43 138.832C258.822 139.648 253.758 139.696 249.99 139.696L249.726 138.04C251.454 138.04 253.47 138.04 255.558 137.968V135.616C253.086 135.304 251.454 133.816 251.454 131.68C251.454 129.256 253.542 127.696 256.542 127.696C259.542 127.696 261.63 129.256 261.63 131.68C261.63 133.816 259.998 135.304 257.526 135.616ZM269.91 131.392V133.048H266.55V143.776H264.582V122.248H266.55V131.392H269.91ZM278.309 123.832C281.669 123.832 284.069 125.872 284.069 128.896C284.069 131.896 281.669 133.96 278.309 133.96C274.973 133.96 272.549 131.896 272.549 128.896C272.549 125.872 274.973 123.832 278.309 123.832ZM278.309 125.512C276.101 125.512 274.469 126.88 274.469 128.896C274.469 130.888 276.101 132.28 278.309 132.28C280.541 132.28 282.149 130.888 282.149 128.896C282.149 126.88 280.541 125.512 278.309 125.512ZM286.901 122.248H288.869V143.824H286.901V122.248ZM271.709 139.096L271.469 137.44C275.381 137.44 280.781 137.416 285.485 136.696L285.653 138.16C280.805 139.048 275.597 139.096 271.709 139.096ZM315.299 122.248V133.24H313.331V122.248H315.299ZM299.075 123.304H308.867C308.867 128.776 305.051 132.232 298.715 133.672L297.995 132.088C303.371 130.912 306.419 128.344 306.731 124.912H299.075V123.304ZM303.371 142H316.019V143.56H301.403V138.04H313.331V135.832H301.355V134.272H315.299V139.504H303.371V142ZM328.713 124.096C325.185 124.096 323.169 124.912 323.169 126.352C323.169 127.792 325.185 128.608 328.713 128.608C332.241 128.608 334.257 127.792 334.257 126.352C334.257 124.912 332.241 124.096 328.713 124.096ZM328.713 130.072C323.985 130.072 321.153 128.776 321.153 126.352C321.153 123.928 323.985 122.608 328.713 122.608C333.441 122.608 336.273 123.928 336.273 126.352C336.273 128.776 333.441 130.072 328.713 130.072ZM323.313 139.816V142H336.609V143.536H321.393V138.376H334.017V136.456H321.321V134.968H335.961V139.816H323.313ZM318.969 131.536H338.457V133.12H318.969V131.536ZM361.047 133.288V129.016H356.367V127.432H361.047V122.248H363.039V133.288H361.047ZM346.767 123.304H356.223C356.223 128.656 352.503 132.184 346.335 133.72L345.615 132.16C350.751 130.912 353.775 128.32 354.111 124.888H346.767V123.304ZM351.159 142H363.759V143.56H349.215V138.016H361.071V135.784H349.167V134.224H363.039V139.504H351.159V142ZM372.517 125.104C370.453 125.104 368.917 126.52 368.917 128.488C368.917 130.48 370.453 131.92 372.517 131.92C374.629 131.92 376.165 130.48 376.165 128.488C376.165 126.52 374.629 125.104 372.517 125.104ZM382.405 129.256H377.989C377.629 131.824 375.445 133.552 372.517 133.552C369.349 133.552 367.021 131.488 367.021 128.488C367.021 125.536 369.349 123.472 372.517 123.472C375.397 123.472 377.581 125.152 377.965 127.648H382.405V122.272H384.397V134.512H382.405V129.256ZM382.045 135.352V136.624C382.045 138.856 383.629 141.112 386.389 142.048L385.405 143.512C383.317 142.72 381.781 141.256 381.061 139.432C380.389 141.184 379.093 142.84 377.101 143.704C375.037 142.888 373.741 141.304 373.093 139.504C372.325 141.232 370.861 142.72 368.845 143.512L367.861 142.048C370.573 141.04 372.181 138.712 372.181 136.624V135.352H374.077V136.624C374.077 138.544 375.061 140.608 377.077 141.784C379.117 140.488 380.125 138.304 380.125 136.624V135.352H382.045ZM393.779 137.176C395.819 137.176 397.259 134.92 397.259 131.416C397.259 127.936 395.819 125.68 393.779 125.68C391.715 125.68 390.275 127.936 390.275 131.416C390.275 134.92 391.715 137.176 393.779 137.176ZM403.787 122.248H405.755V143.824H403.787V132.064H399.107C398.915 136.288 396.779 138.928 393.779 138.928C390.635 138.928 388.403 136 388.403 131.416C388.403 126.832 390.635 123.904 393.779 123.904C396.683 123.904 398.795 126.424 399.107 130.456H403.787V122.248ZM411.585 124C412.193 124 412.633 124.144 412.905 124.432C413.177 124.72 413.313 125.096 413.313 125.56V125.968C413.313 126.352 413.257 126.752 413.145 127.168C413.033 127.568 412.873 127.968 412.665 128.368C412.457 128.768 412.209 129.152 411.921 129.52C411.633 129.888 411.313 130.216 410.961 130.504H409.089C409.601 130.008 410.017 129.52 410.337 129.04C410.657 128.56 410.905 128.04 411.081 127.48C410.665 127.4 410.353 127.224 410.145 126.952C409.953 126.68 409.857 126.36 409.857 125.992V125.56C409.857 125.096 409.993 124.72 410.265 124.432C410.537 124.144 410.977 124 411.585 124ZM135.336 169.744C134.744 169.744 134.304 169.6 134.016 169.312C133.744 169.024 133.608 168.656 133.608 168.208V167.8C133.608 167.416 133.664 167.016 133.776 166.6C133.904 166.184 134.072 165.776 134.28 165.376C134.488 164.976 134.736 164.592 135.024 164.224C135.312 163.856 135.632 163.528 135.984 163.24H137.832C137.336 163.736 136.92 164.224 136.584 164.704C136.264 165.168 136.024 165.688 135.864 166.264C136.28 166.344 136.584 166.528 136.776 166.816C136.968 167.088 137.064 167.408 137.064 167.776V168.208C137.064 168.656 136.92 169.024 136.632 169.312C136.36 169.6 135.928 169.744 135.336 169.744ZM149.668 168.592V164.032H143.092V168.592H149.668ZM151.612 162.472V170.2H141.172V162.472H151.612ZM153.46 172.096L153.58 173.56C151.468 173.848 149.308 174.016 147.196 174.136V182.128H145.228V174.208C143.236 174.28 141.316 174.304 139.564 174.304L139.3 172.648C143.572 172.648 148.828 172.6 153.46 172.096ZM155.092 161.272H157.06V182.8H155.092V177.52H150.22V176.008H155.092V161.272ZM163.538 170.968V175.96C167.45 175.96 170.234 175.816 173.45 175.192L173.666 176.824C170.306 177.424 167.426 177.592 163.322 177.592H161.618V169.36H169.346V164.848H161.546V163.24H171.29V170.968H163.538ZM180.842 169.792V171.448H177.314V182.8H175.346V161.224H177.314V169.792H180.842ZM197.281 165.544V165.016H184.153V163.408H199.249V165.544C199.249 168.208 199.249 171.16 198.433 175.504L196.465 175.288C197.281 171.16 197.281 168.136 197.281 165.544ZM191.641 178.144H201.577V179.752H182.113V178.144H189.673V170.44H191.641V178.144ZM206.255 175.744V171.928C207.551 171.864 208.543 171.592 209.231 171.112C209.935 170.616 210.287 169.888 210.287 168.928V168.592C210.287 167.856 210.063 167.288 209.615 166.888C209.167 166.472 208.567 166.264 207.815 166.264C207.015 166.264 206.375 166.496 205.895 166.96C205.415 167.424 205.087 168.016 204.911 168.736L202.631 167.824C202.775 167.328 202.983 166.848 203.255 166.384C203.543 165.92 203.903 165.512 204.335 165.16C204.767 164.792 205.279 164.504 205.871 164.296C206.463 164.072 207.143 163.96 207.911 163.96C208.695 163.96 209.407 164.072 210.047 164.296C210.687 164.52 211.231 164.84 211.679 165.256C212.127 165.656 212.471 166.152 212.711 166.744C212.951 167.32 213.071 167.96 213.071 168.664C213.071 169.384 212.943 170.032 212.687 170.608C212.447 171.168 212.119 171.648 211.703 172.048C211.303 172.448 210.847 172.776 210.335 173.032C209.823 173.272 209.295 173.44 208.751 173.536V175.744H206.255ZM207.527 181.288C206.919 181.288 206.471 181.144 206.183 180.856C205.911 180.552 205.775 180.168 205.775 179.704V179.296C205.775 178.832 205.911 178.456 206.183 178.168C206.471 177.864 206.919 177.712 207.527 177.712C208.135 177.712 208.575 177.864 208.847 178.168C209.135 178.456 209.279 178.832 209.279 179.296V179.704C209.279 180.168 209.135 180.552 208.847 180.856C208.575 181.144 208.135 181.288 207.527 181.288ZM229.07 163.696C225.806 163.696 223.574 164.92 223.574 166.816C223.574 168.736 225.806 169.96 229.07 169.96C232.358 169.96 234.59 168.736 234.59 166.816C234.59 164.92 232.358 163.696 229.07 163.696ZM229.07 171.544C224.606 171.544 221.558 169.72 221.558 166.816C221.558 163.936 224.606 162.112 229.07 162.112C233.558 162.112 236.606 163.936 236.606 166.816C236.606 169.72 233.558 171.544 229.07 171.544ZM238.862 173.584V175.216H230.054V182.8H228.086V175.216H219.374V173.584H238.862ZM243.948 170.92V175.96C247.476 175.96 250.644 175.792 254.412 175.192L254.604 176.8C250.716 177.448 247.452 177.592 243.756 177.592H241.98V169.336H249.9V164.848H241.908V163.24H251.892V170.92H243.948ZM256.428 161.224H258.396V182.8H256.428V161.224ZM269.074 162.832C272.434 162.832 274.834 164.872 274.834 167.896C274.834 170.896 272.434 172.96 269.074 172.96C265.738 172.96 263.314 170.896 263.314 167.896C263.314 164.872 265.738 162.832 269.074 162.832ZM269.074 164.512C266.866 164.512 265.234 165.88 265.234 167.896C265.234 169.888 266.866 171.28 269.074 171.28C271.306 171.28 272.914 169.888 272.914 167.896C272.914 165.88 271.306 164.512 269.074 164.512ZM277.666 161.248H279.634V182.824H277.666V161.248ZM262.474 178.096L262.234 176.44C266.146 176.44 271.546 176.416 276.25 175.696L276.418 177.16C271.57 178.048 266.362 178.096 262.474 178.096ZM290.176 173.944L289.336 172.336C293.056 171.712 297.136 168.712 297.136 165.28V164.824H290.008V163.216H306.304V164.824H299.176V165.28C299.176 168.712 303.28 171.664 307.024 172.264L306.232 173.848C302.944 173.2 299.536 171.088 298.168 168.136C296.8 171.112 293.416 173.248 290.176 173.944ZM299.152 178.384H307.936V180.016H288.4V178.384H297.184V173.176H299.152V178.384ZM322.19 171.376L321.158 172.912C318.83 172.048 316.982 170.272 316.022 168.064C315.134 170.584 313.214 172.552 310.694 173.512L309.662 171.952C312.926 170.776 315.014 167.848 315.014 164.56V162.352H316.982V164.728C316.982 167.632 319.094 170.32 322.19 171.376ZM319.622 181.216C322.79 181.216 324.734 180.328 324.734 178.84C324.734 177.328 322.79 176.44 319.622 176.44C316.43 176.44 314.486 177.328 314.486 178.84C314.486 180.328 316.43 181.216 319.622 181.216ZM319.622 174.904C323.99 174.904 326.702 176.32 326.702 178.84C326.702 181.336 323.99 182.752 319.622 182.752C315.23 182.752 312.518 181.336 312.518 178.84C312.518 176.32 315.23 174.904 319.622 174.904ZM326.462 166.816H329.654V168.448H326.462V174.304H324.494V161.272H326.462V166.816ZM346.764 161.248H348.732V182.824H346.764V161.248ZM337.38 162.904C340.572 162.904 342.852 165.832 342.852 170.416C342.852 175 340.572 177.928 337.38 177.928C334.188 177.928 331.908 175 331.908 170.416C331.908 165.832 334.188 162.904 337.38 162.904ZM337.38 164.68C335.268 164.68 333.78 166.936 333.78 170.416C333.78 173.92 335.268 176.176 337.38 176.176C339.468 176.176 340.956 173.92 340.956 170.416C340.956 166.936 339.468 164.68 337.38 164.68ZM370.722 171.688L369.81 173.224C367.29 172.456 365.298 170.824 364.29 168.712C363.354 171.04 361.362 172.84 358.77 173.656L357.834 172.144C361.026 171.112 363.282 168.496 363.282 165.616V165.352H358.386V163.768H363.282V161.104H365.25V163.768H370.098V165.352H365.226V165.616C365.226 168.328 367.53 170.752 370.722 171.688ZM363.09 176.68V180.904H373.17V176.68H363.09ZM361.17 182.488V175.12H375.09V182.488H361.17ZM373.122 161.248H375.09V174.016H373.122V161.248ZM392.392 169.408V176.8H390.544V161.656H392.392V167.8H395.056V161.272H396.952V177.544H395.056V169.408H392.392ZM382.696 164.992V172.096C383.584 172.072 384.544 172.048 385.456 172V164.992H382.696ZM389.512 171.664L389.632 173.128C386.224 173.728 381.736 173.8 378.904 173.8L378.688 172.144C379.336 172.144 380.08 172.144 380.896 172.144V164.992H379.048V163.384H389.08V164.992H387.256V171.88C388.048 171.808 388.816 171.736 389.512 171.664ZM384.808 180.688H397.576V182.296H382.84V175.552H384.808V180.688ZM407.823 165.088V167.824C407.823 171.472 410.415 175.192 413.583 176.536L412.479 178.12C409.983 176.968 407.871 174.496 406.839 171.544C405.855 174.688 403.743 177.4 401.295 178.648L400.143 177.064C403.239 175.6 405.855 171.544 405.855 167.824V165.088H400.863V163.456H412.887V165.088H407.823ZM415.791 161.272H417.759V182.776H415.791V161.272ZM424.309 170.968V175.96C428.221 175.96 431.005 175.816 434.221 175.192L434.437 176.824C431.077 177.424 428.197 177.592 424.093 177.592H422.389V169.36H430.117V164.848H422.317V163.24H432.061V170.968H424.309ZM441.613 169.792V171.448H438.085V182.8H436.117V161.224H438.085V169.792H441.613ZM458.051 165.544V165.016H444.923V163.408H460.019V165.544C460.019 168.208 460.019 171.16 459.203 175.504L457.235 175.288C458.051 171.16 458.051 168.136 458.051 165.544ZM452.411 178.144H462.347V179.752H442.883V178.144H450.443V170.44H452.411V178.144ZM467.025 175.744V171.928C468.321 171.864 469.313 171.592 470.001 171.112C470.705 170.616 471.057 169.888 471.057 168.928V168.592C471.057 167.856 470.833 167.288 470.385 166.888C469.937 166.472 469.337 166.264 468.585 166.264C467.785 166.264 467.145 166.496 466.665 166.96C466.185 167.424 465.857 168.016 465.681 168.736L463.401 167.824C463.545 167.328 463.753 166.848 464.025 166.384C464.313 165.92 464.673 165.512 465.105 165.16C465.537 164.792 466.049 164.504 466.641 164.296C467.233 164.072 467.913 163.96 468.681 163.96C469.465 163.96 470.177 164.072 470.817 164.296C471.457 164.52 472.001 164.84 472.449 165.256C472.897 165.656 473.241 166.152 473.481 166.744C473.721 167.32 473.841 167.96 473.841 168.664C473.841 169.384 473.713 170.032 473.457 170.608C473.217 171.168 472.889 171.648 472.473 172.048C472.073 172.448 471.617 172.776 471.105 173.032C470.593 173.272 470.065 173.44 469.521 173.536V175.744H467.025ZM468.297 181.288C467.689 181.288 467.241 181.144 466.953 180.856C466.681 180.552 466.545 180.168 466.545 179.704V179.296C466.545 178.832 466.681 178.456 466.953 178.168C467.241 177.864 467.689 177.712 468.297 177.712C468.905 177.712 469.345 177.864 469.617 178.168C469.905 178.456 470.049 178.832 470.049 179.296V179.704C470.049 180.168 469.905 180.552 469.617 180.856C469.345 181.144 468.905 181.288 468.297 181.288ZM147.08 208.528V203.032H141.032V208.528H147.08ZM149 201.472V210.088H139.112V201.472H149ZM143.24 217.504V219.904H155.72V221.488H141.32V216.04H152.984V213.784H141.248V212.224H154.928V217.504H143.24ZM154.928 204.88H158.12V206.512H154.928V211.216H152.96V200.272H154.928V204.88ZM175.23 200.248H177.198V221.824H175.23V200.248ZM165.846 201.904C169.038 201.904 171.318 204.832 171.318 209.416C171.318 214 169.038 216.928 165.846 216.928C162.654 216.928 160.374 214 160.374 209.416C160.374 204.832 162.654 201.904 165.846 201.904ZM165.846 203.68C163.734 203.68 162.246 205.936 162.246 209.416C162.246 212.92 163.734 215.176 165.846 215.176C167.934 215.176 169.422 212.92 169.422 209.416C169.422 205.936 167.934 203.68 165.846 203.68ZM193.98 211.144V215.344C196.044 215.248 198.132 215.128 200.052 214.888L200.22 216.328C195.516 217.048 190.356 217.144 186.276 217.144L186.036 215.488C187.884 215.488 189.924 215.488 192.012 215.416V211.144H187.62V202.264H198.516V203.896H189.564V209.536H198.612V211.144H193.98ZM201.468 200.224H203.436V221.824H201.468V200.224ZM224.506 206.728V208.336H209.866V201.04H211.834V206.728H224.506ZM211.69 214.96V219.64H224.626V221.248H209.722V214.96H211.69ZM207.226 211.216H226.738V212.8H207.226V211.216ZM252.136 210.76L251.296 212.392C248.008 211.696 244.624 209.464 243.232 206.392C241.84 209.464 238.48 211.696 235.168 212.392L234.352 210.76C238.12 210.088 242.2 206.92 242.2 203.344V201.688H244.264V203.344C244.264 206.92 248.368 210.088 252.136 210.76ZM244.216 217.36H253.096V218.968H233.56V217.36H242.248V212.128H244.216V217.36ZM258.134 209.92V214.96C261.662 214.96 264.83 214.792 268.598 214.192L268.79 215.8C264.902 216.448 261.638 216.592 257.942 216.592H256.166V208.336H264.086V203.848H256.094V202.24H266.078V209.92H258.134ZM270.614 200.224H272.582V221.8H270.614V200.224ZM291.348 204.016V202.264H278.724V200.872H293.292V205.36H280.716V207.208H293.676V208.624H278.772V204.016H291.348ZM280.596 218.08V220.072H294.036V221.488H278.652V216.712H291.42V214.912H278.604V213.496H293.364V218.08H280.596ZM276.276 210.256H295.788V211.744H276.276V210.256ZM307.914 215.152C309.57 215.152 310.77 213.784 310.77 211.864C310.77 209.992 309.57 208.624 307.914 208.624C306.234 208.624 305.058 209.992 305.058 211.864C305.058 213.784 306.234 215.152 307.914 215.152ZM307.914 206.968C310.578 206.968 312.522 208.984 312.522 211.864C312.522 214.792 310.578 216.784 307.914 216.784C305.25 216.784 303.306 214.792 303.306 211.864C303.306 208.984 305.25 206.968 307.914 206.968ZM308.874 200.872V203.92H313.242V205.528H302.562V203.92H306.93V200.872H308.874ZM318.93 200.224H320.826V221.752H318.93V210.928H316.17V220.72H314.322V200.728H316.17V209.32H318.93V200.224ZM329.681 215.176C331.745 215.176 333.209 212.896 333.209 209.392C333.209 205.936 331.745 203.68 329.681 203.68C327.593 203.68 326.129 205.936 326.129 209.392C326.129 212.896 327.593 215.176 329.681 215.176ZM329.681 201.904C332.849 201.904 335.081 204.832 335.081 209.392C335.081 214 332.849 216.928 329.681 216.928C326.513 216.928 324.257 214 324.257 209.392C324.257 204.832 326.513 201.904 329.681 201.904ZM343.937 207.304H340.505V212.08H343.937V213.712H340.505V221.776H338.537V200.272H340.505V205.672H343.937V207.304ZM352.983 204.088V206.824C352.983 210.472 355.575 214.192 358.743 215.536L357.639 217.12C355.143 215.968 353.031 213.496 351.999 210.544C351.015 213.688 348.903 216.4 346.455 217.648L345.303 216.064C348.399 214.6 351.015 210.544 351.015 206.824V204.088H346.023V202.456H358.047V204.088H352.983ZM360.951 200.272H362.919V221.776H360.951V200.272ZM368.365 215.2L367.525 208.024V203.248H370.357V208.024L369.565 215.2H368.365ZM368.965 220.288C368.357 220.288 367.909 220.144 367.621 219.856C367.349 219.552 367.213 219.168 367.213 218.704V218.296C367.213 217.832 367.349 217.456 367.621 217.168C367.909 216.864 368.357 216.712 368.965 216.712C369.573 216.712 370.013 216.864 370.285 217.168C370.573 217.456 370.717 217.832 370.717 218.296V218.704C370.717 219.168 370.573 219.552 370.285 219.856C370.013 220.144 369.573 220.288 368.965 220.288ZM374.793 215.2L373.953 208.024V203.248H376.785V208.024L375.993 215.2H374.793ZM375.393 220.288C374.785 220.288 374.337 220.144 374.049 219.856C373.777 219.552 373.641 219.168 373.641 218.704V218.296C373.641 217.832 373.777 217.456 374.049 217.168C374.337 216.864 374.785 216.712 375.393 216.712C376.001 216.712 376.441 216.864 376.713 217.168C377.001 217.456 377.145 217.832 377.145 218.296V218.704C377.145 219.168 377.001 219.552 376.713 219.856C376.441 220.144 376.001 220.288 375.393 220.288ZM381.726 202C382.334 202 382.774 202.144 383.046 202.432C383.318 202.72 383.454 203.096 383.454 203.56V203.968C383.454 204.352 383.398 204.752 383.286 205.168C383.174 205.568 383.014 205.968 382.806 206.368C382.598 206.768 382.35 207.152 382.062 207.52C381.774 207.888 381.454 208.216 381.102 208.504H379.23C379.742 208.008 380.158 207.52 380.478 207.04C380.798 206.56 381.046 206.04 381.222 205.48C380.806 205.4 380.494 205.224 380.286 204.952C380.094 204.68 379.998 204.36 379.998 203.992V203.56C379.998 203.096 380.134 202.72 380.406 202.432C380.678 202.144 381.118 202 381.726 202Z" fill="white"/>
<rect x="173" y="402" width="433" height="160" rx="4" fill="#4857F6"/>
<path d="M205.88 450.288C204.68 450.288 203.672 450.088 202.856 449.688C202.04 449.272 201.32 448.704 200.696 447.984L202.568 446.16C203.032 446.688 203.536 447.104 204.08 447.408C204.64 447.712 205.28 447.864 206 447.864C206.736 447.864 207.264 447.736 207.584 447.48C207.92 447.224 208.088 446.872 208.088 446.424C208.088 446.056 207.968 445.768 207.728 445.56C207.504 445.336 207.112 445.184 206.552 445.104L205.304 444.936C203.944 444.76 202.904 444.376 202.184 443.784C201.48 443.176 201.128 442.296 201.128 441.144C201.128 440.536 201.24 439.992 201.464 439.512C201.688 439.016 202.008 438.6 202.424 438.264C202.84 437.912 203.336 437.648 203.912 437.472C204.504 437.28 205.16 437.184 205.88 437.184C206.488 437.184 207.024 437.232 207.488 437.328C207.968 437.408 208.4 437.536 208.784 437.712C209.168 437.872 209.52 438.08 209.84 438.336C210.16 438.576 210.472 438.848 210.776 439.152L208.976 440.952C208.608 440.568 208.168 440.248 207.656 439.992C207.144 439.736 206.584 439.608 205.976 439.608C205.304 439.608 204.816 439.728 204.512 439.968C204.224 440.208 204.08 440.52 204.08 440.904C204.08 441.32 204.2 441.64 204.44 441.864C204.696 442.072 205.12 442.224 205.712 442.32L206.984 442.488C209.688 442.872 211.04 444.104 211.04 446.184C211.04 446.792 210.912 447.352 210.656 447.864C210.416 448.36 210.072 448.792 209.624 449.16C209.176 449.512 208.632 449.792 207.992 450C207.368 450.192 206.664 450.288 205.88 450.288ZM218.001 450.288C217.105 450.288 216.297 450.136 215.577 449.832C214.873 449.528 214.265 449.088 213.753 448.512C213.257 447.936 212.873 447.248 212.601 446.448C212.329 445.632 212.193 444.72 212.193 443.712C212.193 442.704 212.329 441.8 212.601 441C212.873 440.2 213.257 439.52 213.753 438.96C214.265 438.384 214.873 437.944 215.577 437.64C216.297 437.336 217.105 437.184 218.001 437.184C218.897 437.184 219.705 437.336 220.425 437.64C221.145 437.944 221.753 438.384 222.249 438.96C222.761 439.52 223.153 440.2 223.425 441C223.697 441.8 223.833 442.704 223.833 443.712C223.833 444.72 223.697 445.632 223.425 446.448C223.153 447.248 222.761 447.936 222.249 448.512C221.753 449.088 221.145 449.528 220.425 449.832C219.705 450.136 218.897 450.288 218.001 450.288ZM218.001 447.816C218.817 447.816 219.457 447.568 219.921 447.072C220.385 446.576 220.617 445.848 220.617 444.888V442.56C220.617 441.616 220.385 440.896 219.921 440.4C219.457 439.904 218.817 439.656 218.001 439.656C217.201 439.656 216.569 439.904 216.105 440.4C215.641 440.896 215.409 441.616 215.409 442.56V444.888C215.409 445.848 215.641 446.576 216.105 447.072C216.569 447.568 217.201 447.816 218.001 447.816ZM228.908 450C227.852 450 227.076 449.736 226.58 449.208C226.084 448.68 225.836 447.936 225.836 446.976V432.24H228.908V447.552H230.564V450H228.908ZM239.659 447.912H239.539C239.427 448.232 239.275 448.536 239.083 448.824C238.907 449.096 238.675 449.344 238.387 449.568C238.115 449.792 237.779 449.968 237.379 450.096C236.995 450.224 236.547 450.288 236.035 450.288C234.739 450.288 233.747 449.864 233.059 449.016C232.371 448.168 232.027 446.96 232.027 445.392V437.472H235.099V445.08C235.099 445.944 235.267 446.608 235.603 447.072C235.939 447.52 236.475 447.744 237.211 447.744C237.515 447.744 237.811 447.704 238.099 447.624C238.403 447.544 238.667 447.424 238.891 447.264C239.115 447.088 239.299 446.88 239.443 446.64C239.587 446.384 239.659 446.088 239.659 445.752V437.472H242.731V450H239.659V447.912ZM249.472 450C248.416 450 247.608 449.728 247.048 449.184C246.504 448.624 246.232 447.832 246.232 446.808V439.92H244.384V437.472H245.344C245.808 437.472 246.12 437.368 246.28 437.16C246.456 436.936 246.544 436.608 246.544 436.176V434.04H249.304V437.472H251.872V439.92H249.304V447.552H251.68V450H249.472ZM255.353 435.648C254.713 435.648 254.249 435.504 253.961 435.216C253.689 434.928 253.553 434.56 253.553 434.112V433.632C253.553 433.184 253.689 432.816 253.961 432.528C254.249 432.24 254.713 432.096 255.353 432.096C255.977 432.096 256.433 432.24 256.721 432.528C257.009 432.816 257.153 433.184 257.153 433.632V434.112C257.153 434.56 257.009 434.928 256.721 435.216C256.433 435.504 255.977 435.648 255.353 435.648ZM253.817 437.472H256.889V450H253.817V437.472ZM264.697 450.288C263.801 450.288 262.993 450.136 262.273 449.832C261.569 449.528 260.961 449.088 260.449 448.512C259.953 447.936 259.569 447.248 259.297 446.448C259.025 445.632 258.889 444.72 258.889 443.712C258.889 442.704 259.025 441.8 259.297 441C259.569 440.2 259.953 439.52 260.449 438.96C260.961 438.384 261.569 437.944 262.273 437.64C262.993 437.336 263.801 437.184 264.697 437.184C265.593 437.184 266.401 437.336 267.121 437.64C267.841 437.944 268.449 438.384 268.945 438.96C269.457 439.52 269.849 440.2 270.121 441C270.393 441.8 270.529 442.704 270.529 443.712C270.529 444.72 270.393 445.632 270.121 446.448C269.849 447.248 269.457 447.936 268.945 448.512C268.449 449.088 267.841 449.528 267.121 449.832C266.401 450.136 265.593 450.288 264.697 450.288ZM264.697 447.816C265.513 447.816 266.153 447.568 266.617 447.072C267.081 446.576 267.313 445.848 267.313 444.888V442.56C267.313 441.616 267.081 440.896 266.617 440.4C266.153 439.904 265.513 439.656 264.697 439.656C263.897 439.656 263.265 439.904 262.801 440.4C262.337 440.896 262.105 441.616 262.105 442.56V444.888C262.105 445.848 262.337 446.576 262.801 447.072C263.265 447.568 263.897 447.816 264.697 447.816ZM272.533 450V437.472H275.605V439.56H275.725C275.981 438.888 276.381 438.328 276.925 437.88C277.485 437.416 278.253 437.184 279.229 437.184C280.525 437.184 281.517 437.608 282.205 438.456C282.893 439.304 283.237 440.512 283.237 442.08V450H280.165V442.392C280.165 441.496 280.005 440.824 279.685 440.376C279.365 439.928 278.837 439.704 278.101 439.704C277.781 439.704 277.469 439.752 277.165 439.848C276.877 439.928 276.613 440.056 276.373 440.232C276.149 440.392 275.965 440.6 275.821 440.856C275.677 441.096 275.605 441.384 275.605 441.72V450H272.533ZM203.816 489.264C203.16 489.264 202.672 489.104 202.352 488.784C202.048 488.448 201.896 488.024 201.896 487.512V487.08C201.896 486.568 202.048 486.144 202.352 485.808C202.672 485.472 203.16 485.304 203.816 485.304C204.488 485.304 204.976 485.472 205.28 485.808C205.584 486.144 205.736 486.568 205.736 487.08V487.512C205.736 488.024 205.584 488.448 205.28 488.784C204.976 489.104 204.488 489.264 203.816 489.264ZM203.816 480.168C203.16 480.168 202.672 480.008 202.352 479.688C202.048 479.352 201.896 478.928 201.896 478.416V477.984C201.896 477.472 202.048 477.048 202.352 476.712C202.672 476.376 203.16 476.208 203.816 476.208C204.488 476.208 204.976 476.376 205.28 476.712C205.584 477.048 205.736 477.472 205.736 477.984V478.416C205.736 478.928 205.584 479.352 205.28 479.688C204.976 480.008 204.488 480.168 203.816 480.168ZM221.448 473.688V474.912C221.448 478.512 223.224 482.328 226.921 483.864L225.192 486.36C222.624 485.256 220.873 483.096 219.888 480.432C218.904 483.312 217.128 485.736 214.536 486.912L212.736 484.392C216.432 482.736 218.232 478.68 218.232 474.912V473.688H213.624V471.072H226.009V473.688H221.448ZM228.049 468.96H231.217V491.064H228.049V468.96ZM239.735 485.208V488.328H248.735V485.208H239.735ZM236.615 490.8V482.736H251.831V490.8H236.615ZM251.423 477.912H254.279V480.432H234.263V477.912H248.279C248.735 475.704 248.807 474 248.807 472.464H236.735V469.944H251.927V471.72C251.927 473.496 251.927 475.368 251.423 477.912ZM264.605 471.408V482.952C266.333 482.904 268.229 482.76 270.341 482.376L270.605 485.04C267.725 485.568 265.181 485.688 262.973 485.688H261.437V471.408H264.605ZM276.485 468.936H279.509V491.04H276.485V480.024H274.493V490.008H271.541V469.344H274.493V477.456H276.485V468.936ZM288.995 479.904L287.843 477.432C292.355 476.88 294.707 474.72 295.019 472.608H288.659V470.088H305.051V472.608H298.787C299.099 474.72 301.427 476.88 305.915 477.432L304.787 479.904C300.923 479.376 298.211 477.72 296.891 475.464C295.571 477.72 292.859 479.376 288.995 479.904ZM306.875 481.176V483.696H298.403V491.112H295.235V483.696H286.907V481.176H306.875ZM321.417 478.992L319.905 481.44C317.481 480.72 315.801 479.256 314.841 477.432C313.857 479.616 312.105 481.368 309.513 482.208L307.929 479.736C311.505 478.536 313.089 475.728 313.137 472.968H308.745V470.424H320.697V472.968H316.377C316.425 475.488 317.937 477.96 321.417 478.992ZM318.417 488.64C321.225 488.64 322.737 488.04 322.737 486.792C322.737 485.52 321.225 484.92 318.417 484.92C315.585 484.92 314.073 485.52 314.073 486.792C314.073 488.04 315.585 488.64 318.417 488.64ZM318.417 482.472C323.001 482.472 325.881 484.08 325.881 486.792C325.881 489.48 323.001 491.064 318.417 491.064C313.809 491.064 310.929 489.48 310.929 486.792C310.929 484.08 313.809 482.472 318.417 482.472ZM325.641 474.048H328.569V476.64H325.641V482.088H322.473V468.96H325.641V474.048ZM339.583 471.6C336.391 471.6 334.879 472.056 334.879 473.04C334.879 474.072 336.391 474.504 339.583 474.504C342.799 474.504 344.311 474.072 344.311 473.04C344.311 472.056 342.799 471.6 339.583 471.6ZM339.583 476.808C334.543 476.808 331.591 475.488 331.591 473.04C331.591 470.616 334.543 469.272 339.583 469.272C344.647 469.272 347.599 470.616 347.599 473.04C347.599 475.488 344.647 476.808 339.583 476.808ZM335.047 487.272V488.52H347.719V490.896H331.903V485.088H344.023V483.912H331.879V481.584H347.143V487.272H335.047ZM329.599 477.864H349.567V480.336H329.599V477.864ZM369.085 477.648L367.645 480.096C365.173 479.424 363.445 478.008 362.461 476.208C361.477 478.224 359.677 479.832 357.037 480.6L355.525 478.128C358.933 477.144 360.541 474.864 360.757 472.488H356.389V469.944H368.317V472.488H364.021C364.237 474.624 365.797 476.736 369.085 477.648ZM361.885 487.032V488.448H373.957V490.848H358.741V484.8H370.189V483.528H358.717V481.152H373.309V487.032H361.885ZM373.309 473.304H376.213V475.872H373.309V480.264H370.141V468.96H373.309V473.304ZM388.859 483V483.408C388.859 485.688 391.019 487.944 395.891 488.544L394.739 490.968C391.139 490.488 388.571 489.072 387.251 487.08C385.907 489.072 383.339 490.488 379.739 490.968L378.563 488.544C383.483 487.944 385.619 485.688 385.619 483.408V483H388.859ZM382.835 472.296V475.032H391.595V472.296H382.835ZM388.835 479.472H397.235V481.968H377.267V479.472H385.667V477.504H379.715V469.824H394.715V477.504H388.835V479.472ZM418.721 468.936H421.889V491.112H418.721V468.936ZM410.009 470.496C413.345 470.496 415.817 473.52 415.817 478.368C415.817 483.24 413.345 486.288 410.009 486.288C406.673 486.288 404.201 483.24 404.201 478.368C404.201 473.52 406.673 470.496 410.009 470.496ZM410.009 473.352C408.377 473.352 407.249 475.104 407.249 478.368C407.249 481.656 408.377 483.408 410.009 483.408C411.641 483.408 412.769 481.656 412.769 478.368C412.769 475.104 411.641 473.352 410.009 473.352ZM430.239 483.672C431.439 483.672 432.303 482.712 432.303 481.056C432.303 479.4 431.439 478.416 430.239 478.416C429.039 478.416 428.175 479.4 428.175 481.056C428.175 482.712 429.039 483.672 430.239 483.672ZM430.239 475.776C433.071 475.776 435.087 477.96 435.087 481.056C435.087 484.128 433.071 486.312 430.239 486.312C427.407 486.312 425.391 484.128 425.391 481.056C425.391 477.96 427.407 475.776 430.239 475.776ZM431.799 469.56V472.296H435.471V474.816H424.911V472.296H428.679V469.56H431.799ZM440.895 468.936H443.895V491.04H440.895V480.504H439.215V490.128H436.263V469.368H439.215V477.96H440.895V468.936ZM459.325 471.288L459.301 473.76H446.293V471.288H451.189V468.936H454.381V471.288H459.325ZM450.397 478.8C450.397 480.024 451.381 480.672 452.797 480.672C454.189 480.672 455.197 480.024 455.197 478.8C455.197 477.6 454.189 476.952 452.797 476.952C451.381 476.952 450.397 477.6 450.397 478.8ZM458.221 478.8C458.221 481.344 455.965 483.072 452.797 483.072C449.629 483.072 447.373 481.344 447.373 478.8C447.373 476.304 449.629 474.552 452.797 474.552C455.965 474.552 458.221 476.304 458.221 478.8ZM452.605 484.272V488.16H464.485V490.68H449.437V484.272H452.605ZM463.693 475.704H466.621V478.32H463.693V485.496H460.525V468.96H463.693V475.704ZM473.395 471.24H483.787C483.787 477.912 481.651 483.432 474.019 487.248L472.339 484.8C477.859 482.016 480.139 478.584 480.571 473.76H473.395V471.24ZM487.915 468.96H491.083V491.064H487.915V480H483.643V477.432H487.915V468.96ZM499.897 470.424H510.361C510.361 476.328 506.809 479.664 500.065 480.936L498.841 478.416C504.193 477.528 506.521 475.368 506.833 472.944H499.897V470.424ZM504.985 487.2V488.52H516.865V490.8H501.841V481.392H516.409V483.696H504.985V484.992H516.169V487.2H504.985ZM516.313 473.472H519.241V476.088H516.313V480.504H513.145V468.936H516.313V473.472ZM530.255 472.104C527.303 472.104 525.527 472.824 525.527 474.168C525.527 475.536 527.303 476.208 530.255 476.208C533.231 476.208 535.007 475.536 535.007 474.168C535.007 472.824 533.231 472.104 530.255 472.104ZM530.255 478.728C525.455 478.728 522.263 476.976 522.263 474.168C522.263 471.36 525.455 469.608 530.255 469.608C535.079 469.608 538.271 471.36 538.271 474.168C538.271 476.976 535.079 478.728 530.255 478.728ZM525.863 484.248V488.16H538.007V490.68H522.695V484.248H525.863ZM520.271 480.24H540.239V482.76H520.271V480.24ZM545.398 473.976V483.552C547.702 483.504 549.478 483.36 551.422 482.976L551.686 485.568C549.214 486.048 547.03 486.144 543.79 486.144H542.278V471.456H550.702V473.976H545.398ZM553.03 477.024V469.368H555.982V490.08H553.03V479.592H549.19V477.024H553.03ZM557.614 468.936H560.614V491.04H557.614V468.936ZM565.532 485.304C566.188 485.304 566.668 485.472 566.972 485.808C567.292 486.144 567.452 486.568 567.452 487.08V487.512C567.452 487.944 567.388 488.392 567.26 488.856C567.148 489.32 566.98 489.768 566.756 490.2C566.548 490.632 566.292 491.04 565.988 491.424C565.7 491.808 565.372 492.144 565.004 492.432H562.82C563.364 491.904 563.82 491.384 564.188 490.872C564.556 490.376 564.836 489.824 565.028 489.216C564.532 489.136 564.172 488.944 563.948 488.64C563.724 488.32 563.612 487.944 563.612 487.512V487.08C563.612 486.568 563.764 486.144 564.068 485.808C564.372 485.472 564.86 485.304 565.532 485.304ZM205.04 512.568V522.168C208.184 522.12 210.8 521.952 213.656 521.472L213.968 524.088C210.632 524.688 207.608 524.808 203.768 524.808H201.896V510H212.192V512.568H205.04ZM221.552 516.12V518.736H218.336V530.112H215.168V507.96H218.336V516.12H221.552ZM230.958 509.664V512.88C230.958 516.984 232.71 521.016 236.454 522.624L234.654 525.192C232.11 524.04 230.406 521.856 229.422 519.144C228.438 522.096 226.638 524.472 223.998 525.72L222.102 523.104C225.966 521.448 227.79 517.176 227.79 512.88V509.664H230.958ZM237.534 507.936H240.702V530.112H237.534V507.936ZM261.732 510.288L261.708 512.76H248.7V510.288H253.596V507.936H256.788V510.288H261.732ZM252.804 517.8C252.804 519.024 253.788 519.672 255.204 519.672C256.596 519.672 257.604 519.024 257.604 517.8C257.604 516.6 256.596 515.952 255.204 515.952C253.788 515.952 252.804 516.6 252.804 517.8ZM260.628 517.8C260.628 520.344 258.372 522.072 255.204 522.072C252.036 522.072 249.78 520.344 249.78 517.8C249.78 515.304 252.036 513.552 255.204 513.552C258.372 513.552 260.628 515.304 260.628 517.8ZM255.012 523.272V527.16H266.892V529.68H251.844V523.272H255.012ZM266.1 514.704H269.028V517.32H266.1V524.496H262.932V507.96H266.1V514.704ZM278.338 518.328V515.208H274.138V518.328H278.338ZM281.434 516.384V520.848H270.994V509.424H274.138V512.784H278.338V509.448H281.434V513.84H285.37V507.984H288.538V524.28H285.37V516.384H281.434ZM277.114 527.16H289.018V529.68H273.946V522.696H277.114V527.16ZM311.68 519.192V513.72H307.648V511.2H311.68V507.96H314.848V519.192H311.68ZM309.568 516.504L307.96 518.928C305.632 518.184 304 516.72 303.064 514.872C302.08 516.936 300.352 518.568 297.832 519.36L296.2 516.888C299.872 515.784 301.408 513.072 301.408 510.264V508.68H304.6V510.264C304.6 512.88 306.112 515.448 309.568 516.504ZM303.424 527.352H315.472V529.8H300.304V523.776H311.728V522.552H300.28V520.128H314.848V526.056H303.424V527.352ZM325.958 517.224V512.064H321.758V517.224H325.958ZM333.038 513.672H329.054V515.568H333.038V513.672ZM329.054 518.088V519.72H318.638V509.544H329.054V511.152H333.038V507.96H336.206V520.92H333.038V518.088H329.054ZM328.718 527.64C331.622 527.64 333.134 527.04 333.134 525.768C333.134 524.496 331.622 523.896 328.718 523.896C325.838 523.896 324.326 524.496 324.326 525.768C324.326 527.04 325.838 527.64 328.718 527.64ZM328.718 521.472C333.422 521.472 336.302 523.056 336.302 525.768C336.302 528.48 333.422 530.064 328.718 530.064C324.038 530.064 321.158 528.48 321.158 525.768C321.158 523.056 324.038 521.472 328.718 521.472ZM344.389 522.672C345.589 522.672 346.453 521.712 346.453 520.056C346.453 518.4 345.589 517.416 344.389 517.416C343.189 517.416 342.325 518.4 342.325 520.056C342.325 521.712 343.189 522.672 344.389 522.672ZM344.389 514.776C347.221 514.776 349.237 516.96 349.237 520.056C349.237 523.128 347.221 525.312 344.389 525.312C341.557 525.312 339.541 523.128 339.541 520.056C339.541 516.96 341.557 514.776 344.389 514.776ZM345.949 508.56V511.296H349.621V513.816H339.061V511.296H342.829V508.56H345.949ZM355.045 507.936H358.045V530.04H355.045V519.504H353.365V529.128H350.413V508.368H353.365V516.96H355.045V507.936ZM361.979 518.088L360.755 515.688C364.307 515.136 365.891 513.504 365.939 511.824H361.643V509.328H373.355V511.824H369.155C369.203 513.408 370.787 514.92 374.099 515.448L372.851 517.848C370.307 517.392 368.555 516.36 367.595 514.92C366.563 516.456 364.715 517.608 361.979 518.088ZM374.579 518.664L374.747 520.968C372.827 521.304 370.883 521.544 368.963 521.688V529.416H365.795V521.88C363.971 521.952 362.267 521.952 360.755 521.952L360.371 519.384C364.379 519.384 369.827 519.336 374.579 518.664ZM375.995 507.96H379.163V530.04H375.995V525.336H371.579V522.936H375.995V507.96ZM393.369 524.976H401.817V527.568H381.801V524.976H390.201V520.368H384.129V509.472H399.513V512.016H387.321V517.824H399.681V520.368H393.369V524.976ZM426.567 507.96V519.552H423.399V507.96H426.567ZM422.199 516.504L422.391 518.664C417.735 519.336 412.767 519.408 408.615 519.408L408.231 517.032C409.983 517.032 411.903 517.008 413.847 516.96V515.496H410.127V508.824H420.663V511.224H413.367V513.096H420.855V515.496H417.039V516.864C418.791 516.792 420.543 516.672 422.199 516.504ZM414.711 527.448H427.071V529.896H411.591V523.944H423.447V522.768H411.543V520.344H426.567V526.224H414.711V527.448ZM429.997 510.216H435.973C435.973 516.312 435.421 521.064 431.485 525.432L429.013 523.632C431.941 520.392 432.805 517.2 432.973 512.76H429.997V510.216ZM436.741 510.216H442.069C442.069 516.6 441.565 522.048 437.701 526.824L435.205 525.072C438.133 521.376 438.925 517.68 439.093 512.76H436.741V510.216ZM449.893 516.6V519.216H447.037V530.04H443.845V507.936H447.037V516.6H449.893ZM453.731 522.576V518.832C455.011 518.784 455.979 518.544 456.635 518.112C457.307 517.664 457.643 516.976 457.643 516.048V515.712C457.643 515.04 457.443 514.52 457.043 514.152C456.643 513.784 456.107 513.6 455.435 513.6C454.715 513.6 454.131 513.816 453.683 514.248C453.251 514.664 452.947 515.208 452.771 515.88L450.203 514.824C450.347 514.328 450.555 513.848 450.827 513.384C451.099 512.92 451.451 512.512 451.883 512.16C452.315 511.792 452.835 511.504 453.443 511.296C454.051 511.072 454.755 510.96 455.555 510.96C456.371 510.96 457.107 511.08 457.763 511.32C458.419 511.544 458.979 511.872 459.443 512.304C459.907 512.72 460.267 513.224 460.523 513.816C460.779 514.408 460.907 515.064 460.907 515.784C460.907 516.488 460.787 517.12 460.547 517.68C460.323 518.224 460.011 518.704 459.611 519.12C459.211 519.52 458.755 519.848 458.243 520.104C457.731 520.344 457.203 520.512 456.659 520.608V522.576H453.731ZM455.219 528.288C454.547 528.288 454.059 528.128 453.755 527.808C453.451 527.488 453.299 527.08 453.299 526.584V526.104C453.299 525.608 453.451 525.2 453.755 524.88C454.059 524.56 454.547 524.4 455.219 524.4C455.907 524.4 456.403 524.56 456.707 524.88C457.011 525.2 457.163 525.608 457.163 526.104V526.584C457.163 527.08 457.011 527.488 456.707 527.808C456.403 528.128 455.907 528.288 455.219 528.288Z" fill="white"/>
</g>
<defs>
<filter id="filter0_d_132_2" x="0" y="0" width="621" height="577" filterUnits="userSpaceOnUse" color-interpolation-filters="sRGB">
<feFlood flood-opacity="0" result="BackgroundImageFix"/>
<feColorMatrix in="SourceAlpha" type="matrix" values="0 0 0 0 0 0 0 0 0 0 0 0 0 0 0 0 0 0 127 0" result="hardAlpha"/>
<feOffset/>
<feGaussianBlur stdDeviation="7.5"/>
<feComposite in2="hardAlpha" operator="out"/>
<feColorMatrix type="matrix" values="0 0 0 0 0 0 0 0 0 0 0 0 0 0 0 0 0 0 0.25 0"/>
<feBlend mode="normal" in2="BackgroundImageFix" result="effect1_dropShadow_132_2"/>
<feBlend mode="normal" in="SourceGraphic" in2="effect1_dropShadow_132_2" result="shape"/>
</filter>
</defs>
</svg>
