<svg width="750" height="515" viewBox="0 0 750 515" fill="none" xmlns="http://www.w3.org/2000/svg">
<g filter="url(#filter0_d_141_2)">
<rect x="136" y="15" width="599" height="173" rx="4" fill="#FF4C91"/>
<rect x="15" y="182" width="576" height="170" rx="4" fill="black"/>
<path d="M62.344 228.92V222.56H58.312V219.992H62.344V215.96H65.512V228.92H62.344ZM60.328 225.728L58.672 228.224C56.344 227.432 54.784 225.92 53.848 223.952C52.864 226.208 51.112 227.984 48.496 228.872L46.84 226.328C50.608 225.128 52.168 222.128 52.168 219.08V217.112H55.384V218.936C55.384 221.912 56.824 224.6 60.328 225.728ZM58.048 235.64C60.928 235.64 62.44 235.04 62.44 233.792C62.44 232.52 60.928 231.92 58.048 231.92C55.144 231.92 53.632 232.52 53.632 233.792C53.632 235.04 55.144 235.64 58.048 235.64ZM58.048 229.472C62.728 229.472 65.608 231.056 65.608 233.792C65.608 236.48 62.728 238.064 58.048 238.064C53.344 238.064 50.464 236.48 50.464 233.792C50.464 231.056 53.344 229.472 58.048 229.472ZM82.8381 235.28V233.288H73.9101V235.28H82.8381ZM82.8381 230.84V228.536H86.0061V237.824H70.7661V228.536H73.9101V230.84H82.8381ZM85.5741 224.576H88.4061V227.12H68.3901V224.576H82.4301C82.8621 222.488 82.9341 220.832 82.9341 219.368H70.8621V216.848H86.0541V218.624C86.0541 220.352 86.0541 222.104 85.5741 224.576ZM102.78 218.288L102.756 220.76H89.7483V218.288H94.6443V215.936H97.8363V218.288H102.78ZM93.8523 225.8C93.8523 227.024 94.8363 227.672 96.2523 227.672C97.6443 227.672 98.6523 227.024 98.6523 225.8C98.6523 224.6 97.6443 223.952 96.2523 223.952C94.8363 223.952 93.8523 224.6 93.8523 225.8ZM101.676 225.8C101.676 228.344 99.4203 230.072 96.2523 230.072C93.0843 230.072 90.8283 228.344 90.8283 225.8C90.8283 223.304 93.0843 221.552 96.2523 221.552C99.4203 221.552 101.676 223.304 101.676 225.8ZM96.0603 231.272V235.16H107.94V237.68H92.8923V231.272H96.0603ZM107.148 222.704H110.076V225.32H107.148V232.496H103.98V215.96H107.148V222.704ZM134.418 215.96V227.024H131.226V215.96H134.418ZM119.442 221.648C119.442 223.232 120.666 224.144 122.298 224.144C123.93 224.144 125.106 223.232 125.106 221.648C125.106 220.088 123.93 219.152 122.298 219.152C120.666 219.152 119.442 220.088 119.442 221.648ZM128.178 221.648C128.178 224.6 125.658 226.712 122.298 226.712C118.914 226.712 116.37 224.6 116.37 221.648C116.37 218.72 118.914 216.608 122.298 216.608C125.658 216.608 128.178 218.72 128.178 221.648ZM122.85 235.352H134.97V237.8H119.706V231.704H131.274V230.36H119.682V227.936H134.418V233.96H122.85V235.352ZM145.528 226.28V223.136H141.184V226.28H145.528ZM148.648 217.544V228.776H138.064V217.544H141.184V220.688H145.528V217.544H148.648ZM143.728 230.624V235.16H155.608V237.68H140.56V230.624H143.728ZM154.816 222.2H157.744V224.792H154.816V232.232H151.648V215.96H154.816V222.2ZM171.951 218.384V220.88H158.943V218.384H163.887V216.056H167.055V218.384H171.951ZM163.071 225.896C163.071 227.072 164.031 227.696 165.471 227.696C166.911 227.696 167.871 227.072 167.871 225.896C167.871 224.768 166.911 224.144 165.471 224.144C164.031 224.144 163.071 224.768 163.071 225.896ZM167.055 229.904V231.656C168.759 231.56 170.463 231.44 172.047 231.2L172.287 233.48C167.631 234.392 162.663 234.392 158.919 234.392L158.535 231.824C160.119 231.824 161.943 231.824 163.887 231.776V229.904C161.583 229.424 160.071 227.936 160.071 225.896C160.071 223.424 162.303 221.744 165.471 221.744C168.639 221.744 170.871 223.424 170.871 225.896C170.871 227.936 169.359 229.424 167.055 229.904ZM179.103 224.96V227.576H176.343V238.064H173.175V215.96H176.343V224.96H179.103ZM180.301 228.512C180.301 227.36 180.405 226.248 180.613 225.176C180.837 224.104 181.133 223.112 181.501 222.2C181.885 221.272 182.333 220.432 182.845 219.68C183.357 218.928 183.917 218.288 184.525 217.76H187.429C186.773 218.368 186.181 219.04 185.653 219.776C185.141 220.512 184.701 221.304 184.333 222.152C183.965 222.984 183.677 223.864 183.469 224.792C183.277 225.72 183.181 226.672 183.181 227.648V229.424C183.181 230.416 183.277 231.384 183.469 232.328C183.677 233.256 183.965 234.144 184.333 234.992C184.717 235.824 185.165 236.608 185.677 237.344C186.205 238.08 186.789 238.736 187.429 239.312H184.525C183.933 238.816 183.381 238.192 182.869 237.44C182.357 236.688 181.909 235.848 181.525 234.92C181.141 233.976 180.837 232.968 180.613 231.896C180.405 230.808 180.301 229.68 180.301 228.512ZM188.867 225.896H187.019V223.472H188.867V221.672C188.867 220.568 189.155 219.72 189.731 219.128C190.323 218.536 191.187 218.24 192.323 218.24H194.507V220.688H191.939V223.472H194.507V225.896H191.939V236H188.867V225.896ZM205.129 236C204.457 236 203.921 235.808 203.521 235.424C203.137 235.024 202.897 234.496 202.801 233.84H202.657C202.449 234.656 202.025 235.272 201.385 235.688C200.745 236.088 199.953 236.288 199.009 236.288C197.729 236.288 196.745 235.952 196.057 235.28C195.369 234.608 195.025 233.712 195.025 232.592C195.025 231.296 195.489 230.336 196.417 229.712C197.345 229.072 198.665 228.752 200.377 228.752H202.513V227.84C202.513 227.136 202.329 226.592 201.961 226.208C201.593 225.824 201.001 225.632 200.185 225.632C199.465 225.632 198.881 225.792 198.433 226.112C198.001 226.416 197.633 226.784 197.329 227.216L195.505 225.584C195.969 224.864 196.585 224.288 197.353 223.856C198.121 223.408 199.137 223.184 200.401 223.184C202.097 223.184 203.385 223.568 204.265 224.336C205.145 225.104 205.585 226.208 205.585 227.648V233.552H206.833V236H205.129ZM200.041 234.056C200.729 234.056 201.313 233.904 201.793 233.6C202.273 233.296 202.513 232.848 202.513 232.256V230.6H200.545C198.945 230.6 198.145 231.112 198.145 232.136V232.544C198.145 233.056 198.305 233.44 198.625 233.696C198.961 233.936 199.433 234.056 200.041 234.056ZM211.671 236C210.615 236 209.839 235.736 209.343 235.208C208.847 234.68 208.599 233.936 208.599 232.976V218.24H211.671V233.552H213.327V236H211.671ZM217.842 236C216.786 236 216.01 235.736 215.514 235.208C215.018 234.68 214.77 233.936 214.77 232.976V218.24H217.842V233.552H219.498V236H217.842ZM230.321 236C229.649 236 229.113 235.808 228.713 235.424C228.329 235.024 228.089 234.496 227.993 233.84H227.849C227.641 234.656 227.217 235.272 226.577 235.688C225.937 236.088 225.145 236.288 224.201 236.288C222.921 236.288 221.937 235.952 221.249 235.28C220.561 234.608 220.217 233.712 220.217 232.592C220.217 231.296 220.681 230.336 221.609 229.712C222.537 229.072 223.857 228.752 225.569 228.752H227.705V227.84C227.705 227.136 227.521 226.592 227.153 226.208C226.785 225.824 226.193 225.632 225.377 225.632C224.657 225.632 224.073 225.792 223.625 226.112C223.193 226.416 222.825 226.784 222.521 227.216L220.697 225.584C221.161 224.864 221.777 224.288 222.545 223.856C223.313 223.408 224.329 223.184 225.593 223.184C227.289 223.184 228.577 223.568 229.457 224.336C230.337 225.104 230.777 226.208 230.777 227.648V233.552H232.025V236H230.321ZM225.233 234.056C225.921 234.056 226.505 233.904 226.985 233.6C227.465 233.296 227.705 232.848 227.705 232.256V230.6H225.737C224.137 230.6 223.337 231.112 223.337 232.136V232.544C223.337 233.056 223.497 233.44 223.817 233.696C224.153 233.936 224.625 234.056 225.233 234.056ZM238.735 236.288C237.807 236.288 236.983 236.136 236.263 235.832C235.543 235.528 234.935 235.088 234.439 234.512C233.959 233.936 233.591 233.248 233.335 232.448C233.079 231.632 232.951 230.72 232.951 229.712C232.951 228.704 233.079 227.8 233.335 227C233.591 226.2 233.959 225.52 234.439 224.96C234.935 224.384 235.543 223.944 236.263 223.64C236.983 223.336 237.807 223.184 238.735 223.184C239.999 223.184 241.039 223.464 241.855 224.024C242.687 224.584 243.287 225.36 243.655 226.352L241.135 227.48C240.991 226.952 240.719 226.52 240.319 226.184C239.935 225.832 239.407 225.656 238.735 225.656C237.871 225.656 237.223 225.928 236.791 226.472C236.375 227.016 236.167 227.728 236.167 228.608V230.888C236.167 231.768 236.375 232.48 236.791 233.024C237.223 233.552 237.871 233.816 238.735 233.816C239.471 233.816 240.039 233.632 240.439 233.264C240.839 232.88 241.151 232.408 241.375 231.848L243.727 232.976C243.311 234.08 242.679 234.912 241.831 235.472C240.983 236.016 239.951 236.288 238.735 236.288ZM253.056 223.472H255.936L250.896 238.232C250.736 238.68 250.552 239.064 250.344 239.384C250.152 239.72 249.92 239.992 249.648 240.2C249.376 240.408 249.048 240.56 248.664 240.656C248.28 240.752 247.832 240.8 247.32 240.8H245.472V238.352H247.728L248.304 236.6L243.816 223.472H246.864L249.048 230.096L249.864 233.264H250.008L250.872 230.096L253.056 223.472ZM267.161 236.288C266.265 236.288 265.457 236.136 264.737 235.832C264.033 235.528 263.425 235.088 262.913 234.512C262.417 233.936 262.033 233.248 261.761 232.448C261.489 231.632 261.353 230.72 261.353 229.712C261.353 228.704 261.489 227.8 261.761 227C262.033 226.2 262.417 225.52 262.913 224.96C263.425 224.384 264.033 223.944 264.737 223.64C265.457 223.336 266.265 223.184 267.161 223.184C268.057 223.184 268.865 223.336 269.585 223.64C270.305 223.944 270.913 224.384 271.409 224.96C271.921 225.52 272.313 226.2 272.585 227C272.857 227.8 272.993 228.704 272.993 229.712C272.993 230.72 272.857 231.632 272.585 232.448C272.313 233.248 271.921 233.936 271.409 234.512C270.913 235.088 270.305 235.528 269.585 235.832C268.865 236.136 268.057 236.288 267.161 236.288ZM267.161 233.816C267.977 233.816 268.617 233.568 269.081 233.072C269.545 232.576 269.777 231.848 269.777 230.888V228.56C269.777 227.616 269.545 226.896 269.081 226.4C268.617 225.904 267.977 225.656 267.161 225.656C266.361 225.656 265.729 225.904 265.265 226.4C264.801 226.896 264.569 227.616 264.569 228.56V230.888C264.569 231.848 264.801 232.576 265.265 233.072C265.729 233.568 266.361 233.816 267.161 233.816ZM275.48 225.896H273.632V223.472H275.48V221.672C275.48 220.568 275.768 219.72 276.344 219.128C276.936 218.536 277.8 218.24 278.936 218.24H281.12V220.688H278.552V223.472H281.12V225.896H278.552V236H275.48V225.896ZM287.479 218.24H290.551V225.56H290.671C290.927 224.888 291.327 224.328 291.871 223.88C292.431 223.416 293.199 223.184 294.175 223.184C295.471 223.184 296.463 223.608 297.151 224.456C297.839 225.304 298.183 226.512 298.183 228.08V236H295.111V228.392C295.111 227.496 294.951 226.824 294.631 226.376C294.311 225.928 293.783 225.704 293.047 225.704C292.727 225.704 292.415 225.752 292.111 225.848C291.823 225.928 291.559 226.056 291.319 226.232C291.095 226.392 290.911 226.6 290.767 226.856C290.623 227.096 290.551 227.384 290.551 227.72V236H287.479V218.24ZM310.084 236C309.412 236 308.876 235.808 308.476 235.424C308.092 235.024 307.852 234.496 307.756 233.84H307.612C307.404 234.656 306.98 235.272 306.34 235.688C305.7 236.088 304.908 236.288 303.964 236.288C302.684 236.288 301.7 235.952 301.012 235.28C300.324 234.608 299.98 233.712 299.98 232.592C299.98 231.296 300.444 230.336 301.372 229.712C302.3 229.072 303.62 228.752 305.332 228.752H307.468V227.84C307.468 227.136 307.284 226.592 306.916 226.208C306.548 225.824 305.956 225.632 305.14 225.632C304.42 225.632 303.836 225.792 303.388 226.112C302.956 226.416 302.588 226.784 302.284 227.216L300.46 225.584C300.924 224.864 301.54 224.288 302.308 223.856C303.076 223.408 304.092 223.184 305.356 223.184C307.052 223.184 308.34 223.568 309.22 224.336C310.1 225.104 310.54 226.208 310.54 227.648V233.552H311.788V236H310.084ZM304.996 234.056C305.684 234.056 306.268 233.904 306.748 233.6C307.228 233.296 307.468 232.848 307.468 232.256V230.6H305.5C303.9 230.6 303.1 231.112 303.1 232.136V232.544C303.1 233.056 303.26 233.44 303.58 233.696C303.916 233.936 304.388 234.056 304.996 234.056ZM317.658 236.288C316.458 236.288 315.45 236.088 314.634 235.688C313.818 235.272 313.098 234.704 312.474 233.984L314.346 232.16C314.81 232.688 315.314 233.104 315.858 233.408C316.418 233.712 317.058 233.864 317.778 233.864C318.514 233.864 319.042 233.736 319.362 233.48C319.698 233.224 319.866 232.872 319.866 232.424C319.866 232.056 319.746 231.768 319.506 231.56C319.282 231.336 318.89 231.184 318.33 231.104L317.082 230.936C315.722 230.76 314.682 230.376 313.962 229.784C313.258 229.176 312.906 228.296 312.906 227.144C312.906 226.536 313.018 225.992 313.242 225.512C313.466 225.016 313.786 224.6 314.202 224.264C314.618 223.912 315.114 223.648 315.69 223.472C316.282 223.28 316.938 223.184 317.658 223.184C318.266 223.184 318.802 223.232 319.266 223.328C319.746 223.408 320.178 223.536 320.562 223.712C320.946 223.872 321.298 224.08 321.618 224.336C321.938 224.576 322.25 224.848 322.554 225.152L320.754 226.952C320.386 226.568 319.946 226.248 319.434 225.992C318.922 225.736 318.362 225.608 317.754 225.608C317.082 225.608 316.594 225.728 316.29 225.968C316.002 226.208 315.858 226.52 315.858 226.904C315.858 227.32 315.978 227.64 316.218 227.864C316.474 228.072 316.898 228.224 317.49 228.32L318.762 228.488C321.466 228.872 322.818 230.104 322.818 232.184C322.818 232.792 322.69 233.352 322.434 233.864C322.194 234.36 321.85 234.792 321.402 235.16C320.954 235.512 320.41 235.792 319.77 236C319.146 236.192 318.442 236.288 317.658 236.288ZM328.536 236C327.48 236 326.672 235.728 326.112 235.184C325.568 234.624 325.296 233.832 325.296 232.808V225.92H323.448V223.472H324.408C324.872 223.472 325.184 223.368 325.344 223.16C325.52 222.936 325.608 222.608 325.608 222.176V220.04H328.368V223.472H330.936V225.92H328.368V233.552H330.744V236H328.536ZM340.56 223.472H343.44L338.4 238.232C338.24 238.68 338.056 239.064 337.848 239.384C337.656 239.72 337.424 239.992 337.152 240.2C336.88 240.408 336.552 240.56 336.168 240.656C335.784 240.752 335.336 240.8 334.824 240.8H332.976V238.352H335.232L335.808 236.6L331.32 223.472H334.368L336.552 230.096L337.368 233.264H337.512L338.376 230.096L340.56 223.472ZM361.002 237.056C361.002 237.712 360.882 238.288 360.642 238.784C360.418 239.296 360.042 239.72 359.514 240.056C358.986 240.392 358.306 240.648 357.474 240.824C356.642 241 355.626 241.088 354.426 241.088C353.37 241.088 352.474 241.016 351.738 240.872C351.002 240.744 350.394 240.552 349.914 240.296C349.45 240.056 349.114 239.752 348.906 239.384C348.698 239.016 348.594 238.6 348.594 238.136C348.594 237.432 348.786 236.88 349.17 236.48C349.57 236.096 350.122 235.848 350.826 235.736V235.472C350.314 235.344 349.914 235.096 349.626 234.728C349.354 234.344 349.218 233.896 349.218 233.384C349.218 233.064 349.282 232.784 349.41 232.544C349.538 232.288 349.706 232.072 349.914 231.896C350.138 231.72 350.386 231.576 350.658 231.464C350.93 231.336 351.218 231.24 351.522 231.176V231.08C350.754 230.728 350.178 230.24 349.794 229.616C349.426 228.992 349.242 228.264 349.242 227.432C349.242 226.152 349.682 225.128 350.562 224.36C351.442 223.576 352.73 223.184 354.426 223.184C354.81 223.184 355.186 223.208 355.554 223.256C355.938 223.304 356.29 223.384 356.61 223.496V223.088C356.61 221.872 357.202 221.264 358.386 221.264H360.33V223.616H357.666V223.952C358.322 224.32 358.81 224.8 359.13 225.392C359.45 225.984 359.61 226.664 359.61 227.432C359.61 228.696 359.17 229.712 358.29 230.48C357.426 231.248 356.138 231.632 354.426 231.632C353.69 231.632 353.05 231.56 352.506 231.416C352.266 231.528 352.058 231.68 351.882 231.872C351.706 232.048 351.618 232.272 351.618 232.544C351.618 233.168 352.162 233.48 353.25 233.48H356.61C358.146 233.48 359.258 233.8 359.946 234.44C360.65 235.064 361.002 235.936 361.002 237.056ZM358.122 237.416C358.122 237.016 357.962 236.704 357.642 236.48C357.322 236.256 356.77 236.144 355.986 236.144H351.714C351.282 236.464 351.066 236.896 351.066 237.44C351.066 237.92 351.266 238.296 351.666 238.568C352.066 238.84 352.746 238.976 353.706 238.976H355.242C356.25 238.976 356.978 238.848 357.426 238.592C357.89 238.336 358.122 237.944 358.122 237.416ZM354.426 229.544C355.93 229.544 356.682 228.904 356.682 227.624V227.216C356.682 225.936 355.93 225.296 354.426 225.296C352.922 225.296 352.17 225.936 352.17 227.216V227.624C352.17 228.904 352.922 229.544 354.426 229.544ZM366.979 236.288C366.051 236.288 365.219 236.136 364.483 235.832C363.763 235.512 363.147 235.072 362.635 234.512C362.139 233.936 361.755 233.248 361.483 232.448C361.211 231.632 361.075 230.72 361.075 229.712C361.075 228.72 361.203 227.824 361.459 227.024C361.731 226.224 362.115 225.544 362.611 224.984C363.107 224.408 363.715 223.968 364.435 223.664C365.155 223.344 365.971 223.184 366.883 223.184C367.859 223.184 368.707 223.352 369.427 223.688C370.147 224.024 370.739 224.48 371.203 225.056C371.667 225.632 372.011 226.304 372.235 227.072C372.475 227.824 372.595 228.632 372.595 229.496V230.504H364.267V230.816C364.267 231.728 364.523 232.464 365.035 233.024C365.547 233.568 366.307 233.84 367.315 233.84C368.083 233.84 368.707 233.68 369.187 233.36C369.683 233.04 370.123 232.632 370.507 232.136L372.163 233.984C371.651 234.704 370.947 235.272 370.051 235.688C369.171 236.088 368.147 236.288 366.979 236.288ZM366.931 225.488C366.115 225.488 365.467 225.76 364.987 226.304C364.507 226.848 364.267 227.552 364.267 228.416V228.608H369.403V228.392C369.403 227.528 369.187 226.832 368.755 226.304C368.339 225.76 367.731 225.488 366.931 225.488ZM374.578 236V223.472H377.65V225.56H377.77C378.026 224.888 378.426 224.328 378.97 223.88C379.53 223.416 380.298 223.184 381.274 223.184C382.57 223.184 383.562 223.608 384.25 224.456C384.938 225.304 385.282 226.512 385.282 228.08V236H382.21V228.392C382.21 227.496 382.05 226.824 381.73 226.376C381.41 225.928 380.882 225.704 380.146 225.704C379.826 225.704 379.514 225.752 379.21 225.848C378.922 225.928 378.658 226.056 378.418 226.232C378.194 226.392 378.01 226.6 377.866 226.856C377.722 227.096 377.65 227.384 377.65 227.72V236H374.578ZM393.032 236.288C392.104 236.288 391.272 236.136 390.536 235.832C389.816 235.512 389.2 235.072 388.688 234.512C388.192 233.936 387.808 233.248 387.536 232.448C387.264 231.632 387.128 230.72 387.128 229.712C387.128 228.72 387.256 227.824 387.512 227.024C387.784 226.224 388.168 225.544 388.664 224.984C389.16 224.408 389.768 223.968 390.488 223.664C391.208 223.344 392.024 223.184 392.936 223.184C393.912 223.184 394.76 223.352 395.48 223.688C396.2 224.024 396.792 224.48 397.256 225.056C397.72 225.632 398.064 226.304 398.288 227.072C398.528 227.824 398.648 228.632 398.648 229.496V230.504H390.32V230.816C390.32 231.728 390.576 232.464 391.088 233.024C391.6 233.568 392.36 233.84 393.368 233.84C394.136 233.84 394.76 233.68 395.24 233.36C395.736 233.04 396.176 232.632 396.56 232.136L398.216 233.984C397.704 234.704 397 235.272 396.104 235.688C395.224 236.088 394.2 236.288 393.032 236.288ZM392.984 225.488C392.168 225.488 391.52 225.76 391.04 226.304C390.56 226.848 390.32 227.552 390.32 228.416V228.608H395.456V228.392C395.456 227.528 395.24 226.832 394.808 226.304C394.392 225.76 393.784 225.488 392.984 225.488ZM400.63 236V223.472H403.702V226.064H403.822C403.902 225.728 404.022 225.408 404.182 225.104C404.358 224.784 404.582 224.504 404.854 224.264C405.126 224.024 405.446 223.832 405.814 223.688C406.198 223.544 406.638 223.472 407.134 223.472H407.806V226.376H406.846C405.806 226.376 405.022 226.528 404.494 226.832C403.966 227.136 403.702 227.632 403.702 228.32V236H400.63ZM418.29 236C417.618 236 417.082 235.808 416.682 235.424C416.298 235.024 416.058 234.496 415.962 233.84H415.818C415.61 234.656 415.186 235.272 414.546 235.688C413.906 236.088 413.114 236.288 412.17 236.288C410.89 236.288 409.906 235.952 409.218 235.28C408.53 234.608 408.186 233.712 408.186 232.592C408.186 231.296 408.65 230.336 409.578 229.712C410.506 229.072 411.826 228.752 413.538 228.752H415.674V227.84C415.674 227.136 415.49 226.592 415.122 226.208C414.754 225.824 414.162 225.632 413.346 225.632C412.626 225.632 412.042 225.792 411.594 226.112C411.162 226.416 410.794 226.784 410.49 227.216L408.666 225.584C409.13 224.864 409.746 224.288 410.514 223.856C411.282 223.408 412.298 223.184 413.562 223.184C415.258 223.184 416.546 223.568 417.426 224.336C418.306 225.104 418.746 226.208 418.746 227.648V233.552H419.994V236H418.29ZM413.202 234.056C413.89 234.056 414.474 233.904 414.954 233.6C415.434 233.296 415.674 232.848 415.674 232.256V230.6H413.706C412.106 230.6 411.306 231.112 411.306 232.136V232.544C411.306 233.056 411.466 233.44 411.786 233.696C412.122 233.936 412.594 234.056 413.202 234.056ZM424.833 236C423.777 236 423.001 235.736 422.505 235.208C422.009 234.68 421.761 233.936 421.761 232.976V218.24H424.833V233.552H426.489V236H424.833ZM429.631 221.648C428.991 221.648 428.527 221.504 428.239 221.216C427.967 220.928 427.831 220.56 427.831 220.112V219.632C427.831 219.184 427.967 218.816 428.239 218.528C428.527 218.24 428.991 218.096 429.631 218.096C430.255 218.096 430.711 218.24 430.999 218.528C431.287 218.816 431.431 219.184 431.431 219.632V220.112C431.431 220.56 431.287 220.928 430.999 221.216C430.711 221.504 430.255 221.648 429.631 221.648ZM428.095 223.472H431.167V236H428.095V223.472ZM433.12 236V233.552L439.624 225.896H433.336V223.472H443.224V225.848L436.672 233.552H443.392V236H433.12ZM454.551 236C453.879 236 453.343 235.808 452.943 235.424C452.559 235.024 452.319 234.496 452.223 233.84H452.079C451.871 234.656 451.447 235.272 450.807 235.688C450.167 236.088 449.375 236.288 448.431 236.288C447.151 236.288 446.167 235.952 445.479 235.28C444.791 234.608 444.447 233.712 444.447 232.592C444.447 231.296 444.911 230.336 445.839 229.712C446.767 229.072 448.087 228.752 449.799 228.752H451.935V227.84C451.935 227.136 451.751 226.592 451.383 226.208C451.015 225.824 450.423 225.632 449.607 225.632C448.887 225.632 448.303 225.792 447.855 226.112C447.423 226.416 447.055 226.784 446.751 227.216L444.927 225.584C445.391 224.864 446.007 224.288 446.775 223.856C447.543 223.408 448.559 223.184 449.823 223.184C451.519 223.184 452.807 223.568 453.687 224.336C454.567 225.104 455.007 226.208 455.007 227.648V233.552H456.255V236H454.551ZM449.463 234.056C450.151 234.056 450.735 233.904 451.215 233.6C451.695 233.296 451.935 232.848 451.935 232.256V230.6H449.967C448.367 230.6 447.567 231.112 447.567 232.136V232.544C447.567 233.056 447.727 233.44 448.047 233.696C448.383 233.936 448.855 234.056 449.463 234.056ZM461.84 236C460.784 236 459.976 235.728 459.416 235.184C458.872 234.624 458.6 233.832 458.6 232.808V225.92H456.752V223.472H457.712C458.176 223.472 458.488 223.368 458.648 223.16C458.824 222.936 458.912 222.608 458.912 222.176V220.04H461.672V223.472H464.24V225.92H461.672V233.552H464.048V236H461.84ZM467.72 221.648C467.08 221.648 466.616 221.504 466.328 221.216C466.056 220.928 465.92 220.56 465.92 220.112V219.632C465.92 219.184 466.056 218.816 466.328 218.528C466.616 218.24 467.08 218.096 467.72 218.096C468.344 218.096 468.8 218.24 469.088 218.528C469.376 218.816 469.52 219.184 469.52 219.632V220.112C469.52 220.56 469.376 220.928 469.088 221.216C468.8 221.504 468.344 221.648 467.72 221.648ZM466.184 223.472H469.256V236H466.184V223.472ZM477.065 236.288C476.169 236.288 475.361 236.136 474.641 235.832C473.937 235.528 473.329 235.088 472.817 234.512C472.321 233.936 471.937 233.248 471.665 232.448C471.393 231.632 471.257 230.72 471.257 229.712C471.257 228.704 471.393 227.8 471.665 227C471.937 226.2 472.321 225.52 472.817 224.96C473.329 224.384 473.937 223.944 474.641 223.64C475.361 223.336 476.169 223.184 477.065 223.184C477.961 223.184 478.769 223.336 479.489 223.64C480.209 223.944 480.817 224.384 481.313 224.96C481.825 225.52 482.217 226.2 482.489 227C482.761 227.8 482.897 228.704 482.897 229.712C482.897 230.72 482.761 231.632 482.489 232.448C482.217 233.248 481.825 233.936 481.313 234.512C480.817 235.088 480.209 235.528 479.489 235.832C478.769 236.136 477.961 236.288 477.065 236.288ZM477.065 233.816C477.881 233.816 478.521 233.568 478.985 233.072C479.449 232.576 479.681 231.848 479.681 230.888V228.56C479.681 227.616 479.449 226.896 478.985 226.4C478.521 225.904 477.881 225.656 477.065 225.656C476.265 225.656 475.633 225.904 475.169 226.4C474.705 226.896 474.473 227.616 474.473 228.56V230.888C474.473 231.848 474.705 232.576 475.169 233.072C475.633 233.568 476.265 233.816 477.065 233.816ZM484.9 236V223.472H487.972V225.56H488.092C488.348 224.888 488.748 224.328 489.292 223.88C489.852 223.416 490.62 223.184 491.596 223.184C492.892 223.184 493.884 223.608 494.572 224.456C495.26 225.304 495.604 226.512 495.604 228.08V236H492.532V228.392C492.532 227.496 492.372 226.824 492.052 226.376C491.732 225.928 491.204 225.704 490.468 225.704C490.148 225.704 489.836 225.752 489.532 225.848C489.244 225.928 488.98 226.056 488.74 226.232C488.516 226.392 488.332 226.6 488.188 226.856C488.044 227.096 487.972 227.384 487.972 227.72V236H484.9ZM503.402 228.512C503.402 229.68 503.29 230.808 503.066 231.896C502.858 232.968 502.562 233.976 502.178 234.92C501.794 235.848 501.346 236.688 500.834 237.44C500.322 238.192 499.77 238.816 499.178 239.312H496.274C496.914 238.736 497.49 238.08 498.002 237.344C498.53 236.608 498.978 235.824 499.346 234.992C499.73 234.144 500.018 233.256 500.21 232.328C500.418 231.384 500.522 230.416 500.522 229.424V227.648C500.522 226.672 500.418 225.72 500.21 224.792C500.018 223.864 499.738 222.984 499.37 222.152C499.002 221.304 498.554 220.512 498.026 219.776C497.514 219.04 496.93 218.368 496.274 217.76H499.178C499.786 218.288 500.346 218.928 500.858 219.68C501.37 220.432 501.81 221.272 502.178 222.2C502.562 223.112 502.858 224.104 503.066 225.176C503.29 226.248 503.402 227.36 503.402 228.512ZM49.816 275.264C49.16 275.264 48.672 275.104 48.352 274.784C48.048 274.448 47.896 274.024 47.896 273.512V273.08C47.896 272.568 48.048 272.144 48.352 271.808C48.672 271.472 49.16 271.304 49.816 271.304C50.488 271.304 50.976 271.472 51.28 271.808C51.584 272.144 51.736 272.568 51.736 273.08V273.512C51.736 274.024 51.584 274.448 51.28 274.784C50.976 275.104 50.488 275.264 49.816 275.264ZM49.816 266.168C49.16 266.168 48.672 266.008 48.352 265.688C48.048 265.352 47.896 264.928 47.896 264.416V263.984C47.896 263.472 48.048 263.048 48.352 262.712C48.672 262.376 49.16 262.208 49.816 262.208C50.488 262.208 50.976 262.376 51.28 262.712C51.584 263.048 51.736 263.472 51.736 263.984V264.416C51.736 264.928 51.584 265.352 51.28 265.688C50.976 266.008 50.488 266.168 49.816 266.168ZM68.1685 264.176V258.128H62.0725V264.176H68.1685ZM74.8885 259.832H70.0885V262.376H74.8885V259.832ZM70.0885 263.912V265.736H60.1525V256.568H70.0885V258.296H74.8885V255.272H76.8565V267.656H74.8885V263.912H70.0885ZM77.3605 270.56H71.0485C71.0485 272.624 74.4085 274.736 78.1285 275.192L77.4565 276.68C74.1925 276.248 71.3125 274.736 70.0645 272.744C68.7685 274.784 65.7925 276.248 62.5285 276.68L61.8805 275.192C65.6005 274.76 69.0325 272.696 69.0325 270.56H62.7445V269.072H69.0565V267.008H71.0485V269.072H77.3605V270.56ZM86.2705 258.032H94.6705C94.6705 263.576 92.7265 268.712 86.6065 272.168L85.4545 270.752C90.3985 267.992 92.4385 264.104 92.7265 259.64H86.2705V258.032ZM101.822 255.248H103.718V276.776H101.822V265.52H98.8945V275.696H97.0465V255.824H98.8945V263.912H101.822V255.248ZM113.797 256.832C117.157 256.832 119.557 258.872 119.557 261.896C119.557 264.896 117.157 266.96 113.797 266.96C110.461 266.96 108.037 264.896 108.037 261.896C108.037 258.872 110.461 256.832 113.797 256.832ZM113.797 258.512C111.589 258.512 109.957 259.88 109.957 261.896C109.957 263.888 111.589 265.28 113.797 265.28C116.029 265.28 117.637 263.888 117.637 261.896C117.637 259.88 116.029 258.512 113.797 258.512ZM122.389 255.248H124.357V276.824H122.389V255.248ZM107.197 272.096L106.957 270.44C110.869 270.44 116.269 270.416 120.973 269.696L121.141 271.16C116.293 272.048 111.085 272.096 107.197 272.096ZM140.347 257.12V260.984C140.347 264.776 142.795 268.688 145.819 270.2L144.595 271.76C142.315 270.536 140.371 268.016 139.387 265.064C138.451 268.208 136.459 270.896 134.035 272.192L132.859 270.608C135.955 269.024 138.403 264.896 138.403 260.984V257.12H140.347ZM153.235 263.984V265.616H149.683V276.776H147.715V255.272H149.683V263.984H153.235ZM157.097 265.112V269.936C159.353 269.912 161.537 269.816 164.129 269.36L164.297 270.992C161.393 271.472 159.113 271.568 156.569 271.568H155.201V263.528H160.697V259.208H155.129V257.6H162.593V265.112H157.097ZM166.601 260.864V255.656H168.449V275.696H166.601V267.824H163.793V266.216H166.601V262.472H163.793V260.864H166.601ZM170.873 255.248H172.769V276.776H170.873V255.248ZM178.647 257.336V269.672C181.743 269.672 184.935 269.408 188.415 268.712L188.655 270.344C184.983 271.088 181.695 271.328 178.407 271.328H176.703V257.336H178.647ZM195.855 263.84V265.472H192.399V276.776H190.431V255.248H192.399V263.84H195.855ZM217.893 260.816H212.517C211.125 264.272 207.861 266.792 203.229 268.136L202.437 266.576C207.573 265.04 210.765 262.184 211.125 258.464H203.541V256.88H213.261C213.261 257.672 213.165 258.464 213.021 259.208H217.893V255.272H219.885V268.136H217.893V265.304H212.253V263.696H217.893V260.816ZM212.853 275.144C216.021 275.144 218.037 274.16 218.037 272.528C218.037 270.92 216.021 269.936 212.853 269.936C209.685 269.936 207.669 270.92 207.669 272.528C207.669 274.16 209.685 275.144 212.853 275.144ZM212.853 268.376C217.197 268.376 219.981 269.936 219.981 272.528C219.981 275.12 217.197 276.68 212.853 276.68C208.509 276.68 205.725 275.12 205.725 272.528C205.725 269.936 208.509 268.376 212.853 268.376ZM236.011 257.504V259.088H223.531V257.504H228.787V255.032H230.755V257.504H236.011ZM226.651 264.032C226.651 265.424 227.947 266.384 229.771 266.384C231.595 266.384 232.891 265.424 232.891 264.032C232.891 262.64 231.595 261.68 229.771 261.68C227.947 261.68 226.651 262.64 226.651 264.032ZM234.739 264.032C234.739 266.336 232.675 267.848 229.771 267.848C226.843 267.848 224.779 266.336 224.779 264.032C224.779 261.728 226.843 260.192 229.771 260.192C232.675 260.192 234.739 261.728 234.739 264.032ZM229.171 270.992V274.904H239.323V270.992H229.171ZM227.251 276.488V269.432H241.243V276.488H227.251ZM239.251 255.272H241.243V268.28H239.251V263.408H235.675V261.8H239.251V255.272ZM254.585 256.592C259.049 256.592 262.409 258.968 262.409 262.544C262.409 266.144 259.049 268.496 254.585 268.496C250.121 268.496 246.761 266.144 246.761 262.544C246.761 258.968 250.121 256.592 254.585 256.592ZM254.585 258.2C251.201 258.2 248.633 259.952 248.633 262.544C248.633 265.16 251.201 266.888 254.585 266.888C257.993 266.888 260.537 265.16 260.537 262.544C260.537 259.952 257.993 258.2 254.585 258.2ZM244.841 272.288H264.401V273.92H244.841V272.288ZM276.951 272.504H285.759V274.112H266.199V272.504H274.959V268.448H268.647V261.8H281.415V258.44H268.599V256.832H283.335V263.384H270.591V266.864H283.839V268.448H276.951V272.504ZM303.957 261.2H308.277V255.272H310.269V271.04H308.277V262.808H303.957V261.2ZM305.229 266.264L304.245 267.8C301.845 266.936 299.997 265.136 299.061 262.928C298.125 265.376 296.157 267.368 293.637 268.28L292.605 266.744C295.797 265.592 298.029 262.736 298.029 259.688V258.608H293.229V257H304.725V258.608H299.997V259.664C299.997 262.472 302.109 265.16 305.229 266.264ZM298.485 274.688H310.869V276.296H296.493V269.648H298.485V274.688ZM320.155 260.84V261.872C320.155 265.304 321.883 268.856 324.787 270.416L323.659 271.904C321.571 270.728 320.035 268.544 319.243 265.952C318.499 268.688 316.987 271.088 314.875 272.36L313.723 270.896C316.627 269.168 318.283 265.4 318.283 261.872V260.84H314.299V259.208H318.283V256.016H320.179V259.208H324.139V260.84H320.155ZM325.963 263.744V255.752H327.835V275.648H325.963V265.376H322.675V263.744H325.963ZM330.283 255.248H332.179V276.752H330.283V255.248ZM358.225 265.208V266.816H350.473V257.264H357.961V258.848H352.441V265.208H358.225ZM349.369 264.608L349.561 266.216C347.209 266.744 345.265 266.816 343.081 266.816H341.905V257.288H349.153V258.896H343.849V265.184C345.649 265.16 347.425 265.04 349.369 264.608ZM350.905 272.408H359.737V274.016H340.201V272.408H348.937V267.872H350.905V272.408ZM378.816 261.728V263.336H364.176V256.04H366.144V261.728H378.816ZM366 269.96V274.64H378.936V276.248H364.032V269.96H366ZM361.536 266.216H381.048V267.8H361.536V266.216ZM399.294 261.2H403.614V255.272H405.606V271.04H403.614V262.808H399.294V261.2ZM400.566 266.264L399.582 267.8C397.182 266.936 395.334 265.136 394.398 262.928C393.462 265.376 391.494 267.368 388.974 268.28L387.942 266.744C391.134 265.592 393.366 262.736 393.366 259.688V258.608H388.566V257H400.062V258.608H395.334V259.664C395.334 262.472 397.446 265.16 400.566 266.264ZM393.822 274.688H406.206V276.296H391.83V269.648H393.822V274.688ZM415.492 260.84V261.872C415.492 265.304 417.22 268.856 420.124 270.416L418.996 271.904C416.908 270.728 415.372 268.544 414.58 265.952C413.836 268.688 412.324 271.088 410.212 272.36L409.06 270.896C411.964 269.168 413.62 265.4 413.62 261.872V260.84H409.636V259.208H413.62V256.016H415.516V259.208H419.476V260.84H415.492ZM421.3 263.744V255.752H423.172V275.648H421.3V265.376H418.012V263.744H421.3ZM425.62 255.248H427.516V276.752H425.62V255.248ZM437.57 256.832C440.93 256.832 443.33 258.872 443.33 261.896C443.33 264.896 440.93 266.96 437.57 266.96C434.234 266.96 431.81 264.896 431.81 261.896C431.81 258.872 434.234 256.832 437.57 256.832ZM437.57 258.512C435.362 258.512 433.73 259.88 433.73 261.896C433.73 263.888 435.362 265.28 437.57 265.28C439.802 265.28 441.41 263.888 441.41 261.896C441.41 259.88 439.802 258.512 437.57 258.512ZM446.162 255.248H448.13V276.824H446.162V255.248ZM430.97 272.096L430.73 270.44C434.642 270.44 440.042 270.416 444.746 269.696L444.914 271.16C440.066 272.048 434.858 272.096 430.97 272.096ZM475.184 262.328L474.44 263.912C471.152 263.36 467.984 261.656 466.616 259.184C465.272 261.656 462.104 263.36 458.816 263.912L458.072 262.328C461.888 261.8 465.608 259.4 465.608 256.544V255.584H467.624V256.544C467.624 259.4 471.344 261.8 475.184 262.328ZM459.056 271.352V269.744H473.96V276.8H471.992V271.352H459.056ZM467.6 266.048H476.432V267.656H456.896V266.048H465.632V262.76H467.6V266.048ZM493.998 267.992V261.44H489.318V259.832H493.998V255.272H495.99V267.992H493.998ZM490.878 265.448L489.822 266.984C487.47 266.096 485.646 264.392 484.71 262.16C483.798 264.704 481.854 266.648 479.262 267.632L478.23 266.024C481.542 264.848 483.678 261.968 483.678 258.68V256.472H485.646V258.608C485.646 261.68 487.734 264.344 490.878 265.448ZM488.886 275.192C492.126 275.192 494.094 274.256 494.094 272.696C494.094 271.112 492.126 270.176 488.886 270.176C485.646 270.176 483.678 271.112 483.678 272.696C483.678 274.256 485.646 275.192 488.886 275.192ZM488.886 268.64C493.302 268.64 496.062 270.104 496.062 272.696C496.062 275.264 493.302 276.752 488.886 276.752C484.47 276.752 481.71 275.264 481.71 272.696C481.71 270.104 484.47 268.64 488.886 268.64ZM509.332 257.096C505.804 257.096 503.788 257.912 503.788 259.352C503.788 260.792 505.804 261.608 509.332 261.608C512.86 261.608 514.876 260.792 514.876 259.352C514.876 257.912 512.86 257.096 509.332 257.096ZM509.332 263.072C504.604 263.072 501.772 261.776 501.772 259.352C501.772 256.928 504.604 255.608 509.332 255.608C514.06 255.608 516.892 256.928 516.892 259.352C516.892 261.776 514.06 263.072 509.332 263.072ZM503.932 272.816V275H517.228V276.536H502.012V271.376H514.636V269.456H501.94V267.968H516.58V272.816H503.932ZM499.588 264.536H519.076V266.12H499.588V264.536ZM59.728 303.68L59.944 305.264C56.992 305.864 54.448 306.008 49.936 306.008H48.256V296.12H57.784V297.704H50.224V304.4C54.472 304.4 56.92 304.232 59.728 303.68ZM52.552 308.264V313.688H64.936V315.296H50.584V308.264H52.552ZM63.976 300.632H67.168V302.264H63.976V309.824H62.008V294.248H63.976V300.632ZM80.1261 299.84H84.3741V294.272H86.3661V307.088H84.3741V301.448H80.1261V299.84ZM81.3261 304.736L80.3421 306.272C77.9421 305.408 76.0941 303.632 75.1581 301.424C74.2461 303.92 72.2541 305.936 69.7341 306.896L68.7021 305.336C71.9181 304.16 74.1261 301.256 74.1261 298.16V297.416H69.3261V295.832H80.8221V297.416H76.0941V298.16C76.0941 300.92 78.2061 303.632 81.3261 304.736ZM79.2621 314.24C82.5021 314.24 84.4701 313.328 84.4701 311.768C84.4701 310.208 82.5021 309.272 79.2621 309.272C76.0221 309.272 74.0541 310.208 74.0541 311.768C74.0541 313.328 76.0221 314.24 79.2621 314.24ZM79.2621 307.76C83.6781 307.76 86.4381 309.224 86.4381 311.768C86.4381 314.312 83.6781 315.776 79.2621 315.776C74.8461 315.776 72.0861 314.312 72.0861 311.768C72.0861 309.224 74.8461 307.76 79.2621 307.76ZM107.652 294.272V308.864H105.684V294.272H107.652ZM103.14 304.64L102.18 306.176C99.7083 305.336 97.7643 303.608 96.7803 301.352C95.8923 303.896 93.9003 305.888 91.3563 306.824L90.3003 305.288C93.5643 304.136 95.7243 301.256 95.7243 298.112V297.488H90.8043V295.904H102.612V297.488H97.7403V298.112C97.7403 300.992 99.9723 303.608 103.14 304.64ZM101.676 307.664V308.216C101.676 311.24 105.036 313.52 108.9 314.144L108.132 315.704C104.868 315.104 101.94 313.448 100.668 310.976C99.4203 313.448 96.4683 315.104 93.2043 315.704L92.4603 314.144C96.3003 313.52 99.6603 311.24 99.6603 308.216V307.664H101.676ZM126.538 298.544V298.016H113.41V296.408H128.506V298.544C128.506 301.208 128.506 304.16 127.69 308.504L125.722 308.288C126.538 304.16 126.538 301.136 126.538 298.544ZM120.898 311.144H130.834V312.752H111.37V311.144H118.93V303.44H120.898V311.144ZM142.36 297.848V305.192C143.488 305.168 144.64 305.144 145.792 305.072V297.848H142.36ZM150.832 304.664L150.976 306.128C146.68 306.8 141.664 306.896 137.944 306.896L137.728 305.264C138.568 305.264 139.48 305.264 140.44 305.24V297.848H138.328V296.264H149.824V297.848H147.688V304.952C148.768 304.88 149.824 304.784 150.832 304.664ZM142.936 308.624V313.688H155.32V315.296H140.968V308.624H142.936ZM154.36 300.8H157.528V302.432H154.36V310.112H152.392V294.248H154.36V300.8ZM171.471 303.68L171.687 305.264C168.735 305.864 166.191 306.008 161.679 306.008H159.999V296.12H169.527V297.704H161.967V304.4C166.215 304.4 168.663 304.232 171.471 303.68ZM164.295 308.264V313.688H176.679V315.296H162.327V308.264H164.295ZM175.719 300.632H178.911V302.264H175.719V309.824H173.751V294.248H175.719V300.632ZM186.685 309.344C188.653 309.344 190.069 307.952 190.069 306.032C190.069 304.088 188.653 302.696 186.685 302.696C184.741 302.696 183.325 304.088 183.325 306.032C183.325 307.952 184.741 309.344 186.685 309.344ZM186.685 301.064C189.757 301.064 191.941 303.128 191.941 306.032C191.941 308.96 189.757 310.976 186.685 310.976C183.661 310.976 181.477 308.96 181.477 306.032C181.477 303.128 183.661 301.064 186.685 301.064ZM187.645 294.512V297.704H192.949V299.288H180.253V297.704H185.677V294.512H187.645ZM200.485 303.104V304.76H196.957V315.776H194.989V294.272H196.957V303.104H200.485ZM218.987 300.728V302.336H204.347V295.04H206.315V300.728H218.987ZM206.171 308.96V313.64H219.107V315.248H204.203V308.96H206.171ZM201.707 305.216H221.219V306.8H201.707V305.216ZM231.833 301.304C231.833 303.776 234.353 305.384 237.785 305.384C241.217 305.384 243.713 303.776 243.713 301.304C243.713 298.832 241.217 297.224 237.785 297.224C234.353 297.224 231.833 298.832 231.833 301.304ZM238.769 311.384H247.577V313.016H228.017V311.384H236.777V306.896C232.769 306.608 229.937 304.472 229.937 301.304C229.937 297.872 233.225 295.664 237.785 295.664C242.321 295.664 245.585 297.872 245.585 301.304C245.585 304.472 242.777 306.608 238.769 306.896V311.384ZM264.567 299.144V296.672H251.703V295.088H266.559V300.632H253.743V303.272H267.039V304.856H251.775V299.144H264.567ZM268.911 307.088V308.672H263.823V315.8H261.855V308.672H256.431V315.8H254.463V308.672H249.375V307.088H268.911Z" fill="#F4F4F4"/>
<path d="M172.336 61.744C171.744 61.744 171.304 61.6 171.016 61.312C170.744 61.024 170.608 60.656 170.608 60.208V59.8C170.608 59.416 170.664 59.016 170.776 58.6C170.904 58.184 171.072 57.776 171.28 57.376C171.488 56.976 171.736 56.592 172.024 56.224C172.312 55.856 172.632 55.528 172.984 55.24H174.832C174.336 55.736 173.92 56.224 173.584 56.704C173.264 57.168 173.024 57.688 172.864 58.264C173.28 58.344 173.584 58.528 173.776 58.816C173.968 59.088 174.064 59.408 174.064 59.776V60.208C174.064 60.656 173.92 61.024 173.632 61.312C173.36 61.6 172.928 61.744 172.336 61.744ZM187.868 58.84H192.116V53.272H194.108V66.088H192.116V60.448H187.868V58.84ZM189.068 63.736L188.084 65.272C185.684 64.408 183.836 62.632 182.9 60.424C181.988 62.92 179.996 64.936 177.476 65.896L176.444 64.336C179.66 63.16 181.868 60.256 181.868 57.16V56.416H177.068V54.832H188.564V56.416H183.836V57.16C183.836 59.92 185.948 62.632 189.068 63.736ZM187.004 73.24C190.244 73.24 192.212 72.328 192.212 70.768C192.212 69.208 190.244 68.272 187.004 68.272C183.764 68.272 181.796 69.208 181.796 70.768C181.796 72.328 183.764 73.24 187.004 73.24ZM187.004 66.76C191.42 66.76 194.18 68.224 194.18 70.768C194.18 73.312 191.42 74.776 187.004 74.776C182.588 74.776 179.828 73.312 179.828 70.768C179.828 68.224 182.588 66.76 187.004 66.76ZM213.474 69.352V59.944H208.77V58.312H213.474V53.272H215.466V69.352H213.474ZM210.306 64.264L209.274 65.776C206.898 64.84 205.05 62.992 204.138 60.664C203.226 63.232 201.306 65.272 198.786 66.28L197.754 64.72C200.97 63.544 203.13 60.496 203.13 57.208V54.544H205.098V57.28C205.098 60.28 207.21 63.112 210.306 64.264ZM203.586 72.688H215.97V74.296H201.618V67.576H203.586V72.688ZM221.297 69.664C221.889 69.664 222.329 69.816 222.617 70.12C222.905 70.424 223.049 70.816 223.049 71.296V71.68C223.049 72.464 222.833 73.28 222.401 74.128C221.985 74.992 221.417 75.72 220.697 76.312H218.753C219.265 75.8 219.689 75.304 220.025 74.824C220.361 74.344 220.617 73.808 220.793 73.216C220.377 73.136 220.065 72.96 219.857 72.688C219.649 72.4 219.545 72.064 219.545 71.68V71.296C219.545 70.816 219.689 70.424 219.977 70.12C220.265 69.816 220.705 69.664 221.297 69.664ZM231.649 54.616H241.561C241.561 60.112 237.601 63.952 231.313 65.632L230.521 64.072C235.777 62.704 239.065 59.872 239.449 56.224H231.649V54.616ZM235.945 68.008V72.88H246.001V68.008H235.945ZM234.025 74.464V66.448H247.945V74.464H234.025ZM245.977 53.248H247.945V65.416H245.977V53.248ZM269.976 55.072V56.608H252.648V55.072H260.4V52.96H262.368V55.072H269.976ZM261.384 73.288C264.816 73.288 266.712 72.664 266.712 71.488C266.712 70.288 264.816 69.64 261.384 69.64C257.928 69.64 256.008 70.288 256.008 71.488C256.008 72.664 257.928 73.288 261.384 73.288ZM261.384 68.176C266.04 68.176 268.728 69.304 268.728 71.488C268.728 73.624 266.04 74.752 261.384 74.752C256.68 74.752 253.992 73.624 253.992 71.488C253.992 69.304 256.68 68.176 261.384 68.176ZM256.488 60.544C256.488 61.624 258.24 62.224 261.384 62.224C264.48 62.224 266.232 61.624 266.232 60.544C266.232 59.464 264.48 58.864 261.384 58.864C258.24 58.864 256.488 59.464 256.488 60.544ZM262.368 65.272H271.08V66.832H251.64V65.272H260.4V63.592C256.56 63.448 254.424 62.392 254.424 60.544C254.424 58.504 256.92 57.448 261.384 57.448C265.8 57.448 268.32 58.504 268.32 60.544C268.32 62.392 266.16 63.448 262.368 63.592V65.272ZM283.726 70.432H292.534V72.064H272.974V70.432H281.734V64.912H275.47V54.976H290.062V56.584H277.438V63.328H290.278V64.912H283.726V70.432ZM296.564 69.664C297.156 69.664 297.596 69.816 297.884 70.12C298.172 70.424 298.316 70.816 298.316 71.296V71.68C298.316 72.464 298.1 73.28 297.668 74.128C297.252 74.992 296.684 75.72 295.964 76.312H294.02C294.532 75.8 294.956 75.304 295.292 74.824C295.628 74.344 295.884 73.808 296.06 73.216C295.644 73.136 295.332 72.96 295.124 72.688C294.916 72.4 294.812 72.064 294.812 71.68V71.296C294.812 70.816 294.956 70.424 295.244 70.12C295.532 69.816 295.972 69.664 296.564 69.664ZM323.213 53.248V69.04H321.245V53.248H323.213ZM318.509 63.976L317.477 65.536C315.029 64.6 313.133 62.656 312.173 60.208C311.261 62.824 309.317 64.912 306.797 65.968L305.765 64.36C309.005 63.112 311.165 59.992 311.165 56.632V54.448H313.133V56.632C313.133 59.872 315.317 62.8 318.509 63.976ZM311.333 72.688H323.861V74.296H309.365V67.576H311.333V72.688ZM336.627 55.384C333.363 55.384 331.155 56.416 331.155 58.096C331.155 59.776 333.363 60.808 336.627 60.808C339.915 60.808 342.099 59.776 342.099 58.096C342.099 56.416 339.915 55.384 336.627 55.384ZM336.627 62.392C332.091 62.392 329.091 60.76 329.091 58.096C329.091 55.432 332.091 53.8 336.627 53.8C341.187 53.8 344.163 55.432 344.163 58.096C344.163 60.76 341.187 62.392 336.627 62.392ZM331.251 68.272V72.688H344.379V74.296H329.283V68.272H331.251ZM326.907 64.024H346.371V65.632H341.427V70.096H339.459V65.632H335.667V70.096H333.699V65.632H326.907V64.024ZM350.425 69.64V68.056H365.329V74.776H363.361V69.64H350.425ZM352.777 57.736V60.232H363.241V57.736H352.777ZM358.993 64.36H367.729V65.968H348.241V64.36H357.025V61.792H350.833V53.752H352.777V56.2H363.241V53.752H365.185V61.792H358.993V64.36ZM371.831 69.664C372.423 69.664 372.863 69.816 373.151 70.12C373.439 70.424 373.583 70.816 373.583 71.296V71.68C373.583 72.464 373.367 73.28 372.935 74.128C372.519 74.992 371.951 75.72 371.231 76.312H369.287C369.799 75.8 370.223 75.304 370.559 74.824C370.895 74.344 371.151 73.808 371.327 73.216C370.911 73.136 370.599 72.96 370.391 72.688C370.183 72.4 370.079 72.064 370.079 71.68V71.296C370.079 70.816 370.223 70.424 370.511 70.12C370.799 69.816 371.239 69.664 371.831 69.664ZM393.296 63.664L392.36 65.2C389.912 64.408 388.064 62.704 387.152 60.568C386.24 63.016 384.296 64.936 381.728 65.848L380.72 64.288C383.96 63.16 386.12 60.376 386.12 57.28V56.44H381.296V54.856H392.84V56.44H388.088V57.28C388.088 60.088 390.128 62.608 393.296 63.664ZM390.68 73.192C393.848 73.192 395.792 72.304 395.792 70.768C395.792 69.256 393.848 68.368 390.68 68.368C387.464 68.368 385.544 69.256 385.544 70.768C385.544 72.304 387.464 73.192 390.68 73.192ZM390.68 66.808C395.048 66.808 397.76 68.272 397.76 70.768C397.76 73.288 395.048 74.752 390.68 74.752C386.264 74.752 383.576 73.288 383.576 70.768C383.576 68.272 386.264 66.808 390.68 66.808ZM397.52 58.696H400.712V60.352H397.52V66.256H395.552V53.272H397.52V58.696ZM420.51 60.28L419.766 61.816C416.454 61.288 413.286 59.56 411.918 57.112C410.574 59.584 407.382 61.288 404.046 61.816L403.326 60.28C407.166 59.728 410.91 57.376 410.91 54.568V53.608H412.926V54.568C412.926 57.304 416.694 59.728 420.51 60.28ZM411.918 73.24C415.278 73.24 417.27 72.424 417.27 70.936C417.27 69.472 415.278 68.632 411.918 68.632C408.51 68.632 406.518 69.472 406.518 70.936C406.518 72.424 408.51 73.24 411.918 73.24ZM411.918 67.12C416.502 67.12 419.262 68.488 419.262 70.936C419.262 73.408 416.502 74.776 411.918 74.776C407.31 74.776 404.526 73.408 404.526 70.936C404.526 68.488 407.31 67.12 411.918 67.12ZM402.174 63.52H421.638V65.128H402.174V63.52ZM439.3 72.904V70.12H429.436V72.904H439.3ZM439.3 68.584V65.848H441.268V74.488H427.492V65.848H429.436V68.584H439.3ZM429.412 62.584C431.548 62.584 433.084 61.192 433.084 59.224C433.084 57.256 431.548 55.888 429.412 55.888C427.276 55.888 425.74 57.256 425.74 59.224C425.74 61.192 427.276 62.584 429.412 62.584ZM439.276 53.272H441.268V64.816H439.276V59.992H434.908C434.524 62.536 432.364 64.216 429.412 64.216C426.196 64.216 423.868 62.2 423.868 59.224C423.868 56.272 426.196 54.256 429.412 54.256C432.316 54.256 434.476 55.888 434.884 58.384H439.276V53.272ZM467.05 59.848V61.432H452.29V54.112H466.906V55.696H454.258V59.848H467.05ZM459.562 73.216C462.922 73.216 464.938 72.376 464.938 70.864C464.938 69.352 462.946 68.512 459.562 68.512C456.178 68.512 454.186 69.352 454.186 70.864C454.186 72.376 456.178 73.216 459.562 73.216ZM459.562 66.976C464.146 66.976 466.93 68.368 466.93 70.864C466.93 73.36 464.146 74.752 459.562 74.752C454.978 74.752 452.194 73.36 452.194 70.864C452.194 68.368 454.978 66.976 459.562 66.976ZM449.842 63.496H469.33V65.128H449.842V63.496ZM480.352 56.608V63.592H491.368V56.608H480.352ZM486.88 70.384H495.664V72.016H476.152V70.384H484.888V65.152H478.456V55.048H493.288V65.152H486.88V70.384ZM514.574 61.264V62.848H500.174V54.52H514.31V56.128H502.19V61.264H514.574ZM517.022 65.656V67.264H508.19V74.68H506.222V67.264H497.51V65.656H517.022ZM536.036 62.944L536.252 64.504C533.324 65.032 530.852 65.128 526.436 65.128H524.804V54.712H534.644V56.296H526.772V59.08H534.26V60.64H526.772V63.544C530.9 63.544 533.252 63.448 536.036 62.944ZM526.532 68.968V67.384H540.524V74.8H538.556V68.968H526.532ZM543.716 58.96V60.592H540.524V66.28H538.556V53.248H540.524V58.96H543.716ZM556.554 63.496H560.826V53.272H562.794V65.92H560.826V64.792H556.554V63.496ZM552.066 55.048C549.978 55.048 548.61 55.768 548.61 56.92C548.61 58.024 549.978 58.768 552.066 58.768C554.178 58.768 555.522 58.024 555.522 56.92C555.522 55.768 554.178 55.048 552.066 55.048ZM552.066 60.112C548.874 60.112 546.762 58.888 546.762 56.92C546.762 54.904 548.874 53.68 552.066 53.68C555.258 53.68 557.37 54.904 557.37 56.92C557.37 58.888 555.258 60.112 552.066 60.112ZM550.962 65.992V62.776C548.97 62.824 547.074 62.848 545.346 62.848L545.106 61.36C549.258 61.36 554.514 61.336 559.122 60.808L559.242 62.104C557.154 62.392 555.018 62.56 552.93 62.68V65.992H550.962ZM550.362 73.072H563.538V74.536H548.418V69.856H560.874V68.128H548.37V66.712H562.794V71.2H550.362V73.072ZM579.304 55.888V57.472H566.608V55.888H571.96V53.248H573.928V55.888H579.304ZM569.68 62.656C569.68 64.168 571 65.128 572.944 65.128C574.888 65.128 576.232 64.168 576.232 62.656C576.232 61.168 574.888 60.208 572.944 60.208C571 60.208 569.68 61.168 569.68 62.656ZM578.104 62.656C578.104 65.08 575.992 66.664 572.944 66.664C569.896 66.664 567.808 65.08 567.808 62.656C567.808 60.256 569.896 58.672 572.944 58.672C575.992 58.672 578.104 60.256 578.104 62.656ZM571.816 68.128V72.688H584.2V74.296H569.848V68.128H571.816ZM583.24 60.352H586.408V62.008H583.24V69.4H581.272V53.248H583.24V60.352ZM605.83 55.864V57.424H592.966V55.864H598.438V53.272H600.406V55.864H605.83ZM596.206 62.68C596.206 64.168 597.502 65.128 599.422 65.128C601.342 65.128 602.638 64.168 602.638 62.68C602.638 61.192 601.342 60.208 599.422 60.208C597.502 60.208 596.206 61.192 596.206 62.68ZM600.406 66.616V68.896C602.35 68.8 604.342 68.656 606.19 68.368L606.31 69.832C601.702 70.648 596.638 70.696 592.87 70.696L592.606 69.04C594.334 69.04 596.35 69.04 598.438 68.968V66.616C595.966 66.304 594.334 64.816 594.334 62.68C594.334 60.256 596.422 58.696 599.422 58.696C602.422 58.696 604.51 60.256 604.51 62.68C604.51 64.816 602.878 66.304 600.406 66.616ZM612.79 62.392V64.048H609.43V74.776H607.462V53.248H609.43V62.392H612.79ZM615.356 55.552H625.196C625.196 61.672 622.388 67.216 615.428 70.696L614.348 69.16C619.844 66.4 622.796 62.272 623.252 57.184H615.356V55.552ZM634.22 61.984V63.616H630.764V74.776H628.796V53.248H630.764V61.984H634.22ZM652.723 58.912V60.496H638.155V53.968H652.507V55.552H640.123V58.912H652.723ZM639.883 70.768V72.976H653.179V74.512H637.963V69.304H650.587V67.24H637.891V65.704H652.531V70.768H639.883ZM635.563 62.224H655.051V63.832H635.563V62.224ZM672.569 53.248H674.537V74.824H672.569V53.248ZM663.185 54.904C666.377 54.904 668.657 57.832 668.657 62.416C668.657 67 666.377 69.928 663.185 69.928C659.993 69.928 657.713 67 657.713 62.416C657.713 57.832 659.993 54.904 663.185 54.904ZM663.185 56.68C661.073 56.68 659.585 58.936 659.585 62.416C659.585 65.92 661.073 68.176 663.185 68.176C665.273 68.176 666.761 65.92 666.761 62.416C666.761 58.936 665.273 56.68 663.185 56.68ZM681.159 56.944V67.768C684.975 67.768 687.735 67.6 690.855 67.048L691.071 68.68C687.783 69.304 684.951 69.448 680.895 69.448H679.191V55.312H689.199V56.944H681.159ZM698.391 61.744V63.376H694.839V74.824H692.871V53.248H694.839V61.744H698.391ZM701.845 73.288C701.253 73.288 700.813 73.136 700.525 72.832C700.237 72.512 700.093 72.12 700.093 71.656V71.296C700.093 70.832 700.237 70.448 700.525 70.144C700.813 69.824 701.253 69.664 701.845 69.664C702.437 69.664 702.877 69.824 703.165 70.144C703.453 70.448 703.597 70.832 703.597 71.296V71.656C703.597 72.12 703.453 72.512 703.165 72.832C702.877 73.136 702.437 73.288 701.845 73.288ZM185.2 96.688V96.136H172.384V94.528H187.144V96.688C187.144 99.424 187.144 102.52 186.304 107.176L184.336 106.96C185.2 102.568 185.2 99.352 185.2 96.688ZM170.296 109H189.76V110.632H170.296V109ZM194.366 101.776V106.984C198.038 106.984 200.654 106.84 203.75 106.288L203.942 107.92C200.702 108.496 197.966 108.616 194.078 108.616H192.422V100.192H200.078V95.848H192.374V94.24H201.998V101.776H194.366ZM207.374 92.224H209.342V113.8H207.374V102.136H203.27V100.528H207.374V92.224ZM212.988 109.288H232.5V110.92H212.988V109.288ZM215.292 94.144H230.124V104.344H215.292V94.144ZM228.204 95.704H217.188V102.784H228.204V95.704ZM245.074 109.504H253.882V111.112H234.322V109.504H243.082V105.448H236.77V98.8H249.538V95.44H236.722V93.832H251.458V100.384H238.714V103.864H251.962V105.448H245.074V109.504ZM273.424 94.888V96.472H260.728V94.888H266.08V92.248H268.048V94.888H273.424ZM263.8 101.656C263.8 103.168 265.12 104.128 267.064 104.128C269.008 104.128 270.352 103.168 270.352 101.656C270.352 100.168 269.008 99.208 267.064 99.208C265.12 99.208 263.8 100.168 263.8 101.656ZM272.224 101.656C272.224 104.08 270.112 105.664 267.064 105.664C264.016 105.664 261.928 104.08 261.928 101.656C261.928 99.256 264.016 97.672 267.064 97.672C270.112 97.672 272.224 99.256 272.224 101.656ZM265.936 107.128V111.688H278.32V113.296H263.968V107.128H265.936ZM277.36 99.352H280.528V101.008H277.36V108.4H275.392V92.248H277.36V99.352ZM299.679 92.272V107.728H297.711V92.272H299.679ZM291.279 102.544V95.704H285.063V102.544H291.279ZM293.199 94.12V104.128H283.143V94.12H293.199ZM287.799 111.472H300.327V113.056H285.831V106.264H287.799V111.472ZM305.197 101.008L304.477 99.472C308.221 99.04 311.725 97.144 311.845 94.72H305.149V93.112H321.085V94.72H314.389C314.509 97.144 317.965 99.04 321.757 99.472L321.061 101.008C317.533 100.576 314.317 98.992 313.117 96.616C311.917 98.992 308.725 100.576 305.197 101.008ZM305.533 108.376V106.792H320.437V113.8H318.469V108.376H305.533ZM314.077 103.048H322.909V104.656H303.373V103.048H312.109V99.808H314.077V103.048ZM334.451 94.576C331.067 94.576 328.907 95.584 328.907 97.288C328.907 98.992 331.067 99.976 334.451 99.976C337.835 99.976 339.995 98.992 339.995 97.288C339.995 95.584 337.835 94.576 334.451 94.576ZM334.451 101.56C329.843 101.56 326.891 99.976 326.891 97.288C326.891 94.6 329.843 92.992 334.451 92.992C339.059 92.992 342.011 94.6 342.011 97.288C342.011 99.976 339.059 101.56 334.451 101.56ZM329.195 107.056V111.688H342.035V113.296H327.227V107.056H329.195ZM324.707 103.576H344.171V105.16H324.707V103.576ZM357.425 94.288V98.32C357.425 101.776 359.033 105.424 361.865 107.152L360.737 108.688C358.697 107.44 357.257 105.16 356.489 102.544C355.721 105.4 354.161 107.824 352.025 109.144L350.801 107.68C353.753 105.952 355.529 102.088 355.529 98.392V94.288H357.425ZM363.089 99.976V92.728H364.937V112.72H363.089V101.608H359.537V99.976H363.089ZM367.457 92.248H369.329V113.776H367.457V92.248ZM384.495 98.248V92.824H386.367V112.672H384.495V105.232H380.607V103.624H384.495V99.832H380.943C379.935 103.456 377.607 106.696 373.527 109.12L372.375 107.728C377.007 104.968 379.311 101.104 379.647 96.592H373.335V94.984H381.591C381.591 96.088 381.495 97.168 381.303 98.248H384.495ZM388.815 92.248H390.687V113.752H388.815V92.248ZM398.629 107.224C400.309 107.224 401.413 105.04 401.413 101.512C401.413 98.056 400.309 95.872 398.629 95.872C396.901 95.872 395.821 98.056 395.821 101.512C395.821 105.04 396.901 107.224 398.629 107.224ZM405.901 100.624V92.728H407.773V112.72H405.901V102.232H403.189C403.021 106.456 401.269 109.048 398.629 109.048C395.821 109.048 394.021 106.168 394.021 101.512C394.021 96.928 395.821 94.048 398.629 94.048C401.221 94.048 402.949 96.568 403.189 100.624H405.901ZM410.173 92.248H412.045V113.776H410.173V92.248ZM422.651 94.096V97.96C422.651 101.872 425.099 105.784 428.219 107.272L427.067 108.832C424.619 107.608 422.651 105.04 421.667 102.016C420.731 105.208 418.739 107.92 416.315 109.216L415.115 107.656C418.235 106.096 420.683 101.944 420.683 97.96V94.096H422.651ZM430.883 92.248H432.851V113.8H430.883V101.152H425.891V99.544H430.883V92.248ZM442.577 94.552H452.417C452.417 100.672 449.609 106.216 442.649 109.696L441.569 108.16C447.065 105.4 450.017 101.272 450.473 96.184H442.577V94.552ZM461.441 100.984V102.616H457.985V113.776H456.017V92.248H457.985V100.984H461.441ZM475.263 102.664L474.327 104.2C471.879 103.408 470.031 101.704 469.119 99.568C468.207 102.016 466.263 103.936 463.695 104.848L462.687 103.288C465.927 102.16 468.087 99.376 468.087 96.28V95.44H463.263V93.856H474.807V95.44H470.055V96.28C470.055 99.088 472.095 101.608 475.263 102.664ZM472.647 112.192C475.815 112.192 477.759 111.304 477.759 109.768C477.759 108.256 475.815 107.368 472.647 107.368C469.431 107.368 467.511 108.256 467.511 109.768C467.511 111.304 469.431 112.192 472.647 112.192ZM472.647 105.808C477.015 105.808 479.727 107.272 479.727 109.768C479.727 112.288 477.015 113.752 472.647 113.752C468.231 113.752 465.543 112.288 465.543 109.768C465.543 107.272 468.231 105.808 472.647 105.808ZM479.487 97.696H482.679V99.352H479.487V105.256H477.519V92.272H479.487V97.696ZM502.821 99.952V101.56H496.989V93.832H502.653V95.44H498.933V99.952H502.821ZM496.101 99.52L496.293 101.104C494.349 101.536 492.813 101.56 491.301 101.56H490.317V93.832H495.861V95.44H492.261V99.976C493.437 99.928 494.661 99.832 496.101 99.52ZM503.685 103.552L503.805 105.016C501.669 105.352 499.509 105.52 497.397 105.64V113.08H495.429V105.736C493.221 105.808 491.109 105.808 489.213 105.808L488.925 104.152C493.317 104.152 498.765 104.128 503.685 103.552ZM504.981 92.272H506.949V113.776H504.981V92.272ZM516.211 107.176C518.251 107.176 519.691 104.92 519.691 101.416C519.691 97.936 518.251 95.68 516.211 95.68C514.147 95.68 512.707 97.936 512.707 101.416C512.707 104.92 514.147 107.176 516.211 107.176ZM526.219 92.248H528.187V113.824H526.219V102.064H521.539C521.347 106.288 519.211 108.928 516.211 108.928C513.067 108.928 510.835 106 510.835 101.416C510.835 96.832 513.067 93.904 516.211 93.904C519.115 93.904 521.227 96.424 521.539 100.456H526.219V92.248ZM544.386 101.344L544.602 102.976C541.002 103.696 537.762 103.936 534.546 103.936H532.866V93.832H534.81V102.28C537.858 102.256 540.954 102.04 544.386 101.344ZM537.162 106.312V111.688H549.282V113.296H535.194V106.312H537.162ZM548.514 98.656H551.682V100.312H548.514V107.824H546.546V92.272H548.514V98.656ZM559.368 94.36H569.256V108.352H559.368V94.36ZM567.336 95.944H561.288V106.792H567.336V95.944ZM573.768 92.248H575.736V113.824H573.768V92.248ZM597.886 98.32L597.214 99.808C593.806 99.376 590.566 97.864 589.222 95.56C587.854 97.864 584.614 99.376 581.182 99.808L580.51 98.32C584.422 97.888 588.214 95.776 588.214 93.16V92.344H590.23V93.16C590.23 95.776 593.974 97.888 597.886 98.32ZM598.942 102.808H590.182V104.944H596.446V109.864H583.798V112H597.094V113.536H581.878V108.424H594.502V106.456H581.806V104.944H588.214V102.808H579.454V101.224H598.942V102.808ZM613.532 102.76L612.548 104.296C610.148 103.432 608.3 101.656 607.34 99.424C606.428 101.896 604.46 103.864 601.94 104.8L600.908 103.24C604.1 102.112 606.332 99.232 606.332 96.184V95.32H601.532V93.712H613.028V95.32H608.3V96.184C608.3 98.944 610.412 101.656 613.532 102.76ZM604.172 107.896V106.312H618.572V113.8H616.58V107.896H604.172ZM616.58 92.248H618.572V105.136H616.58V99.472H612.38V97.864H616.58V92.248ZM633.506 96.4V98.08C633.506 102.016 635.066 105.496 638.114 107.08L636.962 108.592C634.85 107.416 633.362 105.328 632.594 102.784C631.874 105.712 630.362 108.04 628.13 109.336L626.93 107.848C630.002 106.12 631.61 102.448 631.61 98.08V96.4H627.434V94.792H637.418V96.4H633.506ZM643.61 92.224H645.506V113.776H643.61V102.568H640.778V112.72H638.93V92.728H640.778V100.936H643.61V92.224ZM665.76 98.248V99.832H651.144V92.704H653.112V98.248H665.76ZM658.224 112.168C661.584 112.168 663.6 111.28 663.6 109.792C663.6 108.256 661.608 107.392 658.224 107.392C654.84 107.392 652.848 108.256 652.848 109.792C652.848 111.28 654.84 112.168 658.224 112.168ZM658.224 105.856C662.808 105.856 665.592 107.272 665.592 109.792C665.592 112.288 662.808 113.704 658.224 113.704C653.64 113.704 650.856 112.288 650.856 109.792C650.856 107.272 653.64 105.856 658.224 105.856ZM648.528 102.328H667.992V103.936H648.528V102.328ZM679.582 94.096C676.054 94.096 674.038 94.912 674.038 96.352C674.038 97.792 676.054 98.608 679.582 98.608C683.11 98.608 685.126 97.792 685.126 96.352C685.126 94.912 683.11 94.096 679.582 94.096ZM679.582 100.072C674.854 100.072 672.022 98.776 672.022 96.352C672.022 93.928 674.854 92.608 679.582 92.608C684.31 92.608 687.142 93.928 687.142 96.352C687.142 98.776 684.31 100.072 679.582 100.072ZM674.182 109.816V112H687.478V113.536H672.262V108.376H684.886V106.456H672.19V104.968H686.83V109.816H674.182ZM669.838 101.536H689.326V103.12H669.838V101.536ZM177.952 135.088V137.824C177.952 141.472 180.544 145.192 183.712 146.536L182.608 148.12C180.112 146.968 178 144.496 176.968 141.544C175.984 144.688 173.872 147.4 171.424 148.648L170.272 147.064C173.368 145.6 175.984 141.544 175.984 137.824V135.088H170.992V133.456H183.016V135.088H177.952ZM185.92 131.272H187.888V152.776H185.92V131.272ZM209.294 131.272V146.896H207.326V131.272H209.294ZM204.998 140.2L205.262 141.832C201.734 142.528 198.614 142.792 194.702 142.792H192.95V132.856H194.942V141.136C198.638 141.136 201.71 140.872 204.998 140.2ZM197.198 150.688H209.942V152.296H195.23V145.336H197.198V150.688ZM235.604 131.272V146.728H233.636V131.272H235.604ZM227.204 141.544V134.704H220.988V141.544H227.204ZM229.124 133.12V143.128H219.068V133.12H229.124ZM223.724 150.472H236.252V152.056H221.756V145.264H223.724V150.472ZM241.122 140.008L240.402 138.472C244.146 138.04 247.65 136.144 247.77 133.72H241.074V132.112H257.01V133.72H250.314C250.434 136.144 253.89 138.04 257.682 138.472L256.986 140.008C253.458 139.576 250.242 137.992 249.042 135.616C247.842 137.992 244.65 139.576 241.122 140.008ZM241.458 147.376V145.792H256.362V152.8H254.394V147.376H241.458ZM250.002 142.048H258.834V143.656H239.298V142.048H248.034V138.808H250.002V142.048ZM276.304 131.248H278.272V152.824H276.304V131.248ZM266.92 132.904C270.112 132.904 272.392 135.832 272.392 140.416C272.392 145 270.112 147.928 266.92 147.928C263.728 147.928 261.448 145 261.448 140.416C261.448 135.832 263.728 132.904 266.92 132.904ZM266.92 134.68C264.808 134.68 263.32 136.936 263.32 140.416C263.32 143.92 264.808 146.176 266.92 146.176C269.008 146.176 270.496 143.92 270.496 140.416C270.496 136.936 269.008 134.68 266.92 134.68ZM284.895 134.944V145.768C288.711 145.768 291.471 145.6 294.591 145.048L294.807 146.68C291.519 147.304 288.687 147.448 284.631 147.448H282.927V133.312H292.935V134.944H284.895ZM302.127 139.744V141.376H298.575V152.824H296.607V131.248H298.575V139.744H302.127ZM305.581 151.288C304.989 151.288 304.549 151.136 304.261 150.832C303.973 150.512 303.829 150.12 303.829 149.656V149.296C303.829 148.832 303.973 148.448 304.261 148.144C304.549 147.824 304.989 147.664 305.581 147.664C306.173 147.664 306.613 147.824 306.901 148.144C307.189 148.448 307.333 148.832 307.333 149.296V149.656C307.333 150.12 307.189 150.512 306.901 150.832C306.613 151.136 306.173 151.288 305.581 151.288ZM310.04 133C310.648 133 311.088 133.144 311.36 133.432C311.632 133.72 311.768 134.096 311.768 134.56V134.968C311.768 135.352 311.712 135.752 311.6 136.168C311.488 136.568 311.328 136.968 311.12 137.368C310.912 137.768 310.664 138.152 310.376 138.52C310.088 138.888 309.768 139.216 309.416 139.504H307.544C308.056 139.008 308.472 138.52 308.792 138.04C309.112 137.56 309.36 137.04 309.536 136.48C309.12 136.4 308.808 136.224 308.6 135.952C308.408 135.68 308.312 135.36 308.312 134.992V134.56C308.312 134.096 308.448 133.72 308.72 133.432C308.992 133.144 309.432 133 310.04 133Z" fill="white"/>
<rect x="173" y="340" width="558" height="160" rx="4" fill="#4857F6"/>
<path d="M205.88 388.288C204.68 388.288 203.672 388.088 202.856 387.688C202.04 387.272 201.32 386.704 200.696 385.984L202.568 384.16C203.032 384.688 203.536 385.104 204.08 385.408C204.64 385.712 205.28 385.864 206 385.864C206.736 385.864 207.264 385.736 207.584 385.48C207.92 385.224 208.088 384.872 208.088 384.424C208.088 384.056 207.968 383.768 207.728 383.56C207.504 383.336 207.112 383.184 206.552 383.104L205.304 382.936C203.944 382.76 202.904 382.376 202.184 381.784C201.48 381.176 201.128 380.296 201.128 379.144C201.128 378.536 201.24 377.992 201.464 377.512C201.688 377.016 202.008 376.6 202.424 376.264C202.84 375.912 203.336 375.648 203.912 375.472C204.504 375.28 205.16 375.184 205.88 375.184C206.488 375.184 207.024 375.232 207.488 375.328C207.968 375.408 208.4 375.536 208.784 375.712C209.168 375.872 209.52 376.08 209.84 376.336C210.16 376.576 210.472 376.848 210.776 377.152L208.976 378.952C208.608 378.568 208.168 378.248 207.656 377.992C207.144 377.736 206.584 377.608 205.976 377.608C205.304 377.608 204.816 377.728 204.512 377.968C204.224 378.208 204.08 378.52 204.08 378.904C204.08 379.32 204.2 379.64 204.44 379.864C204.696 380.072 205.12 380.224 205.712 380.32L206.984 380.488C209.688 380.872 211.04 382.104 211.04 384.184C211.04 384.792 210.912 385.352 210.656 385.864C210.416 386.36 210.072 386.792 209.624 387.16C209.176 387.512 208.632 387.792 207.992 388C207.368 388.192 206.664 388.288 205.88 388.288ZM218.001 388.288C217.105 388.288 216.297 388.136 215.577 387.832C214.873 387.528 214.265 387.088 213.753 386.512C213.257 385.936 212.873 385.248 212.601 384.448C212.329 383.632 212.193 382.72 212.193 381.712C212.193 380.704 212.329 379.8 212.601 379C212.873 378.2 213.257 377.52 213.753 376.96C214.265 376.384 214.873 375.944 215.577 375.64C216.297 375.336 217.105 375.184 218.001 375.184C218.897 375.184 219.705 375.336 220.425 375.64C221.145 375.944 221.753 376.384 222.249 376.96C222.761 377.52 223.153 378.2 223.425 379C223.697 379.8 223.833 380.704 223.833 381.712C223.833 382.72 223.697 383.632 223.425 384.448C223.153 385.248 222.761 385.936 222.249 386.512C221.753 387.088 221.145 387.528 220.425 387.832C219.705 388.136 218.897 388.288 218.001 388.288ZM218.001 385.816C218.817 385.816 219.457 385.568 219.921 385.072C220.385 384.576 220.617 383.848 220.617 382.888V380.56C220.617 379.616 220.385 378.896 219.921 378.4C219.457 377.904 218.817 377.656 218.001 377.656C217.201 377.656 216.569 377.904 216.105 378.4C215.641 378.896 215.409 379.616 215.409 380.56V382.888C215.409 383.848 215.641 384.576 216.105 385.072C216.569 385.568 217.201 385.816 218.001 385.816ZM228.908 388C227.852 388 227.076 387.736 226.58 387.208C226.084 386.68 225.836 385.936 225.836 384.976V370.24H228.908V385.552H230.564V388H228.908ZM239.659 385.912H239.539C239.427 386.232 239.275 386.536 239.083 386.824C238.907 387.096 238.675 387.344 238.387 387.568C238.115 387.792 237.779 387.968 237.379 388.096C236.995 388.224 236.547 388.288 236.035 388.288C234.739 388.288 233.747 387.864 233.059 387.016C232.371 386.168 232.027 384.96 232.027 383.392V375.472H235.099V383.08C235.099 383.944 235.267 384.608 235.603 385.072C235.939 385.52 236.475 385.744 237.211 385.744C237.515 385.744 237.811 385.704 238.099 385.624C238.403 385.544 238.667 385.424 238.891 385.264C239.115 385.088 239.299 384.88 239.443 384.64C239.587 384.384 239.659 384.088 239.659 383.752V375.472H242.731V388H239.659V385.912ZM249.472 388C248.416 388 247.608 387.728 247.048 387.184C246.504 386.624 246.232 385.832 246.232 384.808V377.92H244.384V375.472H245.344C245.808 375.472 246.12 375.368 246.28 375.16C246.456 374.936 246.544 374.608 246.544 374.176V372.04H249.304V375.472H251.872V377.92H249.304V385.552H251.68V388H249.472ZM255.353 373.648C254.713 373.648 254.249 373.504 253.961 373.216C253.689 372.928 253.553 372.56 253.553 372.112V371.632C253.553 371.184 253.689 370.816 253.961 370.528C254.249 370.24 254.713 370.096 255.353 370.096C255.977 370.096 256.433 370.24 256.721 370.528C257.009 370.816 257.153 371.184 257.153 371.632V372.112C257.153 372.56 257.009 372.928 256.721 373.216C256.433 373.504 255.977 373.648 255.353 373.648ZM253.817 375.472H256.889V388H253.817V375.472ZM264.697 388.288C263.801 388.288 262.993 388.136 262.273 387.832C261.569 387.528 260.961 387.088 260.449 386.512C259.953 385.936 259.569 385.248 259.297 384.448C259.025 383.632 258.889 382.72 258.889 381.712C258.889 380.704 259.025 379.8 259.297 379C259.569 378.2 259.953 377.52 260.449 376.96C260.961 376.384 261.569 375.944 262.273 375.64C262.993 375.336 263.801 375.184 264.697 375.184C265.593 375.184 266.401 375.336 267.121 375.64C267.841 375.944 268.449 376.384 268.945 376.96C269.457 377.52 269.849 378.2 270.121 379C270.393 379.8 270.529 380.704 270.529 381.712C270.529 382.72 270.393 383.632 270.121 384.448C269.849 385.248 269.457 385.936 268.945 386.512C268.449 387.088 267.841 387.528 267.121 387.832C266.401 388.136 265.593 388.288 264.697 388.288ZM264.697 385.816C265.513 385.816 266.153 385.568 266.617 385.072C267.081 384.576 267.313 383.848 267.313 382.888V380.56C267.313 379.616 267.081 378.896 266.617 378.4C266.153 377.904 265.513 377.656 264.697 377.656C263.897 377.656 263.265 377.904 262.801 378.4C262.337 378.896 262.105 379.616 262.105 380.56V382.888C262.105 383.848 262.337 384.576 262.801 385.072C263.265 385.568 263.897 385.816 264.697 385.816ZM272.533 388V375.472H275.605V377.56H275.725C275.981 376.888 276.381 376.328 276.925 375.88C277.485 375.416 278.253 375.184 279.229 375.184C280.525 375.184 281.517 375.608 282.205 376.456C282.893 377.304 283.237 378.512 283.237 380.08V388H280.165V380.392C280.165 379.496 280.005 378.824 279.685 378.376C279.365 377.928 278.837 377.704 278.101 377.704C277.781 377.704 277.469 377.752 277.165 377.848C276.877 377.928 276.613 378.056 276.373 378.232C276.149 378.392 275.965 378.6 275.821 378.856C275.677 379.096 275.605 379.384 275.605 379.72V388H272.533ZM203.816 427.264C203.16 427.264 202.672 427.104 202.352 426.784C202.048 426.448 201.896 426.024 201.896 425.512V425.08C201.896 424.568 202.048 424.144 202.352 423.808C202.672 423.472 203.16 423.304 203.816 423.304C204.488 423.304 204.976 423.472 205.28 423.808C205.584 424.144 205.736 424.568 205.736 425.08V425.512C205.736 426.024 205.584 426.448 205.28 426.784C204.976 427.104 204.488 427.264 203.816 427.264ZM203.816 418.168C203.16 418.168 202.672 418.008 202.352 417.688C202.048 417.352 201.896 416.928 201.896 416.416V415.984C201.896 415.472 202.048 415.048 202.352 414.712C202.672 414.376 203.16 414.208 203.816 414.208C204.488 414.208 204.976 414.376 205.28 414.712C205.584 415.048 205.736 415.472 205.736 415.984V416.416C205.736 416.928 205.584 417.352 205.28 417.688C204.976 418.008 204.488 418.168 203.816 418.168ZM225.937 416.752L224.28 419.2C221.952 418.432 220.344 416.944 219.408 415.072C218.448 417.232 216.744 418.936 214.224 419.824L212.568 417.328C216.264 416.104 217.752 413.152 217.752 410.152V408.16H220.968V410.416C220.968 413.08 222.456 415.672 225.937 416.752ZM223.08 426.616C225.889 426.616 227.4 426.04 227.4 424.792C227.4 423.568 225.889 422.992 223.08 422.992C220.248 422.992 218.736 423.568 218.736 424.792C218.736 426.04 220.248 426.616 223.08 426.616ZM223.08 420.544C227.665 420.544 230.545 422.128 230.545 424.792C230.545 427.48 227.665 429.064 223.08 429.064C218.472 429.064 215.592 427.48 215.592 424.792C215.592 422.128 218.472 420.544 223.08 420.544ZM230.304 412.096H233.233V414.712H230.304V420.04H227.137V406.984H230.304V412.096ZM247.103 408.544V410.824H234.551V408.544H239.255V406.792H242.423V408.544H247.103ZM238.439 414.544C238.439 415.288 239.327 415.648 240.839 415.648C242.351 415.648 243.215 415.288 243.215 414.544C243.215 413.8 242.351 413.416 240.839 413.416C239.327 413.416 238.439 413.8 238.439 414.544ZM247.655 418.312L247.871 420.424C243.263 421.264 238.199 421.312 234.335 421.312L233.999 418.912C235.583 418.912 237.359 418.912 239.255 418.864V417.616C236.879 417.256 235.439 416.176 235.439 414.544C235.439 412.552 237.551 411.376 240.839 411.376C244.103 411.376 246.215 412.552 246.215 414.544C246.215 416.152 244.775 417.256 242.423 417.592V418.744C244.223 418.648 245.975 418.528 247.655 418.312ZM244.367 426.808C247.391 426.808 248.735 426.448 248.735 425.608C248.735 424.768 247.391 424.384 244.391 424.384C241.391 424.384 240.047 424.768 240.047 425.608C240.047 426.448 241.391 426.808 244.367 426.808ZM244.391 422.104C249.143 422.104 251.927 423.328 251.927 425.608C251.927 427.888 249.143 429.088 244.391 429.088C239.639 429.088 236.855 427.888 236.855 425.608C236.855 423.328 239.639 422.104 244.391 422.104ZM251.783 413.224H254.567V415.84H251.783V421.864H248.615V406.96H251.783V413.224ZM265.605 409.6C262.413 409.6 260.901 410.056 260.901 411.04C260.901 412.072 262.413 412.504 265.605 412.504C268.821 412.504 270.333 412.072 270.333 411.04C270.333 410.056 268.821 409.6 265.605 409.6ZM265.605 414.808C260.565 414.808 257.613 413.488 257.613 411.04C257.613 408.616 260.565 407.272 265.605 407.272C270.669 407.272 273.621 408.616 273.621 411.04C273.621 413.488 270.669 414.808 265.605 414.808ZM261.069 425.272V426.52H273.741V428.896H257.925V423.088H270.045V421.912H257.901V419.584H273.165V425.272H261.069ZM255.621 415.864H275.589V418.336H255.621V415.864ZM287.163 411.304V417.664C287.907 417.64 288.651 417.616 289.395 417.568V411.304H287.163ZM294.939 417.136L295.155 419.44C290.811 420.208 285.819 420.304 282.147 420.304L281.811 417.736L284.115 417.712V411.304H282.387V408.784H294.171V411.304H292.419V417.376C293.283 417.328 294.123 417.232 294.939 417.136ZM288.243 421.72V426.16H300.123V428.68H285.075V421.72H288.243ZM299.331 413.2H302.259V415.816H299.331V423.232H296.163V406.96H299.331V413.2ZM315.793 416.128L316.105 418.624C313.393 419.224 310.873 419.344 305.977 419.344H304.129V408.712H314.017V411.232H307.273V416.8C311.209 416.776 313.393 416.632 315.793 416.128ZM309.601 421.264V426.16H321.481V428.68H306.433V421.264H309.601ZM320.689 412.984H323.617V415.576H320.689V422.944H317.521V406.96H320.689V412.984ZM331.031 421.96C332.519 421.96 333.599 420.952 333.599 419.248C333.599 417.592 332.519 416.56 331.031 416.56C329.543 416.56 328.439 417.592 328.439 419.272C328.439 420.952 329.543 421.96 331.031 421.96ZM331.031 413.992C334.223 413.992 336.599 416.176 336.599 419.248C336.599 422.368 334.223 424.552 331.031 424.552C327.815 424.552 325.415 422.368 325.415 419.248C325.415 416.176 327.815 413.992 331.031 413.992ZM332.591 407.344V410.224H337.391V412.744H324.527V410.224H329.423V407.344H332.591ZM345.167 415.6V418.216H341.999V429.064H338.831V406.96H341.999V415.6H345.167ZM347.229 409.24H357.837C357.837 416.008 355.557 421.528 347.709 425.32L346.053 422.824C351.693 420.112 354.141 416.656 354.597 411.76H347.229V409.24ZM361.221 406.936H364.413V429.04H361.221V406.936ZM372.331 421.6C373.555 421.6 374.251 419.944 374.251 416.536C374.251 413.152 373.555 411.496 372.331 411.496C371.131 411.496 370.411 413.152 370.411 416.536C370.411 419.944 371.131 421.6 372.331 421.6ZM378.835 415.096V407.32H381.787V428.08H378.835V417.664H377.107C376.819 421.984 375.019 424.576 372.331 424.576C369.403 424.576 367.555 421.552 367.555 416.536C367.555 411.544 369.403 408.52 372.331 408.52C374.947 408.52 376.723 410.968 377.083 415.096H378.835ZM383.323 406.936H386.323V429.04H383.323V406.936ZM406.529 412.936V415.456H391.193V407.752H394.361V412.936H406.529ZM394.169 422.008V426.064H406.649V428.584H390.977V422.008H394.169ZM388.721 417.712H408.737V420.256H388.721V417.712ZM419.303 409.312V421.288C422.087 421.216 424.919 421 427.871 420.424L428.231 423.016C424.655 423.736 421.295 423.928 418.031 423.928H416.159V409.312H419.303ZM430.415 406.936H433.583V429.136H430.415V416.344H424.463V413.776H430.415V406.936ZM450.909 414.472V410.536H441.813V414.472H450.909ZM454.005 408.04V416.968H438.693V408.04H454.005ZM456.405 419.32V421.84H447.909V429.064H444.741V421.84H436.389V419.32H456.405ZM472.348 418.648H474.268V414.376H472.324C472.42 415.048 472.468 415.768 472.468 416.536C472.468 417.28 472.42 418 472.348 418.648ZM467.692 421.6C468.916 421.6 469.636 419.92 469.636 416.536C469.636 413.152 468.916 411.496 467.692 411.496C466.444 411.496 465.724 413.152 465.724 416.536C465.724 419.92 466.444 421.6 467.692 421.6ZM474.268 411.832V407.32H477.22V428.056H474.268V421.216H471.748C470.932 423.352 469.516 424.576 467.692 424.576C464.74 424.576 462.892 421.552 462.892 416.536C462.892 411.544 464.74 408.52 467.692 408.52C469.492 408.52 470.908 409.696 471.724 411.832H474.268ZM478.66 406.936H481.66V429.04H478.66V406.936ZM492.626 408.664V411.88C492.626 415.984 494.378 420.016 498.122 421.624L496.322 424.192C493.778 423.04 492.074 420.856 491.09 418.144C490.106 421.096 488.306 423.472 485.666 424.72L483.77 422.104C487.634 420.448 489.458 416.176 489.458 411.88V408.664H492.626ZM499.202 406.936H502.37V429.112H499.202V406.936ZM506.424 409.216H516.84C516.84 415.84 514.32 421.528 506.976 425.248L505.2 422.824C510.336 420.184 513.072 416.68 513.648 411.784H506.424V409.216ZM525.816 415.384V418H522.72V429.016H519.552V406.936H522.72V415.384H525.816ZM545.046 417.04L543.51 419.512C541.086 418.72 539.43 417.136 538.494 415.168C537.51 417.328 535.782 419.104 533.214 419.944L531.606 417.448C535.158 416.248 536.766 413.44 536.814 410.704H532.47V408.184H544.35V410.704H540.054C540.102 413.224 541.638 415.888 545.046 417.04ZM535.134 423.616V421.096H550.206V429.088H547.038V423.616H535.134ZM547.038 406.984H550.206V420.112H547.038V414.784H543.774V412.24H547.038V406.984ZM561.628 411.688V412.912C561.628 416.512 563.404 420.328 567.1 421.864L565.372 424.36C562.804 423.256 561.052 421.096 560.068 418.432C559.084 421.312 557.308 423.736 554.716 424.912L552.916 422.392C556.612 420.736 558.412 416.68 558.412 412.912V411.688H553.804V409.072H566.188V411.688H561.628ZM568.228 406.96H571.396V429.064H568.228V406.96ZM582.61 413.2C582.61 414.808 583.81 415.768 585.442 415.768C587.074 415.768 588.274 414.808 588.274 413.2C588.274 411.568 587.074 410.608 585.442 410.608C583.81 410.608 582.61 411.568 582.61 413.2ZM591.322 413.2C591.322 416.2 588.802 418.36 585.442 418.36C582.082 418.36 579.562 416.2 579.562 413.2C579.562 410.176 582.082 408.016 585.442 408.016C588.802 408.016 591.322 410.176 591.322 413.2ZM584.41 419.968V425.92C585.586 425.824 586.738 425.632 587.842 425.272L588.274 427.768C586.45 428.392 584.722 428.512 582.562 428.512H581.338V419.968H584.41ZM593.026 426.952C593.89 426.952 594.49 426.64 594.49 425.968C594.49 425.32 593.89 425.008 593.026 425.008C592.186 425.008 591.562 425.32 591.562 425.968C591.562 426.64 592.186 426.952 593.026 426.952ZM593.026 422.872C595.546 422.872 597.298 424.072 597.298 425.968C597.298 427.888 595.546 429.088 593.026 429.088C590.506 429.088 588.754 427.888 588.754 425.968C588.754 424.072 590.506 422.872 593.026 422.872ZM594.586 418.48V420.04H598.546V422.32H587.482V420.04H591.514V418.48H594.586ZM596.77 411.52H599.698V414.136H596.77V417.832H593.602V406.96H596.77V411.52ZM610.736 409.6C607.544 409.6 606.032 410.056 606.032 411.04C606.032 412.072 607.544 412.504 610.736 412.504C613.952 412.504 615.464 412.072 615.464 411.04C615.464 410.056 613.952 409.6 610.736 409.6ZM610.736 414.808C605.696 414.808 602.744 413.488 602.744 411.04C602.744 408.616 605.696 407.272 610.736 407.272C615.8 407.272 618.752 408.616 618.752 411.04C618.752 413.488 615.8 414.808 610.736 414.808ZM606.2 425.272V426.52H618.872V428.896H603.056V423.088H615.176V421.912H603.032V419.584H618.296V425.272H606.2ZM600.752 415.864H620.72V418.336H600.752V415.864ZM622.638 409.216H628.614C628.614 415.312 628.062 420.064 624.126 424.432L621.654 422.632C624.582 419.392 625.446 416.2 625.614 411.76H622.638V409.216ZM629.382 409.216H634.71C634.71 415.6 634.206 421.048 630.342 425.824L627.846 424.072C630.774 420.376 631.566 416.68 631.734 411.76H629.382V409.216ZM642.534 415.6V418.216H639.678V429.04H636.486V406.936H639.678V415.6H642.534ZM646.372 421.576V417.832C647.652 417.784 648.62 417.544 649.276 417.112C649.948 416.664 650.284 415.976 650.284 415.048V414.712C650.284 414.04 650.084 413.52 649.684 413.152C649.284 412.784 648.748 412.6 648.076 412.6C647.356 412.6 646.772 412.816 646.324 413.248C645.892 413.664 645.588 414.208 645.412 414.88L642.844 413.824C642.988 413.328 643.196 412.848 643.468 412.384C643.74 411.92 644.092 411.512 644.524 411.16C644.956 410.792 645.476 410.504 646.084 410.296C646.692 410.072 647.396 409.96 648.196 409.96C649.012 409.96 649.748 410.08 650.404 410.32C651.06 410.544 651.62 410.872 652.084 411.304C652.548 411.72 652.908 412.224 653.164 412.816C653.42 413.408 653.548 414.064 653.548 414.784C653.548 415.488 653.428 416.12 653.188 416.68C652.964 417.224 652.652 417.704 652.252 418.12C651.852 418.52 651.396 418.848 650.884 419.104C650.372 419.344 649.844 419.512 649.3 419.608V421.576H646.372ZM647.86 427.288C647.188 427.288 646.7 427.128 646.396 426.808C646.092 426.488 645.94 426.08 645.94 425.584V425.104C645.94 424.608 646.092 424.2 646.396 423.88C646.7 423.56 647.188 423.4 647.86 423.4C648.548 423.4 649.044 423.56 649.348 423.88C649.652 424.2 649.804 424.608 649.804 425.104V425.584C649.804 426.08 649.652 426.488 649.348 426.808C649.044 427.128 648.548 427.288 647.86 427.288ZM202.016 447.424H212.48C212.48 453.328 208.928 456.664 202.184 457.936L200.96 455.416C206.312 454.528 208.64 452.368 208.952 449.944H202.016V447.424ZM207.104 464.2V465.52H218.984V467.8H203.96V458.392H218.528V460.696H207.104V461.992H218.288V464.2H207.104ZM218.432 450.472H221.36V453.088H218.432V457.504H215.264V445.936H218.432V450.472ZM237.534 445.936H240.702V468.112H237.534V445.936ZM228.822 447.496C232.158 447.496 234.63 450.52 234.63 455.368C234.63 460.24 232.158 463.288 228.822 463.288C225.486 463.288 223.014 460.24 223.014 455.368C223.014 450.52 225.486 447.496 228.822 447.496ZM228.822 450.352C227.19 450.352 226.062 452.104 226.062 455.368C226.062 458.656 227.19 460.408 228.822 460.408C230.454 460.408 231.582 458.656 231.582 455.368C231.582 452.104 230.454 450.352 228.822 450.352ZM256.836 447.664V450.88C256.836 454.864 258.396 458.872 261.948 460.624L260.028 463.12C257.724 461.944 256.164 459.808 255.252 457.168C254.292 459.976 252.636 462.304 250.14 463.528L248.244 460.96C251.964 459.208 253.644 454.984 253.644 450.88V447.664H256.836ZM269.22 454.456V457.096H266.004V468.064H262.836V445.96H266.004V454.456H269.22ZM273.73 456.616V460.48C275.434 460.432 277.114 460.312 279.058 460L279.322 462.568C276.706 463.024 274.546 463.096 272.122 463.096H270.658V454.12H275.05V450.592H270.634V448.072H278.098V456.616H273.73ZM281.482 451.384V446.296H284.434V467.032H281.482V459.4H279.154V456.856H281.482V453.928H279.154V451.384H281.482ZM286.018 445.936H289.018V468.064H286.018V445.936ZM305.864 449.56V448.48H293.864V446.344H308.984V451.552H297.032V452.704H309.368V454.84H293.912V449.56H305.864ZM296.84 464.536V465.736H309.656V467.872H293.696V462.544H305.912V461.416H293.672V459.28H309.056V464.536H296.84ZM291.416 455.896H311.432V458.176H291.416V455.896ZM321.926 450.448V460.192C325.094 460.168 327.374 460 329.894 459.568L330.206 462.136C327.23 462.688 324.59 462.784 320.558 462.784H318.758V447.928H328.766V450.448H321.926ZM333.11 445.96H336.278V468.136H333.11V456.136H327.71V453.592H333.11V445.96ZM357.26 455.8L355.844 458.248C353.324 457.576 351.62 456.232 350.612 454.504C349.628 456.424 347.876 457.936 345.332 458.632L343.868 456.16C347.348 455.224 348.908 452.92 348.98 450.568H344.66V448.072H348.98V445.888H352.148V448.072H356.516V450.568H352.148C352.22 452.728 353.756 454.936 357.26 455.8ZM361.724 461.992H356.156C356.756 463.576 358.868 465.16 362.684 465.616L361.532 468.016C358.028 467.584 355.58 466.168 354.332 464.296C353.06 466.168 350.612 467.536 347.084 467.992L345.956 465.592C349.82 465.16 351.908 463.624 352.46 461.992H346.916V459.496H361.724V461.992ZM361.436 450.904H364.364V453.52H361.436V458.536H358.268V445.96H361.436V450.904ZM371.323 460.408C372.955 460.408 374.083 458.656 374.083 455.368C374.083 452.104 372.955 450.352 371.323 450.352C369.667 450.352 368.563 452.104 368.563 455.368C368.563 458.656 369.667 460.408 371.323 460.408ZM371.323 447.496C374.659 447.496 377.131 450.52 377.131 455.368C377.131 460.24 374.659 463.288 371.323 463.288C367.963 463.288 365.515 460.24 365.515 455.368C365.515 450.52 367.963 447.496 371.323 447.496ZM385.915 454.288V456.904H382.699V468.064H379.531V445.96H382.699V454.288H385.915ZM397.153 464.344V465.544H409.825V467.896H394.009V462.16H406.129V461.056H393.985V458.728H409.249V464.344H397.153ZM397.393 450.064V451.36H406.009V450.064H397.393ZM403.225 455.104H411.697V457.576H391.705V455.104H400.057V453.688H394.249V446.296H397.393V447.76H406.009V446.296H409.153V453.688H403.225V455.104ZM416.735 456.664V460.576C418.751 460.528 420.671 460.408 422.879 460.072L423.119 462.64C420.287 463.096 417.887 463.168 415.223 463.168H413.663V454.168H418.943V450.64H413.639V448.096H421.991V456.664H416.735ZM429.023 445.936H432.023V468.04H429.023V456.832H427.031V467.008H424.079V446.344H427.031V454.288H429.023V445.936ZM437.325 460.576V456.832C438.605 456.784 439.573 456.544 440.229 456.112C440.901 455.664 441.237 454.976 441.237 454.048V453.712C441.237 453.04 441.037 452.52 440.637 452.152C440.237 451.784 439.701 451.6 439.029 451.6C438.309 451.6 437.725 451.816 437.277 452.248C436.845 452.664 436.541 453.208 436.365 453.88L433.797 452.824C433.941 452.328 434.149 451.848 434.421 451.384C434.693 450.92 435.045 450.512 435.477 450.16C435.909 449.792 436.429 449.504 437.037 449.296C437.645 449.072 438.349 448.96 439.149 448.96C439.965 448.96 440.701 449.08 441.357 449.32C442.013 449.544 442.573 449.872 443.037 450.304C443.501 450.72 443.861 451.224 444.117 451.816C444.373 452.408 444.501 453.064 444.501 453.784C444.501 454.488 444.381 455.12 444.141 455.68C443.917 456.224 443.605 456.704 443.205 457.12C442.805 457.52 442.349 457.848 441.837 458.104C441.325 458.344 440.797 458.512 440.253 458.608V460.576H437.325ZM438.813 466.288C438.141 466.288 437.653 466.128 437.349 465.808C437.045 465.488 436.893 465.08 436.893 464.584V464.104C436.893 463.608 437.045 463.2 437.349 462.88C437.653 462.56 438.141 462.4 438.813 462.4C439.501 462.4 439.997 462.56 440.301 462.88C440.605 463.2 440.757 463.608 440.757 464.104V464.584C440.757 465.08 440.605 465.488 440.301 465.808C439.997 466.128 439.501 466.288 438.813 466.288Z" fill="white"/>
</g>
<defs>
<filter id="filter0_d_141_2" x="0" y="0" width="750" height="515" filterUnits="userSpaceOnUse" color-interpolation-filters="sRGB">
<feFlood flood-opacity="0" result="BackgroundImageFix"/>
<feColorMatrix in="SourceAlpha" type="matrix" values="0 0 0 0 0 0 0 0 0 0 0 0 0 0 0 0 0 0 127 0" result="hardAlpha"/>
<feOffset/>
<feGaussianBlur stdDeviation="7.5"/>
<feComposite in2="hardAlpha" operator="out"/>
<feColorMatrix type="matrix" values="0 0 0 0 0 0 0 0 0 0 0 0 0 0 0 0 0 0 0.25 0"/>
<feBlend mode="normal" in2="BackgroundImageFix" result="effect1_dropShadow_141_2"/>
<feBlend mode="normal" in="SourceGraphic" in2="effect1_dropShadow_141_2" result="shape"/>
</filter>
</defs>
</svg>
